G75*
G70*
%OFA0B0*%
%FSLAX24Y24*%
%IPPOS*%
%LPD*%
%AMOC8*
5,1,8,0,0,1.08239X$1,22.5*
%
%ADD10C,0.0060*%
%ADD11C,0.0600*%
%ADD12C,0.0680*%
%ADD13R,3.2000X0.3000*%
%ADD14C,0.2580*%
%ADD15C,0.0476*%
%ADD16C,0.0840*%
%ADD17C,0.0437*%
D10*
X004461Y041254D02*
X005156Y041884D01*
X004788Y042535D01*
X005196Y042535D01*
X005418Y042129D01*
X005859Y042535D01*
X006247Y042535D01*
X005548Y041894D01*
X005920Y041254D01*
X005508Y041254D01*
X005286Y041660D01*
X004849Y041254D01*
X004461Y041254D01*
X004513Y041301D02*
X004899Y041301D01*
X004962Y041359D02*
X004577Y041359D01*
X004642Y041418D02*
X005025Y041418D01*
X005088Y041476D02*
X004706Y041476D01*
X004771Y041535D02*
X005151Y041535D01*
X005214Y041593D02*
X004835Y041593D01*
X004900Y041652D02*
X005277Y041652D01*
X005290Y041652D02*
X005689Y041652D01*
X005655Y041710D02*
X004964Y041710D01*
X005029Y041769D02*
X005621Y041769D01*
X005587Y041827D02*
X005093Y041827D01*
X005155Y041886D02*
X005553Y041886D01*
X005602Y041944D02*
X005122Y041944D01*
X005089Y042003D02*
X005666Y042003D01*
X005730Y042061D02*
X005056Y042061D01*
X005023Y042120D02*
X005794Y042120D01*
X005858Y042178D02*
X005472Y042178D01*
X005391Y042178D02*
X004990Y042178D01*
X004957Y042237D02*
X005359Y042237D01*
X005327Y042295D02*
X004924Y042295D01*
X004890Y042354D02*
X005295Y042354D01*
X005263Y042412D02*
X004857Y042412D01*
X004824Y042471D02*
X005231Y042471D01*
X005199Y042529D02*
X004791Y042529D01*
X005535Y042237D02*
X005922Y042237D01*
X005985Y042295D02*
X005599Y042295D01*
X005662Y042354D02*
X006049Y042354D01*
X006113Y042412D02*
X005726Y042412D01*
X005789Y042471D02*
X006177Y042471D01*
X006241Y042529D02*
X005853Y042529D01*
X006435Y042354D02*
X008350Y042354D01*
X008350Y042370D02*
X008350Y042296D01*
X008339Y042222D01*
X008087Y041254D01*
X007742Y041254D01*
X008007Y042264D01*
X007557Y042264D01*
X007296Y041254D01*
X006946Y041254D01*
X007211Y042264D01*
X006761Y042264D01*
X006500Y041254D01*
X006151Y041254D01*
X006482Y042535D01*
X008168Y042535D01*
X008204Y042534D01*
X008239Y042525D01*
X008272Y042508D01*
X008300Y042485D01*
X008325Y042451D01*
X008342Y042412D01*
X008350Y042370D01*
X008342Y042412D02*
X006450Y042412D01*
X006465Y042471D02*
X008310Y042471D01*
X008221Y042529D02*
X006480Y042529D01*
X006420Y042295D02*
X008350Y042295D01*
X008341Y042237D02*
X008000Y042237D01*
X007985Y042178D02*
X008327Y042178D01*
X008312Y042120D02*
X007969Y042120D01*
X007954Y042061D02*
X008297Y042061D01*
X008282Y042003D02*
X007938Y042003D01*
X007923Y041944D02*
X008267Y041944D01*
X008251Y041886D02*
X007908Y041886D01*
X007892Y041827D02*
X008236Y041827D01*
X008221Y041769D02*
X007877Y041769D01*
X007862Y041710D02*
X008206Y041710D01*
X008191Y041652D02*
X007846Y041652D01*
X007831Y041593D02*
X008176Y041593D01*
X008160Y041535D02*
X007816Y041535D01*
X007800Y041476D02*
X008145Y041476D01*
X008130Y041418D02*
X007785Y041418D01*
X007770Y041359D02*
X008115Y041359D01*
X008100Y041301D02*
X007754Y041301D01*
X007338Y041418D02*
X006989Y041418D01*
X007005Y041476D02*
X007353Y041476D01*
X007368Y041535D02*
X007020Y041535D01*
X007035Y041593D02*
X007384Y041593D01*
X007399Y041652D02*
X007051Y041652D01*
X007066Y041710D02*
X007414Y041710D01*
X007429Y041769D02*
X007081Y041769D01*
X007097Y041827D02*
X007444Y041827D01*
X007459Y041886D02*
X007112Y041886D01*
X007128Y041944D02*
X007474Y041944D01*
X007490Y042003D02*
X007143Y042003D01*
X007158Y042061D02*
X007505Y042061D01*
X007520Y042120D02*
X007174Y042120D01*
X007189Y042178D02*
X007535Y042178D01*
X007550Y042237D02*
X007204Y042237D01*
X006754Y042237D02*
X006405Y042237D01*
X006389Y042178D02*
X006739Y042178D01*
X006724Y042120D02*
X006374Y042120D01*
X006359Y042061D02*
X006709Y042061D01*
X006694Y042003D02*
X006344Y042003D01*
X006329Y041944D02*
X006679Y041944D01*
X006664Y041886D02*
X006314Y041886D01*
X006299Y041827D02*
X006649Y041827D01*
X006633Y041769D02*
X006284Y041769D01*
X006269Y041710D02*
X006618Y041710D01*
X006603Y041652D02*
X006253Y041652D01*
X006238Y041593D02*
X006588Y041593D01*
X006573Y041535D02*
X006223Y041535D01*
X006208Y041476D02*
X006558Y041476D01*
X006543Y041418D02*
X006193Y041418D01*
X006178Y041359D02*
X006527Y041359D01*
X006512Y041301D02*
X006163Y041301D01*
X005893Y041301D02*
X005482Y041301D01*
X005450Y041359D02*
X005859Y041359D01*
X005825Y041418D02*
X005418Y041418D01*
X005386Y041476D02*
X005791Y041476D01*
X005757Y041535D02*
X005354Y041535D01*
X005322Y041593D02*
X005723Y041593D01*
X006959Y041301D02*
X007308Y041301D01*
X007323Y041359D02*
X006974Y041359D01*
X008339Y041254D02*
X008670Y042535D01*
X009015Y042535D01*
X008684Y041254D01*
X008339Y041254D01*
X008351Y041301D02*
X008696Y041301D01*
X008711Y041359D02*
X008366Y041359D01*
X008381Y041418D02*
X008726Y041418D01*
X008742Y041476D02*
X008396Y041476D01*
X008411Y041535D02*
X008757Y041535D01*
X008772Y041593D02*
X008426Y041593D01*
X008441Y041652D02*
X008787Y041652D01*
X008802Y041710D02*
X008456Y041710D01*
X008472Y041769D02*
X008817Y041769D01*
X008832Y041827D02*
X008487Y041827D01*
X008502Y041886D02*
X008847Y041886D01*
X008862Y041944D02*
X008517Y041944D01*
X008532Y042003D02*
X008878Y042003D01*
X008893Y042061D02*
X008547Y042061D01*
X008562Y042120D02*
X008908Y042120D01*
X008923Y042178D02*
X008577Y042178D01*
X008592Y042237D02*
X008938Y042237D01*
X008953Y042295D02*
X008608Y042295D01*
X008623Y042354D02*
X008968Y042354D01*
X008983Y042412D02*
X008638Y042412D01*
X008653Y042471D02*
X008998Y042471D01*
X009014Y042529D02*
X008668Y042529D01*
X009203Y042273D02*
X009235Y042335D01*
X009276Y042393D01*
X009325Y042444D01*
X009369Y042482D01*
X009419Y042511D01*
X009474Y042531D01*
X009502Y042535D01*
X009529Y042535D01*
X010790Y042535D01*
X010724Y042264D01*
X009546Y042264D01*
X009357Y041525D01*
X010528Y041525D01*
X010463Y041254D01*
X009168Y041254D01*
X009139Y041256D01*
X009111Y041265D01*
X009086Y041279D01*
X009063Y041298D01*
X009036Y041335D01*
X009017Y041377D01*
X009007Y041422D01*
X009005Y041474D01*
X009011Y041525D01*
X009023Y041586D01*
X009180Y042206D01*
X009203Y042273D01*
X009215Y042295D02*
X010731Y042295D01*
X010746Y042354D02*
X009248Y042354D01*
X009295Y042412D02*
X010760Y042412D01*
X010774Y042471D02*
X009356Y042471D01*
X009468Y042529D02*
X010788Y042529D01*
X011028Y042471D02*
X011110Y042471D01*
X012438Y042471D01*
X012428Y042482D02*
X012453Y042454D01*
X012474Y042423D01*
X012488Y042389D01*
X012496Y042353D01*
X012495Y042288D01*
X012484Y042224D01*
X012441Y042063D01*
X012429Y042024D01*
X012410Y041988D01*
X012354Y041905D01*
X012286Y041831D01*
X012228Y041786D01*
X012163Y041753D01*
X012095Y041737D01*
X012026Y041729D01*
X012198Y041254D01*
X011852Y041254D01*
X011680Y041733D01*
X011180Y041733D01*
X011055Y041254D01*
X010710Y041254D01*
X011045Y042535D01*
X012288Y042535D01*
X012326Y042532D01*
X012363Y042522D01*
X012397Y042505D01*
X012428Y042482D01*
X012478Y042412D02*
X011170Y042412D01*
X011012Y042412D01*
X010997Y042354D02*
X011229Y042354D01*
X012496Y042354D01*
X012496Y042295D02*
X011288Y042295D01*
X010982Y042295D01*
X010967Y042237D02*
X011314Y042237D01*
X011320Y042264D02*
X011045Y042535D01*
X011320Y042264D01*
X012150Y042264D01*
X012082Y041985D01*
X011252Y041985D01*
X011320Y042264D01*
X011299Y042178D02*
X010951Y042178D01*
X010936Y042120D02*
X011285Y042120D01*
X011271Y042061D02*
X010921Y042061D01*
X010905Y042003D02*
X011256Y042003D01*
X011174Y041710D02*
X010829Y041710D01*
X010814Y041652D02*
X011159Y041652D01*
X011144Y041593D02*
X010798Y041593D01*
X010783Y041535D02*
X011128Y041535D01*
X011113Y041476D02*
X010768Y041476D01*
X010753Y041418D02*
X011098Y041418D01*
X011083Y041359D02*
X010737Y041359D01*
X010722Y041301D02*
X011068Y041301D01*
X010844Y041769D02*
X012194Y041769D01*
X012281Y041827D02*
X010860Y041827D01*
X010875Y041886D02*
X012337Y041886D01*
X012381Y041944D02*
X010890Y041944D01*
X010516Y041476D02*
X009005Y041476D01*
X009008Y041418D02*
X010502Y041418D01*
X010488Y041359D02*
X009025Y041359D01*
X009062Y041301D02*
X010474Y041301D01*
X011689Y041710D02*
X012033Y041710D01*
X012054Y041652D02*
X011709Y041652D01*
X011730Y041593D02*
X012075Y041593D01*
X012096Y041535D02*
X011751Y041535D01*
X011772Y041476D02*
X012117Y041476D01*
X012138Y041418D02*
X011793Y041418D01*
X011814Y041359D02*
X012159Y041359D01*
X012180Y041301D02*
X011835Y041301D01*
X012562Y041400D02*
X012576Y041358D01*
X012586Y041332D01*
X012603Y041309D01*
X012623Y041289D01*
X012647Y041273D01*
X012673Y041261D01*
X012701Y041256D01*
X012729Y041254D01*
X013743Y041254D01*
X013784Y041255D01*
X013824Y041263D01*
X013863Y041280D01*
X013898Y041302D01*
X013947Y041341D01*
X013990Y041386D01*
X014033Y041442D01*
X014067Y041504D01*
X014091Y041571D01*
X014263Y042230D01*
X014271Y042284D01*
X014271Y042339D01*
X014266Y042384D01*
X014253Y042428D01*
X014235Y042462D01*
X014210Y042492D01*
X014178Y042514D01*
X014142Y042529D01*
X014104Y042535D01*
X013115Y042535D01*
X013095Y042264D01*
X013115Y042535D01*
X013072Y042535D01*
X013018Y042527D01*
X012966Y042509D01*
X012919Y042481D01*
X012857Y042423D01*
X012806Y042356D01*
X012765Y042284D01*
X012735Y042206D01*
X012568Y041577D01*
X012560Y041538D01*
X012556Y041444D01*
X012562Y041400D01*
X012560Y041418D02*
X014014Y041418D01*
X014051Y041476D02*
X012557Y041476D01*
X012560Y041535D02*
X012902Y041535D01*
X012900Y041525D02*
X013732Y041525D01*
X013927Y042264D01*
X013095Y042264D01*
X012900Y041525D01*
X012918Y041593D02*
X012572Y041593D01*
X012588Y041652D02*
X012933Y041652D01*
X012949Y041710D02*
X012603Y041710D01*
X012619Y041769D02*
X012964Y041769D01*
X012979Y041827D02*
X012635Y041827D01*
X012650Y041886D02*
X012995Y041886D01*
X013010Y041944D02*
X012666Y041944D01*
X012681Y042003D02*
X013026Y042003D01*
X013041Y042061D02*
X012697Y042061D01*
X012712Y042120D02*
X013057Y042120D01*
X013072Y042178D02*
X012728Y042178D01*
X012747Y042237D02*
X013088Y042237D01*
X013097Y042295D02*
X014271Y042295D01*
X014269Y042354D02*
X013102Y042354D01*
X012804Y042354D01*
X012771Y042295D02*
X013097Y042295D01*
X013106Y042412D02*
X014258Y042412D01*
X014228Y042471D02*
X013110Y042471D01*
X012908Y042471D01*
X012849Y042412D02*
X013106Y042412D01*
X013115Y042529D02*
X014141Y042529D01*
X014264Y042237D02*
X013920Y042237D01*
X013905Y042178D02*
X014249Y042178D01*
X014234Y042120D02*
X013889Y042120D01*
X013874Y042061D02*
X014219Y042061D01*
X014204Y042003D02*
X013858Y042003D01*
X013843Y041944D02*
X014188Y041944D01*
X014173Y041886D02*
X013827Y041886D01*
X013812Y041827D02*
X014158Y041827D01*
X014143Y041769D02*
X013796Y041769D01*
X013781Y041710D02*
X014128Y041710D01*
X014112Y041652D02*
X013765Y041652D01*
X013750Y041593D02*
X014097Y041593D01*
X014078Y041535D02*
X013734Y041535D01*
X013896Y041301D02*
X012611Y041301D01*
X012575Y041359D02*
X013964Y041359D01*
X012418Y042003D02*
X012086Y042003D01*
X012101Y042061D02*
X012441Y042061D01*
X012457Y042120D02*
X012115Y042120D01*
X012129Y042178D02*
X012472Y042178D01*
X012487Y042237D02*
X012144Y042237D01*
X012338Y042529D02*
X011051Y042529D01*
X011043Y042529D01*
X009539Y042237D02*
X009191Y042237D01*
X009173Y042178D02*
X009524Y042178D01*
X009509Y042120D02*
X009158Y042120D01*
X009144Y042061D02*
X009494Y042061D01*
X009479Y042003D02*
X009129Y042003D01*
X009114Y041944D02*
X009464Y041944D01*
X009449Y041886D02*
X009099Y041886D01*
X009084Y041827D02*
X009434Y041827D01*
X009419Y041769D02*
X009069Y041769D01*
X009054Y041710D02*
X009404Y041710D01*
X009389Y041652D02*
X009039Y041652D01*
X009024Y041593D02*
X009374Y041593D01*
X009359Y041535D02*
X009013Y041535D01*
X013033Y042529D02*
X013115Y042529D01*
D11*
X013180Y038100D03*
X012180Y038100D03*
X011180Y038100D03*
X010180Y038100D03*
X009180Y038100D03*
X007680Y037100D03*
X007680Y036100D03*
X009180Y035100D03*
X010180Y035100D03*
X011180Y035100D03*
X012180Y035100D03*
X013180Y035100D03*
X014180Y035100D03*
X015180Y035100D03*
X019180Y036100D03*
X019180Y037100D03*
X020680Y038100D03*
X021680Y038100D03*
X022680Y038100D03*
X023680Y038100D03*
X024680Y038100D03*
X025680Y038100D03*
X026680Y038100D03*
X030680Y037600D03*
X030680Y036600D03*
X030680Y035600D03*
X030680Y034600D03*
X030680Y033600D03*
X030680Y032600D03*
X030680Y031600D03*
X030680Y030600D03*
X030680Y029600D03*
X033680Y029600D03*
X033680Y030600D03*
X033680Y031600D03*
X033680Y032600D03*
X033680Y033600D03*
X033680Y034600D03*
X033680Y035600D03*
X033680Y036600D03*
X033680Y037600D03*
X033680Y038600D03*
X032680Y040100D03*
X031680Y040100D03*
X030680Y038600D03*
X035680Y038600D03*
X035680Y037600D03*
X035680Y036600D03*
X035680Y035600D03*
X035680Y034600D03*
X035680Y033600D03*
X035680Y032600D03*
X035680Y031600D03*
X035680Y030600D03*
X035680Y029600D03*
X038680Y029600D03*
X038680Y030600D03*
X040680Y030600D03*
X040680Y029600D03*
X043680Y029600D03*
X043680Y030600D03*
X045680Y030600D03*
X045680Y029600D03*
X048680Y029600D03*
X048680Y030600D03*
X048680Y031600D03*
X048680Y032600D03*
X048680Y033600D03*
X048680Y034600D03*
X048680Y035600D03*
X048680Y036600D03*
X048680Y037600D03*
X048680Y038600D03*
X047680Y040100D03*
X046680Y040100D03*
X045680Y038600D03*
X043680Y038600D03*
X043680Y037600D03*
X043680Y036600D03*
X043680Y035600D03*
X045680Y035600D03*
X045680Y036600D03*
X045680Y037600D03*
X042680Y040100D03*
X041680Y040100D03*
X040680Y038600D03*
X038680Y038600D03*
X038680Y037600D03*
X038680Y036600D03*
X038680Y035600D03*
X040680Y035600D03*
X040680Y036600D03*
X040680Y037600D03*
X037680Y040100D03*
X036680Y040100D03*
X026680Y035100D03*
X025680Y035100D03*
X024680Y035100D03*
X023680Y035100D03*
X022680Y035100D03*
X021680Y035100D03*
X020680Y035100D03*
X020680Y032600D03*
X021680Y032600D03*
X022680Y032600D03*
X023680Y032600D03*
X024680Y032600D03*
X025680Y032600D03*
X026680Y032600D03*
X026680Y029600D03*
X025680Y029600D03*
X024680Y029600D03*
X023680Y029600D03*
X022680Y029600D03*
X021680Y029600D03*
X020680Y029600D03*
X019180Y030600D03*
X019180Y031600D03*
X015180Y032600D03*
X014180Y032600D03*
X013180Y032600D03*
X012180Y032600D03*
X011180Y032600D03*
X010180Y032600D03*
X009180Y032600D03*
X007680Y031600D03*
X005680Y031975D03*
X004680Y031975D03*
X005180Y032850D03*
X004680Y033600D03*
X005680Y033600D03*
X005180Y036100D03*
X005180Y037100D03*
X014180Y038100D03*
X015180Y038100D03*
X007680Y030600D03*
X009180Y029600D03*
X010180Y029600D03*
X011180Y029600D03*
X012180Y029600D03*
X013180Y029600D03*
X014180Y029600D03*
X015180Y029600D03*
X012180Y028350D03*
X012180Y027100D03*
X013180Y027100D03*
X014180Y027100D03*
X015180Y027100D03*
X016180Y027100D03*
X019180Y026100D03*
X020680Y027100D03*
X021680Y027100D03*
X022680Y027100D03*
X023680Y027100D03*
X024680Y027100D03*
X025680Y027100D03*
X026680Y027100D03*
X027680Y027100D03*
X028680Y027100D03*
X029680Y027100D03*
X033430Y026100D03*
X034430Y026100D03*
X034180Y024350D03*
X037180Y024350D03*
X039680Y025850D03*
X040680Y025850D03*
X041680Y025850D03*
X042680Y025850D03*
X043680Y025850D03*
X044680Y025850D03*
X045680Y025850D03*
X046680Y025850D03*
X047680Y025850D03*
X048680Y025850D03*
X049680Y025850D03*
X050680Y025850D03*
X051680Y025850D03*
X052680Y025850D03*
X053680Y025850D03*
X054680Y025850D03*
X055680Y025850D03*
X056680Y025850D03*
X057680Y025850D03*
X058680Y025850D03*
X065680Y025600D03*
X065680Y026600D03*
X065680Y027600D03*
X065680Y028600D03*
X066680Y030100D03*
X067680Y030100D03*
X068680Y028600D03*
X068680Y027600D03*
X068680Y026600D03*
X068680Y025600D03*
X070680Y025600D03*
X070680Y026600D03*
X071680Y028100D03*
X072680Y028100D03*
X073680Y026600D03*
X073680Y025600D03*
X073680Y024600D03*
X073680Y023600D03*
X073680Y022600D03*
X073680Y021600D03*
X073680Y020600D03*
X073680Y019600D03*
X075680Y019600D03*
X075680Y020600D03*
X075680Y021600D03*
X075680Y022600D03*
X075680Y023600D03*
X075680Y024600D03*
X075680Y025600D03*
X075680Y026600D03*
X076680Y028100D03*
X077680Y028100D03*
X078680Y026600D03*
X078680Y025600D03*
X078680Y024600D03*
X078680Y023600D03*
X078680Y022600D03*
X078680Y021600D03*
X078680Y020600D03*
X078680Y019600D03*
X077680Y016100D03*
X076680Y016100D03*
X075680Y014600D03*
X075680Y013600D03*
X075680Y012600D03*
X075680Y011600D03*
X075680Y010600D03*
X075680Y009600D03*
X075680Y008600D03*
X073680Y008600D03*
X073680Y009600D03*
X073680Y010600D03*
X073680Y011600D03*
X073680Y012600D03*
X073680Y013600D03*
X073680Y014600D03*
X072680Y016100D03*
X071680Y016100D03*
X070680Y017600D03*
X069680Y017600D03*
X068680Y017600D03*
X068680Y016600D03*
X068680Y015600D03*
X068680Y014600D03*
X068680Y013600D03*
X068680Y012600D03*
X070680Y012600D03*
X070680Y013600D03*
X070680Y014600D03*
X065680Y014600D03*
X065680Y013600D03*
X065680Y012600D03*
X065680Y011600D03*
X065680Y010600D03*
X065680Y009600D03*
X065680Y008600D03*
X068680Y008600D03*
X070680Y008600D03*
X070680Y009600D03*
X070680Y010600D03*
X070680Y011600D03*
X068680Y011600D03*
X068680Y010600D03*
X068680Y009600D03*
X078680Y009600D03*
X078680Y010600D03*
X078680Y011600D03*
X078680Y012600D03*
X078680Y013600D03*
X078680Y014600D03*
X070680Y019600D03*
X070680Y020600D03*
X070680Y021600D03*
X068680Y021600D03*
X068680Y020600D03*
X068680Y019600D03*
X065680Y019600D03*
X065680Y020600D03*
X065680Y021600D03*
X065680Y022600D03*
X065680Y023600D03*
X065680Y024600D03*
X068680Y024600D03*
X068680Y023600D03*
X068680Y022600D03*
X070680Y022600D03*
X070680Y023600D03*
X070680Y024600D03*
X058680Y019850D03*
X057680Y019850D03*
X056680Y019850D03*
X055680Y019850D03*
X054680Y019850D03*
X053680Y019850D03*
X052680Y019850D03*
X051680Y019850D03*
X050680Y019850D03*
X049680Y019850D03*
X048680Y019850D03*
X047680Y019850D03*
X046680Y019850D03*
X045680Y019850D03*
X044680Y019850D03*
X043680Y019850D03*
X042680Y019850D03*
X041680Y019850D03*
X040680Y019850D03*
X039680Y019850D03*
X039680Y018850D03*
X043680Y018850D03*
X044680Y018850D03*
X045680Y018850D03*
X045680Y016100D03*
X044680Y016100D03*
X043680Y016100D03*
X042680Y016100D03*
X041680Y016100D03*
X040680Y016100D03*
X039680Y016100D03*
X038680Y016100D03*
X037680Y016100D03*
X036680Y016100D03*
X035680Y016100D03*
X034680Y016100D03*
X036680Y013100D03*
X037680Y013100D03*
X038680Y013100D03*
X039680Y013100D03*
X040680Y013100D03*
X041680Y013100D03*
X042680Y013100D03*
X043680Y013100D03*
X044680Y013100D03*
X045680Y013100D03*
X049680Y013100D03*
X050680Y013100D03*
X051680Y013100D03*
X052680Y013100D03*
X053680Y013100D03*
X054680Y013100D03*
X055680Y013100D03*
X056680Y013100D03*
X057680Y013100D03*
X058680Y013100D03*
X058680Y016100D03*
X057680Y016100D03*
X056680Y016100D03*
X055680Y016100D03*
X054680Y016100D03*
X053680Y016100D03*
X052680Y016100D03*
X051680Y016100D03*
X050680Y016100D03*
X049680Y016100D03*
X048680Y016100D03*
X047680Y016100D03*
X037180Y021350D03*
X034180Y021350D03*
X029680Y021600D03*
X028680Y021600D03*
X027680Y021600D03*
X026680Y021600D03*
X025680Y021600D03*
X024680Y021600D03*
X023680Y021600D03*
X022680Y021600D03*
X021680Y021600D03*
X020680Y021600D03*
X019180Y020600D03*
X019180Y019600D03*
X020680Y018600D03*
X021680Y018600D03*
X022680Y018600D03*
X023680Y018600D03*
X024680Y018600D03*
X025680Y018600D03*
X026680Y018600D03*
X027680Y018600D03*
X028680Y018600D03*
X029680Y018600D03*
X029680Y016100D03*
X028680Y016100D03*
X027680Y016100D03*
X026680Y016100D03*
X025680Y016100D03*
X024680Y016100D03*
X023680Y016100D03*
X022680Y016100D03*
X021680Y016100D03*
X020680Y016100D03*
X019180Y015100D03*
X019180Y014100D03*
X020680Y013100D03*
X021680Y013100D03*
X022680Y013100D03*
X023680Y013100D03*
X024680Y013100D03*
X025680Y013100D03*
X026680Y013100D03*
X027680Y013100D03*
X028680Y013100D03*
X029680Y013100D03*
X027680Y010600D03*
X026680Y010600D03*
X025680Y010600D03*
X024680Y010600D03*
X023680Y010600D03*
X022680Y010600D03*
X021680Y010600D03*
X020680Y010600D03*
X019180Y009600D03*
X017180Y010600D03*
X019180Y008600D03*
X020680Y007600D03*
X021680Y007600D03*
X022680Y007600D03*
X023680Y007600D03*
X024680Y007600D03*
X025680Y007600D03*
X026680Y007600D03*
X027680Y007600D03*
X017180Y014600D03*
X016180Y018600D03*
X015180Y018600D03*
X014180Y018600D03*
X013180Y018600D03*
X012180Y018600D03*
X011180Y018600D03*
X010180Y018600D03*
X009180Y018600D03*
X007680Y019600D03*
X007680Y020600D03*
X009180Y021600D03*
X010180Y021600D03*
X011180Y021600D03*
X012180Y021600D03*
X013180Y021600D03*
X014180Y021600D03*
X015180Y021600D03*
X016180Y021600D03*
X016180Y024100D03*
X015180Y024100D03*
X014180Y024100D03*
X013180Y024100D03*
X012180Y024100D03*
X011180Y024100D03*
X010180Y024100D03*
X009180Y024100D03*
X007680Y025100D03*
X007680Y026100D03*
X009180Y027100D03*
X010180Y027100D03*
X011180Y027100D03*
X008180Y028350D03*
X005680Y027975D03*
X004680Y027975D03*
X019180Y025100D03*
X020680Y024100D03*
X021680Y024100D03*
X022680Y024100D03*
X023680Y024100D03*
X024680Y024100D03*
X025680Y024100D03*
X026680Y024100D03*
X027680Y024100D03*
X028680Y024100D03*
X029680Y024100D03*
X038680Y031600D03*
X038680Y032600D03*
X038680Y033600D03*
X038680Y034600D03*
X040680Y034600D03*
X040680Y033600D03*
X040680Y032600D03*
X040680Y031600D03*
X043680Y031600D03*
X043680Y032600D03*
X043680Y033600D03*
X043680Y034600D03*
X045680Y034600D03*
X045680Y033600D03*
X045680Y032600D03*
X045680Y031600D03*
X050680Y031600D03*
X050680Y032600D03*
X050680Y033600D03*
X050680Y034600D03*
X050680Y035600D03*
X050680Y036600D03*
X050680Y037600D03*
X050680Y038600D03*
X051680Y040100D03*
X052680Y040100D03*
X053680Y038600D03*
X053680Y037600D03*
X053680Y036600D03*
X053680Y035600D03*
X053680Y034600D03*
X053680Y033600D03*
X053680Y032600D03*
X053680Y031600D03*
X053680Y030600D03*
X053680Y029600D03*
X055680Y029600D03*
X055680Y030600D03*
X055680Y031600D03*
X055680Y032600D03*
X055680Y033600D03*
X055680Y034600D03*
X055680Y035600D03*
X055680Y036600D03*
X055680Y037600D03*
X055680Y038600D03*
X056680Y040100D03*
X057680Y040100D03*
X058680Y038600D03*
X058680Y037600D03*
X058680Y036600D03*
X058680Y035600D03*
X058680Y034600D03*
X058680Y033600D03*
X058680Y032600D03*
X058680Y031600D03*
X058680Y030600D03*
X058680Y029600D03*
X065680Y032600D03*
X065680Y033600D03*
X065680Y034600D03*
X065680Y035600D03*
X065680Y036600D03*
X065680Y037600D03*
X065680Y038600D03*
X066680Y040100D03*
X067680Y040100D03*
X068680Y038600D03*
X070680Y038600D03*
X070680Y037600D03*
X070680Y036600D03*
X070680Y035600D03*
X068680Y035600D03*
X068680Y036600D03*
X068680Y037600D03*
X071680Y040100D03*
X072680Y040100D03*
X074680Y041100D03*
X076680Y039100D03*
X077680Y039100D03*
X078680Y037600D03*
X078680Y036600D03*
X078680Y035600D03*
X078680Y034600D03*
X078680Y033600D03*
X078680Y032600D03*
X078680Y031600D03*
X075680Y031600D03*
X075680Y032600D03*
X075680Y033600D03*
X075680Y034600D03*
X075680Y035600D03*
X075680Y036600D03*
X075680Y037600D03*
X074680Y037100D03*
X073680Y036600D03*
X073680Y035600D03*
X073680Y034600D03*
X073680Y033600D03*
X073680Y032600D03*
X070680Y032600D03*
X070680Y033600D03*
X070680Y034600D03*
X068680Y034600D03*
X068680Y033600D03*
X068680Y032600D03*
X073680Y037600D03*
X073680Y038600D03*
X050680Y030600D03*
X050680Y029600D03*
X065680Y017600D03*
X065680Y016600D03*
X065680Y015600D03*
X078680Y008600D03*
D12*
X061680Y014100D03*
X061680Y015100D03*
X037680Y026100D03*
X036680Y026100D03*
X035680Y026100D03*
X035680Y027100D03*
X036680Y027100D03*
X037680Y027100D03*
X028680Y036100D03*
X028680Y037100D03*
X017180Y009600D03*
X017180Y008600D03*
D13*
X060180Y001600D03*
D14*
X002180Y005100D03*
X002180Y041100D03*
X078180Y041100D03*
X078180Y005100D03*
D15*
X075555Y005100D03*
X075180Y004725D03*
X074180Y003975D03*
X073180Y003975D03*
X072180Y003975D03*
X071180Y003975D03*
X070680Y003725D03*
X070180Y004350D03*
X068680Y003725D03*
X067680Y003725D03*
X066680Y003725D03*
X065680Y003725D03*
X064680Y003725D03*
X063680Y003725D03*
X062680Y003725D03*
X061680Y003725D03*
X060680Y003725D03*
X059680Y003725D03*
X058680Y003725D03*
X057680Y003725D03*
X056680Y003725D03*
X055680Y003725D03*
X054680Y003725D03*
X053680Y003725D03*
X052680Y003725D03*
X051680Y003725D03*
X049680Y003725D03*
X048680Y003725D03*
X047930Y003725D03*
X047555Y003725D03*
X047180Y003725D03*
X046180Y003725D03*
X045930Y004100D03*
X045680Y003725D03*
X050180Y006100D03*
X050555Y006475D03*
X050680Y005725D03*
X049930Y007225D03*
X050430Y007475D03*
X050930Y007725D03*
X051430Y007975D03*
X051930Y008225D03*
X052430Y008475D03*
X052930Y008725D03*
X053430Y008975D03*
X053930Y009225D03*
X054430Y009475D03*
X054930Y009725D03*
X055430Y009975D03*
X055930Y010225D03*
X057430Y011475D03*
X057930Y011600D03*
X058430Y011725D03*
X058930Y011850D03*
X059555Y011100D03*
X059305Y010850D03*
X062930Y012600D03*
X063305Y012100D03*
X064055Y012100D03*
X063680Y011100D03*
X066680Y011100D03*
X062555Y013600D03*
X064430Y014600D03*
X064805Y015600D03*
X062180Y016600D03*
X060180Y017975D03*
X060180Y018350D03*
X059555Y019600D03*
X059555Y019975D03*
X058180Y021350D03*
X057180Y021725D03*
X061805Y023600D03*
X062180Y022600D03*
X063305Y022600D03*
X062555Y021100D03*
X062930Y020600D03*
X064930Y018350D03*
X065305Y018350D03*
X069680Y014600D03*
X077430Y009100D03*
X065180Y005600D03*
X064680Y005850D03*
X064180Y006100D03*
X063680Y006350D03*
X054180Y011475D03*
X053180Y011475D03*
X052180Y011475D03*
X051180Y011475D03*
X044680Y010350D03*
X043180Y010725D03*
X042680Y009975D03*
X041180Y010725D03*
X040680Y009975D03*
X039180Y010725D03*
X038680Y009975D03*
X037180Y010725D03*
X033305Y010475D03*
X032930Y011225D03*
X031805Y010850D03*
X031430Y011600D03*
X032930Y012725D03*
X033305Y014100D03*
X033930Y013975D03*
X029180Y014725D03*
X028180Y014725D03*
X025680Y014975D03*
X018180Y015975D03*
X015180Y017600D03*
X014180Y017225D03*
X017305Y018350D03*
X019180Y021475D03*
X015680Y022475D03*
X012680Y022850D03*
X021180Y025975D03*
X024305Y026225D03*
X021680Y028225D03*
X016680Y028600D03*
X011680Y030600D03*
X017180Y033975D03*
X016680Y036600D03*
X017680Y037600D03*
X023305Y039725D03*
X024680Y040100D03*
X030680Y040600D03*
X032180Y037600D03*
X036930Y038100D03*
X031680Y034600D03*
X029180Y033100D03*
X028680Y032600D03*
X028180Y034350D03*
X029180Y030100D03*
X031555Y027475D03*
X031180Y026600D03*
X028680Y025850D03*
X031555Y023850D03*
X031180Y023350D03*
X031055Y020975D03*
X038180Y018600D03*
X040180Y021850D03*
X039680Y023350D03*
X040680Y023725D03*
X044680Y022225D03*
X045180Y021475D03*
X045680Y023350D03*
X038680Y026350D03*
X039180Y028100D03*
X043555Y028100D03*
X044930Y028100D03*
X044680Y027100D03*
X060055Y028350D03*
X063430Y029975D03*
X063055Y031100D03*
X063805Y031225D03*
X063430Y031600D03*
X062680Y031600D03*
X062305Y032100D03*
X061930Y033100D03*
X061555Y034100D03*
X061180Y035100D03*
X060805Y036100D03*
X061430Y036600D03*
X060430Y037100D03*
X062930Y038100D03*
X064180Y038600D03*
X063680Y037100D03*
X064305Y035725D03*
X063930Y034350D03*
X063930Y033600D03*
X067555Y033100D03*
X067555Y035600D03*
X067180Y036600D03*
X067555Y037600D03*
X068680Y041350D03*
X061430Y041350D03*
X060055Y038600D03*
X050680Y041350D03*
X049680Y041975D03*
X073680Y030100D03*
X074680Y029225D03*
X075680Y030350D03*
X076180Y030725D03*
X077180Y029600D03*
X078180Y028975D03*
X076805Y023225D03*
X076805Y022225D03*
X076805Y020225D03*
X066930Y023600D03*
X063680Y024600D03*
X061430Y024725D03*
X064055Y026600D03*
X058180Y017100D03*
X057180Y017100D03*
X049430Y006975D03*
X048430Y006725D03*
X036180Y007225D03*
X032555Y007225D03*
X031305Y006100D03*
X031930Y005975D03*
X032555Y005975D03*
X031055Y008975D03*
X027180Y009475D03*
X026180Y009475D03*
X026680Y006475D03*
X015680Y010100D03*
X014930Y009100D03*
X014555Y011850D03*
X015305Y012225D03*
X016430Y013100D03*
X010680Y036100D03*
X076680Y037350D03*
D16*
X036680Y006225D03*
X035680Y006225D03*
X034680Y006225D03*
D17*
X034055Y019725D03*
X025180Y022975D03*
M02*
