G75*
G70*
%OFA0B0*%
%FSLAX24Y24*%
%IPPOS*%
%LPD*%
%AMOC8*
5,1,8,0,0,1.08239X$1,22.5*
%
%ADD10C,0.0110*%
%ADD11C,0.0060*%
%ADD12C,0.0070*%
%ADD13C,0.0100*%
%ADD14C,0.0120*%
%ADD15C,0.0050*%
%ADD16R,0.0240X0.0340*%
%ADD17R,0.0340X0.0240*%
%ADD18C,0.0040*%
%ADD19C,0.0080*%
D10*
X003946Y037905D02*
X003946Y038496D01*
X003946Y038200D02*
X004340Y038200D01*
X004590Y038200D02*
X004984Y038200D01*
X004984Y038299D02*
X004984Y037905D01*
X005235Y037905D02*
X005629Y037905D01*
X005235Y037905D02*
X005235Y038496D01*
X004984Y038299D02*
X004787Y038496D01*
X004590Y038299D01*
X004590Y037905D01*
X004340Y037905D02*
X004340Y038496D01*
X005880Y038496D02*
X006273Y038496D01*
X006076Y038496D02*
X006076Y037905D01*
D11*
X003710Y003703D02*
X003783Y003630D01*
X003930Y003630D01*
X004004Y003703D01*
X004170Y003630D02*
X004170Y004070D01*
X004004Y003997D02*
X003930Y004070D01*
X003783Y004070D01*
X003710Y003997D01*
X003710Y003703D01*
X004170Y003850D02*
X004464Y003850D01*
X004631Y003777D02*
X004851Y003777D01*
X004924Y003850D01*
X004924Y003997D01*
X004851Y004070D01*
X004631Y004070D01*
X004631Y003630D01*
X004464Y003630D02*
X004464Y004070D01*
X004778Y003777D02*
X004924Y003630D01*
X005091Y003630D02*
X005238Y003630D01*
X005165Y003630D02*
X005165Y004070D01*
X005238Y004070D02*
X005091Y004070D01*
X005398Y003997D02*
X005398Y003924D01*
X005472Y003850D01*
X005618Y003850D01*
X005692Y003777D01*
X005692Y003703D01*
X005618Y003630D01*
X005472Y003630D01*
X005398Y003703D01*
X005398Y003997D02*
X005472Y004070D01*
X005618Y004070D01*
X005692Y003997D01*
X006319Y004070D02*
X006319Y003630D01*
X006466Y003777D01*
X006612Y003630D01*
X006612Y004070D01*
X006779Y004070D02*
X006779Y003630D01*
X007073Y003630D01*
X007240Y003630D02*
X007386Y003630D01*
X007313Y003630D02*
X007313Y004070D01*
X007240Y004070D02*
X007386Y004070D01*
X007547Y004070D02*
X007767Y004070D01*
X007840Y003997D01*
X007840Y003850D01*
X007767Y003777D01*
X007547Y003777D01*
X007693Y003777D02*
X007840Y003630D01*
X007547Y003630D02*
X007547Y004070D01*
X007073Y004070D02*
X006779Y004070D01*
X006779Y003850D02*
X006926Y003850D01*
X008467Y003997D02*
X008541Y004070D01*
X008688Y004070D01*
X008761Y003997D01*
X008761Y003924D01*
X008467Y003630D01*
X008761Y003630D01*
X008928Y003703D02*
X009221Y003997D01*
X009221Y003703D01*
X009148Y003630D01*
X009001Y003630D01*
X008928Y003703D01*
X008928Y003997D01*
X009001Y004070D01*
X009148Y004070D01*
X009221Y003997D01*
X009388Y003924D02*
X009535Y004070D01*
X009535Y003630D01*
X009388Y003630D02*
X009682Y003630D01*
X009849Y003703D02*
X009849Y003777D01*
X009922Y003850D01*
X010069Y003850D01*
X010142Y003777D01*
X010142Y003703D01*
X010069Y003630D01*
X009922Y003630D01*
X009849Y003703D01*
X009922Y003850D02*
X009849Y003924D01*
X009849Y003997D01*
X009922Y004070D01*
X010069Y004070D01*
X010142Y003997D01*
X010142Y003924D01*
X010069Y003850D01*
X018730Y008450D02*
X018730Y009750D01*
X018732Y009776D01*
X018737Y009802D01*
X018745Y009827D01*
X018757Y009850D01*
X018771Y009872D01*
X018789Y009891D01*
X018808Y009909D01*
X018830Y009923D01*
X018853Y009935D01*
X018878Y009943D01*
X018904Y009948D01*
X018930Y009950D01*
X019430Y009950D01*
X019456Y009948D01*
X019482Y009943D01*
X019507Y009935D01*
X019530Y009923D01*
X019552Y009909D01*
X019571Y009891D01*
X019589Y009872D01*
X019603Y009850D01*
X019615Y009827D01*
X019623Y009802D01*
X019628Y009776D01*
X019630Y009750D01*
X019630Y008450D01*
X019628Y008424D01*
X019623Y008398D01*
X019615Y008373D01*
X019603Y008350D01*
X019589Y008328D01*
X019571Y008309D01*
X019552Y008291D01*
X019530Y008277D01*
X019507Y008265D01*
X019482Y008257D01*
X019456Y008252D01*
X019430Y008250D01*
X018930Y008250D01*
X018904Y008252D01*
X018878Y008257D01*
X018853Y008265D01*
X018830Y008277D01*
X018808Y008291D01*
X018789Y008309D01*
X018771Y008328D01*
X018757Y008350D01*
X018745Y008373D01*
X018737Y008398D01*
X018732Y008424D01*
X018730Y008450D01*
X020180Y008700D02*
X020180Y007950D01*
X028180Y007950D01*
X028180Y010250D01*
X020180Y010250D01*
X020180Y009500D01*
X020219Y009498D01*
X020258Y009492D01*
X020296Y009483D01*
X020333Y009470D01*
X020369Y009453D01*
X020402Y009433D01*
X020434Y009409D01*
X020463Y009383D01*
X020489Y009354D01*
X020513Y009322D01*
X020533Y009289D01*
X020550Y009253D01*
X020563Y009216D01*
X020572Y009178D01*
X020578Y009139D01*
X020580Y009100D01*
X020578Y009061D01*
X020572Y009022D01*
X020563Y008984D01*
X020550Y008947D01*
X020533Y008911D01*
X020513Y008878D01*
X020489Y008846D01*
X020463Y008817D01*
X020434Y008791D01*
X020402Y008767D01*
X020369Y008747D01*
X020333Y008730D01*
X020296Y008717D01*
X020258Y008708D01*
X020219Y008702D01*
X020180Y008700D01*
X017530Y011350D02*
X016830Y011350D01*
X016813Y011352D01*
X016796Y011356D01*
X016780Y011363D01*
X016766Y011373D01*
X016753Y011386D01*
X016743Y011400D01*
X016736Y011416D01*
X016732Y011433D01*
X016730Y011450D01*
X016730Y011600D01*
X016780Y011650D01*
X016780Y013550D01*
X016730Y013600D01*
X016730Y013750D01*
X016732Y013767D01*
X016736Y013784D01*
X016743Y013800D01*
X016753Y013814D01*
X016766Y013827D01*
X016780Y013837D01*
X016796Y013844D01*
X016813Y013848D01*
X016830Y013850D01*
X017530Y013850D01*
X017547Y013848D01*
X017564Y013844D01*
X017580Y013837D01*
X017594Y013827D01*
X017607Y013814D01*
X017617Y013800D01*
X017624Y013784D01*
X017628Y013767D01*
X017630Y013750D01*
X017630Y013600D01*
X017580Y013550D01*
X017580Y011650D01*
X017630Y011600D01*
X017630Y011450D01*
X017628Y011433D01*
X017624Y011416D01*
X017617Y011400D01*
X017607Y011386D01*
X017594Y011373D01*
X017580Y011363D01*
X017564Y011356D01*
X017547Y011352D01*
X017530Y011350D01*
X018930Y013750D02*
X019430Y013750D01*
X019456Y013752D01*
X019482Y013757D01*
X019507Y013765D01*
X019530Y013777D01*
X019552Y013791D01*
X019571Y013809D01*
X019589Y013828D01*
X019603Y013850D01*
X019615Y013873D01*
X019623Y013898D01*
X019628Y013924D01*
X019630Y013950D01*
X019630Y015250D01*
X019628Y015276D01*
X019623Y015302D01*
X019615Y015327D01*
X019603Y015350D01*
X019589Y015372D01*
X019571Y015391D01*
X019552Y015409D01*
X019530Y015423D01*
X019507Y015435D01*
X019482Y015443D01*
X019456Y015448D01*
X019430Y015450D01*
X018930Y015450D01*
X018904Y015448D01*
X018878Y015443D01*
X018853Y015435D01*
X018830Y015423D01*
X018808Y015409D01*
X018789Y015391D01*
X018771Y015372D01*
X018757Y015350D01*
X018745Y015327D01*
X018737Y015302D01*
X018732Y015276D01*
X018730Y015250D01*
X018730Y013950D01*
X018732Y013924D01*
X018737Y013898D01*
X018745Y013873D01*
X018757Y013850D01*
X018771Y013828D01*
X018789Y013809D01*
X018808Y013791D01*
X018830Y013777D01*
X018853Y013765D01*
X018878Y013757D01*
X018904Y013752D01*
X018930Y013750D01*
X020180Y013450D02*
X020180Y014200D01*
X020219Y014202D01*
X020258Y014208D01*
X020296Y014217D01*
X020333Y014230D01*
X020369Y014247D01*
X020402Y014267D01*
X020434Y014291D01*
X020463Y014317D01*
X020489Y014346D01*
X020513Y014378D01*
X020533Y014411D01*
X020550Y014447D01*
X020563Y014484D01*
X020572Y014522D01*
X020578Y014561D01*
X020580Y014600D01*
X020578Y014639D01*
X020572Y014678D01*
X020563Y014716D01*
X020550Y014753D01*
X020533Y014789D01*
X020513Y014822D01*
X020489Y014854D01*
X020463Y014883D01*
X020434Y014909D01*
X020402Y014933D01*
X020369Y014953D01*
X020333Y014970D01*
X020296Y014983D01*
X020258Y014992D01*
X020219Y014998D01*
X020180Y015000D01*
X020180Y015750D01*
X030180Y015750D01*
X030180Y013450D01*
X020180Y013450D01*
X020180Y018950D02*
X020180Y019700D01*
X020219Y019702D01*
X020258Y019708D01*
X020296Y019717D01*
X020333Y019730D01*
X020369Y019747D01*
X020402Y019767D01*
X020434Y019791D01*
X020463Y019817D01*
X020489Y019846D01*
X020513Y019878D01*
X020533Y019911D01*
X020550Y019947D01*
X020563Y019984D01*
X020572Y020022D01*
X020578Y020061D01*
X020580Y020100D01*
X020578Y020139D01*
X020572Y020178D01*
X020563Y020216D01*
X020550Y020253D01*
X020533Y020289D01*
X020513Y020322D01*
X020489Y020354D01*
X020463Y020383D01*
X020434Y020409D01*
X020402Y020433D01*
X020369Y020453D01*
X020333Y020470D01*
X020296Y020483D01*
X020258Y020492D01*
X020219Y020498D01*
X020180Y020500D01*
X020180Y021250D01*
X030180Y021250D01*
X030180Y018950D01*
X020180Y018950D01*
X019630Y019450D02*
X019630Y020750D01*
X019628Y020776D01*
X019623Y020802D01*
X019615Y020827D01*
X019603Y020850D01*
X019589Y020872D01*
X019571Y020891D01*
X019552Y020909D01*
X019530Y020923D01*
X019507Y020935D01*
X019482Y020943D01*
X019456Y020948D01*
X019430Y020950D01*
X018930Y020950D01*
X018904Y020948D01*
X018878Y020943D01*
X018853Y020935D01*
X018830Y020923D01*
X018808Y020909D01*
X018789Y020891D01*
X018771Y020872D01*
X018757Y020850D01*
X018745Y020827D01*
X018737Y020802D01*
X018732Y020776D01*
X018730Y020750D01*
X018730Y019450D01*
X018732Y019424D01*
X018737Y019398D01*
X018745Y019373D01*
X018757Y019350D01*
X018771Y019328D01*
X018789Y019309D01*
X018808Y019291D01*
X018830Y019277D01*
X018853Y019265D01*
X018878Y019257D01*
X018904Y019252D01*
X018930Y019250D01*
X019430Y019250D01*
X019456Y019252D01*
X019482Y019257D01*
X019507Y019265D01*
X019530Y019277D01*
X019552Y019291D01*
X019571Y019309D01*
X019589Y019328D01*
X019603Y019350D01*
X019615Y019373D01*
X019623Y019398D01*
X019628Y019424D01*
X019630Y019450D01*
X016680Y018950D02*
X016680Y021250D01*
X008680Y021250D01*
X008680Y020500D01*
X008719Y020498D01*
X008758Y020492D01*
X008796Y020483D01*
X008833Y020470D01*
X008869Y020453D01*
X008902Y020433D01*
X008934Y020409D01*
X008963Y020383D01*
X008989Y020354D01*
X009013Y020322D01*
X009033Y020289D01*
X009050Y020253D01*
X009063Y020216D01*
X009072Y020178D01*
X009078Y020139D01*
X009080Y020100D01*
X009078Y020061D01*
X009072Y020022D01*
X009063Y019984D01*
X009050Y019947D01*
X009033Y019911D01*
X009013Y019878D01*
X008989Y019846D01*
X008963Y019817D01*
X008934Y019791D01*
X008902Y019767D01*
X008869Y019747D01*
X008833Y019730D01*
X008796Y019717D01*
X008758Y019708D01*
X008719Y019702D01*
X008680Y019700D01*
X008680Y018950D01*
X016680Y018950D01*
X008130Y019450D02*
X008130Y020750D01*
X008128Y020776D01*
X008123Y020802D01*
X008115Y020827D01*
X008103Y020850D01*
X008089Y020872D01*
X008071Y020891D01*
X008052Y020909D01*
X008030Y020923D01*
X008007Y020935D01*
X007982Y020943D01*
X007956Y020948D01*
X007930Y020950D01*
X007430Y020950D01*
X007404Y020948D01*
X007378Y020943D01*
X007353Y020935D01*
X007330Y020923D01*
X007308Y020909D01*
X007289Y020891D01*
X007271Y020872D01*
X007257Y020850D01*
X007245Y020827D01*
X007237Y020802D01*
X007232Y020776D01*
X007230Y020750D01*
X007230Y019450D01*
X007232Y019424D01*
X007237Y019398D01*
X007245Y019373D01*
X007257Y019350D01*
X007271Y019328D01*
X007289Y019309D01*
X007308Y019291D01*
X007330Y019277D01*
X007353Y019265D01*
X007378Y019257D01*
X007404Y019252D01*
X007430Y019250D01*
X007930Y019250D01*
X007956Y019252D01*
X007982Y019257D01*
X008007Y019265D01*
X008030Y019277D01*
X008052Y019291D01*
X008071Y019309D01*
X008089Y019328D01*
X008103Y019350D01*
X008115Y019373D01*
X008123Y019398D01*
X008128Y019424D01*
X008130Y019450D01*
X008680Y024450D02*
X008680Y025200D01*
X008719Y025202D01*
X008758Y025208D01*
X008796Y025217D01*
X008833Y025230D01*
X008869Y025247D01*
X008902Y025267D01*
X008934Y025291D01*
X008963Y025317D01*
X008989Y025346D01*
X009013Y025378D01*
X009033Y025411D01*
X009050Y025447D01*
X009063Y025484D01*
X009072Y025522D01*
X009078Y025561D01*
X009080Y025600D01*
X009078Y025639D01*
X009072Y025678D01*
X009063Y025716D01*
X009050Y025753D01*
X009033Y025789D01*
X009013Y025822D01*
X008989Y025854D01*
X008963Y025883D01*
X008934Y025909D01*
X008902Y025933D01*
X008869Y025953D01*
X008833Y025970D01*
X008796Y025983D01*
X008758Y025992D01*
X008719Y025998D01*
X008680Y026000D01*
X008680Y026750D01*
X016680Y026750D01*
X016680Y024450D01*
X008680Y024450D01*
X008130Y024950D02*
X008130Y026250D01*
X008128Y026276D01*
X008123Y026302D01*
X008115Y026327D01*
X008103Y026350D01*
X008089Y026372D01*
X008071Y026391D01*
X008052Y026409D01*
X008030Y026423D01*
X008007Y026435D01*
X007982Y026443D01*
X007956Y026448D01*
X007930Y026450D01*
X007430Y026450D01*
X007404Y026448D01*
X007378Y026443D01*
X007353Y026435D01*
X007330Y026423D01*
X007308Y026409D01*
X007289Y026391D01*
X007271Y026372D01*
X007257Y026350D01*
X007245Y026327D01*
X007237Y026302D01*
X007232Y026276D01*
X007230Y026250D01*
X007230Y024950D01*
X007232Y024924D01*
X007237Y024898D01*
X007245Y024873D01*
X007257Y024850D01*
X007271Y024828D01*
X007289Y024809D01*
X007308Y024791D01*
X007330Y024777D01*
X007353Y024765D01*
X007378Y024757D01*
X007404Y024752D01*
X007430Y024750D01*
X007930Y024750D01*
X007956Y024752D01*
X007982Y024757D01*
X008007Y024765D01*
X008030Y024777D01*
X008052Y024791D01*
X008071Y024809D01*
X008089Y024828D01*
X008103Y024850D01*
X008115Y024873D01*
X008123Y024898D01*
X008128Y024924D01*
X008130Y024950D01*
X009030Y027900D02*
X009180Y027900D01*
X009230Y027950D01*
X011130Y027950D01*
X011180Y027900D01*
X011330Y027900D01*
X011347Y027902D01*
X011364Y027906D01*
X011380Y027913D01*
X011394Y027923D01*
X011407Y027936D01*
X011417Y027950D01*
X011424Y027966D01*
X011428Y027983D01*
X011430Y028000D01*
X011430Y028700D01*
X011428Y028717D01*
X011424Y028734D01*
X011417Y028750D01*
X011407Y028764D01*
X011394Y028777D01*
X011380Y028787D01*
X011364Y028794D01*
X011347Y028798D01*
X011330Y028800D01*
X011180Y028800D01*
X011130Y028750D01*
X009230Y028750D01*
X009180Y028800D01*
X009030Y028800D01*
X009013Y028798D01*
X008996Y028794D01*
X008980Y028787D01*
X008966Y028777D01*
X008953Y028764D01*
X008943Y028750D01*
X008936Y028734D01*
X008932Y028717D01*
X008930Y028700D01*
X008930Y028000D01*
X008932Y027983D01*
X008936Y027966D01*
X008943Y027950D01*
X008953Y027936D01*
X008966Y027923D01*
X008980Y027913D01*
X008996Y027906D01*
X009013Y027902D01*
X009030Y027900D01*
X006130Y028825D02*
X006130Y028975D01*
X006080Y029025D01*
X006080Y030925D01*
X006130Y030975D01*
X006130Y031125D01*
X006128Y031142D01*
X006124Y031159D01*
X006117Y031175D01*
X006107Y031189D01*
X006094Y031202D01*
X006080Y031212D01*
X006064Y031219D01*
X006047Y031223D01*
X006030Y031225D01*
X005330Y031225D01*
X005313Y031223D01*
X005296Y031219D01*
X005280Y031212D01*
X005266Y031202D01*
X005253Y031189D01*
X005243Y031175D01*
X005236Y031159D01*
X005232Y031142D01*
X005230Y031125D01*
X005230Y030975D01*
X005280Y030925D01*
X005280Y029025D01*
X005230Y028975D01*
X005230Y028825D01*
X005232Y028808D01*
X005236Y028791D01*
X005243Y028775D01*
X005253Y028761D01*
X005266Y028748D01*
X005280Y028738D01*
X005296Y028731D01*
X005313Y028727D01*
X005330Y028725D01*
X006030Y028725D01*
X006047Y028727D01*
X006064Y028731D01*
X006080Y028738D01*
X006094Y028748D01*
X006107Y028761D01*
X006117Y028775D01*
X006124Y028791D01*
X006128Y028808D01*
X006130Y028825D01*
X005130Y028825D02*
X005130Y028975D01*
X005080Y029025D01*
X005080Y030925D01*
X005130Y030975D01*
X005130Y031125D01*
X005128Y031142D01*
X005124Y031159D01*
X005117Y031175D01*
X005107Y031189D01*
X005094Y031202D01*
X005080Y031212D01*
X005064Y031219D01*
X005047Y031223D01*
X005030Y031225D01*
X004330Y031225D01*
X004313Y031223D01*
X004296Y031219D01*
X004280Y031212D01*
X004266Y031202D01*
X004253Y031189D01*
X004243Y031175D01*
X004236Y031159D01*
X004232Y031142D01*
X004230Y031125D01*
X004230Y030975D01*
X004280Y030925D01*
X004280Y029025D01*
X004230Y028975D01*
X004230Y028825D01*
X004232Y028808D01*
X004236Y028791D01*
X004243Y028775D01*
X004253Y028761D01*
X004266Y028748D01*
X004280Y028738D01*
X004296Y028731D01*
X004313Y028727D01*
X004330Y028725D01*
X005030Y028725D01*
X005047Y028727D01*
X005064Y028731D01*
X005080Y028738D01*
X005094Y028748D01*
X005107Y028761D01*
X005117Y028775D01*
X005124Y028791D01*
X005128Y028808D01*
X005130Y028825D01*
X007430Y030250D02*
X007930Y030250D01*
X007956Y030252D01*
X007982Y030257D01*
X008007Y030265D01*
X008030Y030277D01*
X008052Y030291D01*
X008071Y030309D01*
X008089Y030328D01*
X008103Y030350D01*
X008115Y030373D01*
X008123Y030398D01*
X008128Y030424D01*
X008130Y030450D01*
X008130Y031750D01*
X008128Y031776D01*
X008123Y031802D01*
X008115Y031827D01*
X008103Y031850D01*
X008089Y031872D01*
X008071Y031891D01*
X008052Y031909D01*
X008030Y031923D01*
X008007Y031935D01*
X007982Y031943D01*
X007956Y031948D01*
X007930Y031950D01*
X007430Y031950D01*
X007404Y031948D01*
X007378Y031943D01*
X007353Y031935D01*
X007330Y031923D01*
X007308Y031909D01*
X007289Y031891D01*
X007271Y031872D01*
X007257Y031850D01*
X007245Y031827D01*
X007237Y031802D01*
X007232Y031776D01*
X007230Y031750D01*
X007230Y030450D01*
X007232Y030424D01*
X007237Y030398D01*
X007245Y030373D01*
X007257Y030350D01*
X007271Y030328D01*
X007289Y030309D01*
X007308Y030291D01*
X007330Y030277D01*
X007353Y030265D01*
X007378Y030257D01*
X007404Y030252D01*
X007430Y030250D01*
X008680Y029950D02*
X008680Y030700D01*
X008719Y030702D01*
X008758Y030708D01*
X008796Y030717D01*
X008833Y030730D01*
X008869Y030747D01*
X008902Y030767D01*
X008934Y030791D01*
X008963Y030817D01*
X008989Y030846D01*
X009013Y030878D01*
X009033Y030911D01*
X009050Y030947D01*
X009063Y030984D01*
X009072Y031022D01*
X009078Y031061D01*
X009080Y031100D01*
X009078Y031139D01*
X009072Y031178D01*
X009063Y031216D01*
X009050Y031253D01*
X009033Y031289D01*
X009013Y031322D01*
X008989Y031354D01*
X008963Y031383D01*
X008934Y031409D01*
X008902Y031433D01*
X008869Y031453D01*
X008833Y031470D01*
X008796Y031483D01*
X008758Y031492D01*
X008719Y031498D01*
X008680Y031500D01*
X008680Y032250D01*
X015680Y032250D01*
X015680Y029950D01*
X008680Y029950D01*
X008680Y035450D02*
X008680Y036200D01*
X008719Y036202D01*
X008758Y036208D01*
X008796Y036217D01*
X008833Y036230D01*
X008869Y036247D01*
X008902Y036267D01*
X008934Y036291D01*
X008963Y036317D01*
X008989Y036346D01*
X009013Y036378D01*
X009033Y036411D01*
X009050Y036447D01*
X009063Y036484D01*
X009072Y036522D01*
X009078Y036561D01*
X009080Y036600D01*
X009078Y036639D01*
X009072Y036678D01*
X009063Y036716D01*
X009050Y036753D01*
X009033Y036789D01*
X009013Y036822D01*
X008989Y036854D01*
X008963Y036883D01*
X008934Y036909D01*
X008902Y036933D01*
X008869Y036953D01*
X008833Y036970D01*
X008796Y036983D01*
X008758Y036992D01*
X008719Y036998D01*
X008680Y037000D01*
X008680Y037750D01*
X015680Y037750D01*
X015680Y035450D01*
X008680Y035450D01*
X007930Y035750D02*
X007430Y035750D01*
X007404Y035752D01*
X007378Y035757D01*
X007353Y035765D01*
X007330Y035777D01*
X007308Y035791D01*
X007289Y035809D01*
X007271Y035828D01*
X007257Y035850D01*
X007245Y035873D01*
X007237Y035898D01*
X007232Y035924D01*
X007230Y035950D01*
X007230Y037250D01*
X007232Y037276D01*
X007237Y037302D01*
X007245Y037327D01*
X007257Y037350D01*
X007271Y037372D01*
X007289Y037391D01*
X007308Y037409D01*
X007330Y037423D01*
X007353Y037435D01*
X007378Y037443D01*
X007404Y037448D01*
X007430Y037450D01*
X007930Y037450D01*
X007956Y037448D01*
X007982Y037443D01*
X008007Y037435D01*
X008030Y037423D01*
X008052Y037409D01*
X008071Y037391D01*
X008089Y037372D01*
X008103Y037350D01*
X008115Y037327D01*
X008123Y037302D01*
X008128Y037276D01*
X008130Y037250D01*
X008130Y035950D01*
X008128Y035924D01*
X008123Y035898D01*
X008115Y035873D01*
X008103Y035850D01*
X008089Y035828D01*
X008071Y035809D01*
X008052Y035791D01*
X008030Y035777D01*
X008007Y035765D01*
X007982Y035757D01*
X007956Y035752D01*
X007930Y035750D01*
X004180Y036600D02*
X004182Y036663D01*
X004188Y036725D01*
X004198Y036787D01*
X004211Y036849D01*
X004229Y036909D01*
X004250Y036968D01*
X004275Y037026D01*
X004304Y037082D01*
X004336Y037136D01*
X004371Y037188D01*
X004409Y037237D01*
X004451Y037285D01*
X004495Y037329D01*
X004543Y037371D01*
X004592Y037409D01*
X004644Y037444D01*
X004698Y037476D01*
X004754Y037505D01*
X004812Y037530D01*
X004871Y037551D01*
X004931Y037569D01*
X004993Y037582D01*
X005055Y037592D01*
X005117Y037598D01*
X005180Y037600D01*
X005243Y037598D01*
X005305Y037592D01*
X005367Y037582D01*
X005429Y037569D01*
X005489Y037551D01*
X005548Y037530D01*
X005606Y037505D01*
X005662Y037476D01*
X005716Y037444D01*
X005768Y037409D01*
X005817Y037371D01*
X005865Y037329D01*
X005909Y037285D01*
X005951Y037237D01*
X005989Y037188D01*
X006024Y037136D01*
X006056Y037082D01*
X006085Y037026D01*
X006110Y036968D01*
X006131Y036909D01*
X006149Y036849D01*
X006162Y036787D01*
X006172Y036725D01*
X006178Y036663D01*
X006180Y036600D01*
X006178Y036537D01*
X006172Y036475D01*
X006162Y036413D01*
X006149Y036351D01*
X006131Y036291D01*
X006110Y036232D01*
X006085Y036174D01*
X006056Y036118D01*
X006024Y036064D01*
X005989Y036012D01*
X005951Y035963D01*
X005909Y035915D01*
X005865Y035871D01*
X005817Y035829D01*
X005768Y035791D01*
X005716Y035756D01*
X005662Y035724D01*
X005606Y035695D01*
X005548Y035670D01*
X005489Y035649D01*
X005429Y035631D01*
X005367Y035618D01*
X005305Y035608D01*
X005243Y035602D01*
X005180Y035600D01*
X005117Y035602D01*
X005055Y035608D01*
X004993Y035618D01*
X004931Y035631D01*
X004871Y035649D01*
X004812Y035670D01*
X004754Y035695D01*
X004698Y035724D01*
X004644Y035756D01*
X004592Y035791D01*
X004543Y035829D01*
X004495Y035871D01*
X004451Y035915D01*
X004409Y035963D01*
X004371Y036012D01*
X004336Y036064D01*
X004304Y036118D01*
X004275Y036174D01*
X004250Y036232D01*
X004229Y036291D01*
X004211Y036351D01*
X004198Y036413D01*
X004188Y036475D01*
X004182Y036537D01*
X004180Y036600D01*
X018730Y035950D02*
X018730Y037250D01*
X018732Y037276D01*
X018737Y037302D01*
X018745Y037327D01*
X018757Y037350D01*
X018771Y037372D01*
X018789Y037391D01*
X018808Y037409D01*
X018830Y037423D01*
X018853Y037435D01*
X018878Y037443D01*
X018904Y037448D01*
X018930Y037450D01*
X019430Y037450D01*
X019456Y037448D01*
X019482Y037443D01*
X019507Y037435D01*
X019530Y037423D01*
X019552Y037409D01*
X019571Y037391D01*
X019589Y037372D01*
X019603Y037350D01*
X019615Y037327D01*
X019623Y037302D01*
X019628Y037276D01*
X019630Y037250D01*
X019630Y035950D01*
X019628Y035924D01*
X019623Y035898D01*
X019615Y035873D01*
X019603Y035850D01*
X019589Y035828D01*
X019571Y035809D01*
X019552Y035791D01*
X019530Y035777D01*
X019507Y035765D01*
X019482Y035757D01*
X019456Y035752D01*
X019430Y035750D01*
X018930Y035750D01*
X018904Y035752D01*
X018878Y035757D01*
X018853Y035765D01*
X018830Y035777D01*
X018808Y035791D01*
X018789Y035809D01*
X018771Y035828D01*
X018757Y035850D01*
X018745Y035873D01*
X018737Y035898D01*
X018732Y035924D01*
X018730Y035950D01*
X020180Y036200D02*
X020180Y035450D01*
X027180Y035450D01*
X027180Y037750D01*
X020180Y037750D01*
X020180Y037000D01*
X020219Y036998D01*
X020258Y036992D01*
X020296Y036983D01*
X020333Y036970D01*
X020369Y036953D01*
X020402Y036933D01*
X020434Y036909D01*
X020463Y036883D01*
X020489Y036854D01*
X020513Y036822D01*
X020533Y036789D01*
X020550Y036753D01*
X020563Y036716D01*
X020572Y036678D01*
X020578Y036639D01*
X020580Y036600D01*
X020578Y036561D01*
X020572Y036522D01*
X020563Y036484D01*
X020550Y036447D01*
X020533Y036411D01*
X020513Y036378D01*
X020489Y036346D01*
X020463Y036317D01*
X020434Y036291D01*
X020402Y036267D01*
X020369Y036247D01*
X020333Y036230D01*
X020296Y036217D01*
X020258Y036208D01*
X020219Y036202D01*
X020180Y036200D01*
X020180Y032250D02*
X020180Y031500D01*
X020219Y031498D01*
X020258Y031492D01*
X020296Y031483D01*
X020333Y031470D01*
X020369Y031453D01*
X020402Y031433D01*
X020434Y031409D01*
X020463Y031383D01*
X020489Y031354D01*
X020513Y031322D01*
X020533Y031289D01*
X020550Y031253D01*
X020563Y031216D01*
X020572Y031178D01*
X020578Y031139D01*
X020580Y031100D01*
X020578Y031061D01*
X020572Y031022D01*
X020563Y030984D01*
X020550Y030947D01*
X020533Y030911D01*
X020513Y030878D01*
X020489Y030846D01*
X020463Y030817D01*
X020434Y030791D01*
X020402Y030767D01*
X020369Y030747D01*
X020333Y030730D01*
X020296Y030717D01*
X020258Y030708D01*
X020219Y030702D01*
X020180Y030700D01*
X020180Y029950D01*
X027180Y029950D01*
X027180Y032250D01*
X020180Y032250D01*
X019630Y031750D02*
X019630Y030450D01*
X019628Y030424D01*
X019623Y030398D01*
X019615Y030373D01*
X019603Y030350D01*
X019589Y030328D01*
X019571Y030309D01*
X019552Y030291D01*
X019530Y030277D01*
X019507Y030265D01*
X019482Y030257D01*
X019456Y030252D01*
X019430Y030250D01*
X018930Y030250D01*
X018904Y030252D01*
X018878Y030257D01*
X018853Y030265D01*
X018830Y030277D01*
X018808Y030291D01*
X018789Y030309D01*
X018771Y030328D01*
X018757Y030350D01*
X018745Y030373D01*
X018737Y030398D01*
X018732Y030424D01*
X018730Y030450D01*
X018730Y031750D01*
X018732Y031776D01*
X018737Y031802D01*
X018745Y031827D01*
X018757Y031850D01*
X018771Y031872D01*
X018789Y031891D01*
X018808Y031909D01*
X018830Y031923D01*
X018853Y031935D01*
X018878Y031943D01*
X018904Y031948D01*
X018930Y031950D01*
X019430Y031950D01*
X019456Y031948D01*
X019482Y031943D01*
X019507Y031935D01*
X019530Y031923D01*
X019552Y031909D01*
X019571Y031891D01*
X019589Y031872D01*
X019603Y031850D01*
X019615Y031827D01*
X019623Y031802D01*
X019628Y031776D01*
X019630Y031750D01*
X020180Y026750D02*
X020180Y026000D01*
X020219Y025998D01*
X020258Y025992D01*
X020296Y025983D01*
X020333Y025970D01*
X020369Y025953D01*
X020402Y025933D01*
X020434Y025909D01*
X020463Y025883D01*
X020489Y025854D01*
X020513Y025822D01*
X020533Y025789D01*
X020550Y025753D01*
X020563Y025716D01*
X020572Y025678D01*
X020578Y025639D01*
X020580Y025600D01*
X020578Y025561D01*
X020572Y025522D01*
X020563Y025484D01*
X020550Y025447D01*
X020533Y025411D01*
X020513Y025378D01*
X020489Y025346D01*
X020463Y025317D01*
X020434Y025291D01*
X020402Y025267D01*
X020369Y025247D01*
X020333Y025230D01*
X020296Y025217D01*
X020258Y025208D01*
X020219Y025202D01*
X020180Y025200D01*
X020180Y024450D01*
X030180Y024450D01*
X030180Y026750D01*
X020180Y026750D01*
X019630Y026250D02*
X019630Y024950D01*
X019628Y024924D01*
X019623Y024898D01*
X019615Y024873D01*
X019603Y024850D01*
X019589Y024828D01*
X019571Y024809D01*
X019552Y024791D01*
X019530Y024777D01*
X019507Y024765D01*
X019482Y024757D01*
X019456Y024752D01*
X019430Y024750D01*
X018930Y024750D01*
X018904Y024752D01*
X018878Y024757D01*
X018853Y024765D01*
X018830Y024777D01*
X018808Y024791D01*
X018789Y024809D01*
X018771Y024828D01*
X018757Y024850D01*
X018745Y024873D01*
X018737Y024898D01*
X018732Y024924D01*
X018730Y024950D01*
X018730Y026250D01*
X018732Y026276D01*
X018737Y026302D01*
X018745Y026327D01*
X018757Y026350D01*
X018771Y026372D01*
X018789Y026391D01*
X018808Y026409D01*
X018830Y026423D01*
X018853Y026435D01*
X018878Y026443D01*
X018904Y026448D01*
X018930Y026450D01*
X019430Y026450D01*
X019456Y026448D01*
X019482Y026443D01*
X019507Y026435D01*
X019530Y026423D01*
X019552Y026409D01*
X019571Y026391D01*
X019589Y026372D01*
X019603Y026350D01*
X019615Y026327D01*
X019623Y026302D01*
X019628Y026276D01*
X019630Y026250D01*
X031030Y029100D02*
X033330Y029100D01*
X033330Y039100D01*
X032580Y039100D01*
X032578Y039061D01*
X032572Y039022D01*
X032563Y038984D01*
X032550Y038947D01*
X032533Y038911D01*
X032513Y038878D01*
X032489Y038846D01*
X032463Y038817D01*
X032434Y038791D01*
X032402Y038767D01*
X032369Y038747D01*
X032333Y038730D01*
X032296Y038717D01*
X032258Y038708D01*
X032219Y038702D01*
X032180Y038700D01*
X032141Y038702D01*
X032102Y038708D01*
X032064Y038717D01*
X032027Y038730D01*
X031991Y038747D01*
X031958Y038767D01*
X031926Y038791D01*
X031897Y038817D01*
X031871Y038846D01*
X031847Y038878D01*
X031827Y038911D01*
X031810Y038947D01*
X031797Y038984D01*
X031788Y039022D01*
X031782Y039061D01*
X031780Y039100D01*
X031030Y039100D01*
X031030Y029100D01*
X033280Y026550D02*
X034580Y026550D01*
X034606Y026548D01*
X034632Y026543D01*
X034657Y026535D01*
X034680Y026523D01*
X034702Y026509D01*
X034721Y026491D01*
X034739Y026472D01*
X034753Y026450D01*
X034765Y026427D01*
X034773Y026402D01*
X034778Y026376D01*
X034780Y026350D01*
X034780Y025850D01*
X034778Y025824D01*
X034773Y025798D01*
X034765Y025773D01*
X034753Y025750D01*
X034739Y025728D01*
X034721Y025709D01*
X034702Y025691D01*
X034680Y025677D01*
X034657Y025665D01*
X034632Y025657D01*
X034606Y025652D01*
X034580Y025650D01*
X033280Y025650D01*
X033254Y025652D01*
X033228Y025657D01*
X033203Y025665D01*
X033180Y025677D01*
X033158Y025691D01*
X033139Y025709D01*
X033121Y025728D01*
X033107Y025750D01*
X033095Y025773D01*
X033087Y025798D01*
X033082Y025824D01*
X033080Y025850D01*
X033080Y026350D01*
X033082Y026376D01*
X033087Y026402D01*
X033095Y026427D01*
X033107Y026450D01*
X033121Y026472D01*
X033139Y026491D01*
X033158Y026509D01*
X033180Y026523D01*
X033203Y026535D01*
X033228Y026543D01*
X033254Y026548D01*
X033280Y026550D01*
X033580Y025200D02*
X037780Y025200D01*
X037810Y025198D01*
X037840Y025193D01*
X037869Y025184D01*
X037896Y025171D01*
X037922Y025156D01*
X037946Y025137D01*
X037967Y025116D01*
X037986Y025092D01*
X038001Y025066D01*
X038014Y025039D01*
X038023Y025010D01*
X038028Y024980D01*
X038030Y024950D01*
X038030Y020750D01*
X038028Y020720D01*
X038023Y020690D01*
X038014Y020661D01*
X038001Y020634D01*
X037986Y020608D01*
X037967Y020584D01*
X037946Y020563D01*
X037922Y020544D01*
X037896Y020529D01*
X037869Y020516D01*
X037840Y020507D01*
X037810Y020502D01*
X037780Y020500D01*
X033580Y020500D01*
X033550Y020502D01*
X033520Y020507D01*
X033491Y020516D01*
X033464Y020529D01*
X033438Y020544D01*
X033414Y020563D01*
X033393Y020584D01*
X033374Y020608D01*
X033359Y020634D01*
X033346Y020661D01*
X033337Y020690D01*
X033332Y020720D01*
X033330Y020750D01*
X033330Y024950D01*
X033332Y024980D01*
X033337Y025010D01*
X033346Y025039D01*
X033359Y025066D01*
X033374Y025092D01*
X033393Y025116D01*
X033414Y025137D01*
X033438Y025156D01*
X033464Y025171D01*
X033491Y025184D01*
X033520Y025193D01*
X033550Y025198D01*
X033580Y025200D01*
X034680Y024350D02*
X035310Y024350D01*
X036050Y024350D02*
X036680Y024350D01*
X039180Y025500D02*
X039180Y023200D01*
X039219Y023198D01*
X039258Y023192D01*
X039296Y023183D01*
X039333Y023170D01*
X039369Y023153D01*
X039402Y023133D01*
X039434Y023109D01*
X039463Y023083D01*
X039489Y023054D01*
X039513Y023022D01*
X039533Y022989D01*
X039550Y022953D01*
X039563Y022916D01*
X039572Y022878D01*
X039578Y022839D01*
X039580Y022800D01*
X039578Y022761D01*
X039572Y022722D01*
X039563Y022684D01*
X039550Y022647D01*
X039533Y022611D01*
X039513Y022578D01*
X039489Y022546D01*
X039463Y022517D01*
X039434Y022491D01*
X039402Y022467D01*
X039369Y022447D01*
X039333Y022430D01*
X039296Y022417D01*
X039258Y022408D01*
X039219Y022402D01*
X039180Y022400D01*
X039180Y020200D01*
X059180Y020200D01*
X059180Y025500D01*
X039180Y025500D01*
X045488Y022320D02*
X045782Y021880D01*
X045782Y022320D01*
X045949Y022247D02*
X045949Y021953D01*
X046022Y021880D01*
X046169Y021880D01*
X046242Y021953D01*
X046242Y022247D01*
X046169Y022320D01*
X046022Y022320D01*
X045949Y022247D01*
X046409Y022320D02*
X046703Y022320D01*
X046556Y022320D02*
X046556Y021880D01*
X046870Y021880D02*
X046870Y022320D01*
X046870Y022100D02*
X047163Y022100D01*
X047163Y022320D02*
X047163Y021880D01*
X047330Y021880D02*
X047477Y021880D01*
X047403Y021880D02*
X047403Y022320D01*
X047330Y022320D02*
X047477Y022320D01*
X047637Y022320D02*
X047931Y021880D01*
X047931Y022320D01*
X048097Y022247D02*
X048097Y021953D01*
X048171Y021880D01*
X048318Y021880D01*
X048391Y021953D01*
X048391Y022100D01*
X048244Y022100D01*
X048097Y022247D02*
X048171Y022320D01*
X048318Y022320D01*
X048391Y022247D01*
X049018Y022320D02*
X049018Y021880D01*
X049312Y021880D01*
X049479Y021880D02*
X049772Y021880D01*
X049939Y021953D02*
X050012Y021880D01*
X050159Y021880D01*
X050233Y021953D01*
X050233Y022027D01*
X050159Y022100D01*
X050012Y022100D01*
X049939Y022174D01*
X049939Y022247D01*
X050012Y022320D01*
X050159Y022320D01*
X050233Y022247D01*
X050399Y022320D02*
X050399Y021880D01*
X050693Y021880D01*
X050546Y022100D02*
X050399Y022100D01*
X050399Y022320D02*
X050693Y022320D01*
X051320Y022247D02*
X051320Y021953D01*
X051394Y021880D01*
X051540Y021880D01*
X051614Y021953D01*
X051781Y021880D02*
X051781Y022320D01*
X052001Y022320D01*
X052074Y022247D01*
X052074Y022100D01*
X052001Y022027D01*
X051781Y022027D01*
X051614Y022247D02*
X051540Y022320D01*
X051394Y022320D01*
X051320Y022247D01*
X052241Y022320D02*
X052534Y021880D01*
X052701Y021880D02*
X052775Y021880D01*
X052775Y021953D01*
X052701Y021953D01*
X052701Y021880D01*
X052241Y021880D02*
X052534Y022320D01*
X051499Y023380D02*
X051205Y023380D01*
X051499Y023674D01*
X051499Y023747D01*
X051425Y023820D01*
X051278Y023820D01*
X051205Y023747D01*
X051038Y023747D02*
X050745Y023453D01*
X050818Y023380D01*
X050965Y023380D01*
X051038Y023453D01*
X051038Y023747D01*
X050965Y023820D01*
X050818Y023820D01*
X050745Y023747D01*
X050745Y023453D01*
X050578Y023453D02*
X050504Y023380D01*
X050358Y023380D01*
X050284Y023453D01*
X050284Y023600D02*
X050431Y023674D01*
X050504Y023674D01*
X050578Y023600D01*
X050578Y023453D01*
X050284Y023600D02*
X050284Y023820D01*
X050578Y023820D01*
X050117Y023820D02*
X049971Y023747D01*
X049824Y023600D01*
X050044Y023600D01*
X050117Y023527D01*
X050117Y023453D01*
X050044Y023380D01*
X049897Y023380D01*
X049824Y023453D01*
X049824Y023600D01*
X049657Y023600D02*
X049363Y023600D01*
X049197Y023453D02*
X049197Y023747D01*
X049123Y023820D01*
X048976Y023820D01*
X048903Y023747D01*
X048903Y023453D01*
X048976Y023380D01*
X049123Y023380D01*
X049197Y023453D01*
X048736Y023380D02*
X048589Y023527D01*
X048663Y023527D02*
X048443Y023527D01*
X048443Y023380D02*
X048443Y023820D01*
X048663Y023820D01*
X048736Y023747D01*
X048736Y023600D01*
X048663Y023527D01*
X048276Y023453D02*
X048202Y023380D01*
X048056Y023380D01*
X047982Y023453D01*
X047982Y023747D01*
X048056Y023820D01*
X048202Y023820D01*
X048276Y023747D01*
X047822Y023820D02*
X047675Y023820D01*
X047749Y023820D02*
X047749Y023380D01*
X047822Y023380D02*
X047675Y023380D01*
X047509Y023380D02*
X047509Y023820D01*
X047362Y023674D01*
X047215Y023820D01*
X047215Y023380D01*
X047048Y023380D02*
X046755Y023820D01*
X047048Y023820D02*
X046755Y023380D01*
X047637Y022320D02*
X047637Y021880D01*
X049018Y022100D02*
X049165Y022100D01*
X049312Y022320D02*
X049018Y022320D01*
X049479Y022320D02*
X049479Y021880D01*
X045488Y021880D02*
X045488Y022320D01*
X045830Y019300D02*
X044530Y019300D01*
X044504Y019298D01*
X044478Y019293D01*
X044453Y019285D01*
X044430Y019273D01*
X044408Y019259D01*
X044389Y019241D01*
X044371Y019222D01*
X044357Y019200D01*
X044345Y019177D01*
X044337Y019152D01*
X044332Y019126D01*
X044330Y019100D01*
X044330Y018600D01*
X044332Y018574D01*
X044337Y018548D01*
X044345Y018523D01*
X044357Y018500D01*
X044371Y018478D01*
X044389Y018459D01*
X044408Y018441D01*
X044430Y018427D01*
X044453Y018415D01*
X044478Y018407D01*
X044504Y018402D01*
X044530Y018400D01*
X045830Y018400D01*
X045856Y018402D01*
X045882Y018407D01*
X045907Y018415D01*
X045930Y018427D01*
X045952Y018441D01*
X045971Y018459D01*
X045989Y018478D01*
X046003Y018500D01*
X046015Y018523D01*
X046023Y018548D01*
X046028Y018574D01*
X046030Y018600D01*
X046030Y019100D01*
X046028Y019126D01*
X046023Y019152D01*
X046015Y019177D01*
X046003Y019200D01*
X045989Y019222D01*
X045971Y019241D01*
X045952Y019259D01*
X045930Y019273D01*
X045907Y019285D01*
X045882Y019293D01*
X045856Y019298D01*
X045830Y019300D01*
X042930Y019200D02*
X042930Y018500D01*
X042928Y018483D01*
X042924Y018466D01*
X042917Y018450D01*
X042907Y018436D01*
X042894Y018423D01*
X042880Y018413D01*
X042864Y018406D01*
X042847Y018402D01*
X042830Y018400D01*
X042680Y018400D01*
X042630Y018450D01*
X040730Y018450D01*
X040680Y018400D01*
X040530Y018400D01*
X040513Y018402D01*
X040496Y018406D01*
X040480Y018413D01*
X040466Y018423D01*
X040453Y018436D01*
X040443Y018450D01*
X040436Y018466D01*
X040432Y018483D01*
X040430Y018500D01*
X040430Y019200D01*
X040432Y019217D01*
X040436Y019234D01*
X040443Y019250D01*
X040453Y019264D01*
X040466Y019277D01*
X040480Y019287D01*
X040496Y019294D01*
X040513Y019298D01*
X040530Y019300D01*
X040680Y019300D01*
X040730Y019250D01*
X042630Y019250D01*
X042680Y019300D01*
X042830Y019300D01*
X042847Y019298D01*
X042864Y019294D01*
X042880Y019287D01*
X042894Y019277D01*
X042907Y019264D01*
X042917Y019250D01*
X042924Y019234D01*
X042928Y019217D01*
X042930Y019200D01*
X047530Y016550D02*
X048830Y016550D01*
X048856Y016548D01*
X048882Y016543D01*
X048907Y016535D01*
X048930Y016523D01*
X048952Y016509D01*
X048971Y016491D01*
X048989Y016472D01*
X049003Y016450D01*
X049015Y016427D01*
X049023Y016402D01*
X049028Y016376D01*
X049030Y016350D01*
X049030Y015850D01*
X049180Y015750D02*
X049180Y015000D01*
X049219Y014998D01*
X049258Y014992D01*
X049296Y014983D01*
X049333Y014970D01*
X049369Y014953D01*
X049402Y014933D01*
X049434Y014909D01*
X049463Y014883D01*
X049489Y014854D01*
X049513Y014822D01*
X049533Y014789D01*
X049550Y014753D01*
X049563Y014716D01*
X049572Y014678D01*
X049578Y014639D01*
X049580Y014600D01*
X049578Y014561D01*
X049572Y014522D01*
X049563Y014484D01*
X049550Y014447D01*
X049533Y014411D01*
X049513Y014378D01*
X049489Y014346D01*
X049463Y014317D01*
X049434Y014291D01*
X049402Y014267D01*
X049369Y014247D01*
X049333Y014230D01*
X049296Y014217D01*
X049258Y014208D01*
X049219Y014202D01*
X049180Y014200D01*
X049180Y013450D01*
X059180Y013450D01*
X059180Y015750D01*
X049180Y015750D01*
X049030Y015850D02*
X049028Y015824D01*
X049023Y015798D01*
X049015Y015773D01*
X049003Y015750D01*
X048989Y015728D01*
X048971Y015709D01*
X048952Y015691D01*
X048930Y015677D01*
X048907Y015665D01*
X048882Y015657D01*
X048856Y015652D01*
X048830Y015650D01*
X047530Y015650D01*
X047504Y015652D01*
X047478Y015657D01*
X047453Y015665D01*
X047430Y015677D01*
X047408Y015691D01*
X047389Y015709D01*
X047371Y015728D01*
X047357Y015750D01*
X047345Y015773D01*
X047337Y015798D01*
X047332Y015824D01*
X047330Y015850D01*
X047330Y016350D01*
X047332Y016376D01*
X047337Y016402D01*
X047345Y016427D01*
X047357Y016450D01*
X047371Y016472D01*
X047389Y016491D01*
X047408Y016509D01*
X047430Y016523D01*
X047453Y016535D01*
X047478Y016543D01*
X047504Y016548D01*
X047530Y016550D01*
X046180Y015750D02*
X046180Y013450D01*
X036180Y013450D01*
X036180Y014200D01*
X036219Y014202D01*
X036258Y014208D01*
X036296Y014217D01*
X036333Y014230D01*
X036369Y014247D01*
X036402Y014267D01*
X036434Y014291D01*
X036463Y014317D01*
X036489Y014346D01*
X036513Y014378D01*
X036533Y014411D01*
X036550Y014447D01*
X036563Y014484D01*
X036572Y014522D01*
X036578Y014561D01*
X036580Y014600D01*
X036578Y014639D01*
X036572Y014678D01*
X036563Y014716D01*
X036550Y014753D01*
X036533Y014789D01*
X036513Y014822D01*
X036489Y014854D01*
X036463Y014883D01*
X036434Y014909D01*
X036402Y014933D01*
X036369Y014953D01*
X036333Y014970D01*
X036296Y014983D01*
X036258Y014992D01*
X036219Y014998D01*
X036180Y015000D01*
X036180Y015750D01*
X046180Y015750D01*
X036030Y015850D02*
X036030Y016350D01*
X036028Y016376D01*
X036023Y016402D01*
X036015Y016427D01*
X036003Y016450D01*
X035989Y016472D01*
X035971Y016491D01*
X035952Y016509D01*
X035930Y016523D01*
X035907Y016535D01*
X035882Y016543D01*
X035856Y016548D01*
X035830Y016550D01*
X034530Y016550D01*
X034504Y016548D01*
X034478Y016543D01*
X034453Y016535D01*
X034430Y016523D01*
X034408Y016509D01*
X034389Y016491D01*
X034371Y016472D01*
X034357Y016450D01*
X034345Y016427D01*
X034337Y016402D01*
X034332Y016376D01*
X034330Y016350D01*
X034330Y015850D01*
X034332Y015824D01*
X034337Y015798D01*
X034345Y015773D01*
X034357Y015750D01*
X034371Y015728D01*
X034389Y015709D01*
X034408Y015691D01*
X034430Y015677D01*
X034453Y015665D01*
X034478Y015657D01*
X034504Y015652D01*
X034530Y015650D01*
X035830Y015650D01*
X035856Y015652D01*
X035882Y015657D01*
X035907Y015665D01*
X035930Y015677D01*
X035952Y015691D01*
X035971Y015709D01*
X035989Y015728D01*
X036003Y015750D01*
X036015Y015773D01*
X036023Y015798D01*
X036028Y015824D01*
X036030Y015850D01*
X036030Y029100D02*
X038330Y029100D01*
X038330Y039100D01*
X037580Y039100D01*
X037578Y039061D01*
X037572Y039022D01*
X037563Y038984D01*
X037550Y038947D01*
X037533Y038911D01*
X037513Y038878D01*
X037489Y038846D01*
X037463Y038817D01*
X037434Y038791D01*
X037402Y038767D01*
X037369Y038747D01*
X037333Y038730D01*
X037296Y038717D01*
X037258Y038708D01*
X037219Y038702D01*
X037180Y038700D01*
X037141Y038702D01*
X037102Y038708D01*
X037064Y038717D01*
X037027Y038730D01*
X036991Y038747D01*
X036958Y038767D01*
X036926Y038791D01*
X036897Y038817D01*
X036871Y038846D01*
X036847Y038878D01*
X036827Y038911D01*
X036810Y038947D01*
X036797Y038984D01*
X036788Y039022D01*
X036782Y039061D01*
X036780Y039100D01*
X036030Y039100D01*
X036030Y029100D01*
X041030Y029100D02*
X043330Y029100D01*
X043330Y039100D01*
X042580Y039100D01*
X042578Y039061D01*
X042572Y039022D01*
X042563Y038984D01*
X042550Y038947D01*
X042533Y038911D01*
X042513Y038878D01*
X042489Y038846D01*
X042463Y038817D01*
X042434Y038791D01*
X042402Y038767D01*
X042369Y038747D01*
X042333Y038730D01*
X042296Y038717D01*
X042258Y038708D01*
X042219Y038702D01*
X042180Y038700D01*
X042141Y038702D01*
X042102Y038708D01*
X042064Y038717D01*
X042027Y038730D01*
X041991Y038747D01*
X041958Y038767D01*
X041926Y038791D01*
X041897Y038817D01*
X041871Y038846D01*
X041847Y038878D01*
X041827Y038911D01*
X041810Y038947D01*
X041797Y038984D01*
X041788Y039022D01*
X041782Y039061D01*
X041780Y039100D01*
X041030Y039100D01*
X041030Y029100D01*
X046030Y029100D02*
X048330Y029100D01*
X048330Y039100D01*
X047580Y039100D01*
X047578Y039061D01*
X047572Y039022D01*
X047563Y038984D01*
X047550Y038947D01*
X047533Y038911D01*
X047513Y038878D01*
X047489Y038846D01*
X047463Y038817D01*
X047434Y038791D01*
X047402Y038767D01*
X047369Y038747D01*
X047333Y038730D01*
X047296Y038717D01*
X047258Y038708D01*
X047219Y038702D01*
X047180Y038700D01*
X047141Y038702D01*
X047102Y038708D01*
X047064Y038717D01*
X047027Y038730D01*
X046991Y038747D01*
X046958Y038767D01*
X046926Y038791D01*
X046897Y038817D01*
X046871Y038846D01*
X046847Y038878D01*
X046827Y038911D01*
X046810Y038947D01*
X046797Y038984D01*
X046788Y039022D01*
X046782Y039061D01*
X046780Y039100D01*
X046030Y039100D01*
X046030Y029100D01*
X051030Y029100D02*
X053330Y029100D01*
X053330Y039100D01*
X052580Y039100D01*
X052578Y039061D01*
X052572Y039022D01*
X052563Y038984D01*
X052550Y038947D01*
X052533Y038911D01*
X052513Y038878D01*
X052489Y038846D01*
X052463Y038817D01*
X052434Y038791D01*
X052402Y038767D01*
X052369Y038747D01*
X052333Y038730D01*
X052296Y038717D01*
X052258Y038708D01*
X052219Y038702D01*
X052180Y038700D01*
X052141Y038702D01*
X052102Y038708D01*
X052064Y038717D01*
X052027Y038730D01*
X051991Y038747D01*
X051958Y038767D01*
X051926Y038791D01*
X051897Y038817D01*
X051871Y038846D01*
X051847Y038878D01*
X051827Y038911D01*
X051810Y038947D01*
X051797Y038984D01*
X051788Y039022D01*
X051782Y039061D01*
X051780Y039100D01*
X051030Y039100D01*
X051030Y029100D01*
X056030Y029100D02*
X058330Y029100D01*
X058330Y039100D01*
X057580Y039100D01*
X057578Y039061D01*
X057572Y039022D01*
X057563Y038984D01*
X057550Y038947D01*
X057533Y038911D01*
X057513Y038878D01*
X057489Y038846D01*
X057463Y038817D01*
X057434Y038791D01*
X057402Y038767D01*
X057369Y038747D01*
X057333Y038730D01*
X057296Y038717D01*
X057258Y038708D01*
X057219Y038702D01*
X057180Y038700D01*
X057141Y038702D01*
X057102Y038708D01*
X057064Y038717D01*
X057027Y038730D01*
X056991Y038747D01*
X056958Y038767D01*
X056926Y038791D01*
X056897Y038817D01*
X056871Y038846D01*
X056847Y038878D01*
X056827Y038911D01*
X056810Y038947D01*
X056797Y038984D01*
X056788Y039022D01*
X056782Y039061D01*
X056780Y039100D01*
X056030Y039100D01*
X056030Y029100D01*
X066030Y029100D02*
X066780Y029100D01*
X066782Y029061D01*
X066788Y029022D01*
X066797Y028984D01*
X066810Y028947D01*
X066827Y028911D01*
X066847Y028878D01*
X066871Y028846D01*
X066897Y028817D01*
X066926Y028791D01*
X066958Y028767D01*
X066991Y028747D01*
X067027Y028730D01*
X067064Y028717D01*
X067102Y028708D01*
X067141Y028702D01*
X067180Y028700D01*
X067219Y028702D01*
X067258Y028708D01*
X067296Y028717D01*
X067333Y028730D01*
X067369Y028747D01*
X067402Y028767D01*
X067434Y028791D01*
X067463Y028817D01*
X067489Y028846D01*
X067513Y028878D01*
X067533Y028911D01*
X067550Y028947D01*
X067563Y028984D01*
X067572Y029022D01*
X067578Y029061D01*
X067580Y029100D01*
X068330Y029100D01*
X068330Y019100D01*
X066030Y019100D01*
X066030Y029100D01*
X066530Y029650D02*
X067830Y029650D01*
X067856Y029652D01*
X067882Y029657D01*
X067907Y029665D01*
X067930Y029677D01*
X067952Y029691D01*
X067971Y029709D01*
X067989Y029728D01*
X068003Y029750D01*
X068015Y029773D01*
X068023Y029798D01*
X068028Y029824D01*
X068030Y029850D01*
X068030Y030350D01*
X068028Y030376D01*
X068023Y030402D01*
X068015Y030427D01*
X068003Y030450D01*
X067989Y030472D01*
X067971Y030491D01*
X067952Y030509D01*
X067930Y030523D01*
X067907Y030535D01*
X067882Y030543D01*
X067856Y030548D01*
X067830Y030550D01*
X066530Y030550D01*
X066504Y030548D01*
X066478Y030543D01*
X066453Y030535D01*
X066430Y030523D01*
X066408Y030509D01*
X066389Y030491D01*
X066371Y030472D01*
X066357Y030450D01*
X066345Y030427D01*
X066337Y030402D01*
X066332Y030376D01*
X066330Y030350D01*
X066330Y029850D01*
X066332Y029824D01*
X066337Y029798D01*
X066345Y029773D01*
X066357Y029750D01*
X066371Y029728D01*
X066389Y029709D01*
X066408Y029691D01*
X066430Y029677D01*
X066453Y029665D01*
X066478Y029657D01*
X066504Y029652D01*
X066530Y029650D01*
X066030Y032100D02*
X068330Y032100D01*
X068330Y039100D01*
X067580Y039100D01*
X067578Y039061D01*
X067572Y039022D01*
X067563Y038984D01*
X067550Y038947D01*
X067533Y038911D01*
X067513Y038878D01*
X067489Y038846D01*
X067463Y038817D01*
X067434Y038791D01*
X067402Y038767D01*
X067369Y038747D01*
X067333Y038730D01*
X067296Y038717D01*
X067258Y038708D01*
X067219Y038702D01*
X067180Y038700D01*
X067141Y038702D01*
X067102Y038708D01*
X067064Y038717D01*
X067027Y038730D01*
X066991Y038747D01*
X066958Y038767D01*
X066926Y038791D01*
X066897Y038817D01*
X066871Y038846D01*
X066847Y038878D01*
X066827Y038911D01*
X066810Y038947D01*
X066797Y038984D01*
X066788Y039022D01*
X066782Y039061D01*
X066780Y039100D01*
X066030Y039100D01*
X066030Y032100D01*
X071030Y032100D02*
X073330Y032100D01*
X073330Y039100D01*
X072580Y039100D01*
X072578Y039061D01*
X072572Y039022D01*
X072563Y038984D01*
X072550Y038947D01*
X072533Y038911D01*
X072513Y038878D01*
X072489Y038846D01*
X072463Y038817D01*
X072434Y038791D01*
X072402Y038767D01*
X072369Y038747D01*
X072333Y038730D01*
X072296Y038717D01*
X072258Y038708D01*
X072219Y038702D01*
X072180Y038700D01*
X072141Y038702D01*
X072102Y038708D01*
X072064Y038717D01*
X072027Y038730D01*
X071991Y038747D01*
X071958Y038767D01*
X071926Y038791D01*
X071897Y038817D01*
X071871Y038846D01*
X071847Y038878D01*
X071827Y038911D01*
X071810Y038947D01*
X071797Y038984D01*
X071788Y039022D01*
X071782Y039061D01*
X071780Y039100D01*
X071030Y039100D01*
X071030Y032100D01*
X076030Y031100D02*
X078330Y031100D01*
X078330Y038100D01*
X077580Y038100D01*
X077578Y038061D01*
X077572Y038022D01*
X077563Y037984D01*
X077550Y037947D01*
X077533Y037911D01*
X077513Y037878D01*
X077489Y037846D01*
X077463Y037817D01*
X077434Y037791D01*
X077402Y037767D01*
X077369Y037747D01*
X077333Y037730D01*
X077296Y037717D01*
X077258Y037708D01*
X077219Y037702D01*
X077180Y037700D01*
X077141Y037702D01*
X077102Y037708D01*
X077064Y037717D01*
X077027Y037730D01*
X076991Y037747D01*
X076958Y037767D01*
X076926Y037791D01*
X076897Y037817D01*
X076871Y037846D01*
X076847Y037878D01*
X076827Y037911D01*
X076810Y037947D01*
X076797Y037984D01*
X076788Y038022D01*
X076782Y038061D01*
X076780Y038100D01*
X076030Y038100D01*
X076030Y031100D01*
X076530Y028550D02*
X077830Y028550D01*
X077856Y028548D01*
X077882Y028543D01*
X077907Y028535D01*
X077930Y028523D01*
X077952Y028509D01*
X077971Y028491D01*
X077989Y028472D01*
X078003Y028450D01*
X078015Y028427D01*
X078023Y028402D01*
X078028Y028376D01*
X078030Y028350D01*
X078030Y027850D01*
X078028Y027824D01*
X078023Y027798D01*
X078015Y027773D01*
X078003Y027750D01*
X077989Y027728D01*
X077971Y027709D01*
X077952Y027691D01*
X077930Y027677D01*
X077907Y027665D01*
X077882Y027657D01*
X077856Y027652D01*
X077830Y027650D01*
X076530Y027650D01*
X076504Y027652D01*
X076478Y027657D01*
X076453Y027665D01*
X076430Y027677D01*
X076408Y027691D01*
X076389Y027709D01*
X076371Y027728D01*
X076357Y027750D01*
X076345Y027773D01*
X076337Y027798D01*
X076332Y027824D01*
X076330Y027850D01*
X076330Y028350D01*
X076332Y028376D01*
X076337Y028402D01*
X076345Y028427D01*
X076357Y028450D01*
X076371Y028472D01*
X076389Y028491D01*
X076408Y028509D01*
X076430Y028523D01*
X076453Y028535D01*
X076478Y028543D01*
X076504Y028548D01*
X076530Y028550D01*
X076780Y027100D02*
X076030Y027100D01*
X076030Y019100D01*
X078330Y019100D01*
X078330Y027100D01*
X077580Y027100D01*
X077578Y027061D01*
X077572Y027022D01*
X077563Y026984D01*
X077550Y026947D01*
X077533Y026911D01*
X077513Y026878D01*
X077489Y026846D01*
X077463Y026817D01*
X077434Y026791D01*
X077402Y026767D01*
X077369Y026747D01*
X077333Y026730D01*
X077296Y026717D01*
X077258Y026708D01*
X077219Y026702D01*
X077180Y026700D01*
X077141Y026702D01*
X077102Y026708D01*
X077064Y026717D01*
X077027Y026730D01*
X076991Y026747D01*
X076958Y026767D01*
X076926Y026791D01*
X076897Y026817D01*
X076871Y026846D01*
X076847Y026878D01*
X076827Y026911D01*
X076810Y026947D01*
X076797Y026984D01*
X076788Y027022D01*
X076782Y027061D01*
X076780Y027100D01*
X073330Y027100D02*
X072580Y027100D01*
X072578Y027061D01*
X072572Y027022D01*
X072563Y026984D01*
X072550Y026947D01*
X072533Y026911D01*
X072513Y026878D01*
X072489Y026846D01*
X072463Y026817D01*
X072434Y026791D01*
X072402Y026767D01*
X072369Y026747D01*
X072333Y026730D01*
X072296Y026717D01*
X072258Y026708D01*
X072219Y026702D01*
X072180Y026700D01*
X072141Y026702D01*
X072102Y026708D01*
X072064Y026717D01*
X072027Y026730D01*
X071991Y026747D01*
X071958Y026767D01*
X071926Y026791D01*
X071897Y026817D01*
X071871Y026846D01*
X071847Y026878D01*
X071827Y026911D01*
X071810Y026947D01*
X071797Y026984D01*
X071788Y027022D01*
X071782Y027061D01*
X071780Y027100D01*
X071030Y027100D01*
X071030Y019100D01*
X073330Y019100D01*
X073330Y027100D01*
X072830Y027650D02*
X071530Y027650D01*
X071504Y027652D01*
X071478Y027657D01*
X071453Y027665D01*
X071430Y027677D01*
X071408Y027691D01*
X071389Y027709D01*
X071371Y027728D01*
X071357Y027750D01*
X071345Y027773D01*
X071337Y027798D01*
X071332Y027824D01*
X071330Y027850D01*
X071330Y028350D01*
X071332Y028376D01*
X071337Y028402D01*
X071345Y028427D01*
X071357Y028450D01*
X071371Y028472D01*
X071389Y028491D01*
X071408Y028509D01*
X071430Y028523D01*
X071453Y028535D01*
X071478Y028543D01*
X071504Y028548D01*
X071530Y028550D01*
X072830Y028550D01*
X072856Y028548D01*
X072882Y028543D01*
X072907Y028535D01*
X072930Y028523D01*
X072952Y028509D01*
X072971Y028491D01*
X072989Y028472D01*
X073003Y028450D01*
X073015Y028427D01*
X073023Y028402D01*
X073028Y028376D01*
X073030Y028350D01*
X073030Y027850D01*
X073028Y027824D01*
X073023Y027798D01*
X073015Y027773D01*
X073003Y027750D01*
X072989Y027728D01*
X072971Y027709D01*
X072952Y027691D01*
X072930Y027677D01*
X072907Y027665D01*
X072882Y027657D01*
X072856Y027652D01*
X072830Y027650D01*
X070830Y018050D02*
X069530Y018050D01*
X069504Y018048D01*
X069478Y018043D01*
X069453Y018035D01*
X069430Y018023D01*
X069408Y018009D01*
X069389Y017991D01*
X069371Y017972D01*
X069357Y017950D01*
X069345Y017927D01*
X069337Y017902D01*
X069332Y017876D01*
X069330Y017850D01*
X069330Y017350D01*
X069332Y017324D01*
X069337Y017298D01*
X069345Y017273D01*
X069357Y017250D01*
X069371Y017228D01*
X069389Y017209D01*
X069408Y017191D01*
X069430Y017177D01*
X069453Y017165D01*
X069478Y017157D01*
X069504Y017152D01*
X069530Y017150D01*
X070830Y017150D01*
X070856Y017152D01*
X070882Y017157D01*
X070907Y017165D01*
X070930Y017177D01*
X070952Y017191D01*
X070971Y017209D01*
X070989Y017228D01*
X071003Y017250D01*
X071015Y017273D01*
X071023Y017298D01*
X071028Y017324D01*
X071030Y017350D01*
X071030Y017850D01*
X071028Y017876D01*
X071023Y017902D01*
X071015Y017927D01*
X071003Y017950D01*
X070989Y017972D01*
X070971Y017991D01*
X070952Y018009D01*
X070930Y018023D01*
X070907Y018035D01*
X070882Y018043D01*
X070856Y018048D01*
X070830Y018050D01*
X071530Y016550D02*
X072830Y016550D01*
X072856Y016548D01*
X072882Y016543D01*
X072907Y016535D01*
X072930Y016523D01*
X072952Y016509D01*
X072971Y016491D01*
X072989Y016472D01*
X073003Y016450D01*
X073015Y016427D01*
X073023Y016402D01*
X073028Y016376D01*
X073030Y016350D01*
X073030Y015850D01*
X073028Y015824D01*
X073023Y015798D01*
X073015Y015773D01*
X073003Y015750D01*
X072989Y015728D01*
X072971Y015709D01*
X072952Y015691D01*
X072930Y015677D01*
X072907Y015665D01*
X072882Y015657D01*
X072856Y015652D01*
X072830Y015650D01*
X071530Y015650D01*
X071504Y015652D01*
X071478Y015657D01*
X071453Y015665D01*
X071430Y015677D01*
X071408Y015691D01*
X071389Y015709D01*
X071371Y015728D01*
X071357Y015750D01*
X071345Y015773D01*
X071337Y015798D01*
X071332Y015824D01*
X071330Y015850D01*
X071330Y016350D01*
X071332Y016376D01*
X071337Y016402D01*
X071345Y016427D01*
X071357Y016450D01*
X071371Y016472D01*
X071389Y016491D01*
X071408Y016509D01*
X071430Y016523D01*
X071453Y016535D01*
X071478Y016543D01*
X071504Y016548D01*
X071530Y016550D01*
X071780Y015100D02*
X071030Y015100D01*
X071030Y008100D01*
X073330Y008100D01*
X073330Y015100D01*
X072580Y015100D01*
X072578Y015061D01*
X072572Y015022D01*
X072563Y014984D01*
X072550Y014947D01*
X072533Y014911D01*
X072513Y014878D01*
X072489Y014846D01*
X072463Y014817D01*
X072434Y014791D01*
X072402Y014767D01*
X072369Y014747D01*
X072333Y014730D01*
X072296Y014717D01*
X072258Y014708D01*
X072219Y014702D01*
X072180Y014700D01*
X072141Y014702D01*
X072102Y014708D01*
X072064Y014717D01*
X072027Y014730D01*
X071991Y014747D01*
X071958Y014767D01*
X071926Y014791D01*
X071897Y014817D01*
X071871Y014846D01*
X071847Y014878D01*
X071827Y014911D01*
X071810Y014947D01*
X071797Y014984D01*
X071788Y015022D01*
X071782Y015061D01*
X071780Y015100D01*
X076030Y015100D02*
X076780Y015100D01*
X076782Y015061D01*
X076788Y015022D01*
X076797Y014984D01*
X076810Y014947D01*
X076827Y014911D01*
X076847Y014878D01*
X076871Y014846D01*
X076897Y014817D01*
X076926Y014791D01*
X076958Y014767D01*
X076991Y014747D01*
X077027Y014730D01*
X077064Y014717D01*
X077102Y014708D01*
X077141Y014702D01*
X077180Y014700D01*
X077219Y014702D01*
X077258Y014708D01*
X077296Y014717D01*
X077333Y014730D01*
X077369Y014747D01*
X077402Y014767D01*
X077434Y014791D01*
X077463Y014817D01*
X077489Y014846D01*
X077513Y014878D01*
X077533Y014911D01*
X077550Y014947D01*
X077563Y014984D01*
X077572Y015022D01*
X077578Y015061D01*
X077580Y015100D01*
X078330Y015100D01*
X078330Y008100D01*
X076030Y008100D01*
X076030Y015100D01*
X076530Y015650D02*
X077830Y015650D01*
X077856Y015652D01*
X077882Y015657D01*
X077907Y015665D01*
X077930Y015677D01*
X077952Y015691D01*
X077971Y015709D01*
X077989Y015728D01*
X078003Y015750D01*
X078015Y015773D01*
X078023Y015798D01*
X078028Y015824D01*
X078030Y015850D01*
X078030Y016350D01*
X078028Y016376D01*
X078023Y016402D01*
X078015Y016427D01*
X078003Y016450D01*
X077989Y016472D01*
X077971Y016491D01*
X077952Y016509D01*
X077930Y016523D01*
X077907Y016535D01*
X077882Y016543D01*
X077856Y016548D01*
X077830Y016550D01*
X076530Y016550D01*
X076504Y016548D01*
X076478Y016543D01*
X076453Y016535D01*
X076430Y016523D01*
X076408Y016509D01*
X076389Y016491D01*
X076371Y016472D01*
X076357Y016450D01*
X076345Y016427D01*
X076337Y016402D01*
X076332Y016376D01*
X076330Y016350D01*
X076330Y015850D01*
X076332Y015824D01*
X076337Y015798D01*
X076345Y015773D01*
X076357Y015750D01*
X076371Y015728D01*
X076389Y015709D01*
X076408Y015691D01*
X076430Y015677D01*
X076453Y015665D01*
X076478Y015657D01*
X076504Y015652D01*
X076530Y015650D01*
X068330Y018100D02*
X067580Y018100D01*
X067578Y018061D01*
X067572Y018022D01*
X067563Y017984D01*
X067550Y017947D01*
X067533Y017911D01*
X067513Y017878D01*
X067489Y017846D01*
X067463Y017817D01*
X067434Y017791D01*
X067402Y017767D01*
X067369Y017747D01*
X067333Y017730D01*
X067296Y017717D01*
X067258Y017708D01*
X067219Y017702D01*
X067180Y017700D01*
X067141Y017702D01*
X067102Y017708D01*
X067064Y017717D01*
X067027Y017730D01*
X066991Y017747D01*
X066958Y017767D01*
X066926Y017791D01*
X066897Y017817D01*
X066871Y017846D01*
X066847Y017878D01*
X066827Y017911D01*
X066810Y017947D01*
X066797Y017984D01*
X066788Y018022D01*
X066782Y018061D01*
X066780Y018100D01*
X066030Y018100D01*
X066030Y008100D01*
X068330Y008100D01*
X068330Y018100D01*
X074330Y037850D02*
X075030Y037850D01*
X075047Y037852D01*
X075064Y037856D01*
X075080Y037863D01*
X075094Y037873D01*
X075107Y037886D01*
X075117Y037900D01*
X075124Y037916D01*
X075128Y037933D01*
X075130Y037950D01*
X075130Y038100D01*
X075080Y038150D01*
X075080Y040050D01*
X075130Y040100D01*
X075130Y040250D01*
X075128Y040267D01*
X075124Y040284D01*
X075117Y040300D01*
X075107Y040314D01*
X075094Y040327D01*
X075080Y040337D01*
X075064Y040344D01*
X075047Y040348D01*
X075030Y040350D01*
X074330Y040350D01*
X074313Y040348D01*
X074296Y040344D01*
X074280Y040337D01*
X074266Y040327D01*
X074253Y040314D01*
X074243Y040300D01*
X074236Y040284D01*
X074232Y040267D01*
X074230Y040250D01*
X074230Y040100D01*
X074280Y040050D01*
X074280Y038150D01*
X074230Y038100D01*
X074230Y037950D01*
X074232Y037933D01*
X074236Y037916D01*
X074243Y037900D01*
X074253Y037886D01*
X074266Y037873D01*
X074280Y037863D01*
X074296Y037856D01*
X074313Y037852D01*
X074330Y037850D01*
X076330Y038850D02*
X076330Y039350D01*
X076332Y039376D01*
X076337Y039402D01*
X076345Y039427D01*
X076357Y039450D01*
X076371Y039472D01*
X076389Y039491D01*
X076408Y039509D01*
X076430Y039523D01*
X076453Y039535D01*
X076478Y039543D01*
X076504Y039548D01*
X076530Y039550D01*
X077830Y039550D01*
X077856Y039548D01*
X077882Y039543D01*
X077907Y039535D01*
X077930Y039523D01*
X077952Y039509D01*
X077971Y039491D01*
X077989Y039472D01*
X078003Y039450D01*
X078015Y039427D01*
X078023Y039402D01*
X078028Y039376D01*
X078030Y039350D01*
X078030Y038850D01*
X078028Y038824D01*
X078023Y038798D01*
X078015Y038773D01*
X078003Y038750D01*
X077989Y038728D01*
X077971Y038709D01*
X077952Y038691D01*
X077930Y038677D01*
X077907Y038665D01*
X077882Y038657D01*
X077856Y038652D01*
X077830Y038650D01*
X076530Y038650D01*
X076504Y038652D01*
X076478Y038657D01*
X076453Y038665D01*
X076430Y038677D01*
X076408Y038691D01*
X076389Y038709D01*
X076371Y038728D01*
X076357Y038750D01*
X076345Y038773D01*
X076337Y038798D01*
X076332Y038824D01*
X076330Y038850D01*
X073030Y039850D02*
X073030Y040350D01*
X073028Y040376D01*
X073023Y040402D01*
X073015Y040427D01*
X073003Y040450D01*
X072989Y040472D01*
X072971Y040491D01*
X072952Y040509D01*
X072930Y040523D01*
X072907Y040535D01*
X072882Y040543D01*
X072856Y040548D01*
X072830Y040550D01*
X071530Y040550D01*
X071504Y040548D01*
X071478Y040543D01*
X071453Y040535D01*
X071430Y040523D01*
X071408Y040509D01*
X071389Y040491D01*
X071371Y040472D01*
X071357Y040450D01*
X071345Y040427D01*
X071337Y040402D01*
X071332Y040376D01*
X071330Y040350D01*
X071330Y039850D01*
X071332Y039824D01*
X071337Y039798D01*
X071345Y039773D01*
X071357Y039750D01*
X071371Y039728D01*
X071389Y039709D01*
X071408Y039691D01*
X071430Y039677D01*
X071453Y039665D01*
X071478Y039657D01*
X071504Y039652D01*
X071530Y039650D01*
X072830Y039650D01*
X072856Y039652D01*
X072882Y039657D01*
X072907Y039665D01*
X072930Y039677D01*
X072952Y039691D01*
X072971Y039709D01*
X072989Y039728D01*
X073003Y039750D01*
X073015Y039773D01*
X073023Y039798D01*
X073028Y039824D01*
X073030Y039850D01*
X068030Y039850D02*
X068030Y040350D01*
X068028Y040376D01*
X068023Y040402D01*
X068015Y040427D01*
X068003Y040450D01*
X067989Y040472D01*
X067971Y040491D01*
X067952Y040509D01*
X067930Y040523D01*
X067907Y040535D01*
X067882Y040543D01*
X067856Y040548D01*
X067830Y040550D01*
X066530Y040550D01*
X066504Y040548D01*
X066478Y040543D01*
X066453Y040535D01*
X066430Y040523D01*
X066408Y040509D01*
X066389Y040491D01*
X066371Y040472D01*
X066357Y040450D01*
X066345Y040427D01*
X066337Y040402D01*
X066332Y040376D01*
X066330Y040350D01*
X066330Y039850D01*
X066332Y039824D01*
X066337Y039798D01*
X066345Y039773D01*
X066357Y039750D01*
X066371Y039728D01*
X066389Y039709D01*
X066408Y039691D01*
X066430Y039677D01*
X066453Y039665D01*
X066478Y039657D01*
X066504Y039652D01*
X066530Y039650D01*
X067830Y039650D01*
X067856Y039652D01*
X067882Y039657D01*
X067907Y039665D01*
X067930Y039677D01*
X067952Y039691D01*
X067971Y039709D01*
X067989Y039728D01*
X068003Y039750D01*
X068015Y039773D01*
X068023Y039798D01*
X068028Y039824D01*
X068030Y039850D01*
X058030Y039850D02*
X058030Y040350D01*
X058028Y040376D01*
X058023Y040402D01*
X058015Y040427D01*
X058003Y040450D01*
X057989Y040472D01*
X057971Y040491D01*
X057952Y040509D01*
X057930Y040523D01*
X057907Y040535D01*
X057882Y040543D01*
X057856Y040548D01*
X057830Y040550D01*
X056530Y040550D01*
X056504Y040548D01*
X056478Y040543D01*
X056453Y040535D01*
X056430Y040523D01*
X056408Y040509D01*
X056389Y040491D01*
X056371Y040472D01*
X056357Y040450D01*
X056345Y040427D01*
X056337Y040402D01*
X056332Y040376D01*
X056330Y040350D01*
X056330Y039850D01*
X056332Y039824D01*
X056337Y039798D01*
X056345Y039773D01*
X056357Y039750D01*
X056371Y039728D01*
X056389Y039709D01*
X056408Y039691D01*
X056430Y039677D01*
X056453Y039665D01*
X056478Y039657D01*
X056504Y039652D01*
X056530Y039650D01*
X057830Y039650D01*
X057856Y039652D01*
X057882Y039657D01*
X057907Y039665D01*
X057930Y039677D01*
X057952Y039691D01*
X057971Y039709D01*
X057989Y039728D01*
X058003Y039750D01*
X058015Y039773D01*
X058023Y039798D01*
X058028Y039824D01*
X058030Y039850D01*
X053030Y039850D02*
X053030Y040350D01*
X053028Y040376D01*
X053023Y040402D01*
X053015Y040427D01*
X053003Y040450D01*
X052989Y040472D01*
X052971Y040491D01*
X052952Y040509D01*
X052930Y040523D01*
X052907Y040535D01*
X052882Y040543D01*
X052856Y040548D01*
X052830Y040550D01*
X051530Y040550D01*
X051504Y040548D01*
X051478Y040543D01*
X051453Y040535D01*
X051430Y040523D01*
X051408Y040509D01*
X051389Y040491D01*
X051371Y040472D01*
X051357Y040450D01*
X051345Y040427D01*
X051337Y040402D01*
X051332Y040376D01*
X051330Y040350D01*
X051330Y039850D01*
X051332Y039824D01*
X051337Y039798D01*
X051345Y039773D01*
X051357Y039750D01*
X051371Y039728D01*
X051389Y039709D01*
X051408Y039691D01*
X051430Y039677D01*
X051453Y039665D01*
X051478Y039657D01*
X051504Y039652D01*
X051530Y039650D01*
X052830Y039650D01*
X052856Y039652D01*
X052882Y039657D01*
X052907Y039665D01*
X052930Y039677D01*
X052952Y039691D01*
X052971Y039709D01*
X052989Y039728D01*
X053003Y039750D01*
X053015Y039773D01*
X053023Y039798D01*
X053028Y039824D01*
X053030Y039850D01*
X048030Y039850D02*
X048030Y040350D01*
X048028Y040376D01*
X048023Y040402D01*
X048015Y040427D01*
X048003Y040450D01*
X047989Y040472D01*
X047971Y040491D01*
X047952Y040509D01*
X047930Y040523D01*
X047907Y040535D01*
X047882Y040543D01*
X047856Y040548D01*
X047830Y040550D01*
X046530Y040550D01*
X046504Y040548D01*
X046478Y040543D01*
X046453Y040535D01*
X046430Y040523D01*
X046408Y040509D01*
X046389Y040491D01*
X046371Y040472D01*
X046357Y040450D01*
X046345Y040427D01*
X046337Y040402D01*
X046332Y040376D01*
X046330Y040350D01*
X046330Y039850D01*
X046332Y039824D01*
X046337Y039798D01*
X046345Y039773D01*
X046357Y039750D01*
X046371Y039728D01*
X046389Y039709D01*
X046408Y039691D01*
X046430Y039677D01*
X046453Y039665D01*
X046478Y039657D01*
X046504Y039652D01*
X046530Y039650D01*
X047830Y039650D01*
X047856Y039652D01*
X047882Y039657D01*
X047907Y039665D01*
X047930Y039677D01*
X047952Y039691D01*
X047971Y039709D01*
X047989Y039728D01*
X048003Y039750D01*
X048015Y039773D01*
X048023Y039798D01*
X048028Y039824D01*
X048030Y039850D01*
X043030Y039850D02*
X043030Y040350D01*
X043028Y040376D01*
X043023Y040402D01*
X043015Y040427D01*
X043003Y040450D01*
X042989Y040472D01*
X042971Y040491D01*
X042952Y040509D01*
X042930Y040523D01*
X042907Y040535D01*
X042882Y040543D01*
X042856Y040548D01*
X042830Y040550D01*
X041530Y040550D01*
X041504Y040548D01*
X041478Y040543D01*
X041453Y040535D01*
X041430Y040523D01*
X041408Y040509D01*
X041389Y040491D01*
X041371Y040472D01*
X041357Y040450D01*
X041345Y040427D01*
X041337Y040402D01*
X041332Y040376D01*
X041330Y040350D01*
X041330Y039850D01*
X041332Y039824D01*
X041337Y039798D01*
X041345Y039773D01*
X041357Y039750D01*
X041371Y039728D01*
X041389Y039709D01*
X041408Y039691D01*
X041430Y039677D01*
X041453Y039665D01*
X041478Y039657D01*
X041504Y039652D01*
X041530Y039650D01*
X042830Y039650D01*
X042856Y039652D01*
X042882Y039657D01*
X042907Y039665D01*
X042930Y039677D01*
X042952Y039691D01*
X042971Y039709D01*
X042989Y039728D01*
X043003Y039750D01*
X043015Y039773D01*
X043023Y039798D01*
X043028Y039824D01*
X043030Y039850D01*
X038030Y039850D02*
X038030Y040350D01*
X038028Y040376D01*
X038023Y040402D01*
X038015Y040427D01*
X038003Y040450D01*
X037989Y040472D01*
X037971Y040491D01*
X037952Y040509D01*
X037930Y040523D01*
X037907Y040535D01*
X037882Y040543D01*
X037856Y040548D01*
X037830Y040550D01*
X036530Y040550D01*
X036504Y040548D01*
X036478Y040543D01*
X036453Y040535D01*
X036430Y040523D01*
X036408Y040509D01*
X036389Y040491D01*
X036371Y040472D01*
X036357Y040450D01*
X036345Y040427D01*
X036337Y040402D01*
X036332Y040376D01*
X036330Y040350D01*
X036330Y039850D01*
X036332Y039824D01*
X036337Y039798D01*
X036345Y039773D01*
X036357Y039750D01*
X036371Y039728D01*
X036389Y039709D01*
X036408Y039691D01*
X036430Y039677D01*
X036453Y039665D01*
X036478Y039657D01*
X036504Y039652D01*
X036530Y039650D01*
X037830Y039650D01*
X037856Y039652D01*
X037882Y039657D01*
X037907Y039665D01*
X037930Y039677D01*
X037952Y039691D01*
X037971Y039709D01*
X037989Y039728D01*
X038003Y039750D01*
X038015Y039773D01*
X038023Y039798D01*
X038028Y039824D01*
X038030Y039850D01*
X033030Y039850D02*
X033030Y040350D01*
X033028Y040376D01*
X033023Y040402D01*
X033015Y040427D01*
X033003Y040450D01*
X032989Y040472D01*
X032971Y040491D01*
X032952Y040509D01*
X032930Y040523D01*
X032907Y040535D01*
X032882Y040543D01*
X032856Y040548D01*
X032830Y040550D01*
X031530Y040550D01*
X031504Y040548D01*
X031478Y040543D01*
X031453Y040535D01*
X031430Y040523D01*
X031408Y040509D01*
X031389Y040491D01*
X031371Y040472D01*
X031357Y040450D01*
X031345Y040427D01*
X031337Y040402D01*
X031332Y040376D01*
X031330Y040350D01*
X031330Y039850D01*
X031332Y039824D01*
X031337Y039798D01*
X031345Y039773D01*
X031357Y039750D01*
X031371Y039728D01*
X031389Y039709D01*
X031408Y039691D01*
X031430Y039677D01*
X031453Y039665D01*
X031478Y039657D01*
X031504Y039652D01*
X031530Y039650D01*
X032830Y039650D01*
X032856Y039652D01*
X032882Y039657D01*
X032907Y039665D01*
X032930Y039677D01*
X032952Y039691D01*
X032971Y039709D01*
X032989Y039728D01*
X033003Y039750D01*
X033015Y039773D01*
X033023Y039798D01*
X033028Y039824D01*
X033030Y039850D01*
D12*
X032875Y040710D02*
X032548Y040710D01*
X032711Y040710D02*
X032711Y041200D01*
X032548Y041037D01*
X032359Y040710D02*
X032032Y040710D01*
X032196Y040710D02*
X032196Y041200D01*
X032032Y041037D01*
X031843Y041119D02*
X031762Y041200D01*
X031598Y041200D01*
X031517Y041119D01*
X031517Y040792D01*
X031598Y040710D01*
X031762Y040710D01*
X031843Y040792D01*
X036517Y040792D02*
X036598Y040710D01*
X036762Y040710D01*
X036843Y040792D01*
X037032Y040710D02*
X037359Y040710D01*
X037196Y040710D02*
X037196Y041200D01*
X037032Y041037D01*
X036843Y041119D02*
X036762Y041200D01*
X036598Y041200D01*
X036517Y041119D01*
X036517Y040792D01*
X037548Y040710D02*
X037875Y041037D01*
X037875Y041119D01*
X037793Y041200D01*
X037630Y041200D01*
X037548Y041119D01*
X037548Y040710D02*
X037875Y040710D01*
X041517Y040792D02*
X041598Y040710D01*
X041762Y040710D01*
X041843Y040792D01*
X042032Y040710D02*
X042359Y040710D01*
X042196Y040710D02*
X042196Y041200D01*
X042032Y041037D01*
X041843Y041119D02*
X041762Y041200D01*
X041598Y041200D01*
X041517Y041119D01*
X041517Y040792D01*
X042548Y040792D02*
X042630Y040710D01*
X042793Y040710D01*
X042875Y040792D01*
X042875Y040873D01*
X042793Y040955D01*
X042711Y040955D01*
X042793Y040955D02*
X042875Y041037D01*
X042875Y041119D01*
X042793Y041200D01*
X042630Y041200D01*
X042548Y041119D01*
X046517Y041119D02*
X046517Y040792D01*
X046598Y040710D01*
X046762Y040710D01*
X046843Y040792D01*
X047032Y040710D02*
X047359Y040710D01*
X047196Y040710D02*
X047196Y041200D01*
X047032Y041037D01*
X046843Y041119D02*
X046762Y041200D01*
X046598Y041200D01*
X046517Y041119D01*
X047548Y040955D02*
X047875Y040955D01*
X047793Y040710D02*
X047793Y041200D01*
X047548Y040955D01*
X051517Y040792D02*
X051598Y040710D01*
X051762Y040710D01*
X051843Y040792D01*
X052032Y040710D02*
X052359Y040710D01*
X052196Y040710D02*
X052196Y041200D01*
X052032Y041037D01*
X051843Y041119D02*
X051762Y041200D01*
X051598Y041200D01*
X051517Y041119D01*
X051517Y040792D01*
X052548Y040792D02*
X052630Y040710D01*
X052793Y040710D01*
X052875Y040792D01*
X052875Y040955D01*
X052793Y041037D01*
X052711Y041037D01*
X052548Y040955D01*
X052548Y041200D01*
X052875Y041200D01*
X056517Y041119D02*
X056517Y040792D01*
X056598Y040710D01*
X056762Y040710D01*
X056843Y040792D01*
X057032Y040710D02*
X057359Y040710D01*
X057196Y040710D02*
X057196Y041200D01*
X057032Y041037D01*
X056843Y041119D02*
X056762Y041200D01*
X056598Y041200D01*
X056517Y041119D01*
X057548Y040955D02*
X057793Y040955D01*
X057875Y040873D01*
X057875Y040792D01*
X057793Y040710D01*
X057630Y040710D01*
X057548Y040792D01*
X057548Y040955D01*
X057711Y041119D01*
X057875Y041200D01*
X057310Y037796D02*
X057310Y037469D01*
X057065Y037715D01*
X057555Y037715D01*
X057146Y037281D02*
X057473Y036954D01*
X057555Y036954D01*
X057473Y036765D02*
X057555Y036683D01*
X057555Y036520D01*
X057473Y036438D01*
X057310Y036438D02*
X057228Y036602D01*
X057228Y036683D01*
X057310Y036765D01*
X057473Y036765D01*
X057310Y036438D02*
X057065Y036438D01*
X057065Y036765D01*
X057065Y036954D02*
X057065Y037281D01*
X057146Y037281D01*
X057310Y036249D02*
X057310Y035922D01*
X057065Y036168D01*
X057555Y036168D01*
X057146Y035734D02*
X057473Y035407D01*
X057555Y035407D01*
X057065Y035407D02*
X057065Y035734D01*
X057146Y035734D01*
X052555Y035407D02*
X052473Y035407D01*
X052146Y035734D01*
X052065Y035734D01*
X052065Y035407D01*
X052310Y035922D02*
X052065Y036168D01*
X052555Y036168D01*
X052310Y036249D02*
X052310Y035922D01*
X052146Y036438D02*
X052065Y036520D01*
X052065Y036683D01*
X052146Y036765D01*
X052228Y036765D01*
X052555Y036438D01*
X052555Y036765D01*
X052310Y036954D02*
X052065Y037199D01*
X052555Y037199D01*
X052310Y037281D02*
X052310Y036954D01*
X052310Y037469D02*
X052228Y037633D01*
X052228Y037715D01*
X052310Y037796D01*
X052473Y037796D01*
X052555Y037715D01*
X052555Y037551D01*
X052473Y037469D01*
X052310Y037469D02*
X052065Y037469D01*
X052065Y037796D01*
X047555Y037715D02*
X047065Y037715D01*
X047310Y037469D01*
X047310Y037796D01*
X047310Y037281D02*
X047310Y036954D01*
X047065Y037199D01*
X047555Y037199D01*
X047555Y036765D02*
X047555Y036438D01*
X047228Y036765D01*
X047146Y036765D01*
X047065Y036683D01*
X047065Y036520D01*
X047146Y036438D01*
X047310Y036249D02*
X047310Y035922D01*
X047065Y036168D01*
X047555Y036168D01*
X047146Y035734D02*
X047473Y035407D01*
X047555Y035407D01*
X047065Y035407D02*
X047065Y035734D01*
X047146Y035734D01*
X042805Y035407D02*
X042723Y035407D01*
X042396Y035734D01*
X042315Y035734D01*
X042315Y035407D01*
X042560Y035922D02*
X042560Y036249D01*
X042396Y036438D02*
X042315Y036520D01*
X042315Y036683D01*
X042396Y036765D01*
X042478Y036765D01*
X042805Y036438D01*
X042805Y036765D01*
X042560Y036954D02*
X042560Y037281D01*
X042560Y037469D02*
X042560Y037796D01*
X042805Y037715D02*
X042315Y037715D01*
X042560Y037469D01*
X042805Y037199D02*
X042315Y037199D01*
X042560Y036954D01*
X042805Y036168D02*
X042315Y036168D01*
X042560Y035922D01*
X037555Y036168D02*
X037065Y036168D01*
X037310Y035922D01*
X037310Y036249D01*
X037146Y036438D02*
X037065Y036520D01*
X037065Y036683D01*
X037146Y036765D01*
X037228Y036765D01*
X037555Y036438D01*
X037555Y036765D01*
X037310Y036954D02*
X037310Y037281D01*
X037310Y037469D02*
X037310Y037796D01*
X037555Y037715D02*
X037065Y037715D01*
X037310Y037469D01*
X037555Y037199D02*
X037065Y037199D01*
X037310Y036954D01*
X037146Y035734D02*
X037473Y035407D01*
X037555Y035407D01*
X037065Y035407D02*
X037065Y035734D01*
X037146Y035734D01*
X032555Y035668D02*
X032065Y035668D01*
X032310Y035422D01*
X032310Y035749D01*
X032146Y035938D02*
X032065Y036020D01*
X032065Y036183D01*
X032146Y036265D01*
X032228Y036265D01*
X032555Y035938D01*
X032555Y036265D01*
X032555Y036454D02*
X032473Y036454D01*
X032146Y036781D01*
X032065Y036781D01*
X032065Y036454D01*
X032146Y036969D02*
X032065Y037051D01*
X032065Y037215D01*
X032146Y037296D01*
X032228Y037296D01*
X032310Y037215D01*
X032392Y037296D01*
X032473Y037296D01*
X032555Y037215D01*
X032555Y037051D01*
X032473Y036969D01*
X032310Y037133D02*
X032310Y037215D01*
X029860Y037190D02*
X029860Y036863D01*
X029533Y037190D01*
X029451Y037190D01*
X029370Y037108D01*
X029370Y036945D01*
X029451Y036863D01*
X029451Y036674D02*
X029615Y036674D01*
X029697Y036592D01*
X029697Y036347D01*
X029860Y036347D02*
X029370Y036347D01*
X029370Y036592D01*
X029451Y036674D01*
X029370Y036158D02*
X029370Y035995D01*
X029370Y036077D02*
X029778Y036077D01*
X029860Y035995D01*
X029860Y035913D01*
X029778Y035832D01*
X032065Y035234D02*
X032065Y034907D01*
X032065Y035234D02*
X032146Y035234D01*
X032473Y034907D01*
X032555Y034907D01*
X027805Y035993D02*
X027723Y035912D01*
X027315Y035912D01*
X027315Y036238D02*
X027723Y036238D01*
X027805Y036157D01*
X027805Y035993D01*
X027805Y036427D02*
X027805Y036754D01*
X027805Y036591D02*
X027315Y036591D01*
X027478Y036427D01*
X027396Y036943D02*
X027315Y037025D01*
X027315Y037188D01*
X027396Y037270D01*
X027723Y036943D01*
X027805Y037025D01*
X027805Y037188D01*
X027723Y037270D01*
X027396Y037270D01*
X027396Y036943D02*
X027723Y036943D01*
X022939Y036630D02*
X022612Y036630D01*
X022857Y036875D01*
X022857Y036385D01*
X022423Y036794D02*
X022096Y036467D01*
X022096Y036385D01*
X021826Y036385D02*
X021826Y036875D01*
X021581Y036630D01*
X021908Y036630D01*
X022096Y036875D02*
X022423Y036875D01*
X022423Y036794D01*
X021392Y036794D02*
X021065Y036467D01*
X021065Y036385D01*
X021065Y036875D02*
X021392Y036875D01*
X021392Y036794D01*
X018570Y036779D02*
X018570Y036452D01*
X018570Y036616D02*
X018080Y036616D01*
X018243Y036452D01*
X018161Y036263D02*
X018080Y036182D01*
X018080Y036018D01*
X018161Y035937D01*
X018488Y035937D01*
X018570Y036018D01*
X018570Y036182D01*
X018488Y036263D01*
X018488Y036968D02*
X018161Y036968D01*
X018080Y037050D01*
X018080Y037213D01*
X018161Y037295D01*
X018488Y036968D01*
X018570Y037050D01*
X018570Y037213D01*
X018488Y037295D01*
X018161Y037295D01*
X016305Y036930D02*
X015815Y036930D01*
X016060Y036685D01*
X016060Y037012D01*
X016223Y036496D02*
X015815Y036496D01*
X015815Y036169D02*
X016223Y036169D01*
X016305Y036251D01*
X016305Y036415D01*
X016223Y036496D01*
X011439Y036630D02*
X011112Y036630D01*
X011357Y036875D01*
X011357Y036385D01*
X010923Y036467D02*
X010923Y036794D01*
X010596Y036467D01*
X010678Y036385D01*
X010841Y036385D01*
X010923Y036467D01*
X010923Y036794D02*
X010841Y036875D01*
X010678Y036875D01*
X010596Y036794D01*
X010596Y036467D01*
X010408Y036630D02*
X010081Y036630D01*
X010326Y036875D01*
X010326Y036385D01*
X009892Y036794D02*
X009565Y036467D01*
X009565Y036385D01*
X009565Y036875D02*
X009892Y036875D01*
X009892Y036794D01*
X007070Y036955D02*
X006580Y036955D01*
X006825Y036710D01*
X006825Y037037D01*
X006988Y036521D02*
X007070Y036440D01*
X007070Y036276D01*
X006988Y036194D01*
X006661Y036194D01*
X006580Y036276D01*
X006580Y036440D01*
X006661Y036521D01*
X005503Y035150D02*
X005503Y034660D01*
X005340Y034660D02*
X005667Y034660D01*
X005340Y034987D02*
X005503Y035150D01*
X005151Y035069D02*
X005070Y035150D01*
X004824Y035150D01*
X004824Y034660D01*
X005070Y034660D01*
X005151Y034742D01*
X005151Y035069D01*
X006340Y033798D02*
X006830Y033798D01*
X006830Y033635D02*
X006830Y033962D01*
X006503Y033635D02*
X006340Y033798D01*
X006421Y033446D02*
X006748Y033446D01*
X006830Y033365D01*
X006830Y033201D01*
X006748Y033119D01*
X006421Y033119D01*
X006340Y033201D01*
X006340Y033365D01*
X006421Y033446D01*
X006667Y033283D02*
X006830Y033446D01*
X006907Y031537D02*
X006988Y031537D01*
X007070Y031455D01*
X007070Y031292D01*
X006988Y031210D01*
X006988Y031021D02*
X007070Y030940D01*
X007070Y030776D01*
X006988Y030694D01*
X006661Y030694D01*
X006580Y030776D01*
X006580Y030940D01*
X006661Y031021D01*
X006661Y031210D02*
X006580Y031292D01*
X006580Y031455D01*
X006661Y031537D01*
X006743Y031537D01*
X006825Y031455D01*
X006907Y031537D01*
X006825Y031455D02*
X006825Y031373D01*
X005895Y030396D02*
X005732Y030151D01*
X005568Y030396D01*
X005405Y030151D02*
X005895Y030151D01*
X005895Y029963D02*
X005895Y029636D01*
X005568Y029963D01*
X005486Y029963D01*
X005405Y029881D01*
X005405Y029717D01*
X005486Y029636D01*
X005486Y029447D02*
X005405Y029365D01*
X005405Y029202D01*
X005486Y029120D01*
X005486Y029447D02*
X005568Y029447D01*
X005895Y029120D01*
X005895Y029447D01*
X004895Y029447D02*
X004895Y029120D01*
X004568Y029447D01*
X004486Y029447D01*
X004405Y029365D01*
X004405Y029202D01*
X004486Y029120D01*
X004405Y029636D02*
X004405Y029963D01*
X004486Y029963D01*
X004813Y029636D01*
X004895Y029636D01*
X004813Y030151D02*
X004486Y030478D01*
X004813Y030478D01*
X004895Y030396D01*
X004895Y030233D01*
X004813Y030151D01*
X004486Y030151D01*
X004405Y030233D01*
X004405Y030396D01*
X004486Y030478D01*
X009565Y030885D02*
X009565Y030967D01*
X009892Y031294D01*
X009892Y031375D01*
X009565Y031375D01*
X010081Y031130D02*
X010408Y031130D01*
X010596Y031212D02*
X010760Y031375D01*
X010760Y030885D01*
X010923Y030885D02*
X010596Y030885D01*
X010326Y030885D02*
X010326Y031375D01*
X010081Y031130D01*
X011112Y030967D02*
X011112Y031294D01*
X011194Y031375D01*
X011357Y031375D01*
X011439Y031294D01*
X011112Y030967D01*
X011194Y030885D01*
X011357Y030885D01*
X011439Y030967D01*
X011439Y031294D01*
X015815Y031267D02*
X015815Y031430D01*
X015896Y031512D01*
X015978Y031512D01*
X016060Y031430D01*
X016142Y031512D01*
X016223Y031512D01*
X016305Y031430D01*
X016305Y031267D01*
X016223Y031185D01*
X016223Y030996D02*
X015815Y030996D01*
X015896Y031185D02*
X015815Y031267D01*
X016060Y031348D02*
X016060Y031430D01*
X016223Y030996D02*
X016305Y030915D01*
X016305Y030751D01*
X016223Y030669D01*
X015815Y030669D01*
X018080Y030776D02*
X018161Y030694D01*
X018488Y030694D01*
X018570Y030776D01*
X018570Y030940D01*
X018488Y031021D01*
X018488Y031210D02*
X018570Y031292D01*
X018570Y031455D01*
X018488Y031537D01*
X018161Y031537D01*
X018080Y031455D01*
X018080Y031292D01*
X018161Y031210D01*
X018243Y031210D01*
X018325Y031292D01*
X018325Y031537D01*
X018161Y031021D02*
X018080Y030940D01*
X018080Y030776D01*
X021065Y030842D02*
X021065Y030760D01*
X021065Y030842D02*
X021392Y031169D01*
X021392Y031250D01*
X021065Y031250D01*
X021581Y031005D02*
X021908Y031005D01*
X022096Y030842D02*
X022096Y030760D01*
X022096Y030842D02*
X022423Y031169D01*
X022423Y031250D01*
X022096Y031250D01*
X021826Y031250D02*
X021581Y031005D01*
X021826Y030760D02*
X021826Y031250D01*
X022612Y031005D02*
X022939Y031005D01*
X022857Y030760D02*
X022857Y031250D01*
X022612Y031005D01*
X027315Y030996D02*
X027723Y030996D01*
X027805Y030915D01*
X027805Y030751D01*
X027723Y030669D01*
X027315Y030669D01*
X027396Y031185D02*
X027315Y031267D01*
X027315Y031430D01*
X027396Y031512D01*
X027723Y031512D01*
X027805Y031430D01*
X027805Y031267D01*
X027723Y031185D01*
X027560Y031267D02*
X027560Y031512D01*
X027560Y031267D02*
X027478Y031185D01*
X027396Y031185D01*
X031492Y028965D02*
X031492Y028557D01*
X031573Y028475D01*
X031737Y028475D01*
X031818Y028557D01*
X031818Y028965D01*
X032007Y028802D02*
X032171Y028965D01*
X032171Y028475D01*
X032334Y028475D02*
X032007Y028475D01*
X032523Y028475D02*
X032850Y028475D01*
X032686Y028475D02*
X032686Y028965D01*
X032523Y028802D01*
X033348Y027200D02*
X033267Y027119D01*
X033267Y026792D01*
X033348Y026710D01*
X033512Y026710D01*
X033593Y026792D01*
X033782Y026710D02*
X034109Y027037D01*
X034109Y027119D01*
X034027Y027200D01*
X033864Y027200D01*
X033782Y027119D01*
X033593Y027119D02*
X033512Y027200D01*
X033348Y027200D01*
X033782Y026710D02*
X034109Y026710D01*
X034298Y026792D02*
X034380Y026710D01*
X034543Y026710D01*
X034625Y026792D01*
X034625Y027119D01*
X034543Y027200D01*
X034380Y027200D01*
X034298Y027119D01*
X034298Y027037D01*
X034380Y026955D01*
X034625Y026955D01*
X036492Y028557D02*
X036573Y028475D01*
X036737Y028475D01*
X036818Y028557D01*
X036818Y028965D01*
X037007Y028802D02*
X037171Y028965D01*
X037171Y028475D01*
X037334Y028475D02*
X037007Y028475D01*
X037523Y028475D02*
X037850Y028802D01*
X037850Y028884D01*
X037768Y028965D01*
X037605Y028965D01*
X037523Y028884D01*
X037523Y028475D02*
X037850Y028475D01*
X038503Y027375D02*
X038667Y027375D01*
X038585Y027375D02*
X038585Y026967D01*
X038503Y026885D01*
X038422Y026885D01*
X038340Y026967D01*
X038856Y027048D02*
X039101Y027048D01*
X039183Y027130D01*
X039183Y027294D01*
X039101Y027375D01*
X038856Y027375D01*
X038856Y026885D01*
X039371Y026967D02*
X039453Y026885D01*
X039616Y026885D01*
X039698Y026967D01*
X039698Y027048D01*
X039616Y027130D01*
X039535Y027130D01*
X039616Y027130D02*
X039698Y027212D01*
X039698Y027294D01*
X039616Y027375D01*
X039453Y027375D01*
X039371Y027294D01*
X041492Y028557D02*
X041492Y028965D01*
X041818Y028965D02*
X041818Y028557D01*
X041737Y028475D01*
X041573Y028475D01*
X041492Y028557D01*
X042007Y028475D02*
X042334Y028475D01*
X042171Y028475D02*
X042171Y028965D01*
X042007Y028802D01*
X042523Y028884D02*
X042605Y028965D01*
X042768Y028965D01*
X042850Y028884D01*
X042850Y028802D01*
X042768Y028720D01*
X042850Y028638D01*
X042850Y028557D01*
X042768Y028475D01*
X042605Y028475D01*
X042523Y028557D01*
X042686Y028720D02*
X042768Y028720D01*
X046492Y028557D02*
X046573Y028475D01*
X046737Y028475D01*
X046818Y028557D01*
X046818Y028965D01*
X047007Y028802D02*
X047171Y028965D01*
X047171Y028475D01*
X047334Y028475D02*
X047007Y028475D01*
X046492Y028557D02*
X046492Y028965D01*
X047523Y028720D02*
X047850Y028720D01*
X047768Y028475D02*
X047768Y028965D01*
X047523Y028720D01*
X051492Y028557D02*
X051573Y028475D01*
X051737Y028475D01*
X051818Y028557D01*
X051818Y028965D01*
X052007Y028802D02*
X052171Y028965D01*
X052171Y028475D01*
X052334Y028475D02*
X052007Y028475D01*
X051492Y028557D02*
X051492Y028965D01*
X052523Y028965D02*
X052523Y028720D01*
X052686Y028802D01*
X052768Y028802D01*
X052850Y028720D01*
X052850Y028557D01*
X052768Y028475D01*
X052605Y028475D01*
X052523Y028557D01*
X052523Y028965D02*
X052850Y028965D01*
X056492Y028965D02*
X056492Y028557D01*
X056573Y028475D01*
X056737Y028475D01*
X056818Y028557D01*
X056818Y028965D01*
X057007Y028802D02*
X057171Y028965D01*
X057171Y028475D01*
X057334Y028475D02*
X057007Y028475D01*
X057523Y028557D02*
X057523Y028720D01*
X057768Y028720D01*
X057850Y028638D01*
X057850Y028557D01*
X057768Y028475D01*
X057605Y028475D01*
X057523Y028557D01*
X057523Y028720D02*
X057686Y028884D01*
X057850Y028965D01*
X066517Y030792D02*
X066598Y030710D01*
X066762Y030710D01*
X066843Y030792D01*
X067032Y030710D02*
X067359Y031037D01*
X067359Y031119D01*
X067277Y031200D01*
X067114Y031200D01*
X067032Y031119D01*
X066843Y031119D02*
X066762Y031200D01*
X066598Y031200D01*
X066517Y031119D01*
X066517Y030792D01*
X067032Y030710D02*
X067359Y030710D01*
X067548Y030710D02*
X067875Y030710D01*
X067711Y030710D02*
X067711Y031200D01*
X067548Y031037D01*
X067523Y031475D02*
X067523Y031557D01*
X067850Y031884D01*
X067850Y031965D01*
X067523Y031965D01*
X067171Y031965D02*
X067171Y031475D01*
X067334Y031475D02*
X067007Y031475D01*
X066818Y031557D02*
X066818Y031965D01*
X067007Y031802D02*
X067171Y031965D01*
X066818Y031557D02*
X066737Y031475D01*
X066573Y031475D01*
X066492Y031557D01*
X066492Y031965D01*
X071492Y031965D02*
X071492Y031557D01*
X071573Y031475D01*
X071737Y031475D01*
X071818Y031557D01*
X071818Y031965D01*
X072007Y031802D02*
X072171Y031965D01*
X072171Y031475D01*
X072334Y031475D02*
X072007Y031475D01*
X072523Y031557D02*
X072523Y031638D01*
X072605Y031720D01*
X072768Y031720D01*
X072850Y031638D01*
X072850Y031557D01*
X072768Y031475D01*
X072605Y031475D01*
X072523Y031557D01*
X072605Y031720D02*
X072523Y031802D01*
X072523Y031884D01*
X072605Y031965D01*
X072768Y031965D01*
X072850Y031884D01*
X072850Y031802D01*
X072768Y031720D01*
X076492Y030965D02*
X076492Y030557D01*
X076573Y030475D01*
X076737Y030475D01*
X076818Y030557D01*
X076818Y030965D01*
X077007Y030802D02*
X077171Y030965D01*
X077171Y030475D01*
X077334Y030475D02*
X077007Y030475D01*
X077523Y030557D02*
X077605Y030475D01*
X077768Y030475D01*
X077850Y030557D01*
X077850Y030884D01*
X077768Y030965D01*
X077605Y030965D01*
X077523Y030884D01*
X077523Y030802D01*
X077605Y030720D01*
X077850Y030720D01*
X077793Y029200D02*
X077875Y029119D01*
X077875Y029037D01*
X077793Y028955D01*
X077875Y028873D01*
X077875Y028792D01*
X077793Y028710D01*
X077630Y028710D01*
X077548Y028792D01*
X077359Y028710D02*
X077032Y028710D01*
X077359Y029037D01*
X077359Y029119D01*
X077277Y029200D01*
X077114Y029200D01*
X077032Y029119D01*
X076843Y029119D02*
X076762Y029200D01*
X076598Y029200D01*
X076517Y029119D01*
X076517Y028792D01*
X076598Y028710D01*
X076762Y028710D01*
X076843Y028792D01*
X077548Y029119D02*
X077630Y029200D01*
X077793Y029200D01*
X077793Y028955D02*
X077711Y028955D01*
X072875Y029037D02*
X072548Y028710D01*
X072875Y028710D01*
X072875Y029037D02*
X072875Y029119D01*
X072793Y029200D01*
X072630Y029200D01*
X072548Y029119D01*
X072359Y029119D02*
X072277Y029200D01*
X072114Y029200D01*
X072032Y029119D01*
X071843Y029119D02*
X071762Y029200D01*
X071598Y029200D01*
X071517Y029119D01*
X071517Y028792D01*
X071598Y028710D01*
X071762Y028710D01*
X071843Y028792D01*
X072032Y028710D02*
X072359Y029037D01*
X072359Y029119D01*
X072359Y028710D02*
X072032Y028710D01*
X067555Y027715D02*
X067065Y027715D01*
X067310Y027469D01*
X067310Y027796D01*
X067310Y027281D02*
X067310Y026954D01*
X067065Y027199D01*
X067555Y027199D01*
X067555Y026765D02*
X067555Y026438D01*
X067228Y026765D01*
X067146Y026765D01*
X067065Y026683D01*
X067065Y026520D01*
X067146Y026438D01*
X067310Y026249D02*
X067310Y025922D01*
X067065Y026168D01*
X067555Y026168D01*
X067146Y025734D02*
X067473Y025407D01*
X067555Y025407D01*
X067065Y025407D02*
X067065Y025734D01*
X067146Y025734D01*
X071965Y025815D02*
X072046Y025896D01*
X072128Y025896D01*
X072210Y025815D01*
X072210Y025651D01*
X072128Y025569D01*
X072046Y025569D01*
X071965Y025651D01*
X071965Y025815D01*
X072210Y025815D02*
X072292Y025896D01*
X072373Y025896D01*
X072455Y025815D01*
X072455Y025651D01*
X072373Y025569D01*
X072292Y025569D01*
X072210Y025651D01*
X072292Y025381D02*
X072373Y025381D01*
X072455Y025299D01*
X072455Y025135D01*
X072373Y025054D01*
X072455Y024865D02*
X072455Y024538D01*
X072455Y024702D02*
X071965Y024702D01*
X072128Y024538D01*
X072210Y024349D02*
X072210Y024022D01*
X071965Y024268D01*
X072455Y024268D01*
X072046Y023834D02*
X072373Y023507D01*
X072455Y023507D01*
X071965Y023507D02*
X071965Y023834D01*
X072046Y023834D01*
X072046Y025054D02*
X071965Y025135D01*
X071965Y025299D01*
X072046Y025381D01*
X072128Y025381D01*
X072210Y025299D01*
X072292Y025381D01*
X072210Y025299D02*
X072210Y025217D01*
X077090Y025299D02*
X077335Y025054D01*
X077335Y025381D01*
X077417Y025569D02*
X077335Y025651D01*
X077335Y025815D01*
X077417Y025896D01*
X077498Y025896D01*
X077580Y025815D01*
X077580Y025651D01*
X077498Y025569D01*
X077417Y025569D01*
X077335Y025651D02*
X077253Y025569D01*
X077171Y025569D01*
X077090Y025651D01*
X077090Y025815D01*
X077171Y025896D01*
X077253Y025896D01*
X077335Y025815D01*
X077580Y025299D02*
X077090Y025299D01*
X077090Y024702D02*
X077580Y024702D01*
X077580Y024865D02*
X077580Y024538D01*
X077580Y024268D02*
X077090Y024268D01*
X077335Y024022D01*
X077335Y024349D01*
X077253Y024538D02*
X077090Y024702D01*
X077090Y023834D02*
X077171Y023834D01*
X077498Y023507D01*
X077580Y023507D01*
X077090Y023507D02*
X077090Y023834D01*
X077139Y018965D02*
X077057Y018884D01*
X077139Y018965D02*
X077302Y018965D01*
X077384Y018884D01*
X077384Y018802D01*
X077057Y018475D01*
X077384Y018475D01*
X077573Y018557D02*
X077655Y018475D01*
X077818Y018475D01*
X077900Y018557D01*
X077900Y018638D01*
X077818Y018720D01*
X077736Y018720D01*
X077818Y018720D02*
X077900Y018802D01*
X077900Y018884D01*
X077818Y018965D01*
X077655Y018965D01*
X077573Y018884D01*
X076868Y018965D02*
X076868Y018557D01*
X076787Y018475D01*
X076623Y018475D01*
X076542Y018557D01*
X076542Y018965D01*
X076598Y017200D02*
X076517Y017119D01*
X076517Y016792D01*
X076598Y016710D01*
X076762Y016710D01*
X076843Y016792D01*
X077032Y016710D02*
X077359Y017037D01*
X077359Y017119D01*
X077277Y017200D01*
X077114Y017200D01*
X077032Y017119D01*
X076843Y017119D02*
X076762Y017200D01*
X076598Y017200D01*
X077032Y016710D02*
X077359Y016710D01*
X077548Y016792D02*
X077548Y016873D01*
X077630Y016955D01*
X077793Y016955D01*
X077875Y016873D01*
X077875Y016792D01*
X077793Y016710D01*
X077630Y016710D01*
X077548Y016792D01*
X077630Y016955D02*
X077548Y017037D01*
X077548Y017119D01*
X077630Y017200D01*
X077793Y017200D01*
X077875Y017119D01*
X077875Y017037D01*
X077793Y016955D01*
X072875Y017119D02*
X072548Y016792D01*
X072548Y016710D01*
X072359Y016710D02*
X072032Y016710D01*
X072359Y017037D01*
X072359Y017119D01*
X072277Y017200D01*
X072114Y017200D01*
X072032Y017119D01*
X071843Y017119D02*
X071762Y017200D01*
X071598Y017200D01*
X071517Y017119D01*
X071517Y016792D01*
X071598Y016710D01*
X071762Y016710D01*
X071843Y016792D01*
X072548Y017200D02*
X072875Y017200D01*
X072875Y017119D01*
X072900Y018475D02*
X072573Y018475D01*
X072900Y018802D01*
X072900Y018884D01*
X072818Y018965D01*
X072655Y018965D01*
X072573Y018884D01*
X072384Y018884D02*
X072302Y018965D01*
X072139Y018965D01*
X072057Y018884D01*
X071868Y018965D02*
X071868Y018557D01*
X071787Y018475D01*
X071623Y018475D01*
X071542Y018557D01*
X071542Y018965D01*
X072057Y018475D02*
X072384Y018802D01*
X072384Y018884D01*
X072384Y018475D02*
X072057Y018475D01*
X070875Y018373D02*
X070793Y018455D01*
X070548Y018455D01*
X070548Y018292D01*
X070630Y018210D01*
X070793Y018210D01*
X070875Y018292D01*
X070875Y018373D01*
X070711Y018619D02*
X070548Y018455D01*
X070359Y018537D02*
X070359Y018619D01*
X070277Y018700D01*
X070114Y018700D01*
X070032Y018619D01*
X069843Y018619D02*
X069762Y018700D01*
X069598Y018700D01*
X069517Y018619D01*
X069517Y018292D01*
X069598Y018210D01*
X069762Y018210D01*
X069843Y018292D01*
X070032Y018210D02*
X070359Y018537D01*
X070359Y018210D02*
X070032Y018210D01*
X070711Y018619D02*
X070875Y018700D01*
X067850Y018475D02*
X067523Y018475D01*
X067686Y018475D02*
X067686Y018965D01*
X067523Y018802D01*
X067334Y018802D02*
X067007Y018475D01*
X067334Y018475D01*
X067334Y018802D02*
X067334Y018884D01*
X067252Y018965D01*
X067089Y018965D01*
X067007Y018884D01*
X066818Y018965D02*
X066818Y018557D01*
X066737Y018475D01*
X066573Y018475D01*
X066492Y018557D01*
X066492Y018965D01*
X066896Y016671D02*
X066978Y016671D01*
X067060Y016590D01*
X067142Y016671D01*
X067223Y016671D01*
X067305Y016590D01*
X067305Y016426D01*
X067223Y016344D01*
X067060Y016508D02*
X067060Y016590D01*
X066896Y016671D02*
X066815Y016590D01*
X066815Y016426D01*
X066896Y016344D01*
X066896Y016156D02*
X067223Y015829D01*
X067305Y015829D01*
X067305Y015640D02*
X067305Y015313D01*
X066978Y015640D01*
X066896Y015640D01*
X066815Y015558D01*
X066815Y015395D01*
X066896Y015313D01*
X067060Y015124D02*
X067060Y014797D01*
X066815Y015043D01*
X067305Y015043D01*
X066896Y014609D02*
X067223Y014282D01*
X067305Y014282D01*
X066815Y014282D02*
X066815Y014609D01*
X066896Y014609D01*
X066815Y015829D02*
X066815Y016156D01*
X066896Y016156D01*
X071965Y014015D02*
X071965Y013851D01*
X072046Y013769D01*
X072046Y013581D02*
X072128Y013581D01*
X072210Y013499D01*
X072292Y013581D01*
X072373Y013581D01*
X072455Y013499D01*
X072455Y013335D01*
X072373Y013254D01*
X072210Y013417D02*
X072210Y013499D01*
X072046Y013581D02*
X071965Y013499D01*
X071965Y013335D01*
X072046Y013254D01*
X072210Y013065D02*
X072210Y012738D01*
X071965Y012983D01*
X072455Y012983D01*
X072046Y012549D02*
X072373Y012222D01*
X072455Y012222D01*
X071965Y012222D02*
X071965Y012549D01*
X072046Y012549D01*
X072455Y013769D02*
X072128Y014096D01*
X072046Y014096D01*
X071965Y014015D01*
X072455Y014096D02*
X072455Y013769D01*
X076590Y013765D02*
X076590Y013601D01*
X076671Y013519D01*
X076671Y013331D02*
X076753Y013331D01*
X076835Y013249D01*
X076917Y013331D01*
X076998Y013331D01*
X077080Y013249D01*
X077080Y013085D01*
X076998Y013004D01*
X076835Y013167D02*
X076835Y013249D01*
X076671Y013331D02*
X076590Y013249D01*
X076590Y013085D01*
X076671Y013004D01*
X076835Y012815D02*
X076835Y012488D01*
X076590Y012733D01*
X077080Y012733D01*
X076671Y012299D02*
X076998Y011972D01*
X077080Y011972D01*
X076590Y011972D02*
X076590Y012299D01*
X076671Y012299D01*
X077080Y013519D02*
X076753Y013846D01*
X076671Y013846D01*
X076590Y013765D01*
X077080Y013846D02*
X077080Y013519D01*
X077089Y007965D02*
X077007Y007884D01*
X077089Y007965D02*
X077252Y007965D01*
X077334Y007884D01*
X077334Y007802D01*
X077007Y007475D01*
X077334Y007475D01*
X077523Y007557D02*
X077523Y007638D01*
X077605Y007720D01*
X077768Y007720D01*
X077850Y007638D01*
X077850Y007557D01*
X077768Y007475D01*
X077605Y007475D01*
X077523Y007557D01*
X077605Y007720D02*
X077523Y007802D01*
X077523Y007884D01*
X077605Y007965D01*
X077768Y007965D01*
X077850Y007884D01*
X077850Y007802D01*
X077768Y007720D01*
X076818Y007557D02*
X076818Y007965D01*
X076492Y007965D02*
X076492Y007557D01*
X076573Y007475D01*
X076737Y007475D01*
X076818Y007557D01*
X072850Y007884D02*
X072523Y007557D01*
X072523Y007475D01*
X072334Y007475D02*
X072007Y007475D01*
X072334Y007802D01*
X072334Y007884D01*
X072252Y007965D01*
X072089Y007965D01*
X072007Y007884D01*
X071818Y007965D02*
X071818Y007557D01*
X071737Y007475D01*
X071573Y007475D01*
X071492Y007557D01*
X071492Y007965D01*
X072523Y007965D02*
X072850Y007965D01*
X072850Y007884D01*
X067850Y007965D02*
X067686Y007884D01*
X067523Y007720D01*
X067768Y007720D01*
X067850Y007638D01*
X067850Y007557D01*
X067768Y007475D01*
X067605Y007475D01*
X067523Y007557D01*
X067523Y007720D01*
X067334Y007802D02*
X067334Y007884D01*
X067252Y007965D01*
X067089Y007965D01*
X067007Y007884D01*
X066818Y007965D02*
X066818Y007557D01*
X066737Y007475D01*
X066573Y007475D01*
X066492Y007557D01*
X066492Y007965D01*
X067007Y007475D02*
X067334Y007802D01*
X067334Y007475D02*
X067007Y007475D01*
X060938Y013862D02*
X061020Y013943D01*
X061020Y014025D01*
X060938Y014107D01*
X060530Y014107D01*
X060530Y014188D02*
X060530Y014025D01*
X060530Y014377D02*
X060530Y014622D01*
X060611Y014704D01*
X060775Y014704D01*
X060857Y014622D01*
X060857Y014377D01*
X061020Y014377D02*
X060530Y014377D01*
X060530Y014893D02*
X060775Y014893D01*
X060693Y015056D01*
X060693Y015138D01*
X060775Y015220D01*
X060938Y015220D01*
X061020Y015138D01*
X061020Y014975D01*
X060938Y014893D01*
X060530Y014893D02*
X060530Y015220D01*
X059805Y015188D02*
X059805Y015025D01*
X059723Y014943D01*
X059560Y014943D02*
X059478Y015106D01*
X059478Y015188D01*
X059560Y015270D01*
X059723Y015270D01*
X059805Y015188D01*
X059560Y014943D02*
X059315Y014943D01*
X059315Y015270D01*
X059396Y014754D02*
X059315Y014672D01*
X059315Y014509D01*
X059396Y014427D01*
X059315Y014238D02*
X059723Y014238D01*
X059805Y014157D01*
X059805Y013993D01*
X059723Y013912D01*
X059315Y013912D01*
X059805Y014427D02*
X059478Y014754D01*
X059396Y014754D01*
X059805Y014754D02*
X059805Y014427D01*
X052755Y014730D02*
X052428Y014730D01*
X052673Y014975D01*
X052673Y014485D01*
X052239Y014730D02*
X051912Y014730D01*
X052157Y014975D01*
X052157Y014485D01*
X051723Y014485D02*
X051396Y014485D01*
X051723Y014812D01*
X051723Y014894D01*
X051641Y014975D01*
X051478Y014975D01*
X051396Y014894D01*
X051208Y014730D02*
X050881Y014730D01*
X051126Y014975D01*
X051126Y014485D01*
X050692Y014894D02*
X050365Y014567D01*
X050365Y014485D01*
X050365Y014975D02*
X050692Y014975D01*
X050692Y014894D01*
X048875Y016792D02*
X048793Y016710D01*
X048630Y016710D01*
X048548Y016792D01*
X048548Y016955D02*
X048711Y017037D01*
X048793Y017037D01*
X048875Y016955D01*
X048875Y016792D01*
X048548Y016955D02*
X048548Y017200D01*
X048875Y017200D01*
X048359Y017119D02*
X048277Y017200D01*
X048114Y017200D01*
X048032Y017119D01*
X047843Y017119D02*
X047762Y017200D01*
X047598Y017200D01*
X047517Y017119D01*
X047517Y016792D01*
X047598Y016710D01*
X047762Y016710D01*
X047843Y016792D01*
X048032Y016710D02*
X048359Y017037D01*
X048359Y017119D01*
X048359Y016710D02*
X048032Y016710D01*
X046805Y015188D02*
X046315Y015188D01*
X046560Y014943D01*
X046560Y015270D01*
X046478Y014754D02*
X046396Y014754D01*
X046315Y014672D01*
X046315Y014509D01*
X046396Y014427D01*
X046315Y014238D02*
X046723Y014238D01*
X046805Y014157D01*
X046805Y013993D01*
X046723Y013912D01*
X046315Y013912D01*
X046805Y014427D02*
X046478Y014754D01*
X046805Y014754D02*
X046805Y014427D01*
X041358Y017817D02*
X041276Y017735D01*
X041112Y017735D01*
X041031Y017817D01*
X041031Y017980D02*
X041194Y018062D01*
X041276Y018062D01*
X041358Y017980D01*
X041358Y017817D01*
X041031Y017980D02*
X041031Y018225D01*
X041358Y018225D01*
X041422Y018635D02*
X041341Y018717D01*
X041668Y019044D01*
X041668Y018717D01*
X041586Y018635D01*
X041422Y018635D01*
X041341Y018717D02*
X041341Y019044D01*
X041422Y019125D01*
X041586Y019125D01*
X041668Y019044D01*
X041856Y019125D02*
X041856Y018635D01*
X041856Y018798D02*
X042101Y018962D01*
X041856Y018798D02*
X042101Y018635D01*
X041152Y018635D02*
X040825Y018635D01*
X040988Y018635D02*
X040988Y019125D01*
X040825Y018962D01*
X040760Y018225D02*
X040842Y018144D01*
X040842Y017980D01*
X040760Y017898D01*
X040515Y017898D01*
X040515Y017735D02*
X040515Y018225D01*
X040760Y018225D01*
X040678Y017898D02*
X040842Y017735D01*
X044492Y017832D02*
X044573Y017750D01*
X044737Y017750D01*
X044818Y017832D01*
X045007Y017750D02*
X045334Y018077D01*
X045334Y018159D01*
X045252Y018240D01*
X045089Y018240D01*
X045007Y018159D01*
X044818Y018159D02*
X044737Y018240D01*
X044573Y018240D01*
X044492Y018159D01*
X044492Y017832D01*
X045007Y017750D02*
X045334Y017750D01*
X045523Y017832D02*
X045850Y018159D01*
X045850Y017832D01*
X045768Y017750D01*
X045605Y017750D01*
X045523Y017832D01*
X045523Y018159D01*
X045605Y018240D01*
X045768Y018240D01*
X045850Y018159D01*
X039673Y014975D02*
X039673Y014485D01*
X039755Y014730D02*
X039428Y014730D01*
X039673Y014975D01*
X039239Y014730D02*
X038912Y014730D01*
X039157Y014975D01*
X039157Y014485D01*
X038723Y014485D02*
X038396Y014485D01*
X038723Y014812D01*
X038723Y014894D01*
X038641Y014975D01*
X038478Y014975D01*
X038396Y014894D01*
X038208Y014730D02*
X037881Y014730D01*
X038126Y014975D01*
X038126Y014485D01*
X037692Y014894D02*
X037365Y014567D01*
X037365Y014485D01*
X037365Y014975D02*
X037692Y014975D01*
X037692Y014894D01*
X035793Y016710D02*
X035793Y017200D01*
X035548Y016955D01*
X035875Y016955D01*
X035359Y017037D02*
X035359Y017119D01*
X035277Y017200D01*
X035114Y017200D01*
X035032Y017119D01*
X034843Y017119D02*
X034762Y017200D01*
X034598Y017200D01*
X034517Y017119D01*
X034517Y016792D01*
X034598Y016710D01*
X034762Y016710D01*
X034843Y016792D01*
X035032Y016710D02*
X035359Y017037D01*
X035359Y016710D02*
X035032Y016710D01*
X030805Y014930D02*
X030723Y015012D01*
X030642Y015012D01*
X030560Y014930D01*
X030560Y014685D01*
X030723Y014685D01*
X030805Y014767D01*
X030805Y014930D01*
X030560Y014685D02*
X030396Y014848D01*
X030315Y015012D01*
X030315Y014496D02*
X030723Y014496D01*
X030805Y014415D01*
X030805Y014251D01*
X030723Y014169D01*
X030315Y014169D01*
X023755Y014567D02*
X023673Y014485D01*
X023509Y014485D01*
X023428Y014567D01*
X023428Y014648D01*
X023509Y014730D01*
X023673Y014730D01*
X023755Y014648D01*
X023755Y014567D01*
X023673Y014730D02*
X023755Y014812D01*
X023755Y014894D01*
X023673Y014975D01*
X023509Y014975D01*
X023428Y014894D01*
X023428Y014812D01*
X023509Y014730D01*
X023239Y014648D02*
X023239Y014567D01*
X023157Y014485D01*
X022994Y014485D01*
X022912Y014567D01*
X022912Y014648D01*
X022994Y014730D01*
X023157Y014730D01*
X023239Y014648D01*
X023157Y014730D02*
X023239Y014812D01*
X023239Y014894D01*
X023157Y014975D01*
X022994Y014975D01*
X022912Y014894D01*
X022912Y014812D01*
X022994Y014730D01*
X022723Y014648D02*
X022641Y014730D01*
X022396Y014730D01*
X022396Y014567D01*
X022478Y014485D01*
X022641Y014485D01*
X022723Y014567D01*
X022723Y014648D01*
X022560Y014894D02*
X022396Y014730D01*
X022208Y014730D02*
X021881Y014730D01*
X022126Y014975D01*
X022126Y014485D01*
X022560Y014894D02*
X022723Y014975D01*
X021692Y014975D02*
X021692Y014894D01*
X021365Y014567D01*
X021365Y014485D01*
X021365Y014975D02*
X021692Y014975D01*
X018570Y014955D02*
X018488Y015037D01*
X018407Y015037D01*
X018325Y014955D01*
X018325Y014710D01*
X018488Y014710D01*
X018570Y014792D01*
X018570Y014955D01*
X018325Y014710D02*
X018161Y014873D01*
X018080Y015037D01*
X018161Y014521D02*
X018080Y014440D01*
X018080Y014276D01*
X018161Y014194D01*
X018488Y014194D01*
X018570Y014276D01*
X018570Y014440D01*
X018488Y014521D01*
X017450Y015060D02*
X016960Y015060D01*
X016960Y015305D01*
X017041Y015387D01*
X017205Y015387D01*
X017287Y015305D01*
X017287Y015060D01*
X017287Y015223D02*
X017450Y015387D01*
X017205Y015576D02*
X017205Y015903D01*
X017450Y015821D02*
X016960Y015821D01*
X017205Y015576D01*
X017068Y013021D02*
X017232Y012776D01*
X017395Y013021D01*
X017395Y012776D02*
X016905Y012776D01*
X016986Y012588D02*
X017313Y012261D01*
X017395Y012342D01*
X017395Y012506D01*
X017313Y012588D01*
X016986Y012588D01*
X016905Y012506D01*
X016905Y012342D01*
X016986Y012261D01*
X017313Y012261D01*
X017395Y012072D02*
X017395Y011745D01*
X017395Y011908D02*
X016905Y011908D01*
X017068Y011745D01*
X016490Y009750D02*
X016490Y009423D01*
X016490Y009586D02*
X016000Y009586D01*
X016163Y009423D01*
X016081Y009234D02*
X016245Y009234D01*
X016327Y009152D01*
X016327Y008907D01*
X016490Y008907D02*
X016000Y008907D01*
X016000Y009152D01*
X016081Y009234D01*
X016000Y008718D02*
X016000Y008555D01*
X016000Y008637D02*
X016408Y008637D01*
X016490Y008555D01*
X016490Y008473D01*
X016408Y008392D01*
X018080Y008776D02*
X018161Y008694D01*
X018488Y008694D01*
X018570Y008776D01*
X018570Y008940D01*
X018488Y009021D01*
X018488Y009210D02*
X018570Y009292D01*
X018570Y009455D01*
X018488Y009537D01*
X018325Y009537D01*
X018243Y009455D01*
X018243Y009373D01*
X018325Y009210D01*
X018080Y009210D01*
X018080Y009537D01*
X018161Y009021D02*
X018080Y008940D01*
X018080Y008776D01*
X021265Y008885D02*
X021265Y008967D01*
X021592Y009294D01*
X021592Y009375D01*
X021265Y009375D01*
X021781Y009130D02*
X022108Y009130D01*
X022296Y009294D02*
X022378Y009375D01*
X022541Y009375D01*
X022623Y009294D01*
X022623Y009212D01*
X022296Y008885D01*
X022623Y008885D01*
X022812Y008967D02*
X022894Y008885D01*
X023057Y008885D01*
X023139Y008967D01*
X023139Y009130D01*
X023057Y009212D01*
X022975Y009212D01*
X022812Y009130D01*
X022812Y009375D01*
X023139Y009375D01*
X023328Y009375D02*
X023655Y009375D01*
X023655Y009294D01*
X023328Y008967D01*
X023328Y008885D01*
X022026Y008885D02*
X022026Y009375D01*
X021781Y009130D01*
X028315Y009046D02*
X028723Y009046D01*
X028805Y008965D01*
X028805Y008801D01*
X028723Y008719D01*
X028315Y008719D01*
X028315Y009235D02*
X028560Y009235D01*
X028478Y009398D01*
X028478Y009480D01*
X028560Y009562D01*
X028723Y009562D01*
X028805Y009480D01*
X028805Y009317D01*
X028723Y009235D01*
X028315Y009235D02*
X028315Y009562D01*
X030315Y019669D02*
X030723Y019669D01*
X030805Y019751D01*
X030805Y019915D01*
X030723Y019996D01*
X030315Y019996D01*
X030315Y020185D02*
X030315Y020512D01*
X030396Y020512D01*
X030723Y020185D01*
X030805Y020185D01*
X032300Y022369D02*
X032381Y022369D01*
X032545Y022533D01*
X032790Y022533D01*
X032545Y022533D02*
X032381Y022696D01*
X032300Y022696D01*
X032463Y022885D02*
X032300Y023048D01*
X032790Y023048D01*
X032790Y022885D02*
X032790Y023212D01*
X034684Y022880D02*
X035011Y022880D01*
X034929Y022635D02*
X034929Y023125D01*
X034684Y022880D01*
X035199Y022635D02*
X035199Y023125D01*
X035363Y022962D01*
X035526Y023125D01*
X035526Y022635D01*
X035715Y022635D02*
X035715Y023125D01*
X035715Y022880D02*
X036042Y022880D01*
X036231Y022962D02*
X036558Y022962D01*
X036231Y022635D01*
X036558Y022635D01*
X036042Y022635D02*
X036042Y023125D01*
X038465Y024752D02*
X038465Y024915D01*
X038465Y024833D02*
X038873Y024833D01*
X038955Y024752D01*
X038955Y024670D01*
X038873Y024588D01*
X038792Y025104D02*
X038792Y025349D01*
X038710Y025431D01*
X038546Y025431D01*
X038465Y025349D01*
X038465Y025104D01*
X038955Y025104D01*
X038710Y025619D02*
X038465Y025865D01*
X038955Y025865D01*
X038710Y025946D02*
X038710Y025619D01*
X040590Y022975D02*
X040590Y022485D01*
X040753Y022648D01*
X040917Y022485D01*
X040917Y022975D01*
X041106Y022730D02*
X041351Y022730D01*
X041433Y022648D01*
X041433Y022567D01*
X041351Y022485D01*
X041187Y022485D01*
X041106Y022567D01*
X041106Y022730D01*
X041269Y022894D01*
X041433Y022975D01*
X041621Y022975D02*
X041621Y022730D01*
X041785Y022812D01*
X041866Y022812D01*
X041948Y022730D01*
X041948Y022567D01*
X041866Y022485D01*
X041703Y022485D01*
X041621Y022567D01*
X041621Y022975D02*
X041948Y022975D01*
X042137Y022894D02*
X042219Y022975D01*
X042382Y022975D01*
X042464Y022894D01*
X042653Y022894D02*
X042734Y022975D01*
X042898Y022975D01*
X042980Y022894D01*
X042653Y022567D01*
X042734Y022485D01*
X042898Y022485D01*
X042980Y022567D01*
X042980Y022894D01*
X043168Y022894D02*
X043250Y022975D01*
X043413Y022975D01*
X043495Y022894D01*
X043495Y022812D01*
X043168Y022485D01*
X043495Y022485D01*
X043684Y022567D02*
X043766Y022485D01*
X043929Y022485D01*
X044011Y022567D01*
X044011Y022648D01*
X043929Y022730D01*
X043766Y022730D01*
X043684Y022812D01*
X043684Y022894D01*
X043766Y022975D01*
X043929Y022975D01*
X044011Y022894D01*
X042653Y022894D02*
X042653Y022567D01*
X042464Y022567D02*
X042382Y022485D01*
X042219Y022485D01*
X042137Y022567D01*
X042137Y022894D01*
X036492Y028557D02*
X036492Y028965D01*
X030805Y025930D02*
X030805Y025767D01*
X030723Y025685D01*
X030642Y025685D01*
X030560Y025767D01*
X030560Y025930D01*
X030642Y026012D01*
X030723Y026012D01*
X030805Y025930D01*
X030560Y025930D02*
X030478Y026012D01*
X030396Y026012D01*
X030315Y025930D01*
X030315Y025767D01*
X030396Y025685D01*
X030478Y025685D01*
X030560Y025767D01*
X030723Y025496D02*
X030315Y025496D01*
X030315Y025169D02*
X030723Y025169D01*
X030805Y025251D01*
X030805Y025415D01*
X030723Y025496D01*
X023880Y025730D02*
X023553Y025730D01*
X023798Y025975D01*
X023798Y025485D01*
X023364Y025730D02*
X023037Y025730D01*
X023282Y025975D01*
X023282Y025485D01*
X022848Y025485D02*
X022521Y025485D01*
X022848Y025812D01*
X022848Y025894D01*
X022766Y025975D01*
X022603Y025975D01*
X022521Y025894D01*
X022333Y025730D02*
X022006Y025730D01*
X022251Y025975D01*
X022251Y025485D01*
X021817Y025894D02*
X021490Y025567D01*
X021490Y025485D01*
X021817Y025894D02*
X021817Y025975D01*
X021490Y025975D01*
X018570Y025955D02*
X018570Y025792D01*
X018488Y025710D01*
X018407Y025710D01*
X018325Y025792D01*
X018325Y025955D01*
X018407Y026037D01*
X018488Y026037D01*
X018570Y025955D01*
X018325Y025955D02*
X018243Y026037D01*
X018161Y026037D01*
X018080Y025955D01*
X018080Y025792D01*
X018161Y025710D01*
X018243Y025710D01*
X018325Y025792D01*
X018488Y025521D02*
X018570Y025440D01*
X018570Y025276D01*
X018488Y025194D01*
X018161Y025194D01*
X018080Y025276D01*
X018080Y025440D01*
X018161Y025521D01*
X017305Y025465D02*
X017223Y025546D01*
X016815Y025546D01*
X016896Y025735D02*
X016815Y025817D01*
X016815Y025980D01*
X016896Y026062D01*
X016978Y026062D01*
X017305Y025735D01*
X017305Y026062D01*
X017305Y025465D02*
X017305Y025301D01*
X017223Y025219D01*
X016815Y025219D01*
X012155Y025467D02*
X012073Y025385D01*
X011909Y025385D01*
X011828Y025467D01*
X011828Y025548D01*
X011909Y025630D01*
X012073Y025630D01*
X012155Y025548D01*
X012155Y025467D01*
X012073Y025630D02*
X012155Y025712D01*
X012155Y025794D01*
X012073Y025875D01*
X011909Y025875D01*
X011828Y025794D01*
X011828Y025712D01*
X011909Y025630D01*
X011639Y025548D02*
X011639Y025467D01*
X011557Y025385D01*
X011394Y025385D01*
X011312Y025467D01*
X011123Y025385D02*
X010796Y025385D01*
X010960Y025385D02*
X010960Y025875D01*
X010796Y025712D01*
X010608Y025630D02*
X010281Y025630D01*
X010526Y025875D01*
X010526Y025385D01*
X010092Y025794D02*
X009765Y025467D01*
X009765Y025385D01*
X009765Y025875D02*
X010092Y025875D01*
X010092Y025794D01*
X011312Y025794D02*
X011394Y025875D01*
X011557Y025875D01*
X011639Y025794D01*
X011639Y025712D01*
X011557Y025630D01*
X011639Y025548D01*
X011557Y025630D02*
X011475Y025630D01*
X012640Y028080D02*
X012640Y028570D01*
X012885Y028570D01*
X012967Y028489D01*
X012967Y028325D01*
X012885Y028243D01*
X012640Y028243D01*
X012803Y028243D02*
X012967Y028080D01*
X013156Y028162D02*
X013237Y028080D01*
X013401Y028080D01*
X013483Y028162D01*
X013483Y028243D01*
X013401Y028325D01*
X013319Y028325D01*
X013401Y028325D02*
X013483Y028407D01*
X013483Y028489D01*
X013401Y028570D01*
X013237Y028570D01*
X013156Y028489D01*
X010601Y028462D02*
X010356Y028298D01*
X010601Y028135D01*
X010356Y028135D02*
X010356Y028625D01*
X010168Y028544D02*
X010086Y028625D01*
X009922Y028625D01*
X009841Y028544D01*
X009841Y028217D01*
X010168Y028544D01*
X010168Y028217D01*
X010086Y028135D01*
X009922Y028135D01*
X009841Y028217D01*
X009652Y028135D02*
X009325Y028135D01*
X009488Y028135D02*
X009488Y028625D01*
X009325Y028462D01*
X005900Y027396D02*
X005900Y027069D01*
X005573Y027396D01*
X005491Y027396D01*
X005410Y027315D01*
X005410Y027151D01*
X005491Y027069D01*
X005491Y026881D02*
X005655Y026881D01*
X005737Y026799D01*
X005737Y026554D01*
X005900Y026554D02*
X005410Y026554D01*
X005410Y026799D01*
X005491Y026881D01*
X005737Y026717D02*
X005900Y026881D01*
X004900Y026881D02*
X004737Y026717D01*
X004737Y026799D02*
X004737Y026554D01*
X004900Y026554D02*
X004410Y026554D01*
X004410Y026799D01*
X004491Y026881D01*
X004655Y026881D01*
X004737Y026799D01*
X004900Y027069D02*
X004900Y027396D01*
X004900Y027233D02*
X004410Y027233D01*
X004573Y027069D01*
X006580Y025955D02*
X006580Y025792D01*
X006661Y025710D01*
X006661Y025521D02*
X006580Y025440D01*
X006580Y025276D01*
X006661Y025194D01*
X006988Y025194D01*
X007070Y025276D01*
X007070Y025440D01*
X006988Y025521D01*
X007070Y025710D02*
X006743Y026037D01*
X006661Y026037D01*
X006580Y025955D01*
X007070Y026037D02*
X007070Y025710D01*
X007070Y020537D02*
X007070Y020210D01*
X007070Y020373D02*
X006580Y020373D01*
X006743Y020210D01*
X006661Y020021D02*
X006580Y019940D01*
X006580Y019776D01*
X006661Y019694D01*
X006988Y019694D01*
X007070Y019776D01*
X007070Y019940D01*
X006988Y020021D01*
X009890Y019967D02*
X009890Y019885D01*
X009890Y019967D02*
X010217Y020294D01*
X010217Y020375D01*
X009890Y020375D01*
X010406Y020130D02*
X010733Y020130D01*
X010921Y020212D02*
X011085Y020375D01*
X011085Y019885D01*
X011248Y019885D02*
X010921Y019885D01*
X010651Y019885D02*
X010651Y020375D01*
X010406Y020130D01*
X011437Y019967D02*
X011519Y019885D01*
X011682Y019885D01*
X011764Y019967D01*
X011764Y020048D01*
X011682Y020130D01*
X011600Y020130D01*
X011682Y020130D02*
X011764Y020212D01*
X011764Y020294D01*
X011682Y020375D01*
X011519Y020375D01*
X011437Y020294D01*
X011953Y020294D02*
X011953Y020212D01*
X012034Y020130D01*
X012198Y020130D01*
X012280Y020048D01*
X012280Y019967D01*
X012198Y019885D01*
X012034Y019885D01*
X011953Y019967D01*
X011953Y020048D01*
X012034Y020130D01*
X012198Y020130D02*
X012280Y020212D01*
X012280Y020294D01*
X012198Y020375D01*
X012034Y020375D01*
X011953Y020294D01*
X016815Y020398D02*
X017305Y020398D01*
X017305Y020235D02*
X017305Y020562D01*
X016978Y020235D02*
X016815Y020398D01*
X016815Y020046D02*
X017223Y020046D01*
X017305Y019965D01*
X017305Y019801D01*
X017223Y019719D01*
X016815Y019719D01*
X018080Y019776D02*
X018161Y019694D01*
X018488Y019694D01*
X018570Y019776D01*
X018570Y019940D01*
X018488Y020021D01*
X018488Y020210D02*
X018570Y020210D01*
X018488Y020210D02*
X018161Y020537D01*
X018080Y020537D01*
X018080Y020210D01*
X018161Y020021D02*
X018080Y019940D01*
X018080Y019776D01*
X021365Y019985D02*
X021365Y020067D01*
X021692Y020394D01*
X021692Y020475D01*
X021365Y020475D01*
X021881Y020230D02*
X022208Y020230D01*
X022396Y020230D02*
X022641Y020230D01*
X022723Y020148D01*
X022723Y020067D01*
X022641Y019985D01*
X022478Y019985D01*
X022396Y020067D01*
X022396Y020230D01*
X022560Y020394D01*
X022723Y020475D01*
X022912Y020394D02*
X022912Y020312D01*
X022994Y020230D01*
X023157Y020230D01*
X023239Y020148D01*
X023239Y020067D01*
X023157Y019985D01*
X022994Y019985D01*
X022912Y020067D01*
X022912Y020148D01*
X022994Y020230D01*
X023157Y020230D02*
X023239Y020312D01*
X023239Y020394D01*
X023157Y020475D01*
X022994Y020475D01*
X022912Y020394D01*
X023428Y020394D02*
X023428Y020312D01*
X023509Y020230D01*
X023673Y020230D01*
X023755Y020148D01*
X023755Y020067D01*
X023673Y019985D01*
X023509Y019985D01*
X023428Y020067D01*
X023428Y020148D01*
X023509Y020230D01*
X023673Y020230D02*
X023755Y020312D01*
X023755Y020394D01*
X023673Y020475D01*
X023509Y020475D01*
X023428Y020394D01*
X022126Y020475D02*
X021881Y020230D01*
X022126Y019985D02*
X022126Y020475D01*
X059390Y022137D02*
X059798Y022137D01*
X059880Y022218D01*
X059880Y022382D01*
X059798Y022463D01*
X059390Y022463D01*
X059471Y022652D02*
X059390Y022734D01*
X059390Y022897D01*
X059471Y022979D01*
X059553Y022979D01*
X059880Y022652D01*
X059880Y022979D01*
X059798Y023168D02*
X059471Y023495D01*
X059798Y023495D01*
X059880Y023413D01*
X059880Y023250D01*
X059798Y023168D01*
X059471Y023168D01*
X059390Y023250D01*
X059390Y023413D01*
X059471Y023495D01*
X076965Y035222D02*
X076965Y035549D01*
X077046Y035549D01*
X077373Y035222D01*
X077455Y035222D01*
X077210Y035738D02*
X077210Y036065D01*
X077373Y036254D02*
X077046Y036581D01*
X077373Y036581D01*
X077455Y036499D01*
X077455Y036335D01*
X077373Y036254D01*
X077046Y036254D01*
X076965Y036335D01*
X076965Y036499D01*
X077046Y036581D01*
X077210Y036769D02*
X076965Y037015D01*
X077455Y037015D01*
X077210Y037096D02*
X077210Y036769D01*
X077455Y035983D02*
X076965Y035983D01*
X077210Y035738D01*
X076113Y038312D02*
X076195Y038393D01*
X076195Y038557D01*
X076113Y038638D01*
X076195Y038827D02*
X076195Y039154D01*
X076195Y038991D02*
X075705Y038991D01*
X075868Y038827D01*
X075786Y038638D02*
X075705Y038557D01*
X075705Y038393D01*
X075786Y038312D01*
X076113Y038312D01*
X074895Y038490D02*
X074405Y038490D01*
X074650Y038245D01*
X074650Y038572D01*
X074813Y038761D02*
X074486Y039088D01*
X074405Y039088D01*
X074405Y038761D01*
X074813Y038761D02*
X074895Y038761D01*
X074813Y039276D02*
X074486Y039276D01*
X074405Y039358D01*
X074405Y039521D01*
X074486Y039603D01*
X074813Y039276D01*
X074895Y039358D01*
X074895Y039521D01*
X074813Y039603D01*
X074486Y039603D01*
X074150Y039554D02*
X073660Y039554D01*
X073660Y039799D01*
X073741Y039881D01*
X073905Y039881D01*
X073987Y039799D01*
X073987Y039554D01*
X073987Y039717D02*
X074150Y039881D01*
X074068Y040069D02*
X074150Y040151D01*
X074150Y040315D01*
X074068Y040396D01*
X073987Y040396D01*
X073905Y040315D01*
X073905Y040069D01*
X074068Y040069D01*
X073905Y040069D02*
X073741Y040233D01*
X073660Y040396D01*
X072875Y040792D02*
X072793Y040710D01*
X072630Y040710D01*
X072548Y040792D01*
X072548Y040873D01*
X072630Y040955D01*
X072793Y040955D01*
X072875Y040873D01*
X072875Y040792D01*
X072793Y040955D02*
X072875Y041037D01*
X072875Y041119D01*
X072793Y041200D01*
X072630Y041200D01*
X072548Y041119D01*
X072548Y041037D01*
X072630Y040955D01*
X072359Y040710D02*
X072032Y040710D01*
X072196Y040710D02*
X072196Y041200D01*
X072032Y041037D01*
X071843Y041119D02*
X071762Y041200D01*
X071598Y041200D01*
X071517Y041119D01*
X071517Y040792D01*
X071598Y040710D01*
X071762Y040710D01*
X071843Y040792D01*
X067875Y041119D02*
X067548Y040792D01*
X067548Y040710D01*
X067359Y040710D02*
X067032Y040710D01*
X067196Y040710D02*
X067196Y041200D01*
X067032Y041037D01*
X066843Y041119D02*
X066762Y041200D01*
X066598Y041200D01*
X066517Y041119D01*
X066517Y040792D01*
X066598Y040710D01*
X066762Y040710D01*
X066843Y040792D01*
X067548Y041200D02*
X067875Y041200D01*
X067875Y041119D01*
X066998Y038096D02*
X066671Y038096D01*
X066998Y037769D01*
X067080Y037851D01*
X067080Y038015D01*
X066998Y038096D01*
X066998Y037769D02*
X066671Y037769D01*
X066590Y037851D01*
X066590Y038015D01*
X066671Y038096D01*
X066671Y037581D02*
X066998Y037254D01*
X067080Y037335D01*
X067080Y037499D01*
X066998Y037581D01*
X066671Y037581D01*
X066590Y037499D01*
X066590Y037335D01*
X066671Y037254D01*
X066998Y037254D01*
X066835Y037065D02*
X066835Y036738D01*
X066590Y036983D01*
X067080Y036983D01*
X066671Y036549D02*
X066998Y036222D01*
X067080Y036222D01*
X066590Y036222D02*
X066590Y036549D01*
X066671Y036549D01*
X072215Y036549D02*
X072215Y036222D01*
X072215Y036549D02*
X072296Y036549D01*
X072623Y036222D01*
X072705Y036222D01*
X072460Y036738D02*
X072460Y037065D01*
X072623Y037254D02*
X072296Y037581D01*
X072623Y037581D01*
X072705Y037499D01*
X072705Y037335D01*
X072623Y037254D01*
X072296Y037254D01*
X072215Y037335D01*
X072215Y037499D01*
X072296Y037581D01*
X072296Y037769D02*
X072378Y037769D01*
X072460Y037851D01*
X072460Y038015D01*
X072542Y038096D01*
X072623Y038096D01*
X072705Y038015D01*
X072705Y037851D01*
X072623Y037769D01*
X072542Y037769D01*
X072460Y037851D01*
X072460Y038015D02*
X072378Y038096D01*
X072296Y038096D01*
X072215Y038015D01*
X072215Y037851D01*
X072296Y037769D01*
X072215Y036983D02*
X072460Y036738D01*
X072705Y036983D02*
X072215Y036983D01*
X075705Y039425D02*
X075786Y039343D01*
X075868Y039343D01*
X075950Y039425D01*
X075950Y039670D01*
X076113Y039670D02*
X075786Y039670D01*
X075705Y039588D01*
X075705Y039425D01*
X076113Y039343D02*
X076195Y039425D01*
X076195Y039588D01*
X076113Y039670D01*
D13*
X038280Y024950D02*
X038280Y020750D01*
X038278Y020706D01*
X038272Y020663D01*
X038263Y020621D01*
X038250Y020579D01*
X038233Y020539D01*
X038213Y020500D01*
X038190Y020463D01*
X038163Y020429D01*
X038134Y020396D01*
X038101Y020367D01*
X038067Y020340D01*
X038030Y020317D01*
X037991Y020297D01*
X037951Y020280D01*
X037909Y020267D01*
X037867Y020258D01*
X037824Y020252D01*
X037780Y020250D01*
X033080Y020250D01*
X033080Y024950D01*
X033082Y024994D01*
X033088Y025037D01*
X033097Y025079D01*
X033110Y025121D01*
X033127Y025161D01*
X033147Y025200D01*
X033170Y025237D01*
X033197Y025271D01*
X033226Y025304D01*
X033259Y025333D01*
X033293Y025360D01*
X033330Y025383D01*
X033369Y025403D01*
X033409Y025420D01*
X033451Y025433D01*
X033493Y025442D01*
X033536Y025448D01*
X033580Y025450D01*
X037780Y025450D01*
X037824Y025448D01*
X037867Y025442D01*
X037909Y025433D01*
X037951Y025420D01*
X037991Y025403D01*
X038030Y025383D01*
X038067Y025360D01*
X038101Y025333D01*
X038134Y025304D01*
X038163Y025271D01*
X038190Y025237D01*
X038213Y025200D01*
X038233Y025161D01*
X038250Y025121D01*
X038263Y025079D01*
X038272Y025037D01*
X038278Y024994D01*
X038280Y024950D01*
X005930Y037600D02*
X005984Y037557D01*
X006036Y037511D01*
X006085Y037462D01*
X006132Y037410D01*
X006175Y037356D01*
X006216Y037300D01*
X006253Y037241D01*
X006287Y037181D01*
X006317Y037118D01*
X006344Y037055D01*
X006368Y036989D01*
X006388Y036923D01*
X006404Y036855D01*
X006416Y036787D01*
X006424Y036718D01*
X006429Y036649D01*
X006430Y036579D01*
X006427Y036510D01*
X006420Y036441D01*
X006409Y036373D01*
X006395Y036305D01*
X006376Y036238D01*
X006354Y036172D01*
X006329Y036107D01*
X006300Y036044D01*
X006267Y035983D01*
X006231Y035924D01*
X006192Y035867D01*
X006150Y035811D01*
X006105Y035759D01*
X006057Y035709D01*
X006006Y035662D01*
X005952Y035617D01*
X005897Y035576D01*
X005839Y035538D01*
X005779Y035503D01*
X005717Y035471D01*
X005654Y035443D01*
X005589Y035419D01*
X005523Y035398D01*
X005455Y035381D01*
X005387Y035367D01*
X005318Y035358D01*
X005249Y035352D01*
X005180Y035350D01*
X005111Y035352D01*
X005042Y035358D01*
X004973Y035367D01*
X004905Y035381D01*
X004837Y035398D01*
X004771Y035419D01*
X004706Y035443D01*
X004643Y035471D01*
X004581Y035503D01*
X004521Y035538D01*
X004463Y035576D01*
X004408Y035617D01*
X004354Y035662D01*
X004303Y035709D01*
X004255Y035759D01*
X004210Y035811D01*
X004168Y035867D01*
X004129Y035924D01*
X004093Y035983D01*
X004060Y036044D01*
X004031Y036107D01*
X004006Y036172D01*
X003984Y036238D01*
X003965Y036305D01*
X003951Y036373D01*
X003940Y036441D01*
X003933Y036510D01*
X003930Y036579D01*
X003931Y036649D01*
X003936Y036718D01*
X003944Y036787D01*
X003956Y036855D01*
X003972Y036923D01*
X003992Y036989D01*
X004016Y037055D01*
X004043Y037118D01*
X004073Y037181D01*
X004107Y037241D01*
X004144Y037300D01*
X004185Y037356D01*
X004228Y037410D01*
X004275Y037462D01*
X004324Y037511D01*
X004376Y037557D01*
X004430Y037600D01*
D14*
X007380Y036720D02*
X007980Y036720D01*
X007980Y036470D02*
X007380Y036470D01*
X007380Y031220D02*
X007980Y031220D01*
X007980Y030970D02*
X007380Y030970D01*
X007380Y025720D02*
X007980Y025720D01*
X007980Y025470D02*
X007380Y025470D01*
X007380Y020220D02*
X007980Y020220D01*
X007980Y019970D02*
X007380Y019970D01*
X018880Y019970D02*
X019480Y019970D01*
X019480Y020220D02*
X018880Y020220D01*
X018880Y025470D02*
X019480Y025470D01*
X019480Y025720D02*
X018880Y025720D01*
X018880Y030970D02*
X019480Y030970D01*
X019480Y031220D02*
X018880Y031220D01*
X018880Y036470D02*
X019480Y036470D01*
X019480Y036720D02*
X018880Y036720D01*
X032050Y039800D02*
X032050Y040400D01*
X032300Y040400D02*
X032300Y039800D01*
X037050Y039800D02*
X037050Y040400D01*
X037300Y040400D02*
X037300Y039800D01*
X042050Y039800D02*
X042050Y040400D01*
X042300Y040400D02*
X042300Y039800D01*
X047050Y039800D02*
X047050Y040400D01*
X047300Y040400D02*
X047300Y039800D01*
X052050Y039800D02*
X052050Y040400D01*
X052300Y040400D02*
X052300Y039800D01*
X057050Y039800D02*
X057050Y040400D01*
X057300Y040400D02*
X057300Y039800D01*
X067050Y039800D02*
X067050Y040400D01*
X067300Y040400D02*
X067300Y039800D01*
X072050Y039800D02*
X072050Y040400D01*
X072300Y040400D02*
X072300Y039800D01*
X077060Y039400D02*
X077060Y038800D01*
X077310Y038800D02*
X077310Y039400D01*
X067300Y030400D02*
X067300Y029800D01*
X067050Y029800D02*
X067050Y030400D01*
X072050Y028400D02*
X072050Y027800D01*
X072300Y027800D02*
X072300Y028400D01*
X077050Y028400D02*
X077050Y027800D01*
X077300Y027800D02*
X077300Y028400D01*
X070310Y017900D02*
X070310Y017300D01*
X070060Y017300D02*
X070060Y017900D01*
X072050Y016400D02*
X072050Y015800D01*
X072300Y015800D02*
X072300Y016400D01*
X077050Y016400D02*
X077050Y015800D01*
X077300Y015800D02*
X077300Y016400D01*
X048300Y016400D02*
X048300Y015800D01*
X048050Y015800D02*
X048050Y016400D01*
X045300Y018550D02*
X045300Y019150D01*
X045050Y019150D02*
X045050Y018550D01*
X035300Y016400D02*
X035300Y015800D01*
X035050Y015800D02*
X035050Y016400D01*
X035310Y023850D02*
X035310Y024350D01*
X035310Y024850D01*
X035550Y024850D02*
X035800Y024850D01*
X035800Y023850D01*
X035550Y023850D01*
X035550Y024850D01*
X036050Y024850D02*
X036050Y024350D01*
X036050Y023850D01*
X034060Y025800D02*
X034060Y026400D01*
X033810Y026400D02*
X033810Y025800D01*
X019480Y014720D02*
X018880Y014720D01*
X018880Y014470D02*
X019480Y014470D01*
X019480Y009220D02*
X018880Y009220D01*
X018880Y008970D02*
X019480Y008970D01*
D15*
X017680Y008100D02*
X016680Y008100D01*
X016680Y010100D01*
X017680Y010100D01*
X017680Y008100D01*
X034605Y020625D02*
X034905Y020625D01*
X034755Y020625D02*
X034755Y021075D01*
X034605Y020925D01*
X035180Y025600D02*
X035180Y026600D01*
X038180Y026600D01*
X038180Y025600D01*
X035180Y025600D01*
X035180Y026600D02*
X035180Y027600D01*
X038180Y027600D01*
X038180Y026600D01*
X035180Y026600D01*
X029180Y035600D02*
X028180Y035600D01*
X028180Y037600D01*
X029180Y037600D01*
X029180Y035600D01*
X006225Y033700D02*
X006067Y033700D01*
X005293Y033700D02*
X005067Y033700D01*
X006005Y034250D02*
X006040Y034202D01*
X006073Y034152D01*
X006104Y034100D01*
X006131Y034046D01*
X006155Y033991D01*
X006175Y033934D01*
X006193Y033877D01*
X006207Y033819D01*
X006218Y033760D01*
X006225Y033700D01*
X006229Y033638D01*
X006230Y033575D01*
X006226Y033513D01*
X006219Y033451D01*
X006209Y033390D01*
X006194Y033329D01*
X006176Y033269D01*
X006155Y033210D01*
X006130Y033153D01*
X006102Y033098D01*
X006071Y033044D01*
X006036Y032992D01*
X005998Y032942D01*
X005958Y032895D01*
X005914Y032850D01*
X005869Y032807D01*
X005820Y032768D01*
X005770Y032731D01*
X005717Y032698D01*
X005663Y032667D01*
X005606Y032640D01*
X005549Y032617D01*
X005490Y032597D01*
X004870Y032597D02*
X004810Y032617D01*
X004751Y032641D01*
X004694Y032669D01*
X004639Y032700D01*
X004585Y032735D01*
X004534Y032772D01*
X004485Y032813D01*
X004439Y032857D01*
X004395Y032903D01*
X004354Y032952D01*
X004316Y033003D01*
X004282Y033056D01*
X004250Y033112D01*
X004223Y033169D01*
X004198Y033228D01*
X004178Y033288D01*
X004160Y033349D01*
X004147Y033411D01*
X004138Y033474D01*
X004132Y033537D01*
X004130Y033601D01*
X004132Y033665D01*
X004138Y033728D01*
X004147Y033791D01*
X004161Y033853D01*
X004178Y033914D01*
X004199Y033974D01*
X004223Y034033D01*
X004251Y034090D01*
X004283Y034146D01*
X004318Y034199D01*
X004355Y034250D01*
X006005Y034250D01*
X004293Y033700D02*
X004135Y033700D01*
X044680Y004600D02*
X045180Y003600D01*
X045680Y004600D01*
X044680Y004600D01*
X044702Y004555D02*
X045658Y004555D01*
X045633Y004507D02*
X044727Y004507D01*
X044751Y004458D02*
X045609Y004458D01*
X045585Y004410D02*
X044775Y004410D01*
X044799Y004361D02*
X045561Y004361D01*
X045536Y004313D02*
X044824Y004313D01*
X044848Y004264D02*
X045512Y004264D01*
X045488Y004216D02*
X044872Y004216D01*
X044896Y004167D02*
X045464Y004167D01*
X045439Y004119D02*
X044921Y004119D01*
X044945Y004070D02*
X045415Y004070D01*
X045391Y004022D02*
X044969Y004022D01*
X044993Y003973D02*
X045367Y003973D01*
X045342Y003925D02*
X045018Y003925D01*
X045042Y003876D02*
X045318Y003876D01*
X045294Y003828D02*
X045066Y003828D01*
X045090Y003779D02*
X045270Y003779D01*
X045245Y003731D02*
X045115Y003731D01*
X045139Y003682D02*
X045221Y003682D01*
X045197Y003634D02*
X045163Y003634D01*
X061180Y013600D02*
X062180Y013600D01*
X062180Y015600D01*
X061180Y015600D01*
X061180Y013600D01*
D16*
X017180Y014020D03*
X017180Y011180D03*
X005680Y028555D03*
X004680Y028555D03*
X004680Y031395D03*
X005680Y031395D03*
X074680Y037680D03*
X074680Y040520D03*
D17*
X043100Y018850D03*
X040260Y018850D03*
X011600Y028350D03*
X008760Y028350D03*
D18*
X044200Y004427D02*
X044353Y004580D01*
X044353Y004120D01*
X044200Y004120D02*
X044507Y004120D01*
X075700Y004197D02*
X075777Y004120D01*
X075930Y004120D01*
X076007Y004197D01*
X076007Y004273D01*
X075930Y004350D01*
X075700Y004350D01*
X075700Y004197D01*
X075700Y004350D02*
X075853Y004504D01*
X076007Y004580D01*
X076160Y004427D02*
X076314Y004580D01*
X076314Y004120D01*
X076467Y004120D02*
X076160Y004120D01*
D19*
X005930Y037600D02*
X004430Y037600D01*
M02*
