%
M48
M72
T01C0.0197
T02C0.0236
T03C0.0320
T04C0.0400
T05C0.1600
%
T01
X33055Y6475
X33555Y19725
X25180Y22975
X24680Y19725
X42180Y29975
X42180Y30975
X42180Y31975
X42180Y32975
X42180Y33975
X42180Y34975
X42180Y35975
X42180Y36975
X65680Y30100
X66680Y32600
T02
X67555Y33100
X69680Y32350
X69680Y30850
X73680Y30100
X74680Y29225
X75680Y30350
X76180Y30725
X76680Y31100
X77180Y29600
X78180Y28975
X79430Y29100
X75180Y33100
X74430Y34600
X72680Y34600
X72680Y35600
X71930Y36600
X70180Y35100
X67930Y34600
X67555Y35600
X67180Y36600
X67555Y37600
X65305Y39350
X64930Y39350
X64180Y38600
X62930Y38100
X63680Y37100
X64305Y35725
X63930Y34350
X63930Y33600
X61930Y33100
X62305Y32350
X62680Y31600
X63430Y31600
X63805Y31225
X63055Y31100
X63430Y29975
X60055Y28350
X58055Y28850
X57430Y29350
X57055Y29350
X58055Y32100
X61555Y34100
X61180Y35100
X60805Y36100
X61430Y36600
X60430Y37100
X60055Y38600
X59305Y39975
X59305Y40350
X61430Y41350
X60180Y42350
X55180Y42350
X50680Y41350
X50180Y42350
X45180Y42350
X40180Y42350
X34180Y42350
X30680Y40600
X28180Y40850
X31430Y38850
X31555Y38100
X32180Y37600
X31805Y36100
X31680Y34600
X33180Y34100
X32930Y33600
X29930Y33100
X30180Y32100
X28680Y33100
X28180Y32600
X27680Y34100
X26180Y31100
X25180Y30100
X24180Y28975
X23680Y27975
X23180Y27600
X21680Y28350
X19180Y29350
X16680Y28725
X16930Y27225
X21180Y25975
X21180Y25350
X22680Y25475
X24680Y24850
X26180Y26600
X28180Y26225
X28680Y25850
X31430Y27350
X27680Y29850
X28680Y30100
X34180Y30100
X36805Y31475
X39680Y29600
X39180Y28100
X37680Y26600
X39055Y25975
X37680Y25100
X39680Y23350
X40680Y23725
X42680Y24850
X43680Y26600
X44680Y27100
X43680Y27600
X44930Y28100
X43555Y28475
X41180Y26600
X47180Y25350
X45680Y23350
X44680Y22225
X45180Y21475
X44180Y21100
X46180Y20350
X47680Y22600
X48680Y22600
X49680Y22600
X51180Y20350
X56555Y20600
X58180Y21350
X57180Y21725
X59555Y19975
X59555Y19600
X60180Y18350
X60180Y17975
X58180Y17100
X57180Y17100
X56430Y15100
X58430Y11725
X57930Y11600
X57430Y11475
X58930Y11850
X59555Y11100
X59305Y10850
X61180Y10600
X63680Y11100
X63305Y12100
X64055Y12100
X62930Y12600
X62555Y13600
X64430Y14600
X64805Y15600
X67305Y16100
X67680Y16475
X67430Y16975
X69180Y16100
X69680Y14600
X67180Y14100
X65180Y13100
X66930Y12600
X69305Y12350
X69430Y11350
X69180Y10100
X66680Y11100
X65180Y10100
X65180Y9100
X63680Y6350
X64180Y6100
X64680Y5850
X65180Y5600
X64680Y3725
X63680Y3725
X62680Y3725
X61680Y3725
X60680Y3725
X59680Y3725
X58680Y3725
X57680Y3725
X56680Y3725
X55680Y3725
X54680Y3725
X53680Y3725
X52680Y3725
X51680Y3725
X49680Y3725
X48680Y3725
X47930Y3725
X47555Y3725
X47180Y3725
X46180Y3725
X45930Y4100
X45680Y3725
X41180Y4100
X36180Y4100
X32055Y5975
X31430Y5975
X30930Y5725
X30305Y5350
X29555Y5475
X30305Y6100
X31555Y6725
X29430Y8225
X31055Y8975
X33305Y10350
X32930Y11100
X31805Y11100
X31430Y10725
X34055Y11350
X34680Y11100
X35680Y10850
X35680Y10475
X37180Y10350
X38680Y9350
X39180Y10225
X40680Y9475
X41180Y10225
X42680Y9725
X43555Y10350
X44680Y10225
X46680Y11600
X48305Y10850
X48680Y10850
X52180Y11475
X53180Y11475
X54180Y11475
X55430Y9975
X54930Y9725
X54430Y9475
X53930Y9225
X53430Y8975
X52930Y8725
X52430Y8475
X51930Y8225
X51430Y7975
X50930Y7725
X50430Y7475
X49430Y7225
X48930Y6975
X47930Y6725
X46180Y6475
X49680Y6100
X50555Y6475
X50680Y5725
X55930Y10225
X51180Y15600
X46430Y16100
X44180Y16600
X42180Y16600
X40180Y16600
X36180Y17600
X38430Y19850
X40180Y20350
X40180Y21850
X34180Y20600
X32805Y20725
X33305Y22850
X31430Y23850
X22180Y22100
X19180Y21475
X17305Y21100
X16180Y22100
X13680Y22475
X11680Y22850
X8180Y20725
X7680Y20100
X3305Y20600
X2805Y25100
X2680Y27100
X1680Y27475
X4180Y27475
X4930Y29100
X8180Y31725
X9680Y30600
X4555Y32100
X1680Y33100
X8680Y35600
X10680Y34225
X15555Y33850
X17430Y34975
X21180Y36600
X24180Y37100
X27680Y38100
X23305Y39725
X22180Y39850
X17680Y37225
X17055Y37600
X15180Y39850
X10180Y39850
X6180Y38850
X16180Y32100
X21180Y31725
X22180Y34100
X36805Y35350
X38055Y34100
X36930Y38100
X56430Y37600
X56430Y36600
X65180Y42350
X67930Y41350
X68680Y41350
X70180Y42350
X76680Y37350
X74680Y36350
X79430Y34100
X71680Y26600
X74180Y25100
X74430Y24350
X74430Y23600
X74180Y23100
X76805Y23225
X76805Y22225
X79430Y24100
X76805Y20225
X79430Y19100
X72930Y14600
X77180Y12350
X79430Y14100
X79430Y9100
X77430Y9100
X76930Y8600
X75555Y5100
X75180Y4725
X74180Y3975
X73180Y3975
X72180Y3975
X71180Y3975
X70680Y3725
X70180Y4350
X68680Y3725
X67680Y3725
X66680Y3725
X65680Y3725
X62180Y16600
X64930Y18350
X65305Y18350
X62930Y20600
X62555Y21100
X62180Y22600
X63305Y22600
X61805Y23600
X61430Y24725
X63680Y24600
X66930Y23600
X68180Y25100
X71680Y24100
X64055Y26600
X41180Y12225
X33930Y13975
X33305Y14100
X32930Y12725
X29180Y14725
X28180Y14725
X27680Y13975
X25680Y14975
X25430Y14350
X23680Y14850
X22180Y12600
X23680Y11600
X25180Y11100
X24180Y9725
X23180Y9725
X26180Y9475
X27180Y9475
X26680Y6475
X26180Y4100
X21180Y4100
X16180Y4100
X16180Y7100
X10805Y5850
X10680Y4100
X4555Y6350
X4180Y6975
X4555Y7600
X4180Y10100
X3180Y11100
X4930Y12600
X9680Y14600
X8680Y15600
X12180Y15100
X14680Y16350
X16180Y15600
X17680Y17225
X17305Y18350
X20430Y17975
X25055Y17975
X28305Y17975
X30680Y16725
X30430Y15725
X18055Y12475
X17680Y11600
X17305Y10725
X16055Y10975
X15805Y11850
X12680Y11100
X12180Y12100
X12180Y17225
X12680Y18100
X3180Y15600
X8180Y26100
X9180Y26100
X34555Y8100
X36180Y7225
X36555Y7975
X31180Y4100
T03
X27680Y7600
X26680Y7600
X25680Y7600
X24680Y7600
X23680Y7600
X22680Y7600
X21680Y7600
X20680Y7600
X19180Y8600
X19180Y9600
X20680Y10600
X21680Y10600
X22680Y10600
X23680Y10600
X24680Y10600
X25680Y10600
X26680Y10600
X27680Y10600
X27680Y13100
X26680Y13100
X25680Y13100
X24680Y13100
X23680Y13100
X22680Y13100
X21680Y13100
X20680Y13100
X19180Y14100
X19180Y15100
X20680Y16100
X21680Y16100
X22680Y16100
X23680Y16100
X24680Y16100
X25680Y16100
X26680Y16100
X27680Y16100
X28680Y16100
X29680Y16100
X29680Y18600
X28680Y18600
X27680Y18600
X26680Y18600
X25680Y18600
X24680Y18600
X23680Y18600
X22680Y18600
X21680Y18600
X20680Y18600
X19180Y19600
X19180Y20600
X20680Y21600
X21680Y21600
X22680Y21600
X23680Y21600
X24680Y21600
X25680Y21600
X26680Y21600
X27680Y21600
X28680Y21600
X29680Y21600
X29680Y24100
X28680Y24100
X27680Y24100
X26680Y24100
X25680Y24100
X24680Y24100
X23680Y24100
X22680Y24100
X21680Y24100
X20680Y24100
X19180Y25100
X19180Y26100
X20680Y27100
X21680Y27100
X22680Y27100
X23680Y27100
X24680Y27100
X25680Y27100
X26680Y27100
X27680Y27100
X28680Y27100
X29680Y27100
X33430Y26100
X34430Y26100
X34180Y24350
X37180Y24350
X39680Y25850
X40680Y25850
X41680Y25850
X42680Y25850
X43680Y25850
X44680Y25850
X45680Y25850
X46680Y25850
X47680Y25850
X48680Y25850
X49680Y25850
X50680Y25850
X51680Y25850
X52680Y25850
X53680Y25850
X54680Y25850
X55680Y25850
X56680Y25850
X57680Y25850
X58680Y25850
X65680Y25600
X65680Y26600
X65680Y27600
X65680Y28600
X66680Y30100
X67680Y30100
X68680Y28600
X68680Y27600
X68680Y26600
X68680Y25600
X70680Y25600
X70680Y26600
X71680Y28100
X72680Y28100
X73680Y26600
X73680Y25600
X73680Y24600
X73680Y23600
X73680Y22600
X73680Y21600
X73680Y20600
X73680Y19600
X75680Y19600
X75680Y20600
X75680Y21600
X75680Y22600
X75680Y23600
X75680Y24600
X75680Y25600
X75680Y26600
X76680Y28100
X77680Y28100
X78680Y26600
X78680Y25600
X78680Y24600
X78680Y23600
X78680Y22600
X78680Y21600
X78680Y20600
X78680Y19600
X77680Y16100
X76680Y16100
X75680Y14600
X75680Y13600
X75680Y12600
X75680Y11600
X75680Y10600
X75680Y9600
X75680Y8600
X73680Y8600
X73680Y9600
X73680Y10600
X73680Y11600
X73680Y12600
X73680Y13600
X73680Y14600
X72680Y16100
X71680Y16100
X70680Y17600
X69680Y17600
X68680Y17600
X68680Y16600
X68680Y15600
X68680Y14600
X68680Y13600
X68680Y12600
X70680Y12600
X70680Y13600
X70680Y14600
X65680Y14600
X65680Y13600
X65680Y12600
X65680Y11600
X65680Y10600
X65680Y9600
X65680Y8600
X68680Y8600
X70680Y8600
X70680Y9600
X70680Y10600
X70680Y11600
X68680Y11600
X68680Y10600
X68680Y9600
X78680Y9600
X78680Y10600
X78680Y11600
X78680Y12600
X78680Y13600
X78680Y14600
X70680Y19600
X70680Y20600
X70680Y21600
X68680Y21600
X68680Y20600
X68680Y19600
X65680Y19600
X65680Y20600
X65680Y21600
X65680Y22600
X65680Y23600
X65680Y24600
X68680Y24600
X68680Y23600
X68680Y22600
X70680Y22600
X70680Y23600
X70680Y24600
X58680Y19850
X57680Y19850
X56680Y19850
X55680Y19850
X54680Y19850
X53680Y19850
X52680Y19850
X51680Y19850
X50680Y19850
X49680Y19850
X48680Y19850
X47680Y19850
X46680Y19850
X45680Y19850
X44680Y19850
X43680Y19850
X42680Y19850
X41680Y19850
X40680Y19850
X39680Y19850
X39680Y18850
X38180Y18850
X34180Y18850
X34180Y21350
X37180Y21350
X43680Y18850
X44680Y18850
X45680Y18850
X45680Y16100
X44680Y16100
X43680Y16100
X42680Y16100
X41680Y16100
X40680Y16100
X39680Y16100
X38680Y16100
X37680Y16100
X36680Y16100
X35680Y16100
X34680Y16100
X36680Y13100
X37680Y13100
X38680Y13100
X39680Y13100
X40680Y13100
X41680Y13100
X42680Y13100
X43680Y13100
X44680Y13100
X45680Y13100
X49680Y13100
X50680Y13100
X51680Y13100
X52680Y13100
X53680Y13100
X54680Y13100
X55680Y13100
X56680Y13100
X57680Y13100
X58680Y13100
X58680Y16100
X57680Y16100
X56680Y16100
X55680Y16100
X54680Y16100
X53680Y16100
X52680Y16100
X51680Y16100
X50680Y16100
X49680Y16100
X48680Y16100
X47680Y16100
X65680Y15600
X65680Y16600
X65680Y17600
X78680Y8600
X58680Y29600
X58680Y30600
X58680Y31600
X58680Y32600
X58680Y33600
X58680Y34600
X58680Y35600
X58680Y36600
X58680Y37600
X58680Y38600
X57680Y40100
X56680Y40100
X55680Y38600
X55680Y37600
X55680Y36600
X55680Y35600
X55680Y34600
X55680Y33600
X55680Y32600
X55680Y31600
X55680Y30600
X55680Y29600
X53680Y29600
X53680Y30600
X53680Y31600
X53680Y32600
X53680Y33600
X53680Y34600
X53680Y35600
X53680Y36600
X53680Y37600
X53680Y38600
X52680Y40100
X51680Y40100
X50680Y38600
X50680Y37600
X50680Y36600
X50680Y35600
X50680Y34600
X50680Y33600
X50680Y32600
X50680Y31600
X50680Y30600
X50680Y29600
X48680Y29600
X48680Y30600
X48680Y31600
X48680Y32600
X48680Y33600
X48680Y34600
X48680Y35600
X48680Y36600
X48680Y37600
X48680Y38600
X47680Y40100
X46680Y40100
X45680Y38600
X43680Y38600
X43680Y37600
X43680Y36600
X43680Y35600
X45680Y35600
X45680Y36600
X45680Y37600
X42680Y40100
X41680Y40100
X40680Y38600
X38680Y38600
X38680Y37600
X38680Y36600
X38680Y35600
X40680Y35600
X40680Y36600
X40680Y37600
X37680Y40100
X36680Y40100
X35680Y38600
X35680Y37600
X35680Y36600
X35680Y35600
X35680Y34600
X35680Y33600
X35680Y32600
X35680Y31600
X35680Y30600
X35680Y29600
X33680Y29600
X33680Y30600
X33680Y31600
X33680Y32600
X33680Y33600
X33680Y34600
X33680Y35600
X33680Y36600
X33680Y37600
X33680Y38600
X32680Y40100
X31680Y40100
X30680Y38600
X30680Y37600
X30680Y36600
X30680Y35600
X30680Y34600
X30680Y33600
X30680Y32600
X30680Y31600
X30680Y30600
X30680Y29600
X26680Y29600
X25680Y29600
X24680Y29600
X23680Y29600
X22680Y29600
X21680Y29600
X20680Y29600
X19180Y30600
X19180Y31600
X20680Y32600
X21680Y32600
X22680Y32600
X23680Y32600
X24680Y32600
X25680Y32600
X26680Y32600
X26680Y35100
X25680Y35100
X24680Y35100
X23680Y35100
X22680Y35100
X21680Y35100
X20680Y35100
X19180Y36100
X19180Y37100
X20680Y38100
X21680Y38100
X22680Y38100
X23680Y38100
X24680Y38100
X25680Y38100
X26680Y38100
X38680Y34600
X38680Y33600
X38680Y32600
X38680Y31600
X40680Y31600
X40680Y32600
X40680Y33600
X40680Y34600
X43680Y34600
X43680Y33600
X43680Y32600
X43680Y31600
X45680Y31600
X45680Y32600
X45680Y33600
X45680Y34600
X45680Y30600
X45680Y29600
X43680Y29600
X43680Y30600
X40680Y30600
X40680Y29600
X38680Y29600
X38680Y30600
X14180Y27100
X13180Y27100
X12180Y27100
X11180Y27100
X10180Y27100
X9180Y27100
X8180Y27100
X7180Y27100
X5680Y26100
X5680Y25100
X4180Y24600
X4180Y23600
X4180Y22600
X4180Y21600
X4180Y20600
X4180Y19600
X5680Y19600
X5680Y20600
X7180Y21600
X8180Y21600
X9180Y21600
X10180Y21600
X11180Y21600
X12180Y21600
X13180Y21600
X14180Y21600
X14180Y24100
X13180Y24100
X12180Y24100
X11180Y24100
X10180Y24100
X9180Y24100
X8180Y24100
X7180Y24100
X3180Y26100
X2180Y26100
X1180Y24600
X1180Y23600
X1180Y22600
X1180Y21600
X1180Y20600
X1180Y19600
X1180Y18600
X4180Y18600
X7180Y18600
X8180Y18600
X9180Y18600
X10180Y18600
X11180Y18600
X12180Y18600
X13180Y18600
X14180Y18600
X13180Y16100
X12180Y16100
X11180Y16100
X10180Y16100
X9180Y16100
X8180Y16100
X7180Y16100
X5680Y15100
X5680Y14100
X7180Y13100
X8180Y13100
X9180Y13100
X10180Y13100
X11180Y13100
X12180Y13100
X13180Y13100
X14680Y12225
X14180Y10600
X13180Y10600
X12180Y10600
X11180Y10600
X10180Y10600
X9180Y10600
X8180Y10600
X7180Y10600
X5680Y9600
X5680Y8600
X7180Y7600
X8180Y7600
X9180Y7600
X10180Y7600
X11180Y7600
X12180Y7600
X13180Y7600
X14180Y7600
X18680Y12225
X28680Y13100
X29680Y13100
X3680Y27975
X2680Y27975
X7180Y29600
X8180Y29600
X9180Y29600
X10180Y29600
X11180Y29600
X12180Y29600
X13180Y29600
X13180Y32600
X12180Y32600
X11180Y32600
X10180Y32600
X9180Y32600
X8180Y32600
X7180Y32600
X5680Y31600
X5680Y30600
X3680Y31975
X2680Y31975
X3180Y32850
X2680Y33600
X3680Y33600
X7180Y35100
X8180Y35100
X9180Y35100
X10180Y35100
X11180Y35100
X12180Y35100
X13180Y35100
X12180Y33850
X8180Y33850
X5680Y36100
X5680Y37100
X7180Y38100
X8180Y38100
X9180Y38100
X10180Y38100
X11180Y38100
X12180Y38100
X13180Y38100
X3180Y37100
X3180Y36100
X65680Y35600
X65680Y36600
X65680Y37600
X65680Y38600
X66680Y40100
X67680Y40100
X68680Y38600
X70680Y38600
X70680Y37600
X70680Y36600
X70680Y35600
X68680Y35600
X68680Y36600
X68680Y37600
X71680Y40100
X72680Y40100
X74680Y41100
X76680Y39100
X77680Y39100
X78680Y37600
X78680Y36600
X78680Y35600
X78680Y34600
X78680Y33600
X78680Y32600
X78680Y31600
X75680Y31600
X75680Y32600
X75680Y33600
X75680Y34600
X75680Y35600
X75680Y36600
X75680Y37600
X74680Y37100
X73680Y36600
X73680Y35600
X73680Y34600
X73680Y33600
X73680Y32600
X70680Y32600
X70680Y33600
X70680Y34600
X68680Y34600
X68680Y33600
X68680Y32600
X65680Y32600
X65680Y33600
X65680Y34600
X73680Y37600
X73680Y38600
T04
X61680Y15100
X61680Y14100
X36680Y6225
X34680Y6225
X20680Y12225
X19680Y12225
X15180Y13600
X15180Y14600
X15180Y15600
X11180Y11850
X10180Y11850
X9180Y11850
X15180Y31600
X15180Y32600
T05
X2180Y5100
X2180Y41100
X78180Y41100
X78180Y5100
M30
