G75*
G70*
%OFA0B0*%
%FSLAX24Y24*%
%IPPOS*%
%LPD*%
%AMOC8*
5,1,8,0,0,1.08239X$1,22.5*
%
%ADD10C,0.0080*%
%ADD11C,0.0110*%
%ADD12C,0.0060*%
%ADD13C,0.0100*%
%ADD14C,0.0120*%
%ADD15R,0.0240X0.0340*%
%ADD16C,0.0040*%
%ADD17C,0.0050*%
%ADD18R,0.0340X0.0240*%
D10*
X007284Y011390D02*
X007214Y011460D01*
X007214Y011740D01*
X007284Y011810D01*
X007424Y011810D01*
X007494Y011740D01*
X007494Y011460D01*
X007424Y011390D01*
X007284Y011390D01*
X007674Y011460D02*
X007744Y011390D01*
X007884Y011390D01*
X007954Y011460D01*
X007954Y011530D01*
X007884Y011600D01*
X007744Y011600D01*
X007674Y011670D01*
X007674Y011740D01*
X007744Y011810D01*
X007884Y011810D01*
X007954Y011740D01*
X008135Y011740D02*
X008135Y011460D01*
X008205Y011390D01*
X008345Y011390D01*
X008415Y011460D01*
X008415Y011740D02*
X008345Y011810D01*
X008205Y011810D01*
X008135Y011740D01*
X011845Y011810D02*
X011845Y011390D01*
X012055Y011390D01*
X012125Y011460D01*
X012125Y011740D01*
X012055Y011810D01*
X011845Y011810D01*
X012305Y011810D02*
X012446Y011810D01*
X012375Y011810D02*
X012375Y011390D01*
X012305Y011390D02*
X012446Y011390D01*
X012612Y011530D02*
X012752Y011390D01*
X012893Y011530D01*
X012893Y011810D01*
X012612Y011810D02*
X012612Y011530D01*
X015970Y013140D02*
X016250Y013560D01*
X016430Y013490D02*
X016500Y013560D01*
X016641Y013560D01*
X016711Y013490D01*
X016711Y013420D01*
X016641Y013350D01*
X016711Y013280D01*
X016711Y013210D01*
X016641Y013140D01*
X016500Y013140D01*
X016430Y013210D01*
X016571Y013350D02*
X016641Y013350D01*
X016711Y015765D02*
X016430Y015765D01*
X016711Y016045D01*
X016711Y016115D01*
X016641Y016185D01*
X016500Y016185D01*
X016430Y016115D01*
X016250Y016185D02*
X015970Y015765D01*
X021305Y012345D02*
X023454Y012345D01*
X023033Y012185D02*
X023033Y011765D01*
X023313Y011765D01*
X022853Y011765D02*
X022573Y011765D01*
X022573Y012185D01*
X022853Y012185D01*
X022713Y011975D02*
X022573Y011975D01*
X022393Y011905D02*
X022393Y011835D01*
X022323Y011765D01*
X022182Y011765D01*
X022112Y011835D01*
X022182Y011975D02*
X022323Y011975D01*
X022393Y011905D01*
X022393Y012115D02*
X022323Y012185D01*
X022182Y012185D01*
X022112Y012115D01*
X022112Y012045D01*
X022182Y011975D01*
X021932Y011835D02*
X021932Y012115D01*
X021862Y012185D01*
X021722Y012185D01*
X021652Y012115D01*
X021652Y011835D01*
X021722Y011765D01*
X021862Y011765D01*
X021932Y011835D01*
X021485Y011765D02*
X021345Y011765D01*
X021415Y011765D02*
X021415Y012185D01*
X021345Y012185D02*
X021485Y012185D01*
X023954Y012185D02*
X023954Y011765D01*
X024164Y011765D01*
X024234Y011835D01*
X024234Y012115D01*
X024164Y012185D01*
X023954Y012185D01*
X024414Y012185D02*
X024554Y012185D01*
X024484Y012185D02*
X024484Y011765D01*
X024414Y011765D02*
X024554Y011765D01*
X024721Y011835D02*
X024791Y011765D01*
X024931Y011765D01*
X025001Y011835D01*
X025001Y011905D01*
X024931Y011975D01*
X024791Y011975D01*
X024721Y012045D01*
X024721Y012115D01*
X024791Y012185D01*
X024931Y012185D01*
X025001Y012115D01*
X025182Y012045D02*
X025322Y012185D01*
X025462Y012045D01*
X025462Y011765D01*
X025642Y011765D02*
X025852Y011765D01*
X025922Y011835D01*
X025922Y011905D01*
X025852Y011975D01*
X025642Y011975D01*
X025462Y011975D02*
X025182Y011975D01*
X025182Y012045D02*
X025182Y011765D01*
X025642Y011765D02*
X025642Y012185D01*
X025852Y012185D01*
X025922Y012115D01*
X025922Y012045D01*
X025852Y011975D01*
X026102Y011765D02*
X026383Y011765D01*
X026563Y011765D02*
X026563Y012185D01*
X026843Y012185D01*
X026703Y011975D02*
X026563Y011975D01*
X026563Y011765D02*
X026843Y011765D01*
X026102Y011765D02*
X026102Y012185D01*
X060595Y012440D02*
X061015Y012720D01*
X060595Y012720D01*
X060595Y012900D02*
X060735Y013040D01*
X060595Y013180D01*
X061015Y013180D01*
X061015Y013360D02*
X061015Y013500D01*
X061015Y013430D02*
X060595Y013430D01*
X060595Y013360D02*
X060595Y013500D01*
X060595Y014128D02*
X061015Y014128D01*
X061015Y014408D01*
X061015Y014588D02*
X060595Y014588D01*
X061015Y014868D01*
X060595Y014868D01*
X060735Y015048D02*
X060595Y015189D01*
X060735Y015329D01*
X061015Y015329D01*
X061015Y015509D02*
X061015Y015719D01*
X060945Y015789D01*
X060875Y015789D01*
X060805Y015719D01*
X060805Y015509D01*
X060805Y015329D02*
X060805Y015048D01*
X060735Y015048D02*
X061015Y015048D01*
X061015Y015509D02*
X060595Y015509D01*
X060595Y015719D01*
X060665Y015789D01*
X060735Y015789D01*
X060805Y015719D01*
X061015Y015969D02*
X061015Y016249D01*
X061015Y016430D02*
X061015Y016710D01*
X060805Y016570D02*
X060805Y016430D01*
X060595Y016430D02*
X061015Y016430D01*
X060595Y016430D02*
X060595Y016710D01*
X060595Y015969D02*
X061015Y015969D01*
X060595Y014408D02*
X060595Y014128D01*
X060805Y014128D02*
X060805Y014268D01*
X061015Y012900D02*
X060595Y012900D01*
X060595Y012440D02*
X061015Y012440D01*
X018453Y041335D02*
X018383Y041265D01*
X018243Y041265D01*
X018173Y041335D01*
X017993Y041265D02*
X017713Y041265D01*
X017853Y041265D02*
X017853Y041685D01*
X017713Y041545D01*
X017532Y041615D02*
X017252Y041335D01*
X017322Y041265D01*
X017462Y041265D01*
X017532Y041335D01*
X017532Y041615D01*
X017462Y041685D01*
X017322Y041685D01*
X017252Y041615D01*
X017252Y041335D01*
X017072Y041265D02*
X016792Y041265D01*
X017072Y041545D01*
X017072Y041615D01*
X017002Y041685D01*
X016862Y041685D01*
X016792Y041615D01*
X016658Y042015D02*
X016658Y042435D01*
X016868Y042435D01*
X016938Y042365D01*
X016938Y042225D01*
X016868Y042155D01*
X016658Y042155D01*
X016798Y042155D02*
X016938Y042015D01*
X017118Y042085D02*
X017189Y042015D01*
X017329Y042015D01*
X017399Y042085D01*
X017399Y042365D01*
X017329Y042435D01*
X017189Y042435D01*
X017118Y042365D01*
X017118Y042085D01*
X017579Y042225D02*
X017859Y042225D01*
X018039Y042225D02*
X018249Y042225D01*
X018320Y042155D01*
X018320Y042085D01*
X018249Y042015D01*
X018109Y042015D01*
X018039Y042085D01*
X018039Y042225D01*
X018179Y042365D01*
X018320Y042435D01*
X018500Y042435D02*
X018500Y042225D01*
X018640Y042295D01*
X018710Y042295D01*
X018780Y042225D01*
X018780Y042085D01*
X018710Y042015D01*
X018570Y042015D01*
X018500Y042085D01*
X018500Y042435D02*
X018780Y042435D01*
X018960Y042365D02*
X019030Y042435D01*
X019170Y042435D01*
X019240Y042365D01*
X018960Y042085D01*
X019030Y042015D01*
X019170Y042015D01*
X019240Y042085D01*
X019240Y042365D01*
X019420Y042365D02*
X019491Y042435D01*
X019631Y042435D01*
X019701Y042365D01*
X019701Y042295D01*
X019420Y042015D01*
X019701Y042015D01*
X018960Y042085D02*
X018960Y042365D01*
X018383Y041685D02*
X018453Y041615D01*
X018453Y041545D01*
X018383Y041475D01*
X018453Y041405D01*
X018453Y041335D01*
X018383Y041475D02*
X018313Y041475D01*
X018173Y041615D02*
X018243Y041685D01*
X018383Y041685D01*
X016478Y042085D02*
X016408Y042015D01*
X016268Y042015D01*
X016198Y042085D01*
X016198Y042365D01*
X016268Y042435D01*
X016408Y042435D01*
X016478Y042365D01*
X016031Y042435D02*
X015891Y042435D01*
X015961Y042435D02*
X015961Y042015D01*
X015891Y042015D02*
X016031Y042015D01*
X015711Y042015D02*
X015711Y042435D01*
X015571Y042295D01*
X015430Y042435D01*
X015430Y042015D01*
X015250Y042015D02*
X014970Y042435D01*
X015250Y042435D02*
X014970Y042015D01*
X015000Y041685D02*
X015000Y041405D01*
X014860Y041265D01*
X014720Y041405D01*
X014720Y041685D01*
X015180Y041615D02*
X015250Y041685D01*
X015391Y041685D01*
X015461Y041615D01*
X015461Y041545D01*
X015180Y041265D01*
X015461Y041265D01*
X015641Y041265D02*
X015711Y041265D01*
X015711Y041335D01*
X015641Y041335D01*
X015641Y041265D01*
X015871Y041475D02*
X016151Y041475D01*
X016081Y041265D02*
X016081Y041685D01*
X015871Y041475D01*
X003930Y037600D02*
X002430Y037600D01*
D11*
X002340Y037905D02*
X002340Y038496D01*
X002340Y038200D02*
X001946Y038200D01*
X001946Y037905D02*
X001946Y038496D01*
X002590Y038299D02*
X002590Y037905D01*
X002590Y038200D02*
X002984Y038200D01*
X002984Y038299D02*
X002984Y037905D01*
X003235Y037905D02*
X003235Y038496D01*
X002984Y038299D02*
X002787Y038496D01*
X002590Y038299D01*
X003235Y037905D02*
X003629Y037905D01*
X004076Y037905D02*
X004076Y038496D01*
X003880Y038496D02*
X004273Y038496D01*
D12*
X003710Y003703D02*
X003783Y003630D01*
X003930Y003630D01*
X004004Y003703D01*
X004170Y003630D02*
X004170Y004070D01*
X004004Y003997D02*
X003930Y004070D01*
X003783Y004070D01*
X003710Y003997D01*
X003710Y003703D01*
X004170Y003850D02*
X004464Y003850D01*
X004631Y003777D02*
X004851Y003777D01*
X004924Y003850D01*
X004924Y003997D01*
X004851Y004070D01*
X004631Y004070D01*
X004631Y003630D01*
X004464Y003630D02*
X004464Y004070D01*
X004778Y003777D02*
X004924Y003630D01*
X005091Y003630D02*
X005238Y003630D01*
X005165Y003630D02*
X005165Y004070D01*
X005238Y004070D02*
X005091Y004070D01*
X005398Y003997D02*
X005398Y003924D01*
X005472Y003850D01*
X005618Y003850D01*
X005692Y003777D01*
X005692Y003703D01*
X005618Y003630D01*
X005472Y003630D01*
X005398Y003703D01*
X005398Y003997D02*
X005472Y004070D01*
X005618Y004070D01*
X005692Y003997D01*
X006319Y004070D02*
X006319Y003630D01*
X006466Y003777D01*
X006612Y003630D01*
X006612Y004070D01*
X006779Y004070D02*
X006779Y003630D01*
X007073Y003630D01*
X007240Y003630D02*
X007386Y003630D01*
X007313Y003630D02*
X007313Y004070D01*
X007240Y004070D02*
X007386Y004070D01*
X007547Y004070D02*
X007767Y004070D01*
X007840Y003997D01*
X007840Y003850D01*
X007767Y003777D01*
X007547Y003777D01*
X007693Y003777D02*
X007840Y003630D01*
X007547Y003630D02*
X007547Y004070D01*
X007073Y004070D02*
X006779Y004070D01*
X006779Y003850D02*
X006926Y003850D01*
X008467Y003997D02*
X008541Y004070D01*
X008688Y004070D01*
X008761Y003997D01*
X008761Y003924D01*
X008467Y003630D01*
X008761Y003630D01*
X008928Y003703D02*
X009221Y003997D01*
X009221Y003703D01*
X009148Y003630D01*
X009001Y003630D01*
X008928Y003703D01*
X008928Y003997D01*
X009001Y004070D01*
X009148Y004070D01*
X009221Y003997D01*
X009388Y003997D02*
X009462Y004070D01*
X009608Y004070D01*
X009682Y003997D01*
X009682Y003924D01*
X009388Y003630D01*
X009682Y003630D01*
X009849Y003703D02*
X010142Y003997D01*
X010142Y003703D01*
X010069Y003630D01*
X009922Y003630D01*
X009849Y003703D01*
X009849Y003997D01*
X009922Y004070D01*
X010069Y004070D01*
X010142Y003997D01*
X006680Y007950D02*
X006680Y008700D01*
X006719Y008702D01*
X006758Y008708D01*
X006796Y008717D01*
X006833Y008730D01*
X006869Y008747D01*
X006902Y008767D01*
X006934Y008791D01*
X006963Y008817D01*
X006989Y008846D01*
X007013Y008878D01*
X007033Y008911D01*
X007050Y008947D01*
X007063Y008984D01*
X007072Y009022D01*
X007078Y009061D01*
X007080Y009100D01*
X007078Y009139D01*
X007072Y009178D01*
X007063Y009216D01*
X007050Y009253D01*
X007033Y009289D01*
X007013Y009322D01*
X006989Y009354D01*
X006963Y009383D01*
X006934Y009409D01*
X006902Y009433D01*
X006869Y009453D01*
X006833Y009470D01*
X006796Y009483D01*
X006758Y009492D01*
X006719Y009498D01*
X006680Y009500D01*
X006680Y010250D01*
X014680Y010250D01*
X014680Y007950D01*
X006680Y007950D01*
X006130Y008450D02*
X006130Y009750D01*
X006128Y009776D01*
X006123Y009802D01*
X006115Y009827D01*
X006103Y009850D01*
X006089Y009872D01*
X006071Y009891D01*
X006052Y009909D01*
X006030Y009923D01*
X006007Y009935D01*
X005982Y009943D01*
X005956Y009948D01*
X005930Y009950D01*
X005430Y009950D01*
X005404Y009948D01*
X005378Y009943D01*
X005353Y009935D01*
X005330Y009923D01*
X005308Y009909D01*
X005289Y009891D01*
X005271Y009872D01*
X005257Y009850D01*
X005245Y009827D01*
X005237Y009802D01*
X005232Y009776D01*
X005230Y009750D01*
X005230Y008450D01*
X005232Y008424D01*
X005237Y008398D01*
X005245Y008373D01*
X005257Y008350D01*
X005271Y008328D01*
X005289Y008309D01*
X005308Y008291D01*
X005330Y008277D01*
X005353Y008265D01*
X005378Y008257D01*
X005404Y008252D01*
X005430Y008250D01*
X005930Y008250D01*
X005956Y008252D01*
X005982Y008257D01*
X006007Y008265D01*
X006030Y008277D01*
X006052Y008291D01*
X006071Y008309D01*
X006089Y008328D01*
X006103Y008350D01*
X006115Y008373D01*
X006123Y008398D01*
X006128Y008424D01*
X006130Y008450D01*
X005075Y008588D02*
X005075Y008735D01*
X005002Y008808D01*
X005075Y008975D02*
X004781Y009268D01*
X004708Y009268D01*
X004635Y009195D01*
X004635Y009048D01*
X004708Y008975D01*
X004708Y008808D02*
X004635Y008735D01*
X004635Y008588D01*
X004708Y008514D01*
X005002Y008514D01*
X005075Y008588D01*
X005075Y008975D02*
X005075Y009268D01*
X005002Y009435D02*
X005075Y009509D01*
X005075Y009655D01*
X005002Y009729D01*
X004708Y009729D01*
X004635Y009655D01*
X004635Y009509D01*
X004708Y009435D01*
X004781Y009435D01*
X004855Y009509D01*
X004855Y009729D01*
X007760Y009320D02*
X008054Y009320D01*
X008054Y009247D01*
X007760Y008953D01*
X007760Y008880D01*
X008220Y009100D02*
X008514Y009100D01*
X008681Y009247D02*
X008754Y009320D01*
X008901Y009320D01*
X008974Y009247D01*
X008974Y009174D01*
X008681Y008880D01*
X008974Y008880D01*
X009141Y008953D02*
X009215Y008880D01*
X009361Y008880D01*
X009435Y008953D01*
X009435Y009100D01*
X009361Y009174D01*
X009288Y009174D01*
X009141Y009100D01*
X009141Y009320D01*
X009435Y009320D01*
X009602Y009320D02*
X009895Y009320D01*
X009895Y009247D01*
X009602Y008953D01*
X009602Y008880D01*
X008441Y008880D02*
X008441Y009320D01*
X008220Y009100D01*
X008271Y012130D02*
X008271Y012570D01*
X008125Y012424D01*
X007958Y012497D02*
X007884Y012570D01*
X007664Y012570D01*
X007664Y012130D01*
X007664Y012277D02*
X007884Y012277D01*
X007958Y012350D01*
X007958Y012497D01*
X008125Y012130D02*
X008418Y012130D01*
X007424Y012203D02*
X007424Y012570D01*
X007351Y012570D02*
X007497Y012570D01*
X007424Y012203D02*
X007351Y012130D01*
X007277Y012130D01*
X007204Y012203D01*
X006680Y013450D02*
X006680Y014200D01*
X006719Y014202D01*
X006758Y014208D01*
X006796Y014217D01*
X006833Y014230D01*
X006869Y014247D01*
X006902Y014267D01*
X006934Y014291D01*
X006963Y014317D01*
X006989Y014346D01*
X007013Y014378D01*
X007033Y014411D01*
X007050Y014447D01*
X007063Y014484D01*
X007072Y014522D01*
X007078Y014561D01*
X007080Y014600D01*
X007078Y014639D01*
X007072Y014678D01*
X007063Y014716D01*
X007050Y014753D01*
X007033Y014789D01*
X007013Y014822D01*
X006989Y014854D01*
X006963Y014883D01*
X006934Y014909D01*
X006902Y014933D01*
X006869Y014953D01*
X006833Y014970D01*
X006796Y014983D01*
X006758Y014992D01*
X006719Y014998D01*
X006680Y015000D01*
X006680Y015750D01*
X013680Y015750D01*
X013680Y013450D01*
X006680Y013450D01*
X006130Y013950D02*
X006130Y015250D01*
X006128Y015276D01*
X006123Y015302D01*
X006115Y015327D01*
X006103Y015350D01*
X006089Y015372D01*
X006071Y015391D01*
X006052Y015409D01*
X006030Y015423D01*
X006007Y015435D01*
X005982Y015443D01*
X005956Y015448D01*
X005930Y015450D01*
X005430Y015450D01*
X005404Y015448D01*
X005378Y015443D01*
X005353Y015435D01*
X005330Y015423D01*
X005308Y015409D01*
X005289Y015391D01*
X005271Y015372D01*
X005257Y015350D01*
X005245Y015327D01*
X005237Y015302D01*
X005232Y015276D01*
X005230Y015250D01*
X005230Y013950D01*
X005232Y013924D01*
X005237Y013898D01*
X005245Y013873D01*
X005257Y013850D01*
X005271Y013828D01*
X005289Y013809D01*
X005308Y013791D01*
X005330Y013777D01*
X005353Y013765D01*
X005378Y013757D01*
X005404Y013752D01*
X005430Y013750D01*
X005930Y013750D01*
X005956Y013752D01*
X005982Y013757D01*
X006007Y013765D01*
X006030Y013777D01*
X006052Y013791D01*
X006071Y013809D01*
X006089Y013828D01*
X006103Y013850D01*
X006115Y013873D01*
X006123Y013898D01*
X006128Y013924D01*
X006130Y013950D01*
X005075Y014088D02*
X005075Y014235D01*
X005002Y014308D01*
X005002Y014475D02*
X005075Y014548D01*
X005075Y014695D01*
X005002Y014768D01*
X004928Y014768D01*
X004855Y014695D01*
X004855Y014622D01*
X004855Y014695D02*
X004781Y014768D01*
X004708Y014768D01*
X004635Y014695D01*
X004635Y014548D01*
X004708Y014475D01*
X004708Y014308D02*
X004635Y014235D01*
X004635Y014088D01*
X004708Y014014D01*
X005002Y014014D01*
X005075Y014088D01*
X005002Y014935D02*
X004708Y014935D01*
X004635Y015009D01*
X004635Y015155D01*
X004708Y015229D01*
X005002Y014935D01*
X005075Y015009D01*
X005075Y015155D01*
X005002Y015229D01*
X004708Y015229D01*
X003224Y017280D02*
X002931Y017280D01*
X003078Y017280D02*
X003078Y017720D01*
X002931Y017574D01*
X002764Y017574D02*
X002691Y017500D01*
X002764Y017427D01*
X002764Y017353D01*
X002691Y017280D01*
X002544Y017280D01*
X002470Y017353D01*
X002304Y017353D02*
X002230Y017280D01*
X002083Y017280D01*
X002010Y017353D01*
X002010Y017720D01*
X002304Y017720D02*
X002304Y017353D01*
X002470Y017647D02*
X002544Y017720D01*
X002691Y017720D01*
X002764Y017647D01*
X002764Y017574D01*
X002691Y017500D02*
X002617Y017500D01*
X001530Y018100D02*
X003830Y018100D01*
X003830Y025100D01*
X003080Y025100D01*
X003078Y025061D01*
X003072Y025022D01*
X003063Y024984D01*
X003050Y024947D01*
X003033Y024911D01*
X003013Y024878D01*
X002989Y024846D01*
X002963Y024817D01*
X002934Y024791D01*
X002902Y024767D01*
X002869Y024747D01*
X002833Y024730D01*
X002796Y024717D01*
X002758Y024708D01*
X002719Y024702D01*
X002680Y024700D01*
X002641Y024702D01*
X002602Y024708D01*
X002564Y024717D01*
X002527Y024730D01*
X002491Y024747D01*
X002458Y024767D01*
X002426Y024791D01*
X002397Y024817D01*
X002371Y024846D01*
X002347Y024878D01*
X002327Y024911D01*
X002310Y024947D01*
X002297Y024984D01*
X002288Y025022D01*
X002282Y025061D01*
X002280Y025100D01*
X001530Y025100D01*
X001530Y018100D01*
X004635Y019818D02*
X004708Y019745D01*
X005002Y019745D01*
X005075Y019818D01*
X005075Y019965D01*
X005002Y020038D01*
X005075Y020205D02*
X005075Y020499D01*
X005075Y020352D02*
X004635Y020352D01*
X004781Y020205D01*
X004708Y020038D02*
X004635Y019965D01*
X004635Y019818D01*
X005230Y019450D02*
X005230Y020750D01*
X005232Y020776D01*
X005237Y020802D01*
X005245Y020827D01*
X005257Y020850D01*
X005271Y020872D01*
X005289Y020891D01*
X005308Y020909D01*
X005330Y020923D01*
X005353Y020935D01*
X005378Y020943D01*
X005404Y020948D01*
X005430Y020950D01*
X005930Y020950D01*
X005956Y020948D01*
X005982Y020943D01*
X006007Y020935D01*
X006030Y020923D01*
X006052Y020909D01*
X006071Y020891D01*
X006089Y020872D01*
X006103Y020850D01*
X006115Y020827D01*
X006123Y020802D01*
X006128Y020776D01*
X006130Y020750D01*
X006130Y019450D01*
X006128Y019424D01*
X006123Y019398D01*
X006115Y019373D01*
X006103Y019350D01*
X006089Y019328D01*
X006071Y019309D01*
X006052Y019291D01*
X006030Y019277D01*
X006007Y019265D01*
X005982Y019257D01*
X005956Y019252D01*
X005930Y019250D01*
X005430Y019250D01*
X005404Y019252D01*
X005378Y019257D01*
X005353Y019265D01*
X005330Y019277D01*
X005308Y019291D01*
X005289Y019309D01*
X005271Y019328D01*
X005257Y019350D01*
X005245Y019373D01*
X005237Y019398D01*
X005232Y019424D01*
X005230Y019450D01*
X006680Y019700D02*
X006680Y018950D01*
X014680Y018950D01*
X014680Y021250D01*
X006680Y021250D01*
X006680Y020500D01*
X006719Y020498D01*
X006758Y020492D01*
X006796Y020483D01*
X006833Y020470D01*
X006869Y020453D01*
X006902Y020433D01*
X006934Y020409D01*
X006963Y020383D01*
X006989Y020354D01*
X007013Y020322D01*
X007033Y020289D01*
X007050Y020253D01*
X007063Y020216D01*
X007072Y020178D01*
X007078Y020139D01*
X007080Y020100D01*
X007078Y020061D01*
X007072Y020022D01*
X007063Y019984D01*
X007050Y019947D01*
X007033Y019911D01*
X007013Y019878D01*
X006989Y019846D01*
X006963Y019817D01*
X006934Y019791D01*
X006902Y019767D01*
X006869Y019747D01*
X006833Y019730D01*
X006796Y019717D01*
X006758Y019708D01*
X006719Y019702D01*
X006680Y019700D01*
X008010Y019880D02*
X008010Y019953D01*
X008304Y020247D01*
X008304Y020320D01*
X008010Y020320D01*
X008470Y020100D02*
X008764Y020100D01*
X008931Y020174D02*
X009078Y020320D01*
X009078Y019880D01*
X009224Y019880D02*
X008931Y019880D01*
X008691Y019880D02*
X008691Y020320D01*
X008470Y020100D01*
X009391Y019953D02*
X009465Y019880D01*
X009611Y019880D01*
X009685Y019953D01*
X009685Y020027D01*
X009611Y020100D01*
X009538Y020100D01*
X009611Y020100D02*
X009685Y020174D01*
X009685Y020247D01*
X009611Y020320D01*
X009465Y020320D01*
X009391Y020247D01*
X009852Y020247D02*
X009852Y020174D01*
X009925Y020100D01*
X010072Y020100D01*
X010145Y020027D01*
X010145Y019953D01*
X010072Y019880D01*
X009925Y019880D01*
X009852Y019953D01*
X009852Y020027D01*
X009925Y020100D01*
X010072Y020100D02*
X010145Y020174D01*
X010145Y020247D01*
X010072Y020320D01*
X009925Y020320D01*
X009852Y020247D01*
X014810Y020252D02*
X015250Y020252D01*
X015250Y020105D02*
X015250Y020399D01*
X014956Y020105D02*
X014810Y020252D01*
X014810Y019938D02*
X015177Y019938D01*
X015250Y019865D01*
X015250Y019718D01*
X015177Y019645D01*
X014810Y019645D01*
X018135Y019818D02*
X018208Y019745D01*
X018502Y019745D01*
X018575Y019818D01*
X018575Y019965D01*
X018502Y020038D01*
X018502Y020205D02*
X018575Y020205D01*
X018502Y020205D02*
X018208Y020499D01*
X018135Y020499D01*
X018135Y020205D01*
X018208Y020038D02*
X018135Y019965D01*
X018135Y019818D01*
X018730Y019450D02*
X018730Y020750D01*
X018732Y020776D01*
X018737Y020802D01*
X018745Y020827D01*
X018757Y020850D01*
X018771Y020872D01*
X018789Y020891D01*
X018808Y020909D01*
X018830Y020923D01*
X018853Y020935D01*
X018878Y020943D01*
X018904Y020948D01*
X018930Y020950D01*
X019430Y020950D01*
X019456Y020948D01*
X019482Y020943D01*
X019507Y020935D01*
X019530Y020923D01*
X019552Y020909D01*
X019571Y020891D01*
X019589Y020872D01*
X019603Y020850D01*
X019615Y020827D01*
X019623Y020802D01*
X019628Y020776D01*
X019630Y020750D01*
X019630Y019450D01*
X019628Y019424D01*
X019623Y019398D01*
X019615Y019373D01*
X019603Y019350D01*
X019589Y019328D01*
X019571Y019309D01*
X019552Y019291D01*
X019530Y019277D01*
X019507Y019265D01*
X019482Y019257D01*
X019456Y019252D01*
X019430Y019250D01*
X018930Y019250D01*
X018904Y019252D01*
X018878Y019257D01*
X018853Y019265D01*
X018830Y019277D01*
X018808Y019291D01*
X018789Y019309D01*
X018771Y019328D01*
X018757Y019350D01*
X018745Y019373D01*
X018737Y019398D01*
X018732Y019424D01*
X018730Y019450D01*
X020180Y019700D02*
X020180Y018950D01*
X030180Y018950D01*
X030180Y021250D01*
X020180Y021250D01*
X020180Y020500D01*
X020219Y020498D01*
X020258Y020492D01*
X020296Y020483D01*
X020333Y020470D01*
X020369Y020453D01*
X020402Y020433D01*
X020434Y020409D01*
X020463Y020383D01*
X020489Y020354D01*
X020513Y020322D01*
X020533Y020289D01*
X020550Y020253D01*
X020563Y020216D01*
X020572Y020178D01*
X020578Y020139D01*
X020580Y020100D01*
X020578Y020061D01*
X020572Y020022D01*
X020563Y019984D01*
X020550Y019947D01*
X020533Y019911D01*
X020513Y019878D01*
X020489Y019846D01*
X020463Y019817D01*
X020434Y019791D01*
X020402Y019767D01*
X020369Y019747D01*
X020333Y019730D01*
X020296Y019717D01*
X020258Y019708D01*
X020219Y019702D01*
X020180Y019700D01*
X021360Y019980D02*
X021360Y020053D01*
X021654Y020347D01*
X021654Y020420D01*
X021360Y020420D01*
X021820Y020200D02*
X022114Y020200D01*
X022281Y020200D02*
X022501Y020200D01*
X022574Y020127D01*
X022574Y020053D01*
X022501Y019980D01*
X022354Y019980D01*
X022281Y020053D01*
X022281Y020200D01*
X022428Y020347D01*
X022574Y020420D01*
X022741Y020347D02*
X022741Y020274D01*
X022815Y020200D01*
X022961Y020200D01*
X023035Y020127D01*
X023035Y020053D01*
X022961Y019980D01*
X022815Y019980D01*
X022741Y020053D01*
X022741Y020127D01*
X022815Y020200D01*
X022961Y020200D02*
X023035Y020274D01*
X023035Y020347D01*
X022961Y020420D01*
X022815Y020420D01*
X022741Y020347D01*
X023202Y020347D02*
X023202Y020274D01*
X023275Y020200D01*
X023422Y020200D01*
X023495Y020127D01*
X023495Y020053D01*
X023422Y019980D01*
X023275Y019980D01*
X023202Y020053D01*
X023202Y020127D01*
X023275Y020200D01*
X023422Y020200D02*
X023495Y020274D01*
X023495Y020347D01*
X023422Y020420D01*
X023275Y020420D01*
X023202Y020347D01*
X022041Y020420D02*
X021820Y020200D01*
X022041Y019980D02*
X022041Y020420D01*
X020180Y024450D02*
X020180Y025200D01*
X020219Y025202D01*
X020258Y025208D01*
X020296Y025217D01*
X020333Y025230D01*
X020369Y025247D01*
X020402Y025267D01*
X020434Y025291D01*
X020463Y025317D01*
X020489Y025346D01*
X020513Y025378D01*
X020533Y025411D01*
X020550Y025447D01*
X020563Y025484D01*
X020572Y025522D01*
X020578Y025561D01*
X020580Y025600D01*
X020578Y025639D01*
X020572Y025678D01*
X020563Y025716D01*
X020550Y025753D01*
X020533Y025789D01*
X020513Y025822D01*
X020489Y025854D01*
X020463Y025883D01*
X020434Y025909D01*
X020402Y025933D01*
X020369Y025953D01*
X020333Y025970D01*
X020296Y025983D01*
X020258Y025992D01*
X020219Y025998D01*
X020180Y026000D01*
X020180Y026750D01*
X030180Y026750D01*
X030180Y024450D01*
X020180Y024450D01*
X019630Y024950D02*
X019630Y026250D01*
X019628Y026276D01*
X019623Y026302D01*
X019615Y026327D01*
X019603Y026350D01*
X019589Y026372D01*
X019571Y026391D01*
X019552Y026409D01*
X019530Y026423D01*
X019507Y026435D01*
X019482Y026443D01*
X019456Y026448D01*
X019430Y026450D01*
X018930Y026450D01*
X018904Y026448D01*
X018878Y026443D01*
X018853Y026435D01*
X018830Y026423D01*
X018808Y026409D01*
X018789Y026391D01*
X018771Y026372D01*
X018757Y026350D01*
X018745Y026327D01*
X018737Y026302D01*
X018732Y026276D01*
X018730Y026250D01*
X018730Y024950D01*
X018732Y024924D01*
X018737Y024898D01*
X018745Y024873D01*
X018757Y024850D01*
X018771Y024828D01*
X018789Y024809D01*
X018808Y024791D01*
X018830Y024777D01*
X018853Y024765D01*
X018878Y024757D01*
X018904Y024752D01*
X018930Y024750D01*
X019430Y024750D01*
X019456Y024752D01*
X019482Y024757D01*
X019507Y024765D01*
X019530Y024777D01*
X019552Y024791D01*
X019571Y024809D01*
X019589Y024828D01*
X019603Y024850D01*
X019615Y024873D01*
X019623Y024898D01*
X019628Y024924D01*
X019630Y024950D01*
X018575Y025318D02*
X018575Y025465D01*
X018502Y025538D01*
X018502Y025705D02*
X018428Y025705D01*
X018355Y025778D01*
X018355Y025925D01*
X018428Y025999D01*
X018502Y025999D01*
X018575Y025925D01*
X018575Y025778D01*
X018502Y025705D01*
X018355Y025778D02*
X018281Y025705D01*
X018208Y025705D01*
X018135Y025778D01*
X018135Y025925D01*
X018208Y025999D01*
X018281Y025999D01*
X018355Y025925D01*
X018208Y025538D02*
X018135Y025465D01*
X018135Y025318D01*
X018208Y025245D01*
X018502Y025245D01*
X018575Y025318D01*
X021485Y025730D02*
X021485Y025803D01*
X021779Y026097D01*
X021779Y026170D01*
X021485Y026170D01*
X021945Y025950D02*
X022239Y025950D01*
X022406Y026097D02*
X022479Y026170D01*
X022626Y026170D01*
X022699Y026097D01*
X022699Y026024D01*
X022406Y025730D01*
X022699Y025730D01*
X022866Y025950D02*
X023160Y025950D01*
X023327Y025950D02*
X023547Y026170D01*
X023547Y025730D01*
X023620Y025950D02*
X023327Y025950D01*
X023086Y025730D02*
X023086Y026170D01*
X022866Y025950D01*
X022166Y025730D02*
X022166Y026170D01*
X021945Y025950D01*
X015250Y026024D02*
X015250Y025730D01*
X014956Y026024D01*
X014883Y026024D01*
X014810Y025950D01*
X014810Y025803D01*
X014883Y025730D01*
X014810Y025563D02*
X015177Y025563D01*
X015250Y025490D01*
X015250Y025343D01*
X015177Y025270D01*
X014810Y025270D01*
X014680Y024450D02*
X014680Y026750D01*
X006680Y026750D01*
X006680Y026000D01*
X006719Y025998D01*
X006758Y025992D01*
X006796Y025983D01*
X006833Y025970D01*
X006869Y025953D01*
X006902Y025933D01*
X006934Y025909D01*
X006963Y025883D01*
X006989Y025854D01*
X007013Y025822D01*
X007033Y025789D01*
X007050Y025753D01*
X007063Y025716D01*
X007072Y025678D01*
X007078Y025639D01*
X007080Y025600D01*
X007078Y025561D01*
X007072Y025522D01*
X007063Y025484D01*
X007050Y025447D01*
X007033Y025411D01*
X007013Y025378D01*
X006989Y025346D01*
X006963Y025317D01*
X006934Y025291D01*
X006902Y025267D01*
X006869Y025247D01*
X006833Y025230D01*
X006796Y025217D01*
X006758Y025208D01*
X006719Y025202D01*
X006680Y025200D01*
X006680Y024450D01*
X014680Y024450D01*
X010020Y025453D02*
X009947Y025380D01*
X009800Y025380D01*
X009727Y025453D01*
X009727Y025527D01*
X009800Y025600D01*
X009947Y025600D01*
X010020Y025527D01*
X010020Y025453D01*
X009947Y025600D02*
X010020Y025674D01*
X010020Y025747D01*
X009947Y025820D01*
X009800Y025820D01*
X009727Y025747D01*
X009727Y025674D01*
X009800Y025600D01*
X009560Y025527D02*
X009560Y025453D01*
X009486Y025380D01*
X009340Y025380D01*
X009266Y025453D01*
X009099Y025380D02*
X008806Y025380D01*
X008953Y025380D02*
X008953Y025820D01*
X008806Y025674D01*
X008639Y025600D02*
X008345Y025600D01*
X008566Y025820D01*
X008566Y025380D01*
X008179Y025747D02*
X007885Y025453D01*
X007885Y025380D01*
X007885Y025820D02*
X008179Y025820D01*
X008179Y025747D01*
X009266Y025747D02*
X009340Y025820D01*
X009486Y025820D01*
X009560Y025747D01*
X009560Y025674D01*
X009486Y025600D01*
X009560Y025527D01*
X009486Y025600D02*
X009413Y025600D01*
X006130Y024950D02*
X006130Y026250D01*
X006128Y026276D01*
X006123Y026302D01*
X006115Y026327D01*
X006103Y026350D01*
X006089Y026372D01*
X006071Y026391D01*
X006052Y026409D01*
X006030Y026423D01*
X006007Y026435D01*
X005982Y026443D01*
X005956Y026448D01*
X005930Y026450D01*
X005430Y026450D01*
X005404Y026448D01*
X005378Y026443D01*
X005353Y026435D01*
X005330Y026423D01*
X005308Y026409D01*
X005289Y026391D01*
X005271Y026372D01*
X005257Y026350D01*
X005245Y026327D01*
X005237Y026302D01*
X005232Y026276D01*
X005230Y026250D01*
X005230Y024950D01*
X005232Y024924D01*
X005237Y024898D01*
X005245Y024873D01*
X005257Y024850D01*
X005271Y024828D01*
X005289Y024809D01*
X005308Y024791D01*
X005330Y024777D01*
X005353Y024765D01*
X005378Y024757D01*
X005404Y024752D01*
X005430Y024750D01*
X005930Y024750D01*
X005956Y024752D01*
X005982Y024757D01*
X006007Y024765D01*
X006030Y024777D01*
X006052Y024791D01*
X006071Y024809D01*
X006089Y024828D01*
X006103Y024850D01*
X006115Y024873D01*
X006123Y024898D01*
X006128Y024924D01*
X006130Y024950D01*
X005075Y025318D02*
X005075Y025465D01*
X005002Y025538D01*
X005075Y025705D02*
X004781Y025999D01*
X004708Y025999D01*
X004635Y025925D01*
X004635Y025778D01*
X004708Y025705D01*
X004708Y025538D02*
X004635Y025465D01*
X004635Y025318D01*
X004708Y025245D01*
X005002Y025245D01*
X005075Y025318D01*
X005075Y025705D02*
X005075Y025999D01*
X003530Y025850D02*
X003530Y026350D01*
X003528Y026376D01*
X003523Y026402D01*
X003515Y026427D01*
X003503Y026450D01*
X003489Y026472D01*
X003471Y026491D01*
X003452Y026509D01*
X003430Y026523D01*
X003407Y026535D01*
X003382Y026543D01*
X003356Y026548D01*
X003330Y026550D01*
X002030Y026550D01*
X002004Y026548D01*
X001978Y026543D01*
X001953Y026535D01*
X001930Y026523D01*
X001908Y026509D01*
X001889Y026491D01*
X001871Y026472D01*
X001857Y026450D01*
X001845Y026427D01*
X001837Y026402D01*
X001832Y026376D01*
X001830Y026350D01*
X001830Y025850D01*
X001832Y025824D01*
X001837Y025798D01*
X001845Y025773D01*
X001857Y025750D01*
X001871Y025728D01*
X001889Y025709D01*
X001908Y025691D01*
X001930Y025677D01*
X001953Y025665D01*
X001978Y025657D01*
X002004Y025652D01*
X002030Y025650D01*
X003330Y025650D01*
X003356Y025652D01*
X003382Y025657D01*
X003407Y025665D01*
X003430Y025677D01*
X003452Y025691D01*
X003471Y025709D01*
X003489Y025728D01*
X003503Y025750D01*
X003515Y025773D01*
X003523Y025798D01*
X003528Y025824D01*
X003530Y025850D01*
X001600Y025964D02*
X001527Y025890D01*
X001600Y025964D02*
X001600Y026111D01*
X001527Y026184D01*
X001453Y026184D01*
X001380Y026111D01*
X001380Y026037D01*
X001380Y026111D02*
X001306Y026184D01*
X001233Y026184D01*
X001160Y026111D01*
X001160Y025964D01*
X001233Y025890D01*
X001233Y025724D02*
X001160Y025650D01*
X001160Y025503D01*
X001233Y025430D01*
X001527Y025430D01*
X001600Y025503D01*
X001600Y025650D01*
X001527Y025724D01*
X001600Y026351D02*
X001600Y026644D01*
X001600Y026498D02*
X001160Y026498D01*
X001306Y026351D01*
X001560Y027909D02*
X001560Y028129D01*
X001633Y028203D01*
X001780Y028203D01*
X001853Y028129D01*
X001853Y027909D01*
X002000Y027909D02*
X001560Y027909D01*
X001853Y028056D02*
X002000Y028203D01*
X002000Y028370D02*
X002000Y028663D01*
X002000Y028516D02*
X001560Y028516D01*
X001706Y028370D01*
X002230Y028825D02*
X002230Y028975D01*
X002280Y029025D01*
X002280Y030925D01*
X002230Y030975D01*
X002230Y031125D01*
X002232Y031142D01*
X002236Y031159D01*
X002243Y031175D01*
X002253Y031189D01*
X002266Y031202D01*
X002280Y031212D01*
X002296Y031219D01*
X002313Y031223D01*
X002330Y031225D01*
X003030Y031225D01*
X003047Y031223D01*
X003064Y031219D01*
X003080Y031212D01*
X003094Y031202D01*
X003107Y031189D01*
X003117Y031175D01*
X003124Y031159D01*
X003128Y031142D01*
X003130Y031125D01*
X003130Y030975D01*
X003080Y030925D01*
X003080Y029025D01*
X003130Y028975D01*
X003130Y028825D01*
X003128Y028808D01*
X003124Y028791D01*
X003117Y028775D01*
X003107Y028761D01*
X003094Y028748D01*
X003080Y028738D01*
X003064Y028731D01*
X003047Y028727D01*
X003030Y028725D01*
X002330Y028725D01*
X002313Y028727D01*
X002296Y028731D01*
X002280Y028738D01*
X002266Y028748D01*
X002253Y028761D01*
X002243Y028775D01*
X002236Y028791D01*
X002232Y028808D01*
X002230Y028825D01*
X002533Y029115D02*
X002460Y029188D01*
X002460Y029335D01*
X002533Y029409D01*
X002606Y029409D01*
X002900Y029115D01*
X002900Y029409D01*
X002900Y029575D02*
X002827Y029575D01*
X002533Y029869D01*
X002460Y029869D01*
X002460Y029575D01*
X002533Y030036D02*
X002460Y030109D01*
X002460Y030256D01*
X002533Y030329D01*
X002827Y030036D01*
X002900Y030109D01*
X002900Y030256D01*
X002827Y030329D01*
X002533Y030329D01*
X002533Y030036D02*
X002827Y030036D01*
X003460Y030036D02*
X003900Y030036D01*
X003753Y030036D02*
X003606Y030256D01*
X003753Y030036D02*
X003900Y030256D01*
X003900Y029869D02*
X003900Y029575D01*
X003606Y029869D01*
X003533Y029869D01*
X003460Y029796D01*
X003460Y029649D01*
X003533Y029575D01*
X003533Y029409D02*
X003460Y029335D01*
X003460Y029188D01*
X003533Y029115D01*
X003280Y029025D02*
X003280Y030925D01*
X003230Y030975D01*
X003230Y031125D01*
X003232Y031142D01*
X003236Y031159D01*
X003243Y031175D01*
X003253Y031189D01*
X003266Y031202D01*
X003280Y031212D01*
X003296Y031219D01*
X003313Y031223D01*
X003330Y031225D01*
X004030Y031225D01*
X004047Y031223D01*
X004064Y031219D01*
X004080Y031212D01*
X004094Y031202D01*
X004107Y031189D01*
X004117Y031175D01*
X004124Y031159D01*
X004128Y031142D01*
X004130Y031125D01*
X004130Y030975D01*
X004080Y030925D01*
X004080Y029025D01*
X004130Y028975D01*
X004130Y028825D01*
X004128Y028808D01*
X004124Y028791D01*
X004117Y028775D01*
X004107Y028761D01*
X004094Y028748D01*
X004080Y028738D01*
X004064Y028731D01*
X004047Y028727D01*
X004030Y028725D01*
X003330Y028725D01*
X003313Y028727D01*
X003296Y028731D01*
X003280Y028738D01*
X003266Y028748D01*
X003253Y028761D01*
X003243Y028775D01*
X003236Y028791D01*
X003232Y028808D01*
X003230Y028825D01*
X003230Y028975D01*
X003280Y029025D01*
X003533Y029409D02*
X003606Y029409D01*
X003900Y029115D01*
X003900Y029409D01*
X004383Y028663D02*
X004310Y028590D01*
X004310Y028443D01*
X004383Y028370D01*
X004383Y028203D02*
X004530Y028203D01*
X004603Y028129D01*
X004603Y027909D01*
X004750Y027909D02*
X004310Y027909D01*
X004310Y028129D01*
X004383Y028203D01*
X004603Y028056D02*
X004750Y028203D01*
X004750Y028370D02*
X004456Y028663D01*
X004383Y028663D01*
X004750Y028663D02*
X004750Y028370D01*
X005430Y030250D02*
X005930Y030250D01*
X005956Y030252D01*
X005982Y030257D01*
X006007Y030265D01*
X006030Y030277D01*
X006052Y030291D01*
X006071Y030309D01*
X006089Y030328D01*
X006103Y030350D01*
X006115Y030373D01*
X006123Y030398D01*
X006128Y030424D01*
X006130Y030450D01*
X006130Y031750D01*
X006128Y031776D01*
X006123Y031802D01*
X006115Y031827D01*
X006103Y031850D01*
X006089Y031872D01*
X006071Y031891D01*
X006052Y031909D01*
X006030Y031923D01*
X006007Y031935D01*
X005982Y031943D01*
X005956Y031948D01*
X005930Y031950D01*
X005430Y031950D01*
X005404Y031948D01*
X005378Y031943D01*
X005353Y031935D01*
X005330Y031923D01*
X005308Y031909D01*
X005289Y031891D01*
X005271Y031872D01*
X005257Y031850D01*
X005245Y031827D01*
X005237Y031802D01*
X005232Y031776D01*
X005230Y031750D01*
X005230Y030450D01*
X005232Y030424D01*
X005237Y030398D01*
X005245Y030373D01*
X005257Y030350D01*
X005271Y030328D01*
X005289Y030309D01*
X005308Y030291D01*
X005330Y030277D01*
X005353Y030265D01*
X005378Y030257D01*
X005404Y030252D01*
X005430Y030250D01*
X005002Y030745D02*
X004708Y030745D01*
X004635Y030818D01*
X004635Y030965D01*
X004708Y031038D01*
X004708Y031205D02*
X004635Y031278D01*
X004635Y031425D01*
X004708Y031499D01*
X004781Y031499D01*
X004855Y031425D01*
X004928Y031499D01*
X005002Y031499D01*
X005075Y031425D01*
X005075Y031278D01*
X005002Y031205D01*
X005002Y031038D02*
X005075Y030965D01*
X005075Y030818D01*
X005002Y030745D01*
X004855Y031352D02*
X004855Y031425D01*
X006680Y031500D02*
X006680Y032250D01*
X013680Y032250D01*
X013680Y029950D01*
X006680Y029950D01*
X006680Y030700D01*
X006719Y030702D01*
X006758Y030708D01*
X006796Y030717D01*
X006833Y030730D01*
X006869Y030747D01*
X006902Y030767D01*
X006934Y030791D01*
X006963Y030817D01*
X006989Y030846D01*
X007013Y030878D01*
X007033Y030911D01*
X007050Y030947D01*
X007063Y030984D01*
X007072Y031022D01*
X007078Y031061D01*
X007080Y031100D01*
X007078Y031139D01*
X007072Y031178D01*
X007063Y031216D01*
X007050Y031253D01*
X007033Y031289D01*
X007013Y031322D01*
X006989Y031354D01*
X006963Y031383D01*
X006934Y031409D01*
X006902Y031433D01*
X006869Y031453D01*
X006833Y031470D01*
X006796Y031483D01*
X006758Y031492D01*
X006719Y031498D01*
X006680Y031500D01*
X007560Y031320D02*
X007854Y031320D01*
X007854Y031247D01*
X007560Y030953D01*
X007560Y030880D01*
X008020Y031100D02*
X008314Y031100D01*
X008481Y030953D02*
X008774Y031247D01*
X008774Y030953D01*
X008701Y030880D01*
X008554Y030880D01*
X008481Y030953D01*
X008481Y031247D01*
X008554Y031320D01*
X008701Y031320D01*
X008774Y031247D01*
X008941Y031247D02*
X008941Y030953D01*
X009235Y031247D01*
X009235Y030953D01*
X009161Y030880D01*
X009015Y030880D01*
X008941Y030953D01*
X008941Y031247D02*
X009015Y031320D01*
X009161Y031320D01*
X009235Y031247D01*
X008241Y031320D02*
X008241Y030880D01*
X008020Y031100D02*
X008241Y031320D01*
X009030Y033400D02*
X009180Y033400D01*
X009230Y033450D01*
X011130Y033450D01*
X011180Y033400D01*
X011330Y033400D01*
X011347Y033402D01*
X011364Y033406D01*
X011380Y033413D01*
X011394Y033423D01*
X011407Y033436D01*
X011417Y033450D01*
X011424Y033466D01*
X011428Y033483D01*
X011430Y033500D01*
X011430Y034200D01*
X011428Y034217D01*
X011424Y034234D01*
X011417Y034250D01*
X011407Y034264D01*
X011394Y034277D01*
X011380Y034287D01*
X011364Y034294D01*
X011347Y034298D01*
X011330Y034300D01*
X011180Y034300D01*
X011130Y034250D01*
X009230Y034250D01*
X009180Y034300D01*
X009030Y034300D01*
X009013Y034298D01*
X008996Y034294D01*
X008980Y034287D01*
X008966Y034277D01*
X008953Y034264D01*
X008943Y034250D01*
X008936Y034234D01*
X008932Y034217D01*
X008930Y034200D01*
X008930Y033500D01*
X008932Y033483D01*
X008936Y033466D01*
X008943Y033450D01*
X008953Y033436D01*
X008966Y033423D01*
X008980Y033413D01*
X008996Y033406D01*
X009013Y033402D01*
X009030Y033400D01*
X009796Y033630D02*
X010089Y033630D01*
X009942Y033630D02*
X009942Y034070D01*
X009796Y033924D01*
X010256Y033997D02*
X010329Y034070D01*
X010476Y034070D01*
X010550Y033997D01*
X010256Y033703D01*
X010329Y033630D01*
X010476Y033630D01*
X010550Y033703D01*
X010550Y033997D01*
X010716Y034070D02*
X010716Y033630D01*
X010716Y033777D02*
X010937Y033630D01*
X010716Y033777D02*
X010937Y033924D01*
X010256Y033997D02*
X010256Y033703D01*
X007618Y033728D02*
X007545Y033655D01*
X007398Y033655D01*
X007325Y033728D01*
X007158Y033655D02*
X007011Y033802D01*
X007084Y033802D02*
X006864Y033802D01*
X006864Y033655D02*
X006864Y034095D01*
X007084Y034095D01*
X007158Y034022D01*
X007158Y033875D01*
X007084Y033802D01*
X007325Y034022D02*
X007398Y034095D01*
X007545Y034095D01*
X007618Y034022D01*
X007618Y033949D01*
X007545Y033875D01*
X007618Y033802D01*
X007618Y033728D01*
X007545Y033875D02*
X007471Y033875D01*
X006680Y035450D02*
X006680Y036200D01*
X006719Y036202D01*
X006758Y036208D01*
X006796Y036217D01*
X006833Y036230D01*
X006869Y036247D01*
X006902Y036267D01*
X006934Y036291D01*
X006963Y036317D01*
X006989Y036346D01*
X007013Y036378D01*
X007033Y036411D01*
X007050Y036447D01*
X007063Y036484D01*
X007072Y036522D01*
X007078Y036561D01*
X007080Y036600D01*
X007078Y036639D01*
X007072Y036678D01*
X007063Y036716D01*
X007050Y036753D01*
X007033Y036789D01*
X007013Y036822D01*
X006989Y036854D01*
X006963Y036883D01*
X006934Y036909D01*
X006902Y036933D01*
X006869Y036953D01*
X006833Y036970D01*
X006796Y036983D01*
X006758Y036992D01*
X006719Y036998D01*
X006680Y037000D01*
X006680Y037750D01*
X013680Y037750D01*
X013680Y035450D01*
X006680Y035450D01*
X005930Y035750D02*
X005430Y035750D01*
X005404Y035752D01*
X005378Y035757D01*
X005353Y035765D01*
X005330Y035777D01*
X005308Y035791D01*
X005289Y035809D01*
X005271Y035828D01*
X005257Y035850D01*
X005245Y035873D01*
X005237Y035898D01*
X005232Y035924D01*
X005230Y035950D01*
X005230Y037250D01*
X005232Y037276D01*
X005237Y037302D01*
X005245Y037327D01*
X005257Y037350D01*
X005271Y037372D01*
X005289Y037391D01*
X005308Y037409D01*
X005330Y037423D01*
X005353Y037435D01*
X005378Y037443D01*
X005404Y037448D01*
X005430Y037450D01*
X005930Y037450D01*
X005956Y037448D01*
X005982Y037443D01*
X006007Y037435D01*
X006030Y037423D01*
X006052Y037409D01*
X006071Y037391D01*
X006089Y037372D01*
X006103Y037350D01*
X006115Y037327D01*
X006123Y037302D01*
X006128Y037276D01*
X006130Y037250D01*
X006130Y035950D01*
X006128Y035924D01*
X006123Y035898D01*
X006115Y035873D01*
X006103Y035850D01*
X006089Y035828D01*
X006071Y035809D01*
X006052Y035791D01*
X006030Y035777D01*
X006007Y035765D01*
X005982Y035757D01*
X005956Y035752D01*
X005930Y035750D01*
X005075Y036318D02*
X005075Y036465D01*
X005002Y036538D01*
X004855Y036705D02*
X004855Y036999D01*
X005075Y036925D02*
X004635Y036925D01*
X004855Y036705D01*
X004708Y036538D02*
X004635Y036465D01*
X004635Y036318D01*
X004708Y036245D01*
X005002Y036245D01*
X005075Y036318D01*
X003482Y035155D02*
X003482Y034715D01*
X003335Y034715D02*
X003629Y034715D01*
X003335Y035009D02*
X003482Y035155D01*
X003168Y035082D02*
X003168Y034788D01*
X003095Y034715D01*
X002875Y034715D01*
X002875Y035155D01*
X003095Y035155D01*
X003168Y035082D01*
X002180Y036600D02*
X002182Y036663D01*
X002188Y036725D01*
X002198Y036787D01*
X002211Y036849D01*
X002229Y036909D01*
X002250Y036968D01*
X002275Y037026D01*
X002304Y037082D01*
X002336Y037136D01*
X002371Y037188D01*
X002409Y037237D01*
X002451Y037285D01*
X002495Y037329D01*
X002543Y037371D01*
X002592Y037409D01*
X002644Y037444D01*
X002698Y037476D01*
X002754Y037505D01*
X002812Y037530D01*
X002871Y037551D01*
X002931Y037569D01*
X002993Y037582D01*
X003055Y037592D01*
X003117Y037598D01*
X003180Y037600D01*
X003243Y037598D01*
X003305Y037592D01*
X003367Y037582D01*
X003429Y037569D01*
X003489Y037551D01*
X003548Y037530D01*
X003606Y037505D01*
X003662Y037476D01*
X003716Y037444D01*
X003768Y037409D01*
X003817Y037371D01*
X003865Y037329D01*
X003909Y037285D01*
X003951Y037237D01*
X003989Y037188D01*
X004024Y037136D01*
X004056Y037082D01*
X004085Y037026D01*
X004110Y036968D01*
X004131Y036909D01*
X004149Y036849D01*
X004162Y036787D01*
X004172Y036725D01*
X004178Y036663D01*
X004180Y036600D01*
X004178Y036537D01*
X004172Y036475D01*
X004162Y036413D01*
X004149Y036351D01*
X004131Y036291D01*
X004110Y036232D01*
X004085Y036174D01*
X004056Y036118D01*
X004024Y036064D01*
X003989Y036012D01*
X003951Y035963D01*
X003909Y035915D01*
X003865Y035871D01*
X003817Y035829D01*
X003768Y035791D01*
X003716Y035756D01*
X003662Y035724D01*
X003606Y035695D01*
X003548Y035670D01*
X003489Y035649D01*
X003429Y035631D01*
X003367Y035618D01*
X003305Y035608D01*
X003243Y035602D01*
X003180Y035600D01*
X003117Y035602D01*
X003055Y035608D01*
X002993Y035618D01*
X002931Y035631D01*
X002871Y035649D01*
X002812Y035670D01*
X002754Y035695D01*
X002698Y035724D01*
X002644Y035756D01*
X002592Y035791D01*
X002543Y035829D01*
X002495Y035871D01*
X002451Y035915D01*
X002409Y035963D01*
X002371Y036012D01*
X002336Y036064D01*
X002304Y036118D01*
X002275Y036174D01*
X002250Y036232D01*
X002229Y036291D01*
X002211Y036351D01*
X002198Y036413D01*
X002188Y036475D01*
X002182Y036537D01*
X002180Y036600D01*
X004335Y033777D02*
X004775Y033777D01*
X004775Y033630D02*
X004775Y033924D01*
X004481Y033630D02*
X004335Y033777D01*
X004408Y033463D02*
X004702Y033463D01*
X004775Y033390D01*
X004775Y033243D01*
X004702Y033170D01*
X004408Y033170D01*
X004335Y033243D01*
X004335Y033390D01*
X004408Y033463D01*
X004628Y033316D02*
X004775Y033463D01*
X007560Y036380D02*
X007560Y036453D01*
X007854Y036747D01*
X007854Y036820D01*
X007560Y036820D01*
X008020Y036600D02*
X008314Y036600D01*
X008481Y036453D02*
X008774Y036747D01*
X008774Y036453D01*
X008701Y036380D01*
X008554Y036380D01*
X008481Y036453D01*
X008481Y036747D01*
X008554Y036820D01*
X008701Y036820D01*
X008774Y036747D01*
X008941Y036600D02*
X009161Y036820D01*
X009161Y036380D01*
X009235Y036600D02*
X008941Y036600D01*
X008241Y036380D02*
X008241Y036820D01*
X008020Y036600D01*
X013810Y036513D02*
X014177Y036513D01*
X014250Y036440D01*
X014250Y036293D01*
X014177Y036220D01*
X013810Y036220D01*
X014030Y036680D02*
X014030Y036974D01*
X014250Y036900D02*
X013810Y036900D01*
X014030Y036680D01*
X015960Y034995D02*
X015960Y034702D01*
X016400Y034702D01*
X016400Y034995D01*
X016180Y034849D02*
X016180Y034702D01*
X016400Y034535D02*
X016400Y034241D01*
X015960Y034241D01*
X016033Y034075D02*
X016106Y034075D01*
X016180Y034001D01*
X016180Y033781D01*
X016180Y033614D02*
X016180Y033321D01*
X016106Y033321D02*
X015960Y033467D01*
X016106Y033614D01*
X016400Y033614D01*
X016400Y033781D02*
X015960Y033781D01*
X015960Y034001D01*
X016033Y034075D01*
X016180Y034001D02*
X016253Y034075D01*
X016327Y034075D01*
X016400Y034001D01*
X016400Y033781D01*
X016400Y033321D02*
X016106Y033321D01*
X015960Y033154D02*
X016400Y033154D01*
X015960Y032860D01*
X016400Y032860D01*
X016400Y032693D02*
X016400Y032400D01*
X015960Y032400D01*
X015960Y032693D01*
X016180Y032547D02*
X016180Y032400D01*
X016400Y031773D02*
X016180Y031552D01*
X016253Y031479D02*
X015960Y031773D01*
X015960Y031479D02*
X016400Y031479D01*
X016400Y031312D02*
X015960Y031312D01*
X015960Y031019D02*
X016400Y031312D01*
X016400Y031019D02*
X015960Y031019D01*
X016106Y030852D02*
X015960Y030705D01*
X016106Y030558D01*
X016400Y030558D01*
X016327Y030391D02*
X016400Y030318D01*
X016400Y030098D01*
X015960Y030098D01*
X015960Y030318D01*
X016033Y030391D01*
X016106Y030391D01*
X016180Y030318D01*
X016180Y030098D01*
X016180Y030318D02*
X016253Y030391D01*
X016327Y030391D01*
X016180Y030558D02*
X016180Y030852D01*
X016106Y030852D02*
X016400Y030852D01*
X015370Y030795D02*
X015370Y030648D01*
X015297Y030575D01*
X015150Y030721D02*
X015150Y030795D01*
X015223Y030868D01*
X015297Y030868D01*
X015370Y030795D01*
X015150Y030795D02*
X015076Y030868D01*
X015003Y030868D01*
X014930Y030795D01*
X014930Y030648D01*
X015003Y030575D01*
X015003Y030408D02*
X015150Y030408D01*
X015223Y030334D01*
X015223Y030114D01*
X015370Y030114D02*
X014930Y030114D01*
X014930Y030334D01*
X015003Y030408D01*
X014930Y029947D02*
X014930Y029801D01*
X014930Y029874D02*
X015297Y029874D01*
X015370Y029801D01*
X015370Y029727D01*
X015297Y029654D01*
X014177Y030720D02*
X014250Y030793D01*
X014250Y030940D01*
X014177Y031013D01*
X013810Y031013D01*
X013883Y031180D02*
X013810Y031253D01*
X013810Y031400D01*
X013883Y031474D01*
X013956Y031474D01*
X014030Y031400D01*
X014103Y031474D01*
X014177Y031474D01*
X014250Y031400D01*
X014250Y031253D01*
X014177Y031180D01*
X014030Y031327D02*
X014030Y031400D01*
X014177Y030720D02*
X013810Y030720D01*
X018135Y030818D02*
X018208Y030745D01*
X018502Y030745D01*
X018575Y030818D01*
X018575Y030965D01*
X018502Y031038D01*
X018502Y031205D02*
X018575Y031278D01*
X018575Y031425D01*
X018502Y031499D01*
X018208Y031499D01*
X018135Y031425D01*
X018135Y031278D01*
X018208Y031205D01*
X018281Y031205D01*
X018355Y031278D01*
X018355Y031499D01*
X018730Y031750D02*
X018730Y030450D01*
X018732Y030424D01*
X018737Y030398D01*
X018745Y030373D01*
X018757Y030350D01*
X018771Y030328D01*
X018789Y030309D01*
X018808Y030291D01*
X018830Y030277D01*
X018853Y030265D01*
X018878Y030257D01*
X018904Y030252D01*
X018930Y030250D01*
X019430Y030250D01*
X019456Y030252D01*
X019482Y030257D01*
X019507Y030265D01*
X019530Y030277D01*
X019552Y030291D01*
X019571Y030309D01*
X019589Y030328D01*
X019603Y030350D01*
X019615Y030373D01*
X019623Y030398D01*
X019628Y030424D01*
X019630Y030450D01*
X019630Y031750D01*
X019628Y031776D01*
X019623Y031802D01*
X019615Y031827D01*
X019603Y031850D01*
X019589Y031872D01*
X019571Y031891D01*
X019552Y031909D01*
X019530Y031923D01*
X019507Y031935D01*
X019482Y031943D01*
X019456Y031948D01*
X019430Y031950D01*
X018930Y031950D01*
X018904Y031948D01*
X018878Y031943D01*
X018853Y031935D01*
X018830Y031923D01*
X018808Y031909D01*
X018789Y031891D01*
X018771Y031872D01*
X018757Y031850D01*
X018745Y031827D01*
X018737Y031802D01*
X018732Y031776D01*
X018730Y031750D01*
X018208Y031038D02*
X018135Y030965D01*
X018135Y030818D01*
X020180Y030700D02*
X020180Y029950D01*
X027180Y029950D01*
X027180Y032250D01*
X020180Y032250D01*
X020180Y031500D01*
X020219Y031498D01*
X020258Y031492D01*
X020296Y031483D01*
X020333Y031470D01*
X020369Y031453D01*
X020402Y031433D01*
X020434Y031409D01*
X020463Y031383D01*
X020489Y031354D01*
X020513Y031322D01*
X020533Y031289D01*
X020550Y031253D01*
X020563Y031216D01*
X020572Y031178D01*
X020578Y031139D01*
X020580Y031100D01*
X020578Y031061D01*
X020572Y031022D01*
X020563Y030984D01*
X020550Y030947D01*
X020533Y030911D01*
X020513Y030878D01*
X020489Y030846D01*
X020463Y030817D01*
X020434Y030791D01*
X020402Y030767D01*
X020369Y030747D01*
X020333Y030730D01*
X020296Y030717D01*
X020258Y030708D01*
X020219Y030702D01*
X020180Y030700D01*
X021060Y030755D02*
X021060Y030828D01*
X021354Y031122D01*
X021354Y031195D01*
X021060Y031195D01*
X021520Y030975D02*
X021814Y030975D01*
X021981Y030828D02*
X021981Y030755D01*
X021981Y030828D02*
X022274Y031122D01*
X022274Y031195D01*
X021981Y031195D01*
X021741Y031195D02*
X021520Y030975D01*
X021741Y030755D02*
X021741Y031195D01*
X022441Y030975D02*
X022735Y030975D01*
X022661Y030755D02*
X022661Y031195D01*
X022441Y030975D01*
X027310Y031013D02*
X027677Y031013D01*
X027750Y030940D01*
X027750Y030793D01*
X027677Y030720D01*
X027310Y030720D01*
X027383Y031180D02*
X027310Y031253D01*
X027310Y031400D01*
X027383Y031474D01*
X027677Y031474D01*
X027750Y031400D01*
X027750Y031253D01*
X027677Y031180D01*
X027530Y031253D02*
X027530Y031474D01*
X027530Y031253D02*
X027456Y031180D01*
X027383Y031180D01*
X031030Y029100D02*
X033330Y029100D01*
X033330Y039100D01*
X032580Y039100D01*
X032578Y039061D01*
X032572Y039022D01*
X032563Y038984D01*
X032550Y038947D01*
X032533Y038911D01*
X032513Y038878D01*
X032489Y038846D01*
X032463Y038817D01*
X032434Y038791D01*
X032402Y038767D01*
X032369Y038747D01*
X032333Y038730D01*
X032296Y038717D01*
X032258Y038708D01*
X032219Y038702D01*
X032180Y038700D01*
X032141Y038702D01*
X032102Y038708D01*
X032064Y038717D01*
X032027Y038730D01*
X031991Y038747D01*
X031958Y038767D01*
X031926Y038791D01*
X031897Y038817D01*
X031871Y038846D01*
X031847Y038878D01*
X031827Y038911D01*
X031810Y038947D01*
X031797Y038984D01*
X031788Y039022D01*
X031782Y039061D01*
X031780Y039100D01*
X031030Y039100D01*
X031030Y029100D01*
X031569Y028970D02*
X031569Y028603D01*
X031643Y028530D01*
X031790Y028530D01*
X031863Y028603D01*
X031863Y028970D01*
X032030Y028824D02*
X032177Y028970D01*
X032177Y028530D01*
X032323Y028530D02*
X032030Y028530D01*
X032490Y028530D02*
X032784Y028530D01*
X032637Y028530D02*
X032637Y028970D01*
X032490Y028824D01*
X033418Y027145D02*
X033344Y027072D01*
X033344Y026778D01*
X033418Y026705D01*
X033565Y026705D01*
X033638Y026778D01*
X033805Y026778D02*
X033878Y026705D01*
X034025Y026705D01*
X034098Y026778D01*
X034098Y026852D01*
X034025Y026925D01*
X033952Y026925D01*
X034025Y026925D02*
X034098Y026999D01*
X034098Y027072D01*
X034025Y027145D01*
X033878Y027145D01*
X033805Y027072D01*
X033638Y027072D02*
X033565Y027145D01*
X033418Y027145D01*
X033280Y026550D02*
X034580Y026550D01*
X034559Y026705D02*
X034265Y026705D01*
X034559Y026999D01*
X034559Y027072D01*
X034485Y027145D01*
X034339Y027145D01*
X034265Y027072D01*
X034580Y026550D02*
X034606Y026548D01*
X034632Y026543D01*
X034657Y026535D01*
X034680Y026523D01*
X034702Y026509D01*
X034721Y026491D01*
X034739Y026472D01*
X034753Y026450D01*
X034765Y026427D01*
X034773Y026402D01*
X034778Y026376D01*
X034780Y026350D01*
X034780Y025850D01*
X034778Y025824D01*
X034773Y025798D01*
X034765Y025773D01*
X034753Y025750D01*
X034739Y025728D01*
X034721Y025709D01*
X034702Y025691D01*
X034680Y025677D01*
X034657Y025665D01*
X034632Y025657D01*
X034606Y025652D01*
X034580Y025650D01*
X033280Y025650D01*
X033254Y025652D01*
X033228Y025657D01*
X033203Y025665D01*
X033180Y025677D01*
X033158Y025691D01*
X033139Y025709D01*
X033121Y025728D01*
X033107Y025750D01*
X033095Y025773D01*
X033087Y025798D01*
X033082Y025824D01*
X033080Y025850D01*
X033080Y026350D01*
X033082Y026376D01*
X033087Y026402D01*
X033095Y026427D01*
X033107Y026450D01*
X033121Y026472D01*
X033139Y026491D01*
X033158Y026509D01*
X033180Y026523D01*
X033203Y026535D01*
X033228Y026543D01*
X033254Y026548D01*
X033280Y026550D01*
X030750Y025900D02*
X030750Y025753D01*
X030677Y025680D01*
X030603Y025680D01*
X030530Y025753D01*
X030530Y025900D01*
X030603Y025974D01*
X030677Y025974D01*
X030750Y025900D01*
X030530Y025900D02*
X030456Y025974D01*
X030383Y025974D01*
X030310Y025900D01*
X030310Y025753D01*
X030383Y025680D01*
X030456Y025680D01*
X030530Y025753D01*
X030677Y025513D02*
X030310Y025513D01*
X030310Y025220D02*
X030677Y025220D01*
X030750Y025293D01*
X030750Y025440D01*
X030677Y025513D01*
X032295Y023027D02*
X032735Y023027D01*
X032735Y022880D02*
X032735Y023174D01*
X032441Y022880D02*
X032295Y023027D01*
X032295Y022713D02*
X032368Y022713D01*
X032515Y022566D01*
X032735Y022566D01*
X032515Y022566D02*
X032368Y022420D01*
X032295Y022420D01*
X034559Y022660D02*
X034853Y022660D01*
X034706Y022660D02*
X034706Y023100D01*
X034559Y022954D01*
X035019Y023027D02*
X035093Y023100D01*
X035240Y023100D01*
X035313Y023027D01*
X035313Y022954D01*
X035019Y022660D01*
X035313Y022660D01*
X035480Y022660D02*
X035480Y023100D01*
X035627Y022954D01*
X035773Y023100D01*
X035773Y022660D01*
X035940Y022660D02*
X035940Y023100D01*
X035940Y022880D02*
X036234Y022880D01*
X036401Y022954D02*
X036694Y022954D01*
X036401Y022660D01*
X036694Y022660D01*
X036234Y022660D02*
X036234Y023100D01*
X039180Y023200D02*
X039180Y025500D01*
X059180Y025500D01*
X059180Y020200D01*
X039180Y020200D01*
X039180Y022400D01*
X039219Y022402D01*
X039258Y022408D01*
X039296Y022417D01*
X039333Y022430D01*
X039369Y022447D01*
X039402Y022467D01*
X039434Y022491D01*
X039463Y022517D01*
X039489Y022546D01*
X039513Y022578D01*
X039533Y022611D01*
X039550Y022647D01*
X039563Y022684D01*
X039572Y022722D01*
X039578Y022761D01*
X039580Y022800D01*
X039578Y022839D01*
X039572Y022878D01*
X039563Y022916D01*
X039550Y022953D01*
X039533Y022989D01*
X039513Y023022D01*
X039489Y023054D01*
X039463Y023083D01*
X039434Y023109D01*
X039402Y023133D01*
X039369Y023153D01*
X039333Y023170D01*
X039296Y023183D01*
X039258Y023192D01*
X039219Y023198D01*
X039180Y023200D01*
X040585Y022920D02*
X040585Y022480D01*
X040732Y022627D01*
X040879Y022480D01*
X040879Y022920D01*
X041045Y022700D02*
X041266Y022700D01*
X041339Y022627D01*
X041339Y022553D01*
X041266Y022480D01*
X041119Y022480D01*
X041045Y022553D01*
X041045Y022700D01*
X041192Y022847D01*
X041339Y022920D01*
X041506Y022920D02*
X041506Y022700D01*
X041653Y022774D01*
X041726Y022774D01*
X041799Y022700D01*
X041799Y022553D01*
X041726Y022480D01*
X041579Y022480D01*
X041506Y022553D01*
X041506Y022920D02*
X041799Y022920D01*
X041966Y022847D02*
X041966Y022553D01*
X042040Y022480D01*
X042186Y022480D01*
X042260Y022553D01*
X042427Y022553D02*
X042720Y022847D01*
X042720Y022553D01*
X042647Y022480D01*
X042500Y022480D01*
X042427Y022553D01*
X042427Y022847D01*
X042500Y022920D01*
X042647Y022920D01*
X042720Y022847D01*
X042887Y022847D02*
X042960Y022920D01*
X043107Y022920D01*
X043181Y022847D01*
X043181Y022774D01*
X042887Y022480D01*
X043181Y022480D01*
X043347Y022553D02*
X043421Y022480D01*
X043568Y022480D01*
X043641Y022553D01*
X043641Y022627D01*
X043568Y022700D01*
X043421Y022700D01*
X043347Y022774D01*
X043347Y022847D01*
X043421Y022920D01*
X043568Y022920D01*
X043641Y022847D01*
X042260Y022847D02*
X042186Y022920D01*
X042040Y022920D01*
X041966Y022847D01*
X045488Y022320D02*
X045782Y021880D01*
X045782Y022320D01*
X045949Y022247D02*
X045949Y021953D01*
X046022Y021880D01*
X046169Y021880D01*
X046242Y021953D01*
X046242Y022247D01*
X046169Y022320D01*
X046022Y022320D01*
X045949Y022247D01*
X046409Y022320D02*
X046703Y022320D01*
X046556Y022320D02*
X046556Y021880D01*
X046870Y021880D02*
X046870Y022320D01*
X046870Y022100D02*
X047163Y022100D01*
X047163Y022320D02*
X047163Y021880D01*
X047330Y021880D02*
X047477Y021880D01*
X047403Y021880D02*
X047403Y022320D01*
X047330Y022320D02*
X047477Y022320D01*
X047637Y022320D02*
X047931Y021880D01*
X047931Y022320D01*
X048097Y022247D02*
X048097Y021953D01*
X048171Y021880D01*
X048318Y021880D01*
X048391Y021953D01*
X048391Y022100D01*
X048244Y022100D01*
X048097Y022247D02*
X048171Y022320D01*
X048318Y022320D01*
X048391Y022247D01*
X049018Y022320D02*
X049018Y021880D01*
X049312Y021880D01*
X049479Y021880D02*
X049772Y021880D01*
X049939Y021953D02*
X050012Y021880D01*
X050159Y021880D01*
X050233Y021953D01*
X050233Y022027D01*
X050159Y022100D01*
X050012Y022100D01*
X049939Y022174D01*
X049939Y022247D01*
X050012Y022320D01*
X050159Y022320D01*
X050233Y022247D01*
X050399Y022320D02*
X050399Y021880D01*
X050693Y021880D01*
X050546Y022100D02*
X050399Y022100D01*
X050399Y022320D02*
X050693Y022320D01*
X051320Y022247D02*
X051320Y021953D01*
X051394Y021880D01*
X051540Y021880D01*
X051614Y021953D01*
X051781Y021880D02*
X051781Y022320D01*
X052001Y022320D01*
X052074Y022247D01*
X052074Y022100D01*
X052001Y022027D01*
X051781Y022027D01*
X051614Y022247D02*
X051540Y022320D01*
X051394Y022320D01*
X051320Y022247D01*
X052241Y022320D02*
X052534Y021880D01*
X052701Y021880D02*
X052775Y021880D01*
X052775Y021953D01*
X052701Y021953D01*
X052701Y021880D01*
X052241Y021880D02*
X052534Y022320D01*
X051499Y023380D02*
X051205Y023380D01*
X051499Y023674D01*
X051499Y023747D01*
X051425Y023820D01*
X051278Y023820D01*
X051205Y023747D01*
X051038Y023747D02*
X050745Y023453D01*
X050818Y023380D01*
X050965Y023380D01*
X051038Y023453D01*
X051038Y023747D01*
X050965Y023820D01*
X050818Y023820D01*
X050745Y023747D01*
X050745Y023453D01*
X050578Y023453D02*
X050504Y023380D01*
X050358Y023380D01*
X050284Y023453D01*
X050284Y023600D02*
X050431Y023674D01*
X050504Y023674D01*
X050578Y023600D01*
X050578Y023453D01*
X050284Y023600D02*
X050284Y023820D01*
X050578Y023820D01*
X050117Y023820D02*
X049971Y023747D01*
X049824Y023600D01*
X050044Y023600D01*
X050117Y023527D01*
X050117Y023453D01*
X050044Y023380D01*
X049897Y023380D01*
X049824Y023453D01*
X049824Y023600D01*
X049657Y023600D02*
X049363Y023600D01*
X049197Y023453D02*
X049197Y023747D01*
X049123Y023820D01*
X048976Y023820D01*
X048903Y023747D01*
X048903Y023453D01*
X048976Y023380D01*
X049123Y023380D01*
X049197Y023453D01*
X048736Y023380D02*
X048589Y023527D01*
X048663Y023527D02*
X048443Y023527D01*
X048443Y023380D02*
X048443Y023820D01*
X048663Y023820D01*
X048736Y023747D01*
X048736Y023600D01*
X048663Y023527D01*
X048276Y023453D02*
X048202Y023380D01*
X048056Y023380D01*
X047982Y023453D01*
X047982Y023747D01*
X048056Y023820D01*
X048202Y023820D01*
X048276Y023747D01*
X047822Y023820D02*
X047675Y023820D01*
X047749Y023820D02*
X047749Y023380D01*
X047822Y023380D02*
X047675Y023380D01*
X047509Y023380D02*
X047509Y023820D01*
X047362Y023674D01*
X047215Y023820D01*
X047215Y023380D01*
X047048Y023380D02*
X046755Y023820D01*
X047048Y023820D02*
X046755Y023380D01*
X047637Y022320D02*
X047637Y021880D01*
X049018Y022100D02*
X049165Y022100D01*
X049312Y022320D02*
X049018Y022320D01*
X049479Y022320D02*
X049479Y021880D01*
X045488Y021880D02*
X045488Y022320D01*
X045830Y019300D02*
X044530Y019300D01*
X044504Y019298D01*
X044478Y019293D01*
X044453Y019285D01*
X044430Y019273D01*
X044408Y019259D01*
X044389Y019241D01*
X044371Y019222D01*
X044357Y019200D01*
X044345Y019177D01*
X044337Y019152D01*
X044332Y019126D01*
X044330Y019100D01*
X044330Y018600D01*
X044332Y018574D01*
X044337Y018548D01*
X044345Y018523D01*
X044357Y018500D01*
X044371Y018478D01*
X044389Y018459D01*
X044408Y018441D01*
X044430Y018427D01*
X044453Y018415D01*
X044478Y018407D01*
X044504Y018402D01*
X044530Y018400D01*
X045830Y018400D01*
X045710Y018245D02*
X045784Y018172D01*
X045490Y017878D01*
X045564Y017805D01*
X045710Y017805D01*
X045784Y017878D01*
X045784Y018172D01*
X045710Y018245D02*
X045564Y018245D01*
X045490Y018172D01*
X045490Y017878D01*
X045323Y017805D02*
X045030Y017805D01*
X045323Y018099D01*
X045323Y018172D01*
X045250Y018245D01*
X045103Y018245D01*
X045030Y018172D01*
X044863Y018172D02*
X044790Y018245D01*
X044643Y018245D01*
X044569Y018172D01*
X044569Y017878D01*
X044643Y017805D01*
X044790Y017805D01*
X044863Y017878D01*
X045830Y018400D02*
X045856Y018402D01*
X045882Y018407D01*
X045907Y018415D01*
X045930Y018427D01*
X045952Y018441D01*
X045971Y018459D01*
X045989Y018478D01*
X046003Y018500D01*
X046015Y018523D01*
X046023Y018548D01*
X046028Y018574D01*
X046030Y018600D01*
X046030Y019100D01*
X046028Y019126D01*
X046023Y019152D01*
X046015Y019177D01*
X046003Y019200D01*
X045989Y019222D01*
X045971Y019241D01*
X045952Y019259D01*
X045930Y019273D01*
X045907Y019285D01*
X045882Y019293D01*
X045856Y019298D01*
X045830Y019300D01*
X042930Y019200D02*
X042930Y018500D01*
X042928Y018483D01*
X042924Y018466D01*
X042917Y018450D01*
X042907Y018436D01*
X042894Y018423D01*
X042880Y018413D01*
X042864Y018406D01*
X042847Y018402D01*
X042830Y018400D01*
X042680Y018400D01*
X042630Y018450D01*
X040730Y018450D01*
X040680Y018400D01*
X040530Y018400D01*
X040513Y018402D01*
X040496Y018406D01*
X040480Y018413D01*
X040466Y018423D01*
X040453Y018436D01*
X040443Y018450D01*
X040436Y018466D01*
X040432Y018483D01*
X040430Y018500D01*
X040430Y019200D01*
X040432Y019217D01*
X040436Y019234D01*
X040443Y019250D01*
X040453Y019264D01*
X040466Y019277D01*
X040480Y019287D01*
X040496Y019294D01*
X040513Y019298D01*
X040530Y019300D01*
X040680Y019300D01*
X040730Y019250D01*
X042630Y019250D01*
X042680Y019300D01*
X042830Y019300D01*
X042847Y019298D01*
X042864Y019294D01*
X042880Y019287D01*
X042894Y019277D01*
X042907Y019264D01*
X042917Y019250D01*
X042924Y019234D01*
X042928Y019217D01*
X042930Y019200D01*
X041961Y018924D02*
X041741Y018777D01*
X041961Y018630D01*
X041741Y018630D02*
X041741Y019070D01*
X041574Y018997D02*
X041501Y019070D01*
X041354Y019070D01*
X041280Y018997D01*
X041280Y018703D01*
X041574Y018997D01*
X041574Y018703D01*
X041501Y018630D01*
X041354Y018630D01*
X041280Y018703D01*
X041114Y018630D02*
X040820Y018630D01*
X040967Y018630D02*
X040967Y019070D01*
X040820Y018924D01*
X040730Y018170D02*
X040804Y018097D01*
X040804Y017950D01*
X040730Y017877D01*
X040510Y017877D01*
X040657Y017877D02*
X040804Y017730D01*
X040970Y017803D02*
X041044Y017730D01*
X041191Y017730D01*
X041264Y017803D01*
X041264Y017877D01*
X041191Y017950D01*
X040970Y017950D01*
X040970Y017803D01*
X040970Y017950D02*
X041117Y018097D01*
X041264Y018170D01*
X040730Y018170D02*
X040510Y018170D01*
X040510Y017730D01*
X037430Y018500D02*
X037430Y019200D01*
X037428Y019217D01*
X037424Y019234D01*
X037417Y019250D01*
X037407Y019264D01*
X037394Y019277D01*
X037380Y019287D01*
X037364Y019294D01*
X037347Y019298D01*
X037330Y019300D01*
X037180Y019300D01*
X037130Y019250D01*
X035230Y019250D01*
X035180Y019300D01*
X035030Y019300D01*
X035013Y019298D01*
X034996Y019294D01*
X034980Y019287D01*
X034966Y019277D01*
X034953Y019264D01*
X034943Y019250D01*
X034936Y019234D01*
X034932Y019217D01*
X034930Y019200D01*
X034930Y018500D01*
X034932Y018483D01*
X034936Y018466D01*
X034943Y018450D01*
X034953Y018436D01*
X034966Y018423D01*
X034980Y018413D01*
X034996Y018406D01*
X035013Y018402D01*
X035030Y018400D01*
X035180Y018400D01*
X035230Y018450D01*
X037130Y018450D01*
X037180Y018400D01*
X037330Y018400D01*
X037347Y018402D01*
X037364Y018406D01*
X037380Y018413D01*
X037394Y018423D01*
X037407Y018436D01*
X037417Y018450D01*
X037424Y018466D01*
X037428Y018483D01*
X037430Y018500D01*
X036461Y018630D02*
X036241Y018777D01*
X036461Y018924D01*
X036241Y019070D02*
X036241Y018630D01*
X036074Y018703D02*
X036001Y018630D01*
X035854Y018630D01*
X035780Y018703D01*
X036074Y018997D01*
X036074Y018703D01*
X035780Y018703D02*
X035780Y018997D01*
X035854Y019070D01*
X036001Y019070D01*
X036074Y018997D01*
X035614Y018630D02*
X035320Y018630D01*
X035467Y018630D02*
X035467Y019070D01*
X035320Y018924D01*
X035304Y019480D02*
X035157Y019627D01*
X035230Y019627D02*
X035010Y019627D01*
X035010Y019480D02*
X035010Y019920D01*
X035230Y019920D01*
X035304Y019847D01*
X035304Y019700D01*
X035230Y019627D01*
X035470Y019700D02*
X035470Y019920D01*
X035764Y019920D01*
X035691Y019774D02*
X035764Y019700D01*
X035764Y019553D01*
X035691Y019480D01*
X035544Y019480D01*
X035470Y019553D01*
X035470Y019700D02*
X035617Y019774D01*
X035691Y019774D01*
X035735Y017145D02*
X035515Y016925D01*
X035809Y016925D01*
X035735Y016705D02*
X035735Y017145D01*
X035348Y017072D02*
X035275Y017145D01*
X035128Y017145D01*
X035055Y017072D01*
X034888Y017072D02*
X034815Y017145D01*
X034668Y017145D01*
X034594Y017072D01*
X034594Y016778D01*
X034668Y016705D01*
X034815Y016705D01*
X034888Y016778D01*
X035055Y016705D02*
X035348Y016999D01*
X035348Y017072D01*
X035348Y016705D02*
X035055Y016705D01*
X034530Y016550D02*
X035830Y016550D01*
X035856Y016548D01*
X035882Y016543D01*
X035907Y016535D01*
X035930Y016523D01*
X035952Y016509D01*
X035971Y016491D01*
X035989Y016472D01*
X036003Y016450D01*
X036015Y016427D01*
X036023Y016402D01*
X036028Y016376D01*
X036030Y016350D01*
X036030Y015850D01*
X036180Y015750D02*
X036180Y015000D01*
X036219Y014998D01*
X036258Y014992D01*
X036296Y014983D01*
X036333Y014970D01*
X036369Y014953D01*
X036402Y014933D01*
X036434Y014909D01*
X036463Y014883D01*
X036489Y014854D01*
X036513Y014822D01*
X036533Y014789D01*
X036550Y014753D01*
X036563Y014716D01*
X036572Y014678D01*
X036578Y014639D01*
X036580Y014600D01*
X036578Y014561D01*
X036572Y014522D01*
X036563Y014484D01*
X036550Y014447D01*
X036533Y014411D01*
X036513Y014378D01*
X036489Y014346D01*
X036463Y014317D01*
X036434Y014291D01*
X036402Y014267D01*
X036369Y014247D01*
X036333Y014230D01*
X036296Y014217D01*
X036258Y014208D01*
X036219Y014202D01*
X036180Y014200D01*
X036180Y013450D01*
X046180Y013450D01*
X046180Y015750D01*
X036180Y015750D01*
X036030Y015850D02*
X036028Y015824D01*
X036023Y015798D01*
X036015Y015773D01*
X036003Y015750D01*
X035989Y015728D01*
X035971Y015709D01*
X035952Y015691D01*
X035930Y015677D01*
X035907Y015665D01*
X035882Y015657D01*
X035856Y015652D01*
X035830Y015650D01*
X034530Y015650D01*
X034504Y015652D01*
X034478Y015657D01*
X034453Y015665D01*
X034430Y015677D01*
X034408Y015691D01*
X034389Y015709D01*
X034371Y015728D01*
X034357Y015750D01*
X034345Y015773D01*
X034337Y015798D01*
X034332Y015824D01*
X034330Y015850D01*
X034330Y016350D01*
X034332Y016376D01*
X034337Y016402D01*
X034345Y016427D01*
X034357Y016450D01*
X034371Y016472D01*
X034389Y016491D01*
X034408Y016509D01*
X034430Y016523D01*
X034453Y016535D01*
X034478Y016543D01*
X034504Y016548D01*
X034530Y016550D01*
X037360Y014920D02*
X037654Y014920D01*
X037654Y014847D01*
X037360Y014553D01*
X037360Y014480D01*
X037820Y014700D02*
X038041Y014920D01*
X038041Y014480D01*
X038114Y014700D02*
X037820Y014700D01*
X038281Y014847D02*
X038354Y014920D01*
X038501Y014920D01*
X038574Y014847D01*
X038574Y014774D01*
X038281Y014480D01*
X038574Y014480D01*
X038741Y014700D02*
X039035Y014700D01*
X039202Y014700D02*
X039495Y014700D01*
X039422Y014480D02*
X039422Y014920D01*
X039202Y014700D01*
X038961Y014480D02*
X038961Y014920D01*
X038741Y014700D01*
X046310Y014670D02*
X046310Y014523D01*
X046383Y014450D01*
X046310Y014283D02*
X046677Y014283D01*
X046750Y014210D01*
X046750Y014063D01*
X046677Y013989D01*
X046310Y013989D01*
X046750Y014450D02*
X046456Y014743D01*
X046383Y014743D01*
X046310Y014670D01*
X046530Y014910D02*
X046530Y015204D01*
X046750Y015130D02*
X046310Y015130D01*
X046530Y014910D01*
X046750Y014743D02*
X046750Y014450D01*
X047530Y015650D02*
X048830Y015650D01*
X048856Y015652D01*
X048882Y015657D01*
X048907Y015665D01*
X048930Y015677D01*
X048952Y015691D01*
X048971Y015709D01*
X048989Y015728D01*
X049003Y015750D01*
X049015Y015773D01*
X049023Y015798D01*
X049028Y015824D01*
X049030Y015850D01*
X049030Y016350D01*
X049028Y016376D01*
X049023Y016402D01*
X049015Y016427D01*
X049003Y016450D01*
X048989Y016472D01*
X048971Y016491D01*
X048952Y016509D01*
X048930Y016523D01*
X048907Y016535D01*
X048882Y016543D01*
X048856Y016548D01*
X048830Y016550D01*
X047530Y016550D01*
X047504Y016548D01*
X047478Y016543D01*
X047453Y016535D01*
X047430Y016523D01*
X047408Y016509D01*
X047389Y016491D01*
X047371Y016472D01*
X047357Y016450D01*
X047345Y016427D01*
X047337Y016402D01*
X047332Y016376D01*
X047330Y016350D01*
X047330Y015850D01*
X047332Y015824D01*
X047337Y015798D01*
X047345Y015773D01*
X047357Y015750D01*
X047371Y015728D01*
X047389Y015709D01*
X047408Y015691D01*
X047430Y015677D01*
X047453Y015665D01*
X047478Y015657D01*
X047504Y015652D01*
X047530Y015650D01*
X047668Y016705D02*
X047815Y016705D01*
X047888Y016778D01*
X048055Y016705D02*
X048348Y016999D01*
X048348Y017072D01*
X048275Y017145D01*
X048128Y017145D01*
X048055Y017072D01*
X047888Y017072D02*
X047815Y017145D01*
X047668Y017145D01*
X047594Y017072D01*
X047594Y016778D01*
X047668Y016705D01*
X048055Y016705D02*
X048348Y016705D01*
X048515Y016778D02*
X048589Y016705D01*
X048735Y016705D01*
X048809Y016778D01*
X048809Y016925D01*
X048735Y016999D01*
X048662Y016999D01*
X048515Y016925D01*
X048515Y017145D01*
X048809Y017145D01*
X049180Y015750D02*
X049180Y015000D01*
X049219Y014998D01*
X049258Y014992D01*
X049296Y014983D01*
X049333Y014970D01*
X049369Y014953D01*
X049402Y014933D01*
X049434Y014909D01*
X049463Y014883D01*
X049489Y014854D01*
X049513Y014822D01*
X049533Y014789D01*
X049550Y014753D01*
X049563Y014716D01*
X049572Y014678D01*
X049578Y014639D01*
X049580Y014600D01*
X049578Y014561D01*
X049572Y014522D01*
X049563Y014484D01*
X049550Y014447D01*
X049533Y014411D01*
X049513Y014378D01*
X049489Y014346D01*
X049463Y014317D01*
X049434Y014291D01*
X049402Y014267D01*
X049369Y014247D01*
X049333Y014230D01*
X049296Y014217D01*
X049258Y014208D01*
X049219Y014202D01*
X049180Y014200D01*
X049180Y013450D01*
X059180Y013450D01*
X059180Y015750D01*
X049180Y015750D01*
X050360Y014920D02*
X050654Y014920D01*
X050654Y014847D01*
X050360Y014553D01*
X050360Y014480D01*
X050820Y014700D02*
X051041Y014920D01*
X051041Y014480D01*
X051114Y014700D02*
X050820Y014700D01*
X051281Y014847D02*
X051354Y014920D01*
X051501Y014920D01*
X051574Y014847D01*
X051574Y014774D01*
X051281Y014480D01*
X051574Y014480D01*
X051741Y014700D02*
X052035Y014700D01*
X052202Y014700D02*
X052495Y014700D01*
X052422Y014480D02*
X052422Y014920D01*
X052202Y014700D01*
X051961Y014480D02*
X051961Y014920D01*
X051741Y014700D01*
X059310Y014670D02*
X059310Y014523D01*
X059383Y014450D01*
X059310Y014283D02*
X059677Y014283D01*
X059750Y014210D01*
X059750Y014063D01*
X059677Y013989D01*
X059310Y013989D01*
X059750Y014450D02*
X059456Y014743D01*
X059383Y014743D01*
X059310Y014670D01*
X059310Y014910D02*
X059530Y014910D01*
X059456Y015057D01*
X059456Y015130D01*
X059530Y015204D01*
X059677Y015204D01*
X059750Y015130D01*
X059750Y014984D01*
X059677Y014910D01*
X059750Y014743D02*
X059750Y014450D01*
X059310Y014910D02*
X059310Y015204D01*
X062335Y015154D02*
X062335Y014860D01*
X062555Y014860D01*
X062481Y015007D01*
X062481Y015080D01*
X062555Y015154D01*
X062702Y015154D01*
X062775Y015080D01*
X062775Y014934D01*
X062702Y014860D01*
X062555Y014693D02*
X062628Y014620D01*
X062628Y014400D01*
X062775Y014400D02*
X062335Y014400D01*
X062335Y014620D01*
X062408Y014693D01*
X062555Y014693D01*
X062335Y014233D02*
X062335Y014086D01*
X062335Y014160D02*
X062702Y014160D01*
X062775Y014086D01*
X062775Y014013D01*
X062702Y013939D01*
X066810Y014428D02*
X066810Y014722D01*
X066883Y014722D01*
X067177Y014428D01*
X067250Y014428D01*
X067030Y014888D02*
X067030Y015182D01*
X066883Y015349D02*
X066810Y015422D01*
X066810Y015569D01*
X066883Y015642D01*
X066956Y015642D01*
X067250Y015349D01*
X067250Y015642D01*
X067250Y015809D02*
X067177Y015809D01*
X066883Y016103D01*
X066810Y016103D01*
X066810Y015809D01*
X066883Y016270D02*
X066810Y016343D01*
X066810Y016490D01*
X066883Y016563D01*
X066956Y016563D01*
X067030Y016490D01*
X067103Y016563D01*
X067177Y016563D01*
X067250Y016490D01*
X067250Y016343D01*
X067177Y016270D01*
X067030Y016416D02*
X067030Y016490D01*
X066780Y018100D02*
X066782Y018061D01*
X066788Y018022D01*
X066797Y017984D01*
X066810Y017947D01*
X066827Y017911D01*
X066847Y017878D01*
X066871Y017846D01*
X066897Y017817D01*
X066926Y017791D01*
X066958Y017767D01*
X066991Y017747D01*
X067027Y017730D01*
X067064Y017717D01*
X067102Y017708D01*
X067141Y017702D01*
X067180Y017700D01*
X067219Y017702D01*
X067258Y017708D01*
X067296Y017717D01*
X067333Y017730D01*
X067369Y017747D01*
X067402Y017767D01*
X067434Y017791D01*
X067463Y017817D01*
X067489Y017846D01*
X067513Y017878D01*
X067533Y017911D01*
X067550Y017947D01*
X067563Y017984D01*
X067572Y018022D01*
X067578Y018061D01*
X067580Y018100D01*
X068330Y018100D01*
X068330Y008100D01*
X066030Y008100D01*
X066030Y018100D01*
X066780Y018100D01*
X066790Y018530D02*
X066643Y018530D01*
X066569Y018603D01*
X066569Y018970D01*
X066863Y018970D02*
X066863Y018603D01*
X066790Y018530D01*
X067030Y018530D02*
X067323Y018824D01*
X067323Y018897D01*
X067250Y018970D01*
X067103Y018970D01*
X067030Y018897D01*
X067030Y018530D02*
X067323Y018530D01*
X067490Y018530D02*
X067784Y018530D01*
X067637Y018530D02*
X067637Y018970D01*
X067490Y018824D01*
X068330Y019100D02*
X066030Y019100D01*
X066030Y029100D01*
X066780Y029100D01*
X066782Y029061D01*
X066788Y029022D01*
X066797Y028984D01*
X066810Y028947D01*
X066827Y028911D01*
X066847Y028878D01*
X066871Y028846D01*
X066897Y028817D01*
X066926Y028791D01*
X066958Y028767D01*
X066991Y028747D01*
X067027Y028730D01*
X067064Y028717D01*
X067102Y028708D01*
X067141Y028702D01*
X067180Y028700D01*
X067219Y028702D01*
X067258Y028708D01*
X067296Y028717D01*
X067333Y028730D01*
X067369Y028747D01*
X067402Y028767D01*
X067434Y028791D01*
X067463Y028817D01*
X067489Y028846D01*
X067513Y028878D01*
X067533Y028911D01*
X067550Y028947D01*
X067563Y028984D01*
X067572Y029022D01*
X067578Y029061D01*
X067580Y029100D01*
X068330Y029100D01*
X068330Y019100D01*
X069594Y018572D02*
X069668Y018645D01*
X069815Y018645D01*
X069888Y018572D01*
X070055Y018572D02*
X070128Y018645D01*
X070275Y018645D01*
X070348Y018572D01*
X070348Y018499D01*
X070055Y018205D01*
X070348Y018205D01*
X070515Y018278D02*
X070589Y018205D01*
X070735Y018205D01*
X070809Y018278D01*
X070809Y018352D01*
X070735Y018425D01*
X070515Y018425D01*
X070515Y018278D01*
X070515Y018425D02*
X070662Y018572D01*
X070809Y018645D01*
X071030Y019100D02*
X073330Y019100D01*
X073330Y027100D01*
X072580Y027100D01*
X072578Y027061D01*
X072572Y027022D01*
X072563Y026984D01*
X072550Y026947D01*
X072533Y026911D01*
X072513Y026878D01*
X072489Y026846D01*
X072463Y026817D01*
X072434Y026791D01*
X072402Y026767D01*
X072369Y026747D01*
X072333Y026730D01*
X072296Y026717D01*
X072258Y026708D01*
X072219Y026702D01*
X072180Y026700D01*
X072141Y026702D01*
X072102Y026708D01*
X072064Y026717D01*
X072027Y026730D01*
X071991Y026747D01*
X071958Y026767D01*
X071926Y026791D01*
X071897Y026817D01*
X071871Y026846D01*
X071847Y026878D01*
X071827Y026911D01*
X071810Y026947D01*
X071797Y026984D01*
X071788Y027022D01*
X071782Y027061D01*
X071780Y027100D01*
X071030Y027100D01*
X071030Y019100D01*
X071619Y018970D02*
X071619Y018603D01*
X071693Y018530D01*
X071840Y018530D01*
X071913Y018603D01*
X071913Y018970D01*
X072080Y018897D02*
X072153Y018970D01*
X072300Y018970D01*
X072373Y018897D01*
X072373Y018824D01*
X072080Y018530D01*
X072373Y018530D01*
X072540Y018530D02*
X072834Y018824D01*
X072834Y018897D01*
X072760Y018970D01*
X072614Y018970D01*
X072540Y018897D01*
X072540Y018530D02*
X072834Y018530D01*
X071030Y017850D02*
X071030Y017350D01*
X071028Y017324D01*
X071023Y017298D01*
X071015Y017273D01*
X071003Y017250D01*
X070989Y017228D01*
X070971Y017209D01*
X070952Y017191D01*
X070930Y017177D01*
X070907Y017165D01*
X070882Y017157D01*
X070856Y017152D01*
X070830Y017150D01*
X069530Y017150D01*
X069504Y017152D01*
X069478Y017157D01*
X069453Y017165D01*
X069430Y017177D01*
X069408Y017191D01*
X069389Y017209D01*
X069371Y017228D01*
X069357Y017250D01*
X069345Y017273D01*
X069337Y017298D01*
X069332Y017324D01*
X069330Y017350D01*
X069330Y017850D01*
X069332Y017876D01*
X069337Y017902D01*
X069345Y017927D01*
X069357Y017950D01*
X069371Y017972D01*
X069389Y017991D01*
X069408Y018009D01*
X069430Y018023D01*
X069453Y018035D01*
X069478Y018043D01*
X069504Y018048D01*
X069530Y018050D01*
X070830Y018050D01*
X070856Y018048D01*
X070882Y018043D01*
X070907Y018035D01*
X070930Y018023D01*
X070952Y018009D01*
X070971Y017991D01*
X070989Y017972D01*
X071003Y017950D01*
X071015Y017927D01*
X071023Y017902D01*
X071028Y017876D01*
X071030Y017850D01*
X071668Y017145D02*
X071594Y017072D01*
X071594Y016778D01*
X071668Y016705D01*
X071815Y016705D01*
X071888Y016778D01*
X072055Y016705D02*
X072348Y016999D01*
X072348Y017072D01*
X072275Y017145D01*
X072128Y017145D01*
X072055Y017072D01*
X071888Y017072D02*
X071815Y017145D01*
X071668Y017145D01*
X072055Y016705D02*
X072348Y016705D01*
X072515Y016705D02*
X072515Y016778D01*
X072809Y017072D01*
X072809Y017145D01*
X072515Y017145D01*
X072830Y016550D02*
X071530Y016550D01*
X071504Y016548D01*
X071478Y016543D01*
X071453Y016535D01*
X071430Y016523D01*
X071408Y016509D01*
X071389Y016491D01*
X071371Y016472D01*
X071357Y016450D01*
X071345Y016427D01*
X071337Y016402D01*
X071332Y016376D01*
X071330Y016350D01*
X071330Y015850D01*
X071332Y015824D01*
X071337Y015798D01*
X071345Y015773D01*
X071357Y015750D01*
X071371Y015728D01*
X071389Y015709D01*
X071408Y015691D01*
X071430Y015677D01*
X071453Y015665D01*
X071478Y015657D01*
X071504Y015652D01*
X071530Y015650D01*
X072830Y015650D01*
X072856Y015652D01*
X072882Y015657D01*
X072907Y015665D01*
X072930Y015677D01*
X072952Y015691D01*
X072971Y015709D01*
X072989Y015728D01*
X073003Y015750D01*
X073015Y015773D01*
X073023Y015798D01*
X073028Y015824D01*
X073030Y015850D01*
X073030Y016350D01*
X073028Y016376D01*
X073023Y016402D01*
X073015Y016427D01*
X073003Y016450D01*
X072989Y016472D01*
X072971Y016491D01*
X072952Y016509D01*
X072930Y016523D01*
X072907Y016535D01*
X072882Y016543D01*
X072856Y016548D01*
X072830Y016550D01*
X072580Y015100D02*
X073330Y015100D01*
X073330Y008100D01*
X071030Y008100D01*
X071030Y015100D01*
X071780Y015100D01*
X071782Y015061D01*
X071788Y015022D01*
X071797Y014984D01*
X071810Y014947D01*
X071827Y014911D01*
X071847Y014878D01*
X071871Y014846D01*
X071897Y014817D01*
X071926Y014791D01*
X071958Y014767D01*
X071991Y014747D01*
X072027Y014730D01*
X072064Y014717D01*
X072102Y014708D01*
X072141Y014702D01*
X072180Y014700D01*
X072219Y014702D01*
X072258Y014708D01*
X072296Y014717D01*
X072333Y014730D01*
X072369Y014747D01*
X072402Y014767D01*
X072434Y014791D01*
X072463Y014817D01*
X072489Y014846D01*
X072513Y014878D01*
X072533Y014911D01*
X072550Y014947D01*
X072563Y014984D01*
X072572Y015022D01*
X072578Y015061D01*
X072580Y015100D01*
X072400Y014113D02*
X072400Y013820D01*
X072106Y014113D01*
X072033Y014113D01*
X071960Y014040D01*
X071960Y013893D01*
X072033Y013820D01*
X072033Y013653D02*
X072106Y013653D01*
X072180Y013579D01*
X072253Y013653D01*
X072327Y013653D01*
X072400Y013579D01*
X072400Y013433D01*
X072327Y013359D01*
X072180Y013506D02*
X072180Y013579D01*
X072033Y013653D02*
X071960Y013579D01*
X071960Y013433D01*
X072033Y013359D01*
X072180Y013192D02*
X072180Y012899D01*
X071960Y013119D01*
X072400Y013119D01*
X072033Y012732D02*
X072327Y012438D01*
X072400Y012438D01*
X071960Y012438D02*
X071960Y012732D01*
X072033Y012732D01*
X076030Y015100D02*
X076780Y015100D01*
X076782Y015061D01*
X076788Y015022D01*
X076797Y014984D01*
X076810Y014947D01*
X076827Y014911D01*
X076847Y014878D01*
X076871Y014846D01*
X076897Y014817D01*
X076926Y014791D01*
X076958Y014767D01*
X076991Y014747D01*
X077027Y014730D01*
X077064Y014717D01*
X077102Y014708D01*
X077141Y014702D01*
X077180Y014700D01*
X077219Y014702D01*
X077258Y014708D01*
X077296Y014717D01*
X077333Y014730D01*
X077369Y014747D01*
X077402Y014767D01*
X077434Y014791D01*
X077463Y014817D01*
X077489Y014846D01*
X077513Y014878D01*
X077533Y014911D01*
X077550Y014947D01*
X077563Y014984D01*
X077572Y015022D01*
X077578Y015061D01*
X077580Y015100D01*
X078330Y015100D01*
X078330Y008100D01*
X076030Y008100D01*
X076030Y015100D01*
X076530Y015650D02*
X077830Y015650D01*
X077856Y015652D01*
X077882Y015657D01*
X077907Y015665D01*
X077930Y015677D01*
X077952Y015691D01*
X077971Y015709D01*
X077989Y015728D01*
X078003Y015750D01*
X078015Y015773D01*
X078023Y015798D01*
X078028Y015824D01*
X078030Y015850D01*
X078030Y016350D01*
X078028Y016376D01*
X078023Y016402D01*
X078015Y016427D01*
X078003Y016450D01*
X077989Y016472D01*
X077971Y016491D01*
X077952Y016509D01*
X077930Y016523D01*
X077907Y016535D01*
X077882Y016543D01*
X077856Y016548D01*
X077830Y016550D01*
X076530Y016550D01*
X076504Y016548D01*
X076478Y016543D01*
X076453Y016535D01*
X076430Y016523D01*
X076408Y016509D01*
X076389Y016491D01*
X076371Y016472D01*
X076357Y016450D01*
X076345Y016427D01*
X076337Y016402D01*
X076332Y016376D01*
X076330Y016350D01*
X076330Y015850D01*
X076332Y015824D01*
X076337Y015798D01*
X076345Y015773D01*
X076357Y015750D01*
X076371Y015728D01*
X076389Y015709D01*
X076408Y015691D01*
X076430Y015677D01*
X076453Y015665D01*
X076478Y015657D01*
X076504Y015652D01*
X076530Y015650D01*
X076668Y016705D02*
X076815Y016705D01*
X076888Y016778D01*
X077055Y016705D02*
X077348Y016999D01*
X077348Y017072D01*
X077275Y017145D01*
X077128Y017145D01*
X077055Y017072D01*
X076888Y017072D02*
X076815Y017145D01*
X076668Y017145D01*
X076594Y017072D01*
X076594Y016778D01*
X076668Y016705D01*
X077055Y016705D02*
X077348Y016705D01*
X077515Y016778D02*
X077515Y016852D01*
X077589Y016925D01*
X077735Y016925D01*
X077809Y016852D01*
X077809Y016778D01*
X077735Y016705D01*
X077589Y016705D01*
X077515Y016778D01*
X077589Y016925D02*
X077515Y016999D01*
X077515Y017072D01*
X077589Y017145D01*
X077735Y017145D01*
X077809Y017072D01*
X077809Y016999D01*
X077735Y016925D01*
X077760Y018530D02*
X077614Y018530D01*
X077540Y018603D01*
X077373Y018530D02*
X077080Y018530D01*
X077373Y018824D01*
X077373Y018897D01*
X077300Y018970D01*
X077153Y018970D01*
X077080Y018897D01*
X076913Y018970D02*
X076913Y018603D01*
X076840Y018530D01*
X076693Y018530D01*
X076619Y018603D01*
X076619Y018970D01*
X076030Y019100D02*
X078330Y019100D01*
X078330Y027100D01*
X077580Y027100D01*
X077578Y027061D01*
X077572Y027022D01*
X077563Y026984D01*
X077550Y026947D01*
X077533Y026911D01*
X077513Y026878D01*
X077489Y026846D01*
X077463Y026817D01*
X077434Y026791D01*
X077402Y026767D01*
X077369Y026747D01*
X077333Y026730D01*
X077296Y026717D01*
X077258Y026708D01*
X077219Y026702D01*
X077180Y026700D01*
X077141Y026702D01*
X077102Y026708D01*
X077064Y026717D01*
X077027Y026730D01*
X076991Y026747D01*
X076958Y026767D01*
X076926Y026791D01*
X076897Y026817D01*
X076871Y026846D01*
X076847Y026878D01*
X076827Y026911D01*
X076810Y026947D01*
X076797Y026984D01*
X076788Y027022D01*
X076782Y027061D01*
X076780Y027100D01*
X076030Y027100D01*
X076030Y019100D01*
X077540Y018897D02*
X077614Y018970D01*
X077760Y018970D01*
X077834Y018897D01*
X077834Y018824D01*
X077760Y018750D01*
X077834Y018677D01*
X077834Y018603D01*
X077760Y018530D01*
X077760Y018750D02*
X077687Y018750D01*
X069888Y018278D02*
X069815Y018205D01*
X069668Y018205D01*
X069594Y018278D01*
X069594Y018572D01*
X067250Y015109D02*
X066810Y015109D01*
X067030Y014888D01*
X076585Y013665D02*
X076585Y013518D01*
X076658Y013445D01*
X076658Y013278D02*
X076731Y013278D01*
X076805Y013204D01*
X076878Y013278D01*
X076952Y013278D01*
X077025Y013204D01*
X077025Y013058D01*
X076952Y012984D01*
X076805Y013131D02*
X076805Y013204D01*
X076658Y013278D02*
X076585Y013204D01*
X076585Y013058D01*
X076658Y012984D01*
X076805Y012817D02*
X076805Y012524D01*
X076585Y012744D01*
X077025Y012744D01*
X076658Y012357D02*
X076952Y012063D01*
X077025Y012063D01*
X076585Y012063D02*
X076585Y012357D01*
X076658Y012357D01*
X077025Y013445D02*
X076731Y013738D01*
X076658Y013738D01*
X076585Y013665D01*
X077025Y013738D02*
X077025Y013445D01*
X077103Y007970D02*
X077030Y007897D01*
X077103Y007970D02*
X077250Y007970D01*
X077323Y007897D01*
X077323Y007824D01*
X077030Y007530D01*
X077323Y007530D01*
X077490Y007603D02*
X077490Y007677D01*
X077564Y007750D01*
X077710Y007750D01*
X077784Y007677D01*
X077784Y007603D01*
X077710Y007530D01*
X077564Y007530D01*
X077490Y007603D01*
X077564Y007750D02*
X077490Y007824D01*
X077490Y007897D01*
X077564Y007970D01*
X077710Y007970D01*
X077784Y007897D01*
X077784Y007824D01*
X077710Y007750D01*
X076863Y007603D02*
X076863Y007970D01*
X076569Y007970D02*
X076569Y007603D01*
X076643Y007530D01*
X076790Y007530D01*
X076863Y007603D01*
X072784Y007897D02*
X072490Y007603D01*
X072490Y007530D01*
X072323Y007530D02*
X072030Y007530D01*
X072323Y007824D01*
X072323Y007897D01*
X072250Y007970D01*
X072103Y007970D01*
X072030Y007897D01*
X071863Y007970D02*
X071863Y007603D01*
X071790Y007530D01*
X071643Y007530D01*
X071569Y007603D01*
X071569Y007970D01*
X072490Y007970D02*
X072784Y007970D01*
X072784Y007897D01*
X067784Y007970D02*
X067637Y007897D01*
X067490Y007750D01*
X067710Y007750D01*
X067784Y007677D01*
X067784Y007603D01*
X067710Y007530D01*
X067564Y007530D01*
X067490Y007603D01*
X067490Y007750D01*
X067323Y007824D02*
X067030Y007530D01*
X067323Y007530D01*
X067323Y007824D02*
X067323Y007897D01*
X067250Y007970D01*
X067103Y007970D01*
X067030Y007897D01*
X066863Y007970D02*
X066863Y007603D01*
X066790Y007530D01*
X066643Y007530D01*
X066569Y007603D01*
X066569Y007970D01*
X059752Y022214D02*
X059385Y022214D01*
X059385Y022508D02*
X059752Y022508D01*
X059825Y022435D01*
X059825Y022288D01*
X059752Y022214D01*
X059825Y022675D02*
X059531Y022968D01*
X059458Y022968D01*
X059385Y022895D01*
X059385Y022748D01*
X059458Y022675D01*
X059825Y022675D02*
X059825Y022968D01*
X059752Y023135D02*
X059458Y023429D01*
X059752Y023429D01*
X059825Y023355D01*
X059825Y023209D01*
X059752Y023135D01*
X059458Y023135D01*
X059385Y023209D01*
X059385Y023355D01*
X059458Y023429D01*
X067060Y025678D02*
X067060Y025972D01*
X067133Y025972D01*
X067427Y025678D01*
X067500Y025678D01*
X067280Y026138D02*
X067280Y026432D01*
X067133Y026599D02*
X067060Y026672D01*
X067060Y026819D01*
X067133Y026892D01*
X067206Y026892D01*
X067500Y026599D01*
X067500Y026892D01*
X067280Y027059D02*
X067280Y027353D01*
X067280Y027520D02*
X067280Y027813D01*
X067500Y027740D02*
X067060Y027740D01*
X067280Y027520D01*
X067500Y027279D02*
X067060Y027279D01*
X067280Y027059D01*
X067500Y026359D02*
X067060Y026359D01*
X067280Y026138D01*
X071330Y027850D02*
X071330Y028350D01*
X071332Y028376D01*
X071337Y028402D01*
X071345Y028427D01*
X071357Y028450D01*
X071371Y028472D01*
X071389Y028491D01*
X071408Y028509D01*
X071430Y028523D01*
X071453Y028535D01*
X071478Y028543D01*
X071504Y028548D01*
X071530Y028550D01*
X072830Y028550D01*
X072809Y028705D02*
X072515Y028705D01*
X072809Y028999D01*
X072809Y029072D01*
X072735Y029145D01*
X072589Y029145D01*
X072515Y029072D01*
X072348Y029072D02*
X072275Y029145D01*
X072128Y029145D01*
X072055Y029072D01*
X071888Y029072D02*
X071815Y029145D01*
X071668Y029145D01*
X071594Y029072D01*
X071594Y028778D01*
X071668Y028705D01*
X071815Y028705D01*
X071888Y028778D01*
X072055Y028705D02*
X072348Y028999D01*
X072348Y029072D01*
X072348Y028705D02*
X072055Y028705D01*
X072830Y028550D02*
X072856Y028548D01*
X072882Y028543D01*
X072907Y028535D01*
X072930Y028523D01*
X072952Y028509D01*
X072971Y028491D01*
X072989Y028472D01*
X073003Y028450D01*
X073015Y028427D01*
X073023Y028402D01*
X073028Y028376D01*
X073030Y028350D01*
X073030Y027850D01*
X073028Y027824D01*
X073023Y027798D01*
X073015Y027773D01*
X073003Y027750D01*
X072989Y027728D01*
X072971Y027709D01*
X072952Y027691D01*
X072930Y027677D01*
X072907Y027665D01*
X072882Y027657D01*
X072856Y027652D01*
X072830Y027650D01*
X071530Y027650D01*
X071504Y027652D01*
X071478Y027657D01*
X071453Y027665D01*
X071430Y027677D01*
X071408Y027691D01*
X071389Y027709D01*
X071371Y027728D01*
X071357Y027750D01*
X071345Y027773D01*
X071337Y027798D01*
X071332Y027824D01*
X071330Y027850D01*
X068030Y029850D02*
X068030Y030350D01*
X068028Y030376D01*
X068023Y030402D01*
X068015Y030427D01*
X068003Y030450D01*
X067989Y030472D01*
X067971Y030491D01*
X067952Y030509D01*
X067930Y030523D01*
X067907Y030535D01*
X067882Y030543D01*
X067856Y030548D01*
X067830Y030550D01*
X066530Y030550D01*
X066504Y030548D01*
X066478Y030543D01*
X066453Y030535D01*
X066430Y030523D01*
X066408Y030509D01*
X066389Y030491D01*
X066371Y030472D01*
X066357Y030450D01*
X066345Y030427D01*
X066337Y030402D01*
X066332Y030376D01*
X066330Y030350D01*
X066330Y029850D01*
X066332Y029824D01*
X066337Y029798D01*
X066345Y029773D01*
X066357Y029750D01*
X066371Y029728D01*
X066389Y029709D01*
X066408Y029691D01*
X066430Y029677D01*
X066453Y029665D01*
X066478Y029657D01*
X066504Y029652D01*
X066530Y029650D01*
X067830Y029650D01*
X067856Y029652D01*
X067882Y029657D01*
X067907Y029665D01*
X067930Y029677D01*
X067952Y029691D01*
X067971Y029709D01*
X067989Y029728D01*
X068003Y029750D01*
X068015Y029773D01*
X068023Y029798D01*
X068028Y029824D01*
X068030Y029850D01*
X067809Y030705D02*
X067515Y030705D01*
X067662Y030705D02*
X067662Y031145D01*
X067515Y030999D01*
X067348Y030999D02*
X067055Y030705D01*
X067348Y030705D01*
X067348Y030999D02*
X067348Y031072D01*
X067275Y031145D01*
X067128Y031145D01*
X067055Y031072D01*
X066888Y031072D02*
X066815Y031145D01*
X066668Y031145D01*
X066594Y031072D01*
X066594Y030778D01*
X066668Y030705D01*
X066815Y030705D01*
X066888Y030778D01*
X066790Y031530D02*
X066643Y031530D01*
X066569Y031603D01*
X066569Y031970D01*
X066863Y031970D02*
X066863Y031603D01*
X066790Y031530D01*
X067030Y031530D02*
X067323Y031530D01*
X067177Y031530D02*
X067177Y031970D01*
X067030Y031824D01*
X067490Y031970D02*
X067784Y031970D01*
X067784Y031897D01*
X067490Y031603D01*
X067490Y031530D01*
X068330Y032100D02*
X066030Y032100D01*
X066030Y039100D01*
X066780Y039100D01*
X066782Y039061D01*
X066788Y039022D01*
X066797Y038984D01*
X066810Y038947D01*
X066827Y038911D01*
X066847Y038878D01*
X066871Y038846D01*
X066897Y038817D01*
X066926Y038791D01*
X066958Y038767D01*
X066991Y038747D01*
X067027Y038730D01*
X067064Y038717D01*
X067102Y038708D01*
X067141Y038702D01*
X067180Y038700D01*
X067219Y038702D01*
X067258Y038708D01*
X067296Y038717D01*
X067333Y038730D01*
X067369Y038747D01*
X067402Y038767D01*
X067434Y038791D01*
X067463Y038817D01*
X067489Y038846D01*
X067513Y038878D01*
X067533Y038911D01*
X067550Y038947D01*
X067563Y038984D01*
X067572Y039022D01*
X067578Y039061D01*
X067580Y039100D01*
X068330Y039100D01*
X068330Y032100D01*
X071030Y032100D02*
X073330Y032100D01*
X073330Y039100D01*
X072580Y039100D01*
X072578Y039061D01*
X072572Y039022D01*
X072563Y038984D01*
X072550Y038947D01*
X072533Y038911D01*
X072513Y038878D01*
X072489Y038846D01*
X072463Y038817D01*
X072434Y038791D01*
X072402Y038767D01*
X072369Y038747D01*
X072333Y038730D01*
X072296Y038717D01*
X072258Y038708D01*
X072219Y038702D01*
X072180Y038700D01*
X072141Y038702D01*
X072102Y038708D01*
X072064Y038717D01*
X072027Y038730D01*
X071991Y038747D01*
X071958Y038767D01*
X071926Y038791D01*
X071897Y038817D01*
X071871Y038846D01*
X071847Y038878D01*
X071827Y038911D01*
X071810Y038947D01*
X071797Y038984D01*
X071788Y039022D01*
X071782Y039061D01*
X071780Y039100D01*
X071030Y039100D01*
X071030Y032100D01*
X071569Y031970D02*
X071569Y031603D01*
X071643Y031530D01*
X071790Y031530D01*
X071863Y031603D01*
X071863Y031970D01*
X072030Y031824D02*
X072177Y031970D01*
X072177Y031530D01*
X072323Y031530D02*
X072030Y031530D01*
X072490Y031603D02*
X072490Y031677D01*
X072564Y031750D01*
X072710Y031750D01*
X072784Y031677D01*
X072784Y031603D01*
X072710Y031530D01*
X072564Y031530D01*
X072490Y031603D01*
X072564Y031750D02*
X072490Y031824D01*
X072490Y031897D01*
X072564Y031970D01*
X072710Y031970D01*
X072784Y031897D01*
X072784Y031824D01*
X072710Y031750D01*
X076030Y031100D02*
X078330Y031100D01*
X078330Y038100D01*
X077580Y038100D01*
X077578Y038061D01*
X077572Y038022D01*
X077563Y037984D01*
X077550Y037947D01*
X077533Y037911D01*
X077513Y037878D01*
X077489Y037846D01*
X077463Y037817D01*
X077434Y037791D01*
X077402Y037767D01*
X077369Y037747D01*
X077333Y037730D01*
X077296Y037717D01*
X077258Y037708D01*
X077219Y037702D01*
X077180Y037700D01*
X077141Y037702D01*
X077102Y037708D01*
X077064Y037717D01*
X077027Y037730D01*
X076991Y037747D01*
X076958Y037767D01*
X076926Y037791D01*
X076897Y037817D01*
X076871Y037846D01*
X076847Y037878D01*
X076827Y037911D01*
X076810Y037947D01*
X076797Y037984D01*
X076788Y038022D01*
X076782Y038061D01*
X076780Y038100D01*
X076030Y038100D01*
X076030Y031100D01*
X076569Y030970D02*
X076569Y030603D01*
X076643Y030530D01*
X076790Y030530D01*
X076863Y030603D01*
X076863Y030970D01*
X077030Y030824D02*
X077177Y030970D01*
X077177Y030530D01*
X077323Y030530D02*
X077030Y030530D01*
X077490Y030603D02*
X077564Y030530D01*
X077710Y030530D01*
X077784Y030603D01*
X077784Y030897D01*
X077710Y030970D01*
X077564Y030970D01*
X077490Y030897D01*
X077490Y030824D01*
X077564Y030750D01*
X077784Y030750D01*
X077735Y029145D02*
X077809Y029072D01*
X077809Y028999D01*
X077735Y028925D01*
X077809Y028852D01*
X077809Y028778D01*
X077735Y028705D01*
X077589Y028705D01*
X077515Y028778D01*
X077348Y028705D02*
X077055Y028705D01*
X077348Y028999D01*
X077348Y029072D01*
X077275Y029145D01*
X077128Y029145D01*
X077055Y029072D01*
X076888Y029072D02*
X076815Y029145D01*
X076668Y029145D01*
X076594Y029072D01*
X076594Y028778D01*
X076668Y028705D01*
X076815Y028705D01*
X076888Y028778D01*
X076530Y028550D02*
X077830Y028550D01*
X077856Y028548D01*
X077882Y028543D01*
X077907Y028535D01*
X077930Y028523D01*
X077952Y028509D01*
X077971Y028491D01*
X077989Y028472D01*
X078003Y028450D01*
X078015Y028427D01*
X078023Y028402D01*
X078028Y028376D01*
X078030Y028350D01*
X078030Y027850D01*
X078028Y027824D01*
X078023Y027798D01*
X078015Y027773D01*
X078003Y027750D01*
X077989Y027728D01*
X077971Y027709D01*
X077952Y027691D01*
X077930Y027677D01*
X077907Y027665D01*
X077882Y027657D01*
X077856Y027652D01*
X077830Y027650D01*
X076530Y027650D01*
X076504Y027652D01*
X076478Y027657D01*
X076453Y027665D01*
X076430Y027677D01*
X076408Y027691D01*
X076389Y027709D01*
X076371Y027728D01*
X076357Y027750D01*
X076345Y027773D01*
X076337Y027798D01*
X076332Y027824D01*
X076330Y027850D01*
X076330Y028350D01*
X076332Y028376D01*
X076337Y028402D01*
X076345Y028427D01*
X076357Y028450D01*
X076371Y028472D01*
X076389Y028491D01*
X076408Y028509D01*
X076430Y028523D01*
X076453Y028535D01*
X076478Y028543D01*
X076504Y028548D01*
X076530Y028550D01*
X077662Y028925D02*
X077735Y028925D01*
X077735Y029145D02*
X077589Y029145D01*
X077515Y029072D01*
X077452Y025913D02*
X077525Y025840D01*
X077525Y025693D01*
X077452Y025620D01*
X077378Y025620D01*
X077305Y025693D01*
X077305Y025840D01*
X077378Y025913D01*
X077452Y025913D01*
X077305Y025840D02*
X077231Y025913D01*
X077158Y025913D01*
X077085Y025840D01*
X077085Y025693D01*
X077158Y025620D01*
X077231Y025620D01*
X077305Y025693D01*
X077305Y025453D02*
X077305Y025159D01*
X077085Y025379D01*
X077525Y025379D01*
X077525Y024992D02*
X077525Y024699D01*
X077525Y024846D02*
X077085Y024846D01*
X077231Y024699D01*
X077305Y024532D02*
X077305Y024238D01*
X077085Y024459D01*
X077525Y024459D01*
X077158Y024072D02*
X077085Y024072D01*
X077085Y023778D01*
X077158Y024072D02*
X077452Y023778D01*
X077525Y023778D01*
X072400Y023778D02*
X072327Y023778D01*
X072033Y024072D01*
X071960Y024072D01*
X071960Y023778D01*
X072180Y024238D02*
X072180Y024532D01*
X072106Y024699D02*
X071960Y024846D01*
X072400Y024846D01*
X072400Y024992D02*
X072400Y024699D01*
X072400Y024459D02*
X071960Y024459D01*
X072180Y024238D01*
X072327Y025159D02*
X072400Y025233D01*
X072400Y025379D01*
X072327Y025453D01*
X072253Y025453D01*
X072180Y025379D01*
X072180Y025306D01*
X072180Y025379D02*
X072106Y025453D01*
X072033Y025453D01*
X071960Y025379D01*
X071960Y025233D01*
X072033Y025159D01*
X072033Y025620D02*
X072106Y025620D01*
X072180Y025693D01*
X072180Y025840D01*
X072253Y025913D01*
X072327Y025913D01*
X072400Y025840D01*
X072400Y025693D01*
X072327Y025620D01*
X072253Y025620D01*
X072180Y025693D01*
X072180Y025840D02*
X072106Y025913D01*
X072033Y025913D01*
X071960Y025840D01*
X071960Y025693D01*
X072033Y025620D01*
X058330Y029100D02*
X056030Y029100D01*
X056030Y039100D01*
X056780Y039100D01*
X056782Y039061D01*
X056788Y039022D01*
X056797Y038984D01*
X056810Y038947D01*
X056827Y038911D01*
X056847Y038878D01*
X056871Y038846D01*
X056897Y038817D01*
X056926Y038791D01*
X056958Y038767D01*
X056991Y038747D01*
X057027Y038730D01*
X057064Y038717D01*
X057102Y038708D01*
X057141Y038702D01*
X057180Y038700D01*
X057219Y038702D01*
X057258Y038708D01*
X057296Y038717D01*
X057333Y038730D01*
X057369Y038747D01*
X057402Y038767D01*
X057434Y038791D01*
X057463Y038817D01*
X057489Y038846D01*
X057513Y038878D01*
X057533Y038911D01*
X057550Y038947D01*
X057563Y038984D01*
X057572Y039022D01*
X057578Y039061D01*
X057580Y039100D01*
X058330Y039100D01*
X058330Y029100D01*
X057784Y028970D02*
X057637Y028897D01*
X057490Y028750D01*
X057710Y028750D01*
X057784Y028677D01*
X057784Y028603D01*
X057710Y028530D01*
X057564Y028530D01*
X057490Y028603D01*
X057490Y028750D01*
X057323Y028530D02*
X057030Y028530D01*
X057177Y028530D02*
X057177Y028970D01*
X057030Y028824D01*
X056863Y028970D02*
X056863Y028603D01*
X056790Y028530D01*
X056643Y028530D01*
X056569Y028603D01*
X056569Y028970D01*
X053330Y029100D02*
X051030Y029100D01*
X051030Y039100D01*
X051780Y039100D01*
X051782Y039061D01*
X051788Y039022D01*
X051797Y038984D01*
X051810Y038947D01*
X051827Y038911D01*
X051847Y038878D01*
X051871Y038846D01*
X051897Y038817D01*
X051926Y038791D01*
X051958Y038767D01*
X051991Y038747D01*
X052027Y038730D01*
X052064Y038717D01*
X052102Y038708D01*
X052141Y038702D01*
X052180Y038700D01*
X052219Y038702D01*
X052258Y038708D01*
X052296Y038717D01*
X052333Y038730D01*
X052369Y038747D01*
X052402Y038767D01*
X052434Y038791D01*
X052463Y038817D01*
X052489Y038846D01*
X052513Y038878D01*
X052533Y038911D01*
X052550Y038947D01*
X052563Y038984D01*
X052572Y039022D01*
X052578Y039061D01*
X052580Y039100D01*
X053330Y039100D01*
X053330Y029100D01*
X052784Y028970D02*
X052490Y028970D01*
X052490Y028750D01*
X052637Y028824D01*
X052710Y028824D01*
X052784Y028750D01*
X052784Y028603D01*
X052710Y028530D01*
X052564Y028530D01*
X052490Y028603D01*
X052323Y028530D02*
X052030Y028530D01*
X052177Y028530D02*
X052177Y028970D01*
X052030Y028824D01*
X051863Y028970D02*
X051863Y028603D01*
X051790Y028530D01*
X051643Y028530D01*
X051569Y028603D01*
X051569Y028970D01*
X048330Y029100D02*
X046030Y029100D01*
X046030Y039100D01*
X046780Y039100D01*
X046782Y039061D01*
X046788Y039022D01*
X046797Y038984D01*
X046810Y038947D01*
X046827Y038911D01*
X046847Y038878D01*
X046871Y038846D01*
X046897Y038817D01*
X046926Y038791D01*
X046958Y038767D01*
X046991Y038747D01*
X047027Y038730D01*
X047064Y038717D01*
X047102Y038708D01*
X047141Y038702D01*
X047180Y038700D01*
X047219Y038702D01*
X047258Y038708D01*
X047296Y038717D01*
X047333Y038730D01*
X047369Y038747D01*
X047402Y038767D01*
X047434Y038791D01*
X047463Y038817D01*
X047489Y038846D01*
X047513Y038878D01*
X047533Y038911D01*
X047550Y038947D01*
X047563Y038984D01*
X047572Y039022D01*
X047578Y039061D01*
X047580Y039100D01*
X048330Y039100D01*
X048330Y029100D01*
X047710Y028970D02*
X047490Y028750D01*
X047784Y028750D01*
X047710Y028530D02*
X047710Y028970D01*
X047177Y028970D02*
X047177Y028530D01*
X047323Y028530D02*
X047030Y028530D01*
X046863Y028603D02*
X046790Y028530D01*
X046643Y028530D01*
X046569Y028603D01*
X046569Y028970D01*
X046863Y028970D02*
X046863Y028603D01*
X047030Y028824D02*
X047177Y028970D01*
X043330Y029100D02*
X041030Y029100D01*
X041030Y039100D01*
X041780Y039100D01*
X041782Y039061D01*
X041788Y039022D01*
X041797Y038984D01*
X041810Y038947D01*
X041827Y038911D01*
X041847Y038878D01*
X041871Y038846D01*
X041897Y038817D01*
X041926Y038791D01*
X041958Y038767D01*
X041991Y038747D01*
X042027Y038730D01*
X042064Y038717D01*
X042102Y038708D01*
X042141Y038702D01*
X042180Y038700D01*
X042219Y038702D01*
X042258Y038708D01*
X042296Y038717D01*
X042333Y038730D01*
X042369Y038747D01*
X042402Y038767D01*
X042434Y038791D01*
X042463Y038817D01*
X042489Y038846D01*
X042513Y038878D01*
X042533Y038911D01*
X042550Y038947D01*
X042563Y038984D01*
X042572Y039022D01*
X042578Y039061D01*
X042580Y039100D01*
X043330Y039100D01*
X043330Y029100D01*
X042784Y028897D02*
X042784Y028824D01*
X042710Y028750D01*
X042784Y028677D01*
X042784Y028603D01*
X042710Y028530D01*
X042564Y028530D01*
X042490Y028603D01*
X042323Y028530D02*
X042030Y028530D01*
X042177Y028530D02*
X042177Y028970D01*
X042030Y028824D01*
X041863Y028970D02*
X041863Y028603D01*
X041790Y028530D01*
X041643Y028530D01*
X041569Y028603D01*
X041569Y028970D01*
X042490Y028897D02*
X042564Y028970D01*
X042710Y028970D01*
X042784Y028897D01*
X042710Y028750D02*
X042637Y028750D01*
X038330Y029100D02*
X036030Y029100D01*
X036030Y039100D01*
X036780Y039100D01*
X036782Y039061D01*
X036788Y039022D01*
X036797Y038984D01*
X036810Y038947D01*
X036827Y038911D01*
X036847Y038878D01*
X036871Y038846D01*
X036897Y038817D01*
X036926Y038791D01*
X036958Y038767D01*
X036991Y038747D01*
X037027Y038730D01*
X037064Y038717D01*
X037102Y038708D01*
X037141Y038702D01*
X037180Y038700D01*
X037219Y038702D01*
X037258Y038708D01*
X037296Y038717D01*
X037333Y038730D01*
X037369Y038747D01*
X037402Y038767D01*
X037434Y038791D01*
X037463Y038817D01*
X037489Y038846D01*
X037513Y038878D01*
X037533Y038911D01*
X037550Y038947D01*
X037563Y038984D01*
X037572Y039022D01*
X037578Y039061D01*
X037580Y039100D01*
X038330Y039100D01*
X038330Y029100D01*
X037784Y028897D02*
X037710Y028970D01*
X037564Y028970D01*
X037490Y028897D01*
X037784Y028897D02*
X037784Y028824D01*
X037490Y028530D01*
X037784Y028530D01*
X037323Y028530D02*
X037030Y028530D01*
X037177Y028530D02*
X037177Y028970D01*
X037030Y028824D01*
X036863Y028970D02*
X036863Y028603D01*
X036790Y028530D01*
X036643Y028530D01*
X036569Y028603D01*
X036569Y028970D01*
X032500Y035053D02*
X032427Y035053D01*
X032133Y035347D01*
X032060Y035347D01*
X032060Y035053D01*
X032280Y035513D02*
X032060Y035734D01*
X032500Y035734D01*
X032280Y035807D02*
X032280Y035513D01*
X032133Y035974D02*
X032060Y036047D01*
X032060Y036194D01*
X032133Y036267D01*
X032206Y036267D01*
X032500Y035974D01*
X032500Y036267D01*
X032500Y036434D02*
X032427Y036434D01*
X032133Y036728D01*
X032060Y036728D01*
X032060Y036434D01*
X032133Y036895D02*
X032060Y036968D01*
X032060Y037115D01*
X032133Y037188D01*
X032206Y037188D01*
X032280Y037115D01*
X032353Y037188D01*
X032427Y037188D01*
X032500Y037115D01*
X032500Y036968D01*
X032427Y036895D01*
X032280Y037041D02*
X032280Y037115D01*
X032830Y039650D02*
X031530Y039650D01*
X031504Y039652D01*
X031478Y039657D01*
X031453Y039665D01*
X031430Y039677D01*
X031408Y039691D01*
X031389Y039709D01*
X031371Y039728D01*
X031357Y039750D01*
X031345Y039773D01*
X031337Y039798D01*
X031332Y039824D01*
X031330Y039850D01*
X031330Y040350D01*
X031332Y040376D01*
X031337Y040402D01*
X031345Y040427D01*
X031357Y040450D01*
X031371Y040472D01*
X031389Y040491D01*
X031408Y040509D01*
X031430Y040523D01*
X031453Y040535D01*
X031478Y040543D01*
X031504Y040548D01*
X031530Y040550D01*
X032830Y040550D01*
X032809Y040705D02*
X032515Y040705D01*
X032662Y040705D02*
X032662Y041145D01*
X032515Y040999D01*
X032348Y040705D02*
X032055Y040705D01*
X032202Y040705D02*
X032202Y041145D01*
X032055Y040999D01*
X031888Y041072D02*
X031815Y041145D01*
X031668Y041145D01*
X031594Y041072D01*
X031594Y040778D01*
X031668Y040705D01*
X031815Y040705D01*
X031888Y040778D01*
X032830Y040550D02*
X032856Y040548D01*
X032882Y040543D01*
X032907Y040535D01*
X032930Y040523D01*
X032952Y040509D01*
X032971Y040491D01*
X032989Y040472D01*
X033003Y040450D01*
X033015Y040427D01*
X033023Y040402D01*
X033028Y040376D01*
X033030Y040350D01*
X033030Y039850D01*
X033028Y039824D01*
X033023Y039798D01*
X033015Y039773D01*
X033003Y039750D01*
X032989Y039728D01*
X032971Y039709D01*
X032952Y039691D01*
X032930Y039677D01*
X032907Y039665D01*
X032882Y039657D01*
X032856Y039652D01*
X032830Y039650D01*
X036330Y039850D02*
X036330Y040350D01*
X036332Y040376D01*
X036337Y040402D01*
X036345Y040427D01*
X036357Y040450D01*
X036371Y040472D01*
X036389Y040491D01*
X036408Y040509D01*
X036430Y040523D01*
X036453Y040535D01*
X036478Y040543D01*
X036504Y040548D01*
X036530Y040550D01*
X037830Y040550D01*
X037809Y040705D02*
X037515Y040705D01*
X037809Y040999D01*
X037809Y041072D01*
X037735Y041145D01*
X037589Y041145D01*
X037515Y041072D01*
X037202Y041145D02*
X037202Y040705D01*
X037348Y040705D02*
X037055Y040705D01*
X036888Y040778D02*
X036815Y040705D01*
X036668Y040705D01*
X036594Y040778D01*
X036594Y041072D01*
X036668Y041145D01*
X036815Y041145D01*
X036888Y041072D01*
X037055Y040999D02*
X037202Y041145D01*
X037830Y040550D02*
X037856Y040548D01*
X037882Y040543D01*
X037907Y040535D01*
X037930Y040523D01*
X037952Y040509D01*
X037971Y040491D01*
X037989Y040472D01*
X038003Y040450D01*
X038015Y040427D01*
X038023Y040402D01*
X038028Y040376D01*
X038030Y040350D01*
X038030Y039850D01*
X038028Y039824D01*
X038023Y039798D01*
X038015Y039773D01*
X038003Y039750D01*
X037989Y039728D01*
X037971Y039709D01*
X037952Y039691D01*
X037930Y039677D01*
X037907Y039665D01*
X037882Y039657D01*
X037856Y039652D01*
X037830Y039650D01*
X036530Y039650D01*
X036504Y039652D01*
X036478Y039657D01*
X036453Y039665D01*
X036430Y039677D01*
X036408Y039691D01*
X036389Y039709D01*
X036371Y039728D01*
X036357Y039750D01*
X036345Y039773D01*
X036337Y039798D01*
X036332Y039824D01*
X036330Y039850D01*
X037060Y037740D02*
X037280Y037520D01*
X037280Y037813D01*
X037500Y037740D02*
X037060Y037740D01*
X037280Y037353D02*
X037280Y037059D01*
X037060Y037279D01*
X037500Y037279D01*
X037500Y036892D02*
X037500Y036599D01*
X037206Y036892D01*
X037133Y036892D01*
X037060Y036819D01*
X037060Y036672D01*
X037133Y036599D01*
X037280Y036432D02*
X037280Y036138D01*
X037060Y036359D01*
X037500Y036359D01*
X037133Y035972D02*
X037427Y035678D01*
X037500Y035678D01*
X037060Y035678D02*
X037060Y035972D01*
X037133Y035972D01*
X042435Y035847D02*
X042508Y035847D01*
X042802Y035553D01*
X042875Y035553D01*
X042435Y035553D02*
X042435Y035847D01*
X042655Y036013D02*
X042435Y036234D01*
X042875Y036234D01*
X042655Y036307D02*
X042655Y036013D01*
X042508Y036474D02*
X042435Y036547D01*
X042435Y036694D01*
X042508Y036767D01*
X042581Y036767D01*
X042875Y036474D01*
X042875Y036767D01*
X042655Y036934D02*
X042435Y037154D01*
X042875Y037154D01*
X042655Y037228D02*
X042655Y036934D01*
X042655Y037395D02*
X042435Y037615D01*
X042875Y037615D01*
X042655Y037688D02*
X042655Y037395D01*
X042830Y039650D02*
X041530Y039650D01*
X041504Y039652D01*
X041478Y039657D01*
X041453Y039665D01*
X041430Y039677D01*
X041408Y039691D01*
X041389Y039709D01*
X041371Y039728D01*
X041357Y039750D01*
X041345Y039773D01*
X041337Y039798D01*
X041332Y039824D01*
X041330Y039850D01*
X041330Y040350D01*
X041332Y040376D01*
X041337Y040402D01*
X041345Y040427D01*
X041357Y040450D01*
X041371Y040472D01*
X041389Y040491D01*
X041408Y040509D01*
X041430Y040523D01*
X041453Y040535D01*
X041478Y040543D01*
X041504Y040548D01*
X041530Y040550D01*
X042830Y040550D01*
X042735Y040705D02*
X042589Y040705D01*
X042515Y040778D01*
X042348Y040705D02*
X042055Y040705D01*
X042202Y040705D02*
X042202Y041145D01*
X042055Y040999D01*
X041888Y041072D02*
X041815Y041145D01*
X041668Y041145D01*
X041594Y041072D01*
X041594Y040778D01*
X041668Y040705D01*
X041815Y040705D01*
X041888Y040778D01*
X042515Y041072D02*
X042589Y041145D01*
X042735Y041145D01*
X042809Y041072D01*
X042809Y040999D01*
X042735Y040925D01*
X042809Y040852D01*
X042809Y040778D01*
X042735Y040705D01*
X042735Y040925D02*
X042662Y040925D01*
X042830Y040550D02*
X042856Y040548D01*
X042882Y040543D01*
X042907Y040535D01*
X042930Y040523D01*
X042952Y040509D01*
X042971Y040491D01*
X042989Y040472D01*
X043003Y040450D01*
X043015Y040427D01*
X043023Y040402D01*
X043028Y040376D01*
X043030Y040350D01*
X043030Y039850D01*
X043028Y039824D01*
X043023Y039798D01*
X043015Y039773D01*
X043003Y039750D01*
X042989Y039728D01*
X042971Y039709D01*
X042952Y039691D01*
X042930Y039677D01*
X042907Y039665D01*
X042882Y039657D01*
X042856Y039652D01*
X042830Y039650D01*
X046330Y039850D02*
X046330Y040350D01*
X046332Y040376D01*
X046337Y040402D01*
X046345Y040427D01*
X046357Y040450D01*
X046371Y040472D01*
X046389Y040491D01*
X046408Y040509D01*
X046430Y040523D01*
X046453Y040535D01*
X046478Y040543D01*
X046504Y040548D01*
X046530Y040550D01*
X047830Y040550D01*
X047735Y040705D02*
X047735Y041145D01*
X047515Y040925D01*
X047809Y040925D01*
X047348Y040705D02*
X047055Y040705D01*
X047202Y040705D02*
X047202Y041145D01*
X047055Y040999D01*
X046888Y041072D02*
X046815Y041145D01*
X046668Y041145D01*
X046594Y041072D01*
X046594Y040778D01*
X046668Y040705D01*
X046815Y040705D01*
X046888Y040778D01*
X047830Y040550D02*
X047856Y040548D01*
X047882Y040543D01*
X047907Y040535D01*
X047930Y040523D01*
X047952Y040509D01*
X047971Y040491D01*
X047989Y040472D01*
X048003Y040450D01*
X048015Y040427D01*
X048023Y040402D01*
X048028Y040376D01*
X048030Y040350D01*
X048030Y039850D01*
X048028Y039824D01*
X048023Y039798D01*
X048015Y039773D01*
X048003Y039750D01*
X047989Y039728D01*
X047971Y039709D01*
X047952Y039691D01*
X047930Y039677D01*
X047907Y039665D01*
X047882Y039657D01*
X047856Y039652D01*
X047830Y039650D01*
X046530Y039650D01*
X046504Y039652D01*
X046478Y039657D01*
X046453Y039665D01*
X046430Y039677D01*
X046408Y039691D01*
X046389Y039709D01*
X046371Y039728D01*
X046357Y039750D01*
X046345Y039773D01*
X046337Y039798D01*
X046332Y039824D01*
X046330Y039850D01*
X047060Y037740D02*
X047280Y037520D01*
X047280Y037813D01*
X047500Y037740D02*
X047060Y037740D01*
X047280Y037353D02*
X047280Y037059D01*
X047060Y037279D01*
X047500Y037279D01*
X047500Y036892D02*
X047500Y036599D01*
X047206Y036892D01*
X047133Y036892D01*
X047060Y036819D01*
X047060Y036672D01*
X047133Y036599D01*
X047280Y036432D02*
X047280Y036138D01*
X047060Y036359D01*
X047500Y036359D01*
X047133Y035972D02*
X047427Y035678D01*
X047500Y035678D01*
X047060Y035678D02*
X047060Y035972D01*
X047133Y035972D01*
X052060Y035972D02*
X052060Y035678D01*
X052060Y035972D02*
X052133Y035972D01*
X052427Y035678D01*
X052500Y035678D01*
X052280Y036138D02*
X052280Y036432D01*
X052133Y036599D02*
X052060Y036672D01*
X052060Y036819D01*
X052133Y036892D01*
X052206Y036892D01*
X052500Y036599D01*
X052500Y036892D01*
X052280Y037059D02*
X052280Y037353D01*
X052280Y037520D02*
X052206Y037666D01*
X052206Y037740D01*
X052280Y037813D01*
X052427Y037813D01*
X052500Y037740D01*
X052500Y037593D01*
X052427Y037520D01*
X052280Y037520D02*
X052060Y037520D01*
X052060Y037813D01*
X052060Y037279D02*
X052280Y037059D01*
X052500Y037279D02*
X052060Y037279D01*
X052060Y036359D02*
X052280Y036138D01*
X052500Y036359D02*
X052060Y036359D01*
X051530Y039650D02*
X052830Y039650D01*
X052856Y039652D01*
X052882Y039657D01*
X052907Y039665D01*
X052930Y039677D01*
X052952Y039691D01*
X052971Y039709D01*
X052989Y039728D01*
X053003Y039750D01*
X053015Y039773D01*
X053023Y039798D01*
X053028Y039824D01*
X053030Y039850D01*
X053030Y040350D01*
X053028Y040376D01*
X053023Y040402D01*
X053015Y040427D01*
X053003Y040450D01*
X052989Y040472D01*
X052971Y040491D01*
X052952Y040509D01*
X052930Y040523D01*
X052907Y040535D01*
X052882Y040543D01*
X052856Y040548D01*
X052830Y040550D01*
X051530Y040550D01*
X051504Y040548D01*
X051478Y040543D01*
X051453Y040535D01*
X051430Y040523D01*
X051408Y040509D01*
X051389Y040491D01*
X051371Y040472D01*
X051357Y040450D01*
X051345Y040427D01*
X051337Y040402D01*
X051332Y040376D01*
X051330Y040350D01*
X051330Y039850D01*
X051332Y039824D01*
X051337Y039798D01*
X051345Y039773D01*
X051357Y039750D01*
X051371Y039728D01*
X051389Y039709D01*
X051408Y039691D01*
X051430Y039677D01*
X051453Y039665D01*
X051478Y039657D01*
X051504Y039652D01*
X051530Y039650D01*
X051668Y040705D02*
X051815Y040705D01*
X051888Y040778D01*
X052055Y040705D02*
X052348Y040705D01*
X052202Y040705D02*
X052202Y041145D01*
X052055Y040999D01*
X051888Y041072D02*
X051815Y041145D01*
X051668Y041145D01*
X051594Y041072D01*
X051594Y040778D01*
X051668Y040705D01*
X052515Y040778D02*
X052589Y040705D01*
X052735Y040705D01*
X052809Y040778D01*
X052809Y040925D01*
X052735Y040999D01*
X052662Y040999D01*
X052515Y040925D01*
X052515Y041145D01*
X052809Y041145D01*
X056330Y040350D02*
X056330Y039850D01*
X056332Y039824D01*
X056337Y039798D01*
X056345Y039773D01*
X056357Y039750D01*
X056371Y039728D01*
X056389Y039709D01*
X056408Y039691D01*
X056430Y039677D01*
X056453Y039665D01*
X056478Y039657D01*
X056504Y039652D01*
X056530Y039650D01*
X057830Y039650D01*
X057856Y039652D01*
X057882Y039657D01*
X057907Y039665D01*
X057930Y039677D01*
X057952Y039691D01*
X057971Y039709D01*
X057989Y039728D01*
X058003Y039750D01*
X058015Y039773D01*
X058023Y039798D01*
X058028Y039824D01*
X058030Y039850D01*
X058030Y040350D01*
X058028Y040376D01*
X058023Y040402D01*
X058015Y040427D01*
X058003Y040450D01*
X057989Y040472D01*
X057971Y040491D01*
X057952Y040509D01*
X057930Y040523D01*
X057907Y040535D01*
X057882Y040543D01*
X057856Y040548D01*
X057830Y040550D01*
X056530Y040550D01*
X056504Y040548D01*
X056478Y040543D01*
X056453Y040535D01*
X056430Y040523D01*
X056408Y040509D01*
X056389Y040491D01*
X056371Y040472D01*
X056357Y040450D01*
X056345Y040427D01*
X056337Y040402D01*
X056332Y040376D01*
X056330Y040350D01*
X056668Y040705D02*
X056815Y040705D01*
X056888Y040778D01*
X057055Y040705D02*
X057348Y040705D01*
X057202Y040705D02*
X057202Y041145D01*
X057055Y040999D01*
X056888Y041072D02*
X056815Y041145D01*
X056668Y041145D01*
X056594Y041072D01*
X056594Y040778D01*
X056668Y040705D01*
X057515Y040778D02*
X057589Y040705D01*
X057735Y040705D01*
X057809Y040778D01*
X057809Y040852D01*
X057735Y040925D01*
X057515Y040925D01*
X057515Y040778D01*
X057515Y040925D02*
X057662Y041072D01*
X057809Y041145D01*
X057280Y037813D02*
X057280Y037520D01*
X057060Y037740D01*
X057500Y037740D01*
X057133Y037353D02*
X057427Y037059D01*
X057500Y037059D01*
X057427Y036892D02*
X057500Y036819D01*
X057500Y036672D01*
X057427Y036599D01*
X057280Y036599D02*
X057206Y036746D01*
X057206Y036819D01*
X057280Y036892D01*
X057427Y036892D01*
X057280Y036599D02*
X057060Y036599D01*
X057060Y036892D01*
X057060Y037059D02*
X057060Y037353D01*
X057133Y037353D01*
X057280Y036432D02*
X057280Y036138D01*
X057060Y036359D01*
X057500Y036359D01*
X057133Y035972D02*
X057427Y035678D01*
X057500Y035678D01*
X057060Y035678D02*
X057060Y035972D01*
X057133Y035972D01*
X066585Y036313D02*
X066585Y036607D01*
X066658Y036607D01*
X066952Y036313D01*
X067025Y036313D01*
X066805Y036774D02*
X066805Y037067D01*
X066952Y037234D02*
X066658Y037528D01*
X066952Y037528D01*
X067025Y037454D01*
X067025Y037308D01*
X066952Y037234D01*
X066658Y037234D01*
X066585Y037308D01*
X066585Y037454D01*
X066658Y037528D01*
X066658Y037695D02*
X066585Y037768D01*
X066585Y037915D01*
X066658Y037988D01*
X066952Y037695D01*
X067025Y037768D01*
X067025Y037915D01*
X066952Y037988D01*
X066658Y037988D01*
X066658Y037695D02*
X066952Y037695D01*
X067025Y036994D02*
X066585Y036994D01*
X066805Y036774D01*
X066530Y039650D02*
X067830Y039650D01*
X067856Y039652D01*
X067882Y039657D01*
X067907Y039665D01*
X067930Y039677D01*
X067952Y039691D01*
X067971Y039709D01*
X067989Y039728D01*
X068003Y039750D01*
X068015Y039773D01*
X068023Y039798D01*
X068028Y039824D01*
X068030Y039850D01*
X068030Y040350D01*
X068028Y040376D01*
X068023Y040402D01*
X068015Y040427D01*
X068003Y040450D01*
X067989Y040472D01*
X067971Y040491D01*
X067952Y040509D01*
X067930Y040523D01*
X067907Y040535D01*
X067882Y040543D01*
X067856Y040548D01*
X067830Y040550D01*
X066530Y040550D01*
X066504Y040548D01*
X066478Y040543D01*
X066453Y040535D01*
X066430Y040523D01*
X066408Y040509D01*
X066389Y040491D01*
X066371Y040472D01*
X066357Y040450D01*
X066345Y040427D01*
X066337Y040402D01*
X066332Y040376D01*
X066330Y040350D01*
X066330Y039850D01*
X066332Y039824D01*
X066337Y039798D01*
X066345Y039773D01*
X066357Y039750D01*
X066371Y039728D01*
X066389Y039709D01*
X066408Y039691D01*
X066430Y039677D01*
X066453Y039665D01*
X066478Y039657D01*
X066504Y039652D01*
X066530Y039650D01*
X066668Y040705D02*
X066815Y040705D01*
X066888Y040778D01*
X067055Y040705D02*
X067348Y040705D01*
X067202Y040705D02*
X067202Y041145D01*
X067055Y040999D01*
X066888Y041072D02*
X066815Y041145D01*
X066668Y041145D01*
X066594Y041072D01*
X066594Y040778D01*
X066668Y040705D01*
X067515Y040705D02*
X067515Y040778D01*
X067809Y041072D01*
X067809Y041145D01*
X067515Y041145D01*
X071330Y040350D02*
X071330Y039850D01*
X071332Y039824D01*
X071337Y039798D01*
X071345Y039773D01*
X071357Y039750D01*
X071371Y039728D01*
X071389Y039709D01*
X071408Y039691D01*
X071430Y039677D01*
X071453Y039665D01*
X071478Y039657D01*
X071504Y039652D01*
X071530Y039650D01*
X072830Y039650D01*
X072856Y039652D01*
X072882Y039657D01*
X072907Y039665D01*
X072930Y039677D01*
X072952Y039691D01*
X072971Y039709D01*
X072989Y039728D01*
X073003Y039750D01*
X073015Y039773D01*
X073023Y039798D01*
X073028Y039824D01*
X073030Y039850D01*
X073030Y040350D01*
X073028Y040376D01*
X073023Y040402D01*
X073015Y040427D01*
X073003Y040450D01*
X072989Y040472D01*
X072971Y040491D01*
X072952Y040509D01*
X072930Y040523D01*
X072907Y040535D01*
X072882Y040543D01*
X072856Y040548D01*
X072830Y040550D01*
X071530Y040550D01*
X071504Y040548D01*
X071478Y040543D01*
X071453Y040535D01*
X071430Y040523D01*
X071408Y040509D01*
X071389Y040491D01*
X071371Y040472D01*
X071357Y040450D01*
X071345Y040427D01*
X071337Y040402D01*
X071332Y040376D01*
X071330Y040350D01*
X071668Y040705D02*
X071815Y040705D01*
X071888Y040778D01*
X072055Y040705D02*
X072348Y040705D01*
X072202Y040705D02*
X072202Y041145D01*
X072055Y040999D01*
X071888Y041072D02*
X071815Y041145D01*
X071668Y041145D01*
X071594Y041072D01*
X071594Y040778D01*
X071668Y040705D01*
X072515Y040778D02*
X072515Y040852D01*
X072589Y040925D01*
X072735Y040925D01*
X072809Y040852D01*
X072809Y040778D01*
X072735Y040705D01*
X072589Y040705D01*
X072515Y040778D01*
X072589Y040925D02*
X072515Y040999D01*
X072515Y041072D01*
X072589Y041145D01*
X072735Y041145D01*
X072809Y041072D01*
X072809Y040999D01*
X072735Y040925D01*
X073685Y040413D02*
X073758Y040413D01*
X074052Y040120D01*
X074125Y040120D01*
X074230Y040100D02*
X074280Y040050D01*
X074280Y038150D01*
X074230Y038100D01*
X074230Y037950D01*
X074232Y037933D01*
X074236Y037916D01*
X074243Y037900D01*
X074253Y037886D01*
X074266Y037873D01*
X074280Y037863D01*
X074296Y037856D01*
X074313Y037852D01*
X074330Y037850D01*
X075030Y037850D01*
X075047Y037852D01*
X075064Y037856D01*
X075080Y037863D01*
X075094Y037873D01*
X075107Y037886D01*
X075117Y037900D01*
X075124Y037916D01*
X075128Y037933D01*
X075130Y037950D01*
X075130Y038100D01*
X075080Y038150D01*
X075080Y040050D01*
X075130Y040100D01*
X075130Y040250D01*
X075128Y040267D01*
X075124Y040284D01*
X075117Y040300D01*
X075107Y040314D01*
X075094Y040327D01*
X075080Y040337D01*
X075064Y040344D01*
X075047Y040348D01*
X075030Y040350D01*
X074330Y040350D01*
X074313Y040348D01*
X074296Y040344D01*
X074280Y040337D01*
X074266Y040327D01*
X074253Y040314D01*
X074243Y040300D01*
X074236Y040284D01*
X074232Y040267D01*
X074230Y040250D01*
X074230Y040100D01*
X074125Y039953D02*
X073978Y039806D01*
X073978Y039879D02*
X073978Y039659D01*
X074125Y039659D02*
X073685Y039659D01*
X073685Y039879D01*
X073758Y039953D01*
X073905Y039953D01*
X073978Y039879D01*
X073685Y040120D02*
X073685Y040413D01*
X074533Y039454D02*
X074827Y039161D01*
X074900Y039234D01*
X074900Y039381D01*
X074827Y039454D01*
X074533Y039454D01*
X074460Y039381D01*
X074460Y039234D01*
X074533Y039161D01*
X074827Y039161D01*
X074533Y038994D02*
X074827Y038700D01*
X074900Y038700D01*
X074900Y038460D02*
X074460Y038460D01*
X074680Y038240D01*
X074680Y038534D01*
X074460Y038700D02*
X074460Y038994D01*
X074533Y038994D01*
X075760Y038997D02*
X075906Y038850D01*
X075833Y038683D02*
X075760Y038610D01*
X075760Y038463D01*
X075833Y038389D01*
X076127Y038389D01*
X076200Y038463D01*
X076200Y038610D01*
X076127Y038683D01*
X076200Y038850D02*
X076200Y039143D01*
X076200Y038997D02*
X075760Y038997D01*
X075833Y039310D02*
X075906Y039310D01*
X075980Y039384D01*
X075980Y039604D01*
X076127Y039604D02*
X075833Y039604D01*
X075760Y039530D01*
X075760Y039384D01*
X075833Y039310D01*
X076127Y039310D02*
X076200Y039384D01*
X076200Y039530D01*
X076127Y039604D01*
X076330Y039350D02*
X076330Y038850D01*
X076332Y038824D01*
X076337Y038798D01*
X076345Y038773D01*
X076357Y038750D01*
X076371Y038728D01*
X076389Y038709D01*
X076408Y038691D01*
X076430Y038677D01*
X076453Y038665D01*
X076478Y038657D01*
X076504Y038652D01*
X076530Y038650D01*
X077830Y038650D01*
X077856Y038652D01*
X077882Y038657D01*
X077907Y038665D01*
X077930Y038677D01*
X077952Y038691D01*
X077971Y038709D01*
X077989Y038728D01*
X078003Y038750D01*
X078015Y038773D01*
X078023Y038798D01*
X078028Y038824D01*
X078030Y038850D01*
X078030Y039350D01*
X078028Y039376D01*
X078023Y039402D01*
X078015Y039427D01*
X078003Y039450D01*
X077989Y039472D01*
X077971Y039491D01*
X077952Y039509D01*
X077930Y039523D01*
X077907Y039535D01*
X077882Y039543D01*
X077856Y039548D01*
X077830Y039550D01*
X076530Y039550D01*
X076504Y039548D01*
X076478Y039543D01*
X076453Y039535D01*
X076430Y039523D01*
X076408Y039509D01*
X076389Y039491D01*
X076371Y039472D01*
X076357Y039450D01*
X076345Y039427D01*
X076337Y039402D01*
X076332Y039376D01*
X076330Y039350D01*
X072775Y038040D02*
X072775Y037893D01*
X072702Y037820D01*
X072628Y037820D01*
X072555Y037893D01*
X072555Y038040D01*
X072628Y038113D01*
X072702Y038113D01*
X072775Y038040D01*
X072555Y038040D02*
X072481Y038113D01*
X072408Y038113D01*
X072335Y038040D01*
X072335Y037893D01*
X072408Y037820D01*
X072481Y037820D01*
X072555Y037893D01*
X072702Y037653D02*
X072775Y037579D01*
X072775Y037433D01*
X072702Y037359D01*
X072408Y037653D01*
X072702Y037653D01*
X072702Y037359D02*
X072408Y037359D01*
X072335Y037433D01*
X072335Y037579D01*
X072408Y037653D01*
X072555Y037192D02*
X072555Y036899D01*
X072335Y037119D01*
X072775Y037119D01*
X072408Y036732D02*
X072702Y036438D01*
X072775Y036438D01*
X072335Y036438D02*
X072335Y036732D01*
X072408Y036732D01*
X076960Y036579D02*
X077033Y036653D01*
X077327Y036359D01*
X077400Y036433D01*
X077400Y036579D01*
X077327Y036653D01*
X077033Y036653D01*
X076960Y036579D02*
X076960Y036433D01*
X077033Y036359D01*
X077327Y036359D01*
X077180Y036192D02*
X077180Y035899D01*
X076960Y036119D01*
X077400Y036119D01*
X077033Y035732D02*
X077327Y035438D01*
X077400Y035438D01*
X076960Y035438D02*
X076960Y035732D01*
X077033Y035732D01*
X077180Y036820D02*
X076960Y037040D01*
X077400Y037040D01*
X077180Y037113D02*
X077180Y036820D01*
X030750Y020180D02*
X030677Y020180D01*
X030383Y020474D01*
X030310Y020474D01*
X030310Y020180D01*
X030310Y020013D02*
X030677Y020013D01*
X030750Y019940D01*
X030750Y019793D01*
X030677Y019720D01*
X030310Y019720D01*
X030180Y015750D02*
X030180Y013450D01*
X020180Y013450D01*
X020180Y014200D01*
X020219Y014202D01*
X020258Y014208D01*
X020296Y014217D01*
X020333Y014230D01*
X020369Y014247D01*
X020402Y014267D01*
X020434Y014291D01*
X020463Y014317D01*
X020489Y014346D01*
X020513Y014378D01*
X020533Y014411D01*
X020550Y014447D01*
X020563Y014484D01*
X020572Y014522D01*
X020578Y014561D01*
X020580Y014600D01*
X020578Y014639D01*
X020572Y014678D01*
X020563Y014716D01*
X020550Y014753D01*
X020533Y014789D01*
X020513Y014822D01*
X020489Y014854D01*
X020463Y014883D01*
X020434Y014909D01*
X020402Y014933D01*
X020369Y014953D01*
X020333Y014970D01*
X020296Y014983D01*
X020258Y014992D01*
X020219Y014998D01*
X020180Y015000D01*
X020180Y015750D01*
X030180Y015750D01*
X030310Y014974D02*
X030383Y014827D01*
X030530Y014680D01*
X030530Y014900D01*
X030603Y014974D01*
X030677Y014974D01*
X030750Y014900D01*
X030750Y014753D01*
X030677Y014680D01*
X030530Y014680D01*
X030677Y014513D02*
X030310Y014513D01*
X030310Y014220D02*
X030677Y014220D01*
X030750Y014293D01*
X030750Y014440D01*
X030677Y014513D01*
X028180Y010250D02*
X028180Y007950D01*
X020180Y007950D01*
X020180Y008700D01*
X020219Y008702D01*
X020258Y008708D01*
X020296Y008717D01*
X020333Y008730D01*
X020369Y008747D01*
X020402Y008767D01*
X020434Y008791D01*
X020463Y008817D01*
X020489Y008846D01*
X020513Y008878D01*
X020533Y008911D01*
X020550Y008947D01*
X020563Y008984D01*
X020572Y009022D01*
X020578Y009061D01*
X020580Y009100D01*
X020578Y009139D01*
X020572Y009178D01*
X020563Y009216D01*
X020550Y009253D01*
X020533Y009289D01*
X020513Y009322D01*
X020489Y009354D01*
X020463Y009383D01*
X020434Y009409D01*
X020402Y009433D01*
X020369Y009453D01*
X020333Y009470D01*
X020296Y009483D01*
X020258Y009492D01*
X020219Y009498D01*
X020180Y009500D01*
X020180Y010250D01*
X028180Y010250D01*
X028310Y009524D02*
X028310Y009230D01*
X028530Y009230D01*
X028456Y009377D01*
X028456Y009450D01*
X028530Y009524D01*
X028677Y009524D01*
X028750Y009450D01*
X028750Y009303D01*
X028677Y009230D01*
X028677Y009063D02*
X028310Y009063D01*
X028310Y008770D02*
X028677Y008770D01*
X028750Y008843D01*
X028750Y008990D01*
X028677Y009063D01*
X023395Y009247D02*
X023102Y008953D01*
X023102Y008880D01*
X022935Y008953D02*
X022861Y008880D01*
X022715Y008880D01*
X022641Y008953D01*
X022641Y009100D02*
X022788Y009174D01*
X022861Y009174D01*
X022935Y009100D01*
X022935Y008953D01*
X022641Y009100D02*
X022641Y009320D01*
X022935Y009320D01*
X023102Y009320D02*
X023395Y009320D01*
X023395Y009247D01*
X022474Y009247D02*
X022401Y009320D01*
X022254Y009320D01*
X022181Y009247D01*
X022014Y009100D02*
X021720Y009100D01*
X021941Y009320D01*
X021941Y008880D01*
X022181Y008880D02*
X022474Y009174D01*
X022474Y009247D01*
X022474Y008880D02*
X022181Y008880D01*
X021554Y009247D02*
X021260Y008953D01*
X021260Y008880D01*
X021260Y009320D02*
X021554Y009320D01*
X021554Y009247D01*
X019630Y009750D02*
X019630Y008450D01*
X019628Y008424D01*
X019623Y008398D01*
X019615Y008373D01*
X019603Y008350D01*
X019589Y008328D01*
X019571Y008309D01*
X019552Y008291D01*
X019530Y008277D01*
X019507Y008265D01*
X019482Y008257D01*
X019456Y008252D01*
X019430Y008250D01*
X018930Y008250D01*
X018904Y008252D01*
X018878Y008257D01*
X018853Y008265D01*
X018830Y008277D01*
X018808Y008291D01*
X018789Y008309D01*
X018771Y008328D01*
X018757Y008350D01*
X018745Y008373D01*
X018737Y008398D01*
X018732Y008424D01*
X018730Y008450D01*
X018730Y009750D01*
X018732Y009776D01*
X018737Y009802D01*
X018745Y009827D01*
X018757Y009850D01*
X018771Y009872D01*
X018789Y009891D01*
X018808Y009909D01*
X018830Y009923D01*
X018853Y009935D01*
X018878Y009943D01*
X018904Y009948D01*
X018930Y009950D01*
X019430Y009950D01*
X019456Y009948D01*
X019482Y009943D01*
X019507Y009935D01*
X019530Y009923D01*
X019552Y009909D01*
X019571Y009891D01*
X019589Y009872D01*
X019603Y009850D01*
X019615Y009827D01*
X019623Y009802D01*
X019628Y009776D01*
X019630Y009750D01*
X018575Y009425D02*
X018575Y009278D01*
X018502Y009205D01*
X018355Y009205D02*
X018281Y009352D01*
X018281Y009425D01*
X018355Y009499D01*
X018502Y009499D01*
X018575Y009425D01*
X018355Y009205D02*
X018135Y009205D01*
X018135Y009499D01*
X018208Y009038D02*
X018135Y008965D01*
X018135Y008818D01*
X018208Y008745D01*
X018502Y008745D01*
X018575Y008818D01*
X018575Y008965D01*
X018502Y009038D01*
X019623Y011160D02*
X019696Y011160D01*
X019770Y011233D01*
X019770Y011600D01*
X019843Y011600D02*
X019696Y011600D01*
X020010Y011600D02*
X020230Y011600D01*
X020303Y011527D01*
X020303Y011380D01*
X020230Y011307D01*
X020010Y011307D01*
X020010Y011160D02*
X020010Y011600D01*
X020470Y011380D02*
X020764Y011380D01*
X020690Y011160D02*
X020690Y011600D01*
X020470Y011380D01*
X019623Y011160D02*
X019549Y011233D01*
X017930Y011875D02*
X017930Y012575D01*
X017928Y012592D01*
X017924Y012609D01*
X017917Y012625D01*
X017907Y012639D01*
X017894Y012652D01*
X017880Y012662D01*
X017864Y012669D01*
X017847Y012673D01*
X017830Y012675D01*
X017680Y012675D01*
X017630Y012625D01*
X015730Y012625D01*
X015680Y012675D01*
X015530Y012675D01*
X015513Y012673D01*
X015496Y012669D01*
X015480Y012662D01*
X015466Y012652D01*
X015453Y012639D01*
X015443Y012625D01*
X015436Y012609D01*
X015432Y012592D01*
X015430Y012575D01*
X015430Y011875D01*
X015432Y011858D01*
X015436Y011841D01*
X015443Y011825D01*
X015453Y011811D01*
X015466Y011798D01*
X015480Y011788D01*
X015496Y011781D01*
X015513Y011777D01*
X015530Y011775D01*
X015680Y011775D01*
X015730Y011825D01*
X017630Y011825D01*
X017680Y011775D01*
X017830Y011775D01*
X017847Y011777D01*
X017864Y011781D01*
X017880Y011788D01*
X017894Y011798D01*
X017907Y011811D01*
X017917Y011825D01*
X017924Y011841D01*
X017928Y011858D01*
X017930Y011875D01*
X017437Y012005D02*
X017216Y012152D01*
X017437Y012299D01*
X017216Y012445D02*
X017216Y012005D01*
X017050Y012078D02*
X016976Y012005D01*
X016829Y012005D01*
X016756Y012078D01*
X017050Y012372D01*
X017050Y012078D01*
X017050Y012372D02*
X016976Y012445D01*
X016829Y012445D01*
X016756Y012372D01*
X016756Y012078D01*
X016589Y012005D02*
X016296Y012005D01*
X016442Y012005D02*
X016442Y012445D01*
X016296Y012299D01*
X016614Y011595D02*
X016834Y011595D01*
X016908Y011522D01*
X016908Y011375D01*
X016834Y011302D01*
X016614Y011302D01*
X016614Y011155D02*
X016614Y011595D01*
X016761Y011302D02*
X016908Y011155D01*
X017075Y011375D02*
X017368Y011375D01*
X017295Y011155D02*
X017295Y011595D01*
X017075Y011375D01*
X015250Y009555D02*
X015177Y009629D01*
X014883Y009629D01*
X014810Y009555D01*
X014810Y009409D01*
X014883Y009335D01*
X014956Y009335D01*
X015030Y009409D01*
X015030Y009629D01*
X015250Y009555D02*
X015250Y009409D01*
X015177Y009335D01*
X015250Y009168D02*
X015250Y008875D01*
X014956Y009168D01*
X014883Y009168D01*
X014810Y009095D01*
X014810Y008948D01*
X014883Y008875D01*
X014810Y008708D02*
X015177Y008708D01*
X015250Y008635D01*
X015250Y008488D01*
X015177Y008414D01*
X014810Y008414D01*
X014177Y013489D02*
X014250Y013563D01*
X014250Y013710D01*
X014177Y013783D01*
X013810Y013783D01*
X013883Y013950D02*
X013810Y014023D01*
X013810Y014170D01*
X013883Y014243D01*
X013956Y014243D01*
X014030Y014170D01*
X014103Y014243D01*
X014177Y014243D01*
X014250Y014170D01*
X014250Y014023D01*
X014177Y013950D01*
X014030Y014097D02*
X014030Y014170D01*
X014177Y014410D02*
X013883Y014704D01*
X014177Y014704D01*
X014250Y014630D01*
X014250Y014484D01*
X014177Y014410D01*
X013883Y014410D01*
X013810Y014484D01*
X013810Y014630D01*
X013883Y014704D01*
X013810Y013489D02*
X014177Y013489D01*
X015960Y014086D02*
X015960Y014233D01*
X015960Y014160D02*
X016327Y014160D01*
X016400Y014086D01*
X016400Y014013D01*
X016327Y013939D01*
X016400Y014400D02*
X015960Y014400D01*
X015960Y014620D01*
X016033Y014693D01*
X016180Y014693D01*
X016253Y014620D01*
X016253Y014400D01*
X016400Y014860D02*
X016106Y015154D01*
X016033Y015154D01*
X015960Y015080D01*
X015960Y014934D01*
X016033Y014860D01*
X016400Y014860D02*
X016400Y015154D01*
X018135Y014999D02*
X018208Y014852D01*
X018355Y014705D01*
X018355Y014925D01*
X018428Y014999D01*
X018502Y014999D01*
X018575Y014925D01*
X018575Y014778D01*
X018502Y014705D01*
X018355Y014705D01*
X018502Y014538D02*
X018575Y014465D01*
X018575Y014318D01*
X018502Y014245D01*
X018208Y014245D01*
X018135Y014318D01*
X018135Y014465D01*
X018208Y014538D01*
X018730Y013950D02*
X018730Y015250D01*
X018732Y015276D01*
X018737Y015302D01*
X018745Y015327D01*
X018757Y015350D01*
X018771Y015372D01*
X018789Y015391D01*
X018808Y015409D01*
X018830Y015423D01*
X018853Y015435D01*
X018878Y015443D01*
X018904Y015448D01*
X018930Y015450D01*
X019430Y015450D01*
X019456Y015448D01*
X019482Y015443D01*
X019507Y015435D01*
X019530Y015423D01*
X019552Y015409D01*
X019571Y015391D01*
X019589Y015372D01*
X019603Y015350D01*
X019615Y015327D01*
X019623Y015302D01*
X019628Y015276D01*
X019630Y015250D01*
X019630Y013950D01*
X019628Y013924D01*
X019623Y013898D01*
X019615Y013873D01*
X019603Y013850D01*
X019589Y013828D01*
X019571Y013809D01*
X019552Y013791D01*
X019530Y013777D01*
X019507Y013765D01*
X019482Y013757D01*
X019456Y013752D01*
X019430Y013750D01*
X018930Y013750D01*
X018904Y013752D01*
X018878Y013757D01*
X018853Y013765D01*
X018830Y013777D01*
X018808Y013791D01*
X018789Y013809D01*
X018771Y013828D01*
X018757Y013850D01*
X018745Y013873D01*
X018737Y013898D01*
X018732Y013924D01*
X018730Y013950D01*
X020860Y014480D02*
X020860Y014553D01*
X021154Y014847D01*
X021154Y014920D01*
X020860Y014920D01*
X021320Y014700D02*
X021614Y014700D01*
X021781Y014700D02*
X021928Y014847D01*
X022074Y014920D01*
X022241Y014847D02*
X022241Y014774D01*
X022315Y014700D01*
X022461Y014700D01*
X022535Y014627D01*
X022535Y014553D01*
X022461Y014480D01*
X022315Y014480D01*
X022241Y014553D01*
X022241Y014627D01*
X022315Y014700D01*
X022461Y014700D02*
X022535Y014774D01*
X022535Y014847D01*
X022461Y014920D01*
X022315Y014920D01*
X022241Y014847D01*
X022074Y014627D02*
X022001Y014700D01*
X021781Y014700D01*
X021781Y014553D01*
X021854Y014480D01*
X022001Y014480D01*
X022074Y014553D01*
X022074Y014627D01*
X021541Y014480D02*
X021541Y014920D01*
X021320Y014700D01*
X022702Y014627D02*
X022775Y014700D01*
X022922Y014700D01*
X022995Y014627D01*
X022995Y014553D01*
X022922Y014480D01*
X022775Y014480D01*
X022702Y014553D01*
X022702Y014627D01*
X022775Y014700D02*
X022702Y014774D01*
X022702Y014847D01*
X022775Y014920D01*
X022922Y014920D01*
X022995Y014847D01*
X022995Y014774D01*
X022922Y014700D01*
X035060Y008827D02*
X035060Y008533D01*
X035133Y008460D01*
X035280Y008460D01*
X035354Y008533D01*
X035520Y008533D02*
X035594Y008460D01*
X035741Y008460D01*
X035814Y008533D01*
X035814Y008607D01*
X035741Y008680D01*
X035667Y008680D01*
X035741Y008680D02*
X035814Y008754D01*
X035814Y008827D01*
X035741Y008900D01*
X035594Y008900D01*
X035520Y008827D01*
X035354Y008827D02*
X035280Y008900D01*
X035133Y008900D01*
X035060Y008827D01*
X035981Y008827D02*
X036054Y008900D01*
X036201Y008900D01*
X036274Y008827D01*
X036274Y008754D01*
X036201Y008680D01*
X036274Y008607D01*
X036274Y008533D01*
X036201Y008460D01*
X036054Y008460D01*
X035981Y008533D01*
X036128Y008680D02*
X036201Y008680D01*
X034330Y006725D02*
X034030Y006725D01*
X034180Y006875D02*
X034180Y006575D01*
X033680Y006225D02*
X033682Y006323D01*
X033690Y006421D01*
X033702Y006518D01*
X033718Y006615D01*
X033740Y006711D01*
X033766Y006806D01*
X033797Y006899D01*
X033832Y006990D01*
X033872Y007080D01*
X033916Y007168D01*
X033965Y007253D01*
X034017Y007336D01*
X034074Y007416D01*
X034134Y007494D01*
X034198Y007568D01*
X034266Y007639D01*
X034337Y007707D01*
X034411Y007771D01*
X034489Y007831D01*
X034569Y007888D01*
X034652Y007940D01*
X034737Y007989D01*
X034825Y008033D01*
X034915Y008073D01*
X035006Y008108D01*
X035099Y008139D01*
X035194Y008165D01*
X035290Y008187D01*
X035387Y008203D01*
X035484Y008215D01*
X035582Y008223D01*
X035680Y008225D01*
X035778Y008223D01*
X035876Y008215D01*
X035973Y008203D01*
X036070Y008187D01*
X036166Y008165D01*
X036261Y008139D01*
X036354Y008108D01*
X036445Y008073D01*
X036535Y008033D01*
X036623Y007989D01*
X036708Y007940D01*
X036791Y007888D01*
X036871Y007831D01*
X036949Y007771D01*
X037023Y007707D01*
X037094Y007639D01*
X037162Y007568D01*
X037226Y007494D01*
X037286Y007416D01*
X037343Y007336D01*
X037395Y007253D01*
X037444Y007168D01*
X037488Y007080D01*
X037528Y006990D01*
X037563Y006899D01*
X037594Y006806D01*
X037620Y006711D01*
X037642Y006615D01*
X037658Y006518D01*
X037670Y006421D01*
X037678Y006323D01*
X037680Y006225D01*
X037678Y006127D01*
X037670Y006029D01*
X037658Y005932D01*
X037642Y005835D01*
X037620Y005739D01*
X037594Y005644D01*
X037563Y005551D01*
X037528Y005460D01*
X037488Y005370D01*
X037444Y005282D01*
X037395Y005197D01*
X037343Y005114D01*
X037286Y005034D01*
X037226Y004956D01*
X037162Y004882D01*
X037094Y004811D01*
X037023Y004743D01*
X036949Y004679D01*
X036871Y004619D01*
X036791Y004562D01*
X036708Y004510D01*
X036623Y004461D01*
X036535Y004417D01*
X036445Y004377D01*
X036354Y004342D01*
X036261Y004311D01*
X036166Y004285D01*
X036070Y004263D01*
X035973Y004247D01*
X035876Y004235D01*
X035778Y004227D01*
X035680Y004225D01*
X035582Y004227D01*
X035484Y004235D01*
X035387Y004247D01*
X035290Y004263D01*
X035194Y004285D01*
X035099Y004311D01*
X035006Y004342D01*
X034915Y004377D01*
X034825Y004417D01*
X034737Y004461D01*
X034652Y004510D01*
X034569Y004562D01*
X034489Y004619D01*
X034411Y004679D01*
X034337Y004743D01*
X034266Y004811D01*
X034198Y004882D01*
X034134Y004956D01*
X034074Y005034D01*
X034017Y005114D01*
X033965Y005197D01*
X033916Y005282D01*
X033872Y005370D01*
X033832Y005460D01*
X033797Y005551D01*
X033766Y005644D01*
X033740Y005739D01*
X033718Y005835D01*
X033702Y005932D01*
X033690Y006029D01*
X033682Y006127D01*
X033680Y006225D01*
X034480Y005205D02*
X034774Y005205D01*
X034940Y005058D02*
X035234Y005352D01*
X035234Y005425D01*
X034940Y005425D01*
X034700Y005425D02*
X034480Y005205D01*
X034700Y004985D02*
X034700Y005425D01*
X034940Y005058D02*
X034940Y004985D01*
X035401Y005058D02*
X035694Y005352D01*
X035694Y005058D01*
X035621Y004985D01*
X035474Y004985D01*
X035401Y005058D01*
X035401Y005352D01*
X035474Y005425D01*
X035621Y005425D01*
X035694Y005352D01*
X035861Y005279D02*
X035861Y005058D01*
X035935Y004985D01*
X036155Y004985D01*
X036155Y005279D01*
X036322Y005205D02*
X036468Y005205D01*
X036322Y004985D02*
X036322Y005425D01*
X036615Y005425D01*
X009235Y014600D02*
X008941Y014600D01*
X009161Y014820D01*
X009161Y014380D01*
X008774Y014747D02*
X008481Y014453D01*
X008481Y014380D01*
X008241Y014380D02*
X008241Y014820D01*
X008020Y014600D01*
X008314Y014600D01*
X008481Y014820D02*
X008774Y014820D01*
X008774Y014747D01*
X007854Y014747D02*
X007560Y014453D01*
X007560Y014380D01*
X007560Y014820D02*
X007854Y014820D01*
X007854Y014747D01*
X002900Y021057D02*
X002827Y021057D01*
X002533Y021351D01*
X002460Y021351D01*
X002460Y021057D01*
X002680Y021518D02*
X002680Y021811D01*
X002900Y021738D02*
X002460Y021738D01*
X002680Y021518D01*
X002900Y021978D02*
X002900Y022272D01*
X002827Y022438D02*
X002900Y022512D01*
X002900Y022659D01*
X002827Y022732D01*
X002753Y022732D01*
X002680Y022659D01*
X002680Y022512D01*
X002606Y022438D01*
X002533Y022438D01*
X002460Y022512D01*
X002460Y022659D01*
X002533Y022732D01*
X002606Y022899D02*
X002460Y023046D01*
X002900Y023046D01*
X002900Y023192D02*
X002900Y022899D01*
X002680Y023359D02*
X002680Y023653D01*
X002900Y023579D02*
X002460Y023579D01*
X002680Y023359D01*
X002900Y023820D02*
X002460Y023820D01*
X002900Y024113D01*
X002460Y024113D01*
X002460Y021978D02*
X002900Y021978D01*
X020180Y035450D02*
X020180Y036200D01*
X020219Y036202D01*
X020258Y036208D01*
X020296Y036217D01*
X020333Y036230D01*
X020369Y036247D01*
X020402Y036267D01*
X020434Y036291D01*
X020463Y036317D01*
X020489Y036346D01*
X020513Y036378D01*
X020533Y036411D01*
X020550Y036447D01*
X020563Y036484D01*
X020572Y036522D01*
X020578Y036561D01*
X020580Y036600D01*
X020578Y036639D01*
X020572Y036678D01*
X020563Y036716D01*
X020550Y036753D01*
X020533Y036789D01*
X020513Y036822D01*
X020489Y036854D01*
X020463Y036883D01*
X020434Y036909D01*
X020402Y036933D01*
X020369Y036953D01*
X020333Y036970D01*
X020296Y036983D01*
X020258Y036992D01*
X020219Y036998D01*
X020180Y037000D01*
X020180Y037750D01*
X027180Y037750D01*
X027180Y035450D01*
X020180Y035450D01*
X019430Y035750D02*
X018930Y035750D01*
X018904Y035752D01*
X018878Y035757D01*
X018853Y035765D01*
X018830Y035777D01*
X018808Y035791D01*
X018789Y035809D01*
X018771Y035828D01*
X018757Y035850D01*
X018745Y035873D01*
X018737Y035898D01*
X018732Y035924D01*
X018730Y035950D01*
X018730Y037250D01*
X018575Y037155D02*
X018502Y037229D01*
X018208Y037229D01*
X018502Y036935D01*
X018575Y037009D01*
X018575Y037155D01*
X018502Y036935D02*
X018208Y036935D01*
X018135Y037009D01*
X018135Y037155D01*
X018208Y037229D01*
X018730Y037250D02*
X018732Y037276D01*
X018737Y037302D01*
X018745Y037327D01*
X018757Y037350D01*
X018771Y037372D01*
X018789Y037391D01*
X018808Y037409D01*
X018830Y037423D01*
X018853Y037435D01*
X018878Y037443D01*
X018904Y037448D01*
X018930Y037450D01*
X019430Y037450D01*
X019456Y037448D01*
X019482Y037443D01*
X019507Y037435D01*
X019530Y037423D01*
X019552Y037409D01*
X019571Y037391D01*
X019589Y037372D01*
X019603Y037350D01*
X019615Y037327D01*
X019623Y037302D01*
X019628Y037276D01*
X019630Y037250D01*
X019630Y035950D01*
X019628Y035924D01*
X019623Y035898D01*
X019615Y035873D01*
X019603Y035850D01*
X019589Y035828D01*
X019571Y035809D01*
X019552Y035791D01*
X019530Y035777D01*
X019507Y035765D01*
X019482Y035757D01*
X019456Y035752D01*
X019430Y035750D01*
X018575Y036088D02*
X018575Y036235D01*
X018502Y036308D01*
X018575Y036475D02*
X018575Y036768D01*
X018575Y036622D02*
X018135Y036622D01*
X018281Y036475D01*
X018208Y036308D02*
X018135Y036235D01*
X018135Y036088D01*
X018208Y036014D01*
X018502Y036014D01*
X018575Y036088D01*
X021560Y036380D02*
X021560Y036453D01*
X021854Y036747D01*
X021854Y036820D01*
X021560Y036820D01*
X022020Y036600D02*
X022314Y036600D01*
X022481Y036453D02*
X022481Y036380D01*
X022481Y036453D02*
X022774Y036747D01*
X022774Y036820D01*
X022481Y036820D01*
X022241Y036820D02*
X022020Y036600D01*
X022241Y036380D02*
X022241Y036820D01*
X022941Y036600D02*
X023235Y036600D01*
X023161Y036380D02*
X023161Y036820D01*
X022941Y036600D01*
X027310Y036597D02*
X027750Y036597D01*
X027750Y036743D02*
X027750Y036450D01*
X027677Y036283D02*
X027310Y036283D01*
X027456Y036450D02*
X027310Y036597D01*
X027383Y036910D02*
X027310Y036984D01*
X027310Y037130D01*
X027383Y037204D01*
X027677Y036910D01*
X027750Y036984D01*
X027750Y037130D01*
X027677Y037204D01*
X027383Y037204D01*
X027383Y036910D02*
X027677Y036910D01*
X027677Y036283D02*
X027750Y036210D01*
X027750Y036063D01*
X027677Y035989D01*
X027310Y035989D01*
D13*
X033580Y025450D02*
X037780Y025450D01*
X037824Y025448D01*
X037867Y025442D01*
X037909Y025433D01*
X037951Y025420D01*
X037991Y025403D01*
X038030Y025383D01*
X038067Y025360D01*
X038101Y025333D01*
X038134Y025304D01*
X038163Y025271D01*
X038190Y025237D01*
X038213Y025200D01*
X038233Y025161D01*
X038250Y025121D01*
X038263Y025079D01*
X038272Y025037D01*
X038278Y024994D01*
X038280Y024950D01*
X038280Y020750D01*
X038278Y020706D01*
X038272Y020663D01*
X038263Y020621D01*
X038250Y020579D01*
X038233Y020539D01*
X038213Y020500D01*
X038190Y020463D01*
X038163Y020429D01*
X038134Y020396D01*
X038101Y020367D01*
X038067Y020340D01*
X038030Y020317D01*
X037991Y020297D01*
X037951Y020280D01*
X037909Y020267D01*
X037867Y020258D01*
X037824Y020252D01*
X037780Y020250D01*
X033080Y020250D01*
X033080Y024950D01*
X033082Y024994D01*
X033088Y025037D01*
X033097Y025079D01*
X033110Y025121D01*
X033127Y025161D01*
X033147Y025200D01*
X033170Y025237D01*
X033197Y025271D01*
X033226Y025304D01*
X033259Y025333D01*
X033293Y025360D01*
X033330Y025383D01*
X033369Y025403D01*
X033409Y025420D01*
X033451Y025433D01*
X033493Y025442D01*
X033536Y025448D01*
X033580Y025450D01*
X003930Y037600D02*
X003984Y037557D01*
X004036Y037511D01*
X004085Y037462D01*
X004132Y037410D01*
X004175Y037356D01*
X004216Y037300D01*
X004253Y037241D01*
X004287Y037181D01*
X004317Y037118D01*
X004344Y037055D01*
X004368Y036989D01*
X004388Y036923D01*
X004404Y036855D01*
X004416Y036787D01*
X004424Y036718D01*
X004429Y036649D01*
X004430Y036579D01*
X004427Y036510D01*
X004420Y036441D01*
X004409Y036373D01*
X004395Y036305D01*
X004376Y036238D01*
X004354Y036172D01*
X004329Y036107D01*
X004300Y036044D01*
X004267Y035983D01*
X004231Y035924D01*
X004192Y035867D01*
X004150Y035811D01*
X004105Y035759D01*
X004057Y035709D01*
X004006Y035662D01*
X003952Y035617D01*
X003897Y035576D01*
X003839Y035538D01*
X003779Y035503D01*
X003717Y035471D01*
X003654Y035443D01*
X003589Y035419D01*
X003523Y035398D01*
X003455Y035381D01*
X003387Y035367D01*
X003318Y035358D01*
X003249Y035352D01*
X003180Y035350D01*
X003111Y035352D01*
X003042Y035358D01*
X002973Y035367D01*
X002905Y035381D01*
X002837Y035398D01*
X002771Y035419D01*
X002706Y035443D01*
X002643Y035471D01*
X002581Y035503D01*
X002521Y035538D01*
X002463Y035576D01*
X002408Y035617D01*
X002354Y035662D01*
X002303Y035709D01*
X002255Y035759D01*
X002210Y035811D01*
X002168Y035867D01*
X002129Y035924D01*
X002093Y035983D01*
X002060Y036044D01*
X002031Y036107D01*
X002006Y036172D01*
X001984Y036238D01*
X001965Y036305D01*
X001951Y036373D01*
X001940Y036441D01*
X001933Y036510D01*
X001930Y036579D01*
X001931Y036649D01*
X001936Y036718D01*
X001944Y036787D01*
X001956Y036855D01*
X001972Y036923D01*
X001992Y036989D01*
X002016Y037055D01*
X002043Y037118D01*
X002073Y037181D01*
X002107Y037241D01*
X002144Y037300D01*
X002185Y037356D01*
X002228Y037410D01*
X002275Y037462D01*
X002324Y037511D01*
X002376Y037557D01*
X002430Y037600D01*
D14*
X005380Y036720D02*
X005980Y036720D01*
X005980Y036470D02*
X005380Y036470D01*
X005380Y031220D02*
X005980Y031220D01*
X005980Y030970D02*
X005380Y030970D01*
X002800Y026400D02*
X002800Y025800D01*
X002550Y025800D02*
X002550Y026400D01*
X005380Y025720D02*
X005980Y025720D01*
X005980Y025470D02*
X005380Y025470D01*
X005380Y020220D02*
X005980Y020220D01*
X005980Y019970D02*
X005380Y019970D01*
X005380Y014720D02*
X005980Y014720D01*
X005980Y014470D02*
X005380Y014470D01*
X005380Y009220D02*
X005980Y009220D01*
X005980Y008970D02*
X005380Y008970D01*
X018880Y008970D02*
X019480Y008970D01*
X019480Y009220D02*
X018880Y009220D01*
X018880Y014470D02*
X019480Y014470D01*
X019480Y014720D02*
X018880Y014720D01*
X018880Y019970D02*
X019480Y019970D01*
X019480Y020220D02*
X018880Y020220D01*
X018880Y025470D02*
X019480Y025470D01*
X019480Y025720D02*
X018880Y025720D01*
X018880Y030970D02*
X019480Y030970D01*
X019480Y031220D02*
X018880Y031220D01*
X018880Y036470D02*
X019480Y036470D01*
X019480Y036720D02*
X018880Y036720D01*
X032050Y039800D02*
X032050Y040400D01*
X032300Y040400D02*
X032300Y039800D01*
X037050Y039800D02*
X037050Y040400D01*
X037300Y040400D02*
X037300Y039800D01*
X042050Y039800D02*
X042050Y040400D01*
X042300Y040400D02*
X042300Y039800D01*
X047050Y039800D02*
X047050Y040400D01*
X047300Y040400D02*
X047300Y039800D01*
X052050Y039800D02*
X052050Y040400D01*
X052300Y040400D02*
X052300Y039800D01*
X057050Y039800D02*
X057050Y040400D01*
X057300Y040400D02*
X057300Y039800D01*
X067050Y039800D02*
X067050Y040400D01*
X067300Y040400D02*
X067300Y039800D01*
X072050Y039800D02*
X072050Y040400D01*
X072300Y040400D02*
X072300Y039800D01*
X077060Y039400D02*
X077060Y038800D01*
X077310Y038800D02*
X077310Y039400D01*
X067300Y030400D02*
X067300Y029800D01*
X067050Y029800D02*
X067050Y030400D01*
X072050Y028400D02*
X072050Y027800D01*
X072300Y027800D02*
X072300Y028400D01*
X077050Y028400D02*
X077050Y027800D01*
X077300Y027800D02*
X077300Y028400D01*
X070310Y017900D02*
X070310Y017300D01*
X070060Y017300D02*
X070060Y017900D01*
X072050Y016400D02*
X072050Y015800D01*
X072300Y015800D02*
X072300Y016400D01*
X077050Y016400D02*
X077050Y015800D01*
X077300Y015800D02*
X077300Y016400D01*
X048300Y016400D02*
X048300Y015800D01*
X048050Y015800D02*
X048050Y016400D01*
X045300Y018550D02*
X045300Y019150D01*
X045050Y019150D02*
X045050Y018550D01*
X035300Y016400D02*
X035300Y015800D01*
X035050Y015800D02*
X035050Y016400D01*
X034060Y025800D02*
X034060Y026400D01*
X033810Y026400D02*
X033810Y025800D01*
D15*
X003680Y028555D03*
X002680Y028555D03*
X002680Y031395D03*
X003680Y031395D03*
X074680Y037680D03*
X074680Y040520D03*
D16*
X076007Y004580D02*
X075853Y004504D01*
X075700Y004350D01*
X075930Y004350D01*
X076007Y004273D01*
X076007Y004197D01*
X075930Y004120D01*
X075777Y004120D01*
X075700Y004197D01*
X075700Y004350D01*
X076160Y004427D02*
X076314Y004580D01*
X076314Y004120D01*
X076467Y004120D02*
X076160Y004120D01*
X044507Y004120D02*
X044200Y004120D01*
X044353Y004120D02*
X044353Y004580D01*
X044200Y004427D01*
D17*
X044680Y004600D02*
X045180Y003600D01*
X045680Y004600D01*
X044680Y004600D01*
X044702Y004555D02*
X045658Y004555D01*
X045633Y004507D02*
X044727Y004507D01*
X044751Y004458D02*
X045609Y004458D01*
X045585Y004410D02*
X044775Y004410D01*
X044799Y004361D02*
X045561Y004361D01*
X045536Y004313D02*
X044824Y004313D01*
X044848Y004264D02*
X045512Y004264D01*
X045488Y004216D02*
X044872Y004216D01*
X044896Y004167D02*
X045464Y004167D01*
X045439Y004119D02*
X044921Y004119D01*
X044945Y004070D02*
X045415Y004070D01*
X045391Y004022D02*
X044969Y004022D01*
X044993Y003973D02*
X045367Y003973D01*
X045342Y003925D02*
X045018Y003925D01*
X045042Y003876D02*
X045318Y003876D01*
X045294Y003828D02*
X045066Y003828D01*
X045090Y003779D02*
X045270Y003779D01*
X045245Y003731D02*
X045115Y003731D01*
X045139Y003682D02*
X045221Y003682D01*
X045197Y003634D02*
X045163Y003634D01*
X061180Y013600D02*
X062180Y013600D01*
X062180Y015600D01*
X061180Y015600D01*
X061180Y013600D01*
X021180Y012725D02*
X021180Y011725D01*
X019180Y011725D01*
X019180Y012725D01*
X021180Y012725D01*
X015680Y013100D02*
X014680Y013100D01*
X014680Y016100D01*
X015680Y016100D01*
X015680Y013100D01*
X011680Y012350D02*
X011680Y011350D01*
X008680Y011350D01*
X008680Y012350D01*
X011680Y012350D01*
X014680Y031100D02*
X014680Y033100D01*
X015680Y033100D01*
X015680Y031100D01*
X014680Y031100D01*
X004225Y033700D02*
X004067Y033700D01*
X003293Y033700D02*
X003067Y033700D01*
X004005Y034250D02*
X004040Y034202D01*
X004073Y034152D01*
X004104Y034100D01*
X004131Y034046D01*
X004155Y033991D01*
X004175Y033934D01*
X004193Y033877D01*
X004207Y033819D01*
X004218Y033760D01*
X004225Y033700D01*
X004005Y034250D02*
X002355Y034250D01*
X002293Y033700D02*
X002135Y033700D01*
X002355Y034250D02*
X002318Y034199D01*
X002283Y034146D01*
X002251Y034090D01*
X002223Y034033D01*
X002199Y033974D01*
X002178Y033914D01*
X002161Y033853D01*
X002147Y033791D01*
X002138Y033728D01*
X002132Y033665D01*
X002130Y033601D01*
X002132Y033537D01*
X002138Y033474D01*
X002147Y033411D01*
X002160Y033349D01*
X002178Y033288D01*
X002198Y033228D01*
X002223Y033169D01*
X002250Y033112D01*
X002282Y033056D01*
X002316Y033003D01*
X002354Y032952D01*
X002395Y032903D01*
X002439Y032857D01*
X002485Y032813D01*
X002534Y032772D01*
X002585Y032735D01*
X002639Y032700D01*
X002694Y032669D01*
X002751Y032641D01*
X002810Y032617D01*
X002870Y032597D01*
X003490Y032597D02*
X003549Y032617D01*
X003606Y032640D01*
X003663Y032667D01*
X003717Y032698D01*
X003770Y032731D01*
X003820Y032768D01*
X003869Y032807D01*
X003914Y032850D01*
X003958Y032895D01*
X003998Y032942D01*
X004036Y032992D01*
X004071Y033044D01*
X004102Y033098D01*
X004130Y033153D01*
X004155Y033210D01*
X004176Y033269D01*
X004194Y033329D01*
X004209Y033390D01*
X004219Y033451D01*
X004226Y033513D01*
X004230Y033575D01*
X004229Y033638D01*
X004225Y033700D01*
D18*
X008760Y033850D03*
X011600Y033850D03*
X034760Y018850D03*
X037600Y018850D03*
X040260Y018850D03*
X043100Y018850D03*
X018100Y012225D03*
X015260Y012225D03*
M02*
